<svg xmlns="http://www.w3.org/2000/svg" xmlns:xlink="http://www.w3.org/1999/xlink" width="500" zoomAndPan="magnify" viewBox="0 0 375 374.999991" height="500" preserveAspectRatio="xMidYMid meet" version="1.0"><defs><clipPath id="a7ee2d6242"><path d="M 208 164 L 258 164 L 258 289.878906 L 208 289.878906 Z M 208 164 " clip-rule="nonzero"/></clipPath><clipPath id="2ccac4cc2c"><path d="M 117 137 L 209 137 L 209 289.878906 L 117 289.878906 Z M 117 137 " clip-rule="nonzero"/></clipPath><clipPath id="b288d00a2a"><path d="M 107 134 L 219 134 L 219 289.878906 L 107 289.878906 Z M 107 134 " clip-rule="nonzero"/></clipPath><clipPath id="192874e69d"><path d="M 105.601562 85.128906 L 269 85.128906 L 269 206 L 105.601562 206 Z M 105.601562 85.128906 " clip-rule="nonzero"/></clipPath><clipPath id="c400fa9e9a"><path d="M 105.601562 138 L 210 138 L 210 212 L 105.601562 212 Z M 105.601562 138 " clip-rule="nonzero"/></clipPath></defs><g clip-path="url(#a7ee2d6242)"><path fill="#c7d3d3" d="M 257.21875 164.980469 L 257.21875 258.621094 L 208.617188 289.820312 L 208.617188 196.179688 Z M 257.21875 164.980469 " fill-opacity="1" fill-rule="nonzero"/></g><g clip-path="url(#2ccac4cc2c)"><path fill="#becac9" d="M 117.484375 137.679688 L 117.484375 231.316406 L 208.617188 289.820312 L 208.617188 196.179688 Z M 117.484375 137.679688 " fill-opacity="1" fill-rule="nonzero"/></g><g clip-path="url(#b288d00a2a)"><path stroke-linecap="butt" transform="matrix(1.167173, 0, 0, 1.169332, 105.708799, 85.128225)" fill="none" stroke-linejoin="miter" d="M 15.808583 121.360636 L 15.808583 55.938651 L 82.449284 98.631307 L 82.449284 164.049951 Z M 15.808583 121.360636 " stroke="#a6adad" stroke-width="1" stroke-opacity="1" stroke-miterlimit="10"/></g><g clip-path="url(#192874e69d)"><path fill="#d4e2e3" d="M 105.707031 138.695312 L 165.457031 85.128906 L 268.996094 151.582031 L 209.25 205.148438 Z M 105.707031 138.695312 " fill-opacity="1" fill-rule="nonzero"/></g><path fill="#d8e9eb" d="M 268.996094 151.582031 L 268.996094 172.664062 L 209.25 211.707031 L 209.25 205.148438 Z M 268.996094 151.582031 " fill-opacity="1" fill-rule="nonzero"/><g clip-path="url(#c400fa9e9a)"><path fill="#c7d3d3" d="M 105.707031 138.695312 L 105.707031 145.253906 L 209.25 211.707031 L 209.25 205.148438 Z M 105.707031 138.695312 " fill-opacity="1" fill-rule="nonzero"/></g><path stroke-linecap="butt" transform="matrix(1.167173, 0, 0, 1.169332, 70.635235, 70.534968)" fill-opacity="1" fill="#ada79e" fill-rule="nonzero" stroke-linejoin="miter" d="M 91.940137 122.860136 L 62.41836 103.999202 C 59.238937 102.001533 56.658585 96.509614 56.658585 91.809414 C 56.658585 87.109213 59.238937 84.951196 62.41836 86.97893 L 91.940137 105.899994 C 95.109519 107.901004 97.689872 113.389582 97.689872 118.089783 C 97.689872 122.739875 95.109519 124.901232 91.940137 122.860136 Z M 91.940137 122.860136 " stroke="#d0cdc6" stroke-width="1" stroke-opacity="1" stroke-miterlimit="10"/><path fill="#efdd30" d="M 148.835938 219.800781 C 148.835938 222.347656 147.226562 223.390625 145.242188 222.140625 C 144.152344 221.3125 143.292969 220.292969 142.664062 219.078125 C 142.03125 217.863281 141.695312 216.574219 141.644531 215.203125 C 141.644531 212.65625 143.257812 211.613281 145.242188 212.867188 C 146.332031 213.691406 147.191406 214.710938 147.820312 215.925781 C 148.453125 217.140625 148.789062 218.433594 148.835938 219.800781 Z M 148.835938 219.800781 " fill-opacity="1" fill-rule="nonzero"/><path fill="#ec2c32" d="M 179.730469 239.609375 C 179.730469 242.15625 178.121094 243.1875 176.136719 241.949219 C 175.046875 241.121094 174.183594 240.101562 173.554688 238.886719 C 172.925781 237.671875 172.585938 236.382812 172.542969 235.011719 C 172.542969 232.464844 174.152344 231.433594 176.136719 232.675781 C 177.226562 233.5 178.085938 234.519531 178.714844 235.734375 C 179.347656 236.949219 179.683594 238.242188 179.730469 239.609375 Z M 179.730469 239.609375 " fill-opacity="1" fill-rule="nonzero"/><path fill="#3fa955" d="M 164.3125 229.703125 C 164.3125 232.253906 162.703125 233.28125 160.71875 232.042969 C 159.625 231.222656 158.761719 230.207031 158.128906 228.992188 C 157.496094 227.777344 157.15625 226.488281 157.109375 225.121094 C 157.109375 222.570312 158.722656 221.53125 160.71875 222.78125 C 161.804688 223.605469 162.664062 224.625 163.292969 225.835938 C 163.921875 227.050781 164.261719 228.339844 164.3125 229.703125 Z M 164.3125 229.703125 " fill-opacity="1" fill-rule="nonzero"/><path stroke-linecap="round" transform="matrix(1.167173, 0, 0, 1.169332, 105.708799, 85.128225)" fill="none" stroke-linejoin="miter" d="M 97.308902 113.199591 L 122.339326 96.870819 " stroke="#a6adad" stroke-width="1" stroke-opacity="1" stroke-miterlimit="10"/><path stroke-linecap="round" transform="matrix(1.167173, 0, 0, 1.169332, 105.708799, 85.128225)" fill="none" stroke-linejoin="miter" d="M 97.308902 124.350458 L 122.339326 108.018346 " stroke="#a6adad" stroke-width="1" stroke-opacity="1" stroke-miterlimit="10"/><path stroke-linecap="round" transform="matrix(1.167173, 0, 0, 1.169332, 105.708799, 85.128225)" fill="none" stroke-linejoin="miter" d="M 97.308902 135.511347 L 122.339326 119.179235 " stroke="#a6adad" stroke-width="1" stroke-opacity="1" stroke-miterlimit="10"/><path stroke-linecap="round" transform="matrix(1.167173, 0, 0, 1.169332, 105.708799, 85.128225)" fill="none" stroke-linejoin="miter" d="M 97.308902 146.658874 L 122.339326 130.330102 " stroke="#a6adad" stroke-width="1" stroke-opacity="1" stroke-miterlimit="10"/><path stroke-linecap="round" transform="matrix(1.167173, 0, 0, 1.169332, 105.708799, 85.128225)" fill="none" stroke-linejoin="miter" d="M 97.308902 157.809741 L 122.339326 141.490991 " stroke="#a6adad" stroke-width="1" stroke-opacity="1" stroke-miterlimit="10"/></svg>