<svg xmlns="http://www.w3.org/2000/svg" xmlns:xlink="http://www.w3.org/1999/xlink" width="500" zoomAndPan="magnify" viewBox="0 0 375 374.999991" height="500" preserveAspectRatio="xMidYMid meet" version="1.0"><defs><clipPath id="6c9589acc8"><path d="M 37.5 141 L 58 141 L 58 152 L 37.5 152 Z M 37.5 141 " clip-rule="nonzero"/></clipPath></defs><path fill="#90aacc" d="M 250.199219 333.804688 C 248.796875 333.808594 247.402344 333.722656 246.011719 333.550781 C 244.617188 333.378906 243.242188 333.121094 241.886719 332.777344 C 240.527344 332.429688 239.195312 332 237.890625 331.488281 C 236.585938 330.976562 235.316406 330.382812 234.085938 329.710938 C 232.859375 329.039062 231.675781 328.292969 230.539062 327.472656 C 229.402344 326.652344 228.320312 325.765625 227.296875 324.808594 C 226.269531 323.851562 225.308594 322.835938 224.414062 321.757812 C 223.515625 320.683594 222.6875 319.554688 221.933594 318.371094 C 221.675781 317.972656 221.398438 317.59375 221.09375 317.230469 C 220.789062 316.863281 220.464844 316.523438 220.117188 316.199219 C 219.769531 315.875 219.40625 315.578125 219.019531 315.300781 C 218.636719 315.023438 218.238281 314.769531 217.820312 314.542969 C 217.40625 314.316406 216.976562 314.117188 216.535156 313.941406 C 216.09375 313.769531 215.644531 313.625 215.1875 313.507812 C 214.726562 313.390625 214.261719 313.300781 213.792969 313.242188 C 213.324219 313.183594 212.851562 313.152344 212.375 313.152344 C 211.902344 313.152344 211.429688 313.183594 210.960938 313.242188 C 210.492188 313.300781 210.027344 313.390625 209.566406 313.507812 C 209.109375 313.625 208.660156 313.769531 208.21875 313.941406 C 207.777344 314.117188 207.347656 314.316406 206.933594 314.542969 C 206.515625 314.769531 206.117188 315.023438 205.730469 315.300781 C 205.347656 315.578125 204.984375 315.875 204.636719 316.199219 C 204.289062 316.523438 203.964844 316.863281 203.660156 317.230469 C 203.355469 317.59375 203.078125 317.972656 202.820312 318.371094 C 201.84375 319.886719 200.753906 321.316406 199.550781 322.660156 C 198.34375 324 197.039062 325.234375 195.636719 326.367188 C 194.230469 327.496094 192.746094 328.507812 191.179688 329.402344 C 189.613281 330.292969 187.984375 331.054688 186.292969 331.683594 C 184.605469 332.3125 182.875 332.804688 181.105469 333.15625 C 179.339844 333.507812 177.554688 333.714844 175.75 333.78125 C 173.949219 333.84375 172.152344 333.765625 170.363281 333.539062 C 168.574219 333.3125 166.816406 332.949219 165.085938 332.441406 C 163.355469 331.933594 161.679688 331.289062 160.050781 330.511719 C 158.425781 329.734375 156.871094 328.828125 155.390625 327.800781 C 153.910156 326.773438 152.519531 325.632812 151.222656 324.382812 C 149.925781 323.128906 148.734375 321.78125 147.652344 320.339844 C 146.574219 318.894531 145.613281 317.375 144.777344 315.777344 C 143.941406 314.179688 143.238281 312.523438 142.671875 310.816406 C 142.101562 309.105469 141.671875 307.359375 141.382812 305.578125 C 141.09375 303.800781 140.949219 302.007812 140.949219 300.203125 L 140.949219 274.691406 L 150.800781 274.691406 L 150.800781 300.203125 C 150.800781 301.480469 150.902344 302.746094 151.105469 304.003906 C 151.308594 305.261719 151.613281 306.496094 152.015625 307.703125 C 152.417969 308.914062 152.914062 310.082031 153.503906 311.210938 C 154.097656 312.34375 154.773438 313.417969 155.539062 314.4375 C 156.300781 315.457031 157.140625 316.410156 158.058594 317.296875 C 158.976562 318.179688 159.957031 318.984375 161.003906 319.714844 C 162.050781 320.441406 163.152344 321.078125 164.300781 321.628906 C 165.449219 322.179688 166.636719 322.632812 167.859375 322.992188 C 169.082031 323.351562 170.328125 323.609375 171.589844 323.769531 C 172.855469 323.925781 174.125 323.984375 175.398438 323.9375 C 176.671875 323.894531 177.933594 323.746094 179.183594 323.496094 C 180.433594 323.246094 181.65625 322.902344 182.851562 322.457031 C 184.042969 322.011719 185.195312 321.472656 186.304688 320.839844 C 187.410156 320.210938 188.460938 319.496094 189.453125 318.695312 C 190.445312 317.894531 191.367188 317.019531 192.21875 316.074219 C 193.070312 315.125 193.839844 314.113281 194.53125 313.042969 C 194.769531 312.671875 195.019531 312.304688 195.28125 311.949219 C 195.542969 311.59375 195.816406 311.246094 196.097656 310.90625 C 196.382812 310.570312 196.675781 310.238281 196.980469 309.917969 C 197.285156 309.597656 197.597656 309.289062 197.921875 308.988281 C 198.246094 308.683594 198.578125 308.394531 198.917969 308.113281 C 199.261719 307.835938 199.609375 307.566406 199.96875 307.308594 C 200.328125 307.046875 200.695312 306.800781 201.066406 306.566406 C 201.441406 306.332031 201.824219 306.105469 202.210938 305.894531 C 202.597656 305.683594 202.992188 305.484375 203.394531 305.296875 C 203.792969 305.109375 204.199219 304.9375 204.609375 304.773438 C 205.023438 304.613281 205.4375 304.464844 205.859375 304.328125 C 206.277344 304.191406 206.703125 304.070312 207.132812 303.960938 C 207.558594 303.851562 207.992188 303.753906 208.425781 303.671875 C 208.859375 303.589844 209.292969 303.523438 209.734375 303.46875 C 210.171875 303.414062 210.613281 303.371094 211.050781 303.34375 C 211.492188 303.316406 211.933594 303.300781 212.375 303.300781 C 212.820312 303.300781 213.261719 303.316406 213.699219 303.34375 C 214.140625 303.371094 214.582031 303.414062 215.019531 303.46875 C 215.457031 303.523438 215.894531 303.589844 216.328125 303.671875 C 216.761719 303.753906 217.195312 303.851562 217.621094 303.960938 C 218.050781 304.070312 218.476562 304.191406 218.894531 304.328125 C 219.316406 304.464844 219.730469 304.613281 220.144531 304.773438 C 220.554688 304.9375 220.960938 305.109375 221.359375 305.296875 C 221.761719 305.484375 222.15625 305.683594 222.542969 305.894531 C 222.929688 306.105469 223.3125 306.332031 223.683594 306.566406 C 224.058594 306.800781 224.425781 307.046875 224.785156 307.308594 C 225.140625 307.566406 225.492188 307.835938 225.835938 308.113281 C 226.175781 308.394531 226.507812 308.683594 226.832031 308.988281 C 227.15625 309.289062 227.46875 309.597656 227.773438 309.917969 C 228.078125 310.238281 228.371094 310.570312 228.65625 310.90625 C 228.9375 311.246094 229.210938 311.59375 229.472656 311.949219 C 229.734375 312.304688 229.984375 312.671875 230.222656 313.042969 C 230.914062 314.113281 231.683594 315.125 232.535156 316.074219 C 233.386719 317.019531 234.308594 317.894531 235.300781 318.695312 C 236.292969 319.496094 237.34375 320.210938 238.449219 320.839844 C 239.558594 321.472656 240.707031 322.011719 241.902344 322.457031 C 243.097656 322.902344 244.320312 323.246094 245.570312 323.496094 C 246.820312 323.746094 248.082031 323.894531 249.355469 323.9375 C 250.628906 323.984375 251.898438 323.925781 253.164062 323.769531 C 254.425781 323.609375 255.671875 323.351562 256.894531 322.992188 C 258.117188 322.632812 259.304688 322.179688 260.453125 321.628906 C 261.601562 321.078125 262.699219 320.441406 263.75 319.714844 C 264.796875 318.984375 265.777344 318.179688 266.695312 317.296875 C 267.613281 316.410156 268.453125 315.457031 269.214844 314.4375 C 269.980469 313.417969 270.65625 312.34375 271.246094 311.210938 C 271.839844 310.082031 272.335938 308.914062 272.738281 307.703125 C 273.140625 306.496094 273.445312 305.261719 273.648438 304.003906 C 273.851562 302.746094 273.953125 301.480469 273.953125 300.203125 L 273.953125 294.398438 L 283.804688 294.398438 L 283.804688 300.203125 C 283.804688 301.304688 283.75 302.402344 283.640625 303.496094 C 283.53125 304.589844 283.367188 305.679688 283.152344 306.757812 C 282.9375 307.835938 282.667969 308.902344 282.347656 309.953125 C 282.027344 311.007812 281.660156 312.042969 281.238281 313.058594 C 280.816406 314.074219 280.34375 315.066406 279.824219 316.039062 C 279.304688 317.007812 278.742188 317.949219 278.128906 318.863281 C 277.519531 319.777344 276.863281 320.660156 276.164062 321.511719 C 275.464844 322.363281 274.730469 323.175781 273.949219 323.953125 C 273.171875 324.730469 272.359375 325.46875 271.507812 326.167969 C 270.65625 326.867188 269.773438 327.519531 268.859375 328.132812 C 267.945312 328.742188 267.003906 329.308594 266.03125 329.828125 C 265.0625 330.347656 264.070312 330.816406 263.054688 331.238281 C 262.039062 331.660156 261.003906 332.03125 259.949219 332.351562 C 258.898438 332.671875 257.832031 332.9375 256.753906 333.152344 C 255.671875 333.371094 254.585938 333.53125 253.492188 333.640625 C 252.398438 333.75 251.300781 333.804688 250.199219 333.804688 Z M 250.199219 333.804688 " fill-opacity="1" fill-rule="nonzero"/><path fill="#ffcb52" d="M 180.355469 240.210938 L 180.355469 264.839844 C 180.355469 265.164062 180.324219 265.484375 180.261719 265.800781 C 180.199219 266.117188 180.105469 266.425781 179.980469 266.726562 C 179.859375 267.023438 179.707031 267.308594 179.527344 267.578125 C 179.347656 267.84375 179.144531 268.09375 178.914062 268.324219 C 178.6875 268.550781 178.4375 268.757812 178.167969 268.9375 C 177.898438 269.117188 177.613281 269.265625 177.316406 269.390625 C 177.015625 269.515625 176.710938 269.609375 176.390625 269.671875 C 176.074219 269.734375 175.753906 269.765625 175.429688 269.765625 L 160.652344 269.765625 C 160.652344 270.738281 160.558594 271.699219 160.367188 272.648438 C 160.179688 273.601562 159.898438 274.523438 159.527344 275.421875 C 159.15625 276.316406 158.703125 277.167969 158.160156 277.976562 C 157.621094 278.78125 157.011719 279.53125 156.324219 280.214844 C 155.636719 280.902344 154.890625 281.515625 154.085938 282.054688 C 153.277344 282.59375 152.425781 283.046875 151.53125 283.417969 C 150.632812 283.789062 149.710938 284.070312 148.757812 284.261719 C 147.804688 284.449219 146.84375 284.542969 145.875 284.542969 C 144.902344 284.542969 143.941406 284.449219 142.992188 284.261719 C 142.039062 284.070312 141.117188 283.789062 140.21875 283.417969 C 139.324219 283.046875 138.472656 282.59375 137.664062 282.054688 C 136.855469 281.515625 136.109375 280.902344 135.425781 280.214844 C 134.738281 279.53125 134.125 278.78125 133.585938 277.976562 C 133.046875 277.167969 132.59375 276.316406 132.222656 275.421875 C 131.851562 274.523438 131.570312 273.601562 131.378906 272.648438 C 131.191406 271.699219 131.097656 270.738281 131.097656 269.765625 L 116.316406 269.765625 C 115.996094 269.765625 115.675781 269.734375 115.355469 269.671875 C 115.039062 269.609375 114.730469 269.515625 114.433594 269.390625 C 114.132812 269.265625 113.851562 269.117188 113.582031 268.9375 C 113.3125 268.757812 113.0625 268.550781 112.835938 268.324219 C 112.605469 268.09375 112.402344 267.84375 112.222656 267.578125 C 112.042969 267.308594 111.890625 267.023438 111.765625 266.726562 C 111.644531 266.425781 111.550781 266.117188 111.484375 265.800781 C 111.421875 265.484375 111.390625 265.164062 111.390625 264.839844 L 111.390625 240.210938 L 116.316406 240.210938 C 116.371094 236.15625 116.019531 232.136719 115.261719 228.152344 C 114.5 224.171875 113.351562 220.304688 111.808594 216.554688 C 110.265625 212.804688 108.359375 209.25 106.097656 205.886719 C 103.832031 202.523438 101.253906 199.421875 98.363281 196.578125 C 97.535156 195.792969 96.730469 194.988281 95.945312 194.164062 C 95.160156 193.339844 94.394531 192.496094 93.648438 191.632812 C 92.90625 190.769531 92.183594 189.890625 91.484375 188.992188 C 90.78125 188.09375 90.105469 187.175781 89.449219 186.246094 C 88.792969 185.3125 88.164062 184.363281 87.554688 183.402344 C 86.945312 182.4375 86.363281 181.460938 85.804688 180.46875 C 85.242188 179.476562 84.707031 178.46875 84.199219 177.449219 C 83.6875 176.433594 83.203125 175.402344 82.746094 174.359375 C 82.289062 173.316406 81.855469 172.261719 81.449219 171.199219 C 81.042969 170.132812 80.660156 169.058594 80.308594 167.976562 C 79.957031 166.894531 79.628906 165.800781 79.328125 164.703125 C 79.03125 163.601562 78.757812 162.496094 78.515625 161.382812 C 78.269531 160.273438 78.054688 159.152344 77.863281 158.03125 C 77.675781 156.90625 77.515625 155.777344 77.382812 154.648438 C 77.25 153.515625 77.144531 152.382812 77.066406 151.246094 C 76.988281 150.109375 76.941406 148.96875 76.921875 147.832031 C 76.898438 146.691406 76.90625 145.554688 76.945312 144.414062 C 76.980469 143.277344 77.042969 142.140625 77.136719 141.003906 C 77.226562 139.867188 77.347656 138.734375 77.496094 137.605469 C 77.644531 136.476562 77.820312 135.351562 78.027344 134.230469 C 78.230469 133.109375 78.460938 131.992188 78.722656 130.882812 C 78.980469 129.773438 79.269531 128.671875 79.582031 127.578125 C 79.894531 126.484375 80.238281 125.394531 80.605469 124.316406 C 80.972656 123.238281 81.367188 122.171875 81.789062 121.113281 C 82.210938 120.054688 82.65625 119.007812 83.128906 117.96875 C 83.601562 116.933594 84.101562 115.910156 84.625 114.898438 C 85.148438 113.886719 85.695312 112.886719 86.269531 111.902344 C 86.839844 110.917969 87.4375 109.949219 88.058594 108.992188 C 88.679688 108.039062 89.324219 107.097656 89.992188 106.175781 C 90.660156 105.25 91.351562 104.347656 92.0625 103.457031 C 92.777344 102.566406 93.511719 101.695312 94.265625 100.84375 C 95.023438 99.992188 95.796875 99.160156 96.59375 98.34375 C 97.390625 97.53125 98.207031 96.738281 99.046875 95.960938 C 99.882812 95.1875 100.738281 94.4375 101.609375 93.707031 C 102.484375 92.972656 103.375 92.265625 104.285156 91.578125 C 105.191406 90.890625 106.117188 90.226562 107.058594 89.585938 C 108 88.945312 108.957031 88.328125 109.929688 87.734375 C 110.902344 87.140625 111.890625 86.570312 112.890625 86.023438 C 113.890625 85.480469 114.902344 84.960938 115.929688 84.464844 C 116.957031 83.972656 117.996094 83.503906 119.042969 83.058594 C 120.09375 82.617188 121.152344 82.199219 122.222656 81.808594 C 123.292969 81.417969 124.371094 81.054688 125.460938 80.714844 C 126.550781 80.378906 127.644531 80.070312 128.75 79.785156 C 129.851562 79.503906 130.960938 79.246094 132.078125 79.019531 C 133.195312 78.792969 134.316406 78.589844 135.441406 78.417969 C 136.570312 78.246094 137.699219 78.101562 138.832031 77.984375 C 139.964844 77.871094 141.101562 77.78125 142.238281 77.722656 C 143.375 77.660156 144.515625 77.628906 145.652344 77.625 C 146.792969 77.621094 147.933594 77.648438 149.070312 77.699219 C 150.207031 77.753906 151.34375 77.832031 152.476562 77.941406 C 153.613281 78.050781 154.742188 78.1875 155.871094 78.355469 C 156.996094 78.519531 158.121094 78.710938 159.238281 78.933594 C 160.355469 79.152344 161.46875 79.402344 162.574219 79.675781 C 163.679688 79.953125 164.777344 80.257812 165.867188 80.585938 C 166.957031 80.917969 168.039062 81.273438 169.109375 81.65625 C 170.183594 82.042969 171.246094 82.453125 172.296875 82.886719 C 173.351562 83.324219 174.390625 83.785156 175.421875 84.273438 C 176.449219 84.761719 177.46875 85.277344 178.472656 85.816406 C 179.476562 86.351562 180.464844 86.917969 181.441406 87.503906 C 182.417969 88.089844 183.378906 88.703125 184.324219 89.339844 C 185.269531 89.972656 186.199219 90.632812 187.113281 91.3125 C 188.027344 91.992188 188.921875 92.699219 189.800781 93.421875 C 190.679688 94.148438 191.539062 94.894531 192.378906 95.664062 C 193.222656 96.433594 194.042969 97.222656 194.84375 98.03125 C 195.648438 98.839844 196.429688 99.667969 197.191406 100.515625 C 197.949219 101.363281 198.691406 102.230469 199.410156 103.113281 C 200.128906 103.996094 200.824219 104.898438 201.496094 105.816406 C 202.171875 106.738281 202.820312 107.671875 203.449219 108.621094 C 204.074219 109.574219 204.679688 110.539062 205.257812 111.519531 C 205.835938 112.5 206.390625 113.496094 206.921875 114.503906 C 207.453125 115.511719 207.957031 116.535156 208.4375 117.566406 C 208.914062 118.601562 209.367188 119.644531 209.796875 120.703125 C 210.222656 121.757812 210.625 122.824219 211 123.898438 C 211.375 124.976562 211.722656 126.058594 212.042969 127.152344 C 212.367188 128.246094 212.660156 129.347656 212.925781 130.453125 C 213.191406 131.5625 213.429688 132.675781 213.644531 133.796875 C 213.855469 134.914062 214.039062 136.039062 214.195312 137.167969 C 214.347656 138.296875 214.476562 139.429688 214.578125 140.5625 C 214.675781 141.699219 214.746094 142.835938 214.789062 143.972656 C 214.832031 145.113281 214.847656 146.25 214.835938 147.390625 C 214.824219 148.527344 214.78125 149.667969 214.710938 150.804688 C 214.640625 151.941406 214.542969 153.078125 214.417969 154.207031 C 214.292969 155.339844 214.140625 156.46875 213.957031 157.59375 C 213.773438 158.71875 213.566406 159.839844 213.328125 160.953125 C 213.089844 162.066406 212.828125 163.175781 212.535156 164.277344 C 212.242188 165.378906 211.921875 166.46875 211.578125 167.554688 C 211.230469 168.640625 210.855469 169.71875 210.457031 170.785156 C 210.058594 171.851562 209.632812 172.90625 209.179688 173.953125 C 208.726562 175 208.25 176.03125 207.746094 177.054688 C 207.242188 178.078125 206.714844 179.085938 206.164062 180.082031 C 205.609375 181.078125 205.03125 182.058594 204.429688 183.027344 C 203.828125 183.996094 203.203125 184.945312 202.554688 185.882812 C 201.902344 186.820312 201.230469 187.738281 200.539062 188.640625 C 199.84375 189.542969 199.125 190.429688 198.386719 191.296875 C 197.648438 192.164062 196.890625 193.011719 196.109375 193.84375 C 195.328125 194.671875 194.527344 195.484375 193.707031 196.273438 C 190.785156 199.132812 188.179688 202.257812 185.890625 205.640625 C 183.597656 209.027344 181.667969 212.605469 180.097656 216.382812 C 178.527344 220.15625 177.351562 224.046875 176.5625 228.058594 C 175.777344 232.070312 175.402344 236.121094 175.429688 240.210938 Z M 180.355469 240.210938 " fill-opacity="1" fill-rule="nonzero"/><path fill="#ffe66d" d="M 166.25 230.355469 C 166.761719 226.472656 167.59375 222.65625 168.742188 218.910156 C 169.890625 215.164062 171.34375 211.539062 173.097656 208.035156 C 174.855469 204.53125 176.886719 201.199219 179.199219 198.035156 C 181.507812 194.867188 184.066406 191.917969 186.871094 189.179688 C 187.945312 188.144531 188.976562 187.070312 189.972656 185.957031 C 190.964844 184.839844 191.914062 183.691406 192.820312 182.507812 C 193.726562 181.320312 194.585938 180.101562 195.398438 178.851562 C 196.214844 177.601562 196.980469 176.320312 197.695312 175.011719 C 198.414062 173.703125 199.078125 172.367188 199.695312 171.007812 C 200.3125 169.648438 200.875 168.269531 201.386719 166.867188 C 201.898438 165.464844 202.355469 164.046875 202.757812 162.609375 C 203.164062 161.171875 203.511719 159.722656 203.804688 158.257812 C 204.097656 156.796875 204.335938 155.324219 204.519531 153.84375 C 204.703125 152.359375 204.828125 150.875 204.898438 149.382812 C 204.96875 147.894531 204.980469 146.402344 204.9375 144.910156 C 204.894531 143.417969 204.796875 141.929688 204.640625 140.445312 C 204.484375 138.960938 204.273438 137.484375 204.003906 136.019531 C 203.738281 134.550781 203.414062 133.09375 203.039062 131.648438 C 202.660156 130.207031 202.226562 128.777344 201.742188 127.367188 C 201.257812 125.957031 200.71875 124.566406 200.125 123.195312 C 199.535156 121.824219 198.894531 120.480469 198.199219 119.15625 C 197.507812 117.835938 196.765625 116.542969 195.972656 115.277344 C 195.183594 114.011719 194.34375 112.777344 193.460938 111.578125 C 192.574219 110.375 191.644531 109.207031 190.671875 108.078125 C 189.699219 106.945312 188.6875 105.851562 187.628906 104.796875 C 186.574219 103.742188 185.480469 102.726562 184.347656 101.757812 C 183.214844 100.785156 182.046875 99.855469 180.84375 98.972656 C 179.640625 98.089844 178.40625 97.253906 177.140625 96.464844 C 175.875 95.671875 174.582031 94.933594 173.257812 94.238281 C 171.9375 93.546875 170.589844 92.90625 169.21875 92.316406 C 167.847656 91.726562 166.457031 91.191406 165.046875 90.707031 C 163.636719 90.21875 162.207031 89.789062 160.761719 89.414062 C 159.320312 89.035156 157.863281 88.714844 156.394531 88.449219 C 154.925781 88.183594 153.449219 87.972656 151.964844 87.820312 C 150.480469 87.664062 148.992188 87.566406 147.5 87.523438 C 146.007812 87.484375 144.519531 87.496094 143.027344 87.570312 C 141.273438 87.671875 139.53125 87.855469 137.792969 88.113281 C 136.058594 88.371094 134.335938 88.703125 132.628906 89.113281 C 130.921875 89.523438 129.234375 90.007812 127.570312 90.566406 C 125.90625 91.121094 124.269531 91.75 122.660156 92.453125 C 121.050781 93.15625 119.476562 93.925781 117.933594 94.765625 C 116.394531 95.605469 114.890625 96.511719 113.429688 97.484375 C 111.96875 98.453125 110.550781 99.488281 109.179688 100.585938 C 107.808594 101.679688 106.488281 102.835938 105.21875 104.046875 C 103.949219 105.261719 102.734375 106.527344 101.578125 107.84375 C 100.417969 109.164062 99.320312 110.53125 98.285156 111.949219 C 97.246094 113.363281 96.269531 114.820312 95.359375 116.324219 C 94.453125 117.824219 93.609375 119.363281 92.835938 120.9375 C 92.058594 122.511719 91.355469 124.117188 90.722656 125.753906 C 90.089844 127.394531 89.527344 129.054688 89.039062 130.742188 C 88.550781 132.425781 88.140625 134.132812 87.800781 135.855469 C 87.464844 137.578125 87.203125 139.3125 87.015625 141.058594 C 86.804688 143.277344 86.722656 145.503906 86.761719 147.734375 C 86.804688 149.964844 86.972656 152.183594 87.265625 154.394531 C 87.558594 156.605469 87.976562 158.792969 88.515625 160.957031 C 89.058594 163.121094 89.722656 165.246094 90.503906 167.335938 C 91.285156 169.425781 92.183594 171.460938 93.199219 173.449219 C 94.210938 175.4375 95.335938 177.359375 96.566406 179.21875 C 97.800781 181.078125 99.132812 182.863281 100.566406 184.570312 C 102 186.277344 103.527344 187.902344 105.144531 189.4375 C 107.9375 192.148438 110.480469 195.078125 112.773438 198.21875 C 115.070312 201.363281 117.085938 204.675781 118.820312 208.160156 C 120.554688 211.644531 121.980469 215.25 123.105469 218.976562 C 124.230469 222.703125 125.03125 226.496094 125.515625 230.355469 Z M 166.25 230.355469 " fill-opacity="1" fill-rule="nonzero"/><path fill="#7083a6" d="M 175.429688 269.765625 L 160.652344 269.765625 C 160.652344 270.738281 160.558594 271.699219 160.367188 272.648438 C 160.179688 273.601562 159.898438 274.523438 159.527344 275.421875 C 159.15625 276.316406 158.703125 277.167969 158.160156 277.976562 C 157.621094 278.78125 157.011719 279.53125 156.324219 280.214844 C 155.636719 280.902344 154.890625 281.515625 154.085938 282.054688 C 153.277344 282.59375 152.425781 283.046875 151.53125 283.417969 C 150.632812 283.789062 149.710938 284.070312 148.757812 284.261719 C 147.804688 284.449219 146.84375 284.542969 145.875 284.542969 C 144.902344 284.542969 143.941406 284.449219 142.992188 284.261719 C 142.039062 284.070312 141.117188 283.789062 140.21875 283.417969 C 139.324219 283.046875 138.472656 282.59375 137.664062 282.054688 C 136.855469 281.515625 136.109375 280.902344 135.425781 280.214844 C 134.738281 279.53125 134.125 278.78125 133.585938 277.976562 C 133.046875 277.167969 132.59375 276.316406 132.222656 275.421875 C 131.851562 274.523438 131.570312 273.601562 131.378906 272.648438 C 131.191406 271.699219 131.097656 270.738281 131.097656 269.765625 L 116.316406 269.765625 C 115.996094 269.765625 115.675781 269.734375 115.355469 269.671875 C 115.039062 269.609375 114.730469 269.515625 114.433594 269.390625 C 114.132812 269.265625 113.851562 269.117188 113.582031 268.9375 C 113.3125 268.757812 113.0625 268.550781 112.835938 268.324219 C 112.605469 268.09375 112.402344 267.84375 112.222656 267.578125 C 112.042969 267.308594 111.890625 267.023438 111.765625 266.726562 C 111.644531 266.425781 111.550781 266.117188 111.484375 265.800781 C 111.421875 265.484375 111.390625 265.164062 111.390625 264.839844 L 111.390625 240.210938 L 180.355469 240.210938 L 180.355469 264.839844 C 180.355469 265.164062 180.324219 265.484375 180.261719 265.800781 C 180.199219 266.117188 180.105469 266.425781 179.980469 266.726562 C 179.859375 267.023438 179.707031 267.308594 179.527344 267.578125 C 179.347656 267.84375 179.144531 268.09375 178.914062 268.324219 C 178.6875 268.550781 178.4375 268.757812 178.167969 268.9375 C 177.898438 269.117188 177.613281 269.265625 177.316406 269.390625 C 177.015625 269.515625 176.710938 269.609375 176.390625 269.671875 C 176.074219 269.734375 175.753906 269.765625 175.429688 269.765625 Z M 175.429688 269.765625 " fill-opacity="1" fill-rule="nonzero"/><path fill="#7cb2f8" d="M 140.949219 38.238281 L 150.800781 38.238281 L 150.800781 57.941406 L 140.949219 57.941406 Z M 140.949219 38.238281 " fill-opacity="1" fill-rule="nonzero"/><path fill="#7cb2f8" d="M 205.089844 80.429688 L 219.023438 66.5 L 225.988281 73.464844 L 212.054688 87.398438 Z M 205.089844 80.429688 " fill-opacity="1" fill-rule="nonzero"/><path fill="#7cb2f8" d="M 65.761719 73.464844 L 72.730469 66.5 L 86.660156 80.4375 L 79.691406 87.402344 Z M 65.761719 73.464844 " fill-opacity="1" fill-rule="nonzero"/><path fill="#7cb2f8" d="M 234.542969 141.6875 L 254.25 141.6875 L 254.25 151.539062 L 234.542969 151.539062 Z M 234.542969 141.6875 " fill-opacity="1" fill-rule="nonzero"/><g clip-path="url(#6c9589acc8)"><path fill="#7cb2f8" d="M 37.5 141.6875 L 57.203125 141.6875 L 57.203125 151.539062 L 37.5 151.539062 Z M 37.5 141.6875 " fill-opacity="1" fill-rule="nonzero"/></g><path fill="#7cb2f8" d="M 205.089844 212.792969 L 212.058594 205.828125 L 225.988281 219.761719 L 219.019531 226.730469 Z M 205.089844 212.792969 " fill-opacity="1" fill-rule="nonzero"/><path fill="#7cb2f8" d="M 65.757812 219.761719 L 79.691406 205.828125 L 86.660156 212.796875 L 72.726562 226.726562 Z M 65.757812 219.761719 " fill-opacity="1" fill-rule="nonzero"/><path fill="#d9777a" d="M 175.429688 147.511719 L 154.589844 143.480469 L 167.097656 107.203125 L 121.242188 159.597656 L 142.085938 163.632812 L 129.578125 195.875 Z M 175.429688 147.511719 " fill-opacity="1" fill-rule="nonzero"/><path fill="#92e016" d="M 289.316406 297.234375 C 289.332031 299.476562 289.230469 301.710938 289.011719 303.941406 C 286.746094 304.160156 284.472656 304.261719 282.195312 304.25 C 273.652344 304.199219 258.855469 302.625 249.445312 293.171875 C 235.5625 279.296875 238.664062 253.632812 238.664062 253.632812 C 238.664062 253.632812 264.277344 250.535156 278.230469 264.46875 C 287.6875 273.910156 289.269531 288.75 289.316406 297.234375 Z M 289.316406 297.234375 " fill-opacity="1" fill-rule="nonzero"/><path fill="#6fbd00" d="M 289.316406 297.234375 C 289.332031 299.476562 289.230469 301.710938 289.011719 303.941406 C 286.746094 304.160156 284.472656 304.261719 282.195312 304.25 C 278.4375 300.128906 274.804688 295.816406 271.214844 291.542969 C 266.175781 285.089844 261.089844 278.6875 256.617188 271.625 C 263.515625 276.144531 270.160156 281.003906 276.554688 286.210938 C 280.875 289.871094 285.199219 293.410156 289.316406 297.234375 Z M 289.316406 297.234375 " fill-opacity="1" fill-rule="nonzero"/><path fill="#5eb71b" d="M 321.511719 292.613281 C 310.179688 303.941406 291.296875 304.601562 281.332031 304.046875 C 279.117188 303.953125 276.914062 303.730469 274.722656 303.386719 C 274.722656 303.386719 274.3125 300.921875 274.0625 297.03125 C 273.5 287.179688 274.109375 268.066406 285.503906 256.683594 C 301.421875 240.828125 332.304688 245.910156 332.304688 245.910156 C 332.304688 245.910156 337.375 276.757812 321.511719 292.613281 Z M 321.511719 292.613281 " fill-opacity="1" fill-rule="nonzero"/><path fill="#3b9400" d="M 310.726562 267.558594 C 305.976562 274.699219 300.875 281.574219 295.421875 288.191406 C 290.84375 293.578125 286.367188 299.027344 281.332031 304.046875 C 279.117188 303.953125 276.914062 303.730469 274.722656 303.386719 C 274.722656 303.386719 274.3125 300.921875 274.0625 297.03125 C 279.144531 292.050781 284.589844 287.53125 290.082031 282.855469 C 296.789062 277.570312 303.40625 272.230469 310.726562 267.558594 Z M 310.726562 267.558594 " fill-opacity="1" fill-rule="nonzero"/></svg>