<svg xmlns="http://www.w3.org/2000/svg" xmlns:xlink="http://www.w3.org/1999/xlink" width="500" zoomAndPan="magnify" viewBox="0 0 375 374.999991" height="500" preserveAspectRatio="xMidYMid meet" version="1.0"><defs><clipPath id="1cdc6c117d"><path d="M 97.003906 85.640625 L 294.253906 85.640625 L 294.253906 282.890625 L 97.003906 282.890625 Z M 97.003906 85.640625 " clip-rule="nonzero"/></clipPath></defs><g clip-path="url(#1cdc6c117d)"><path fill="#ffffff" d="M 195.628906 98.902344 C 148.558594 98.902344 110.265625 137.195312 110.265625 184.265625 C 110.265625 231.335938 148.558594 269.628906 195.628906 269.628906 C 242.699219 269.628906 280.992188 231.335938 280.992188 184.265625 C 280.992188 137.195312 242.699219 98.902344 195.628906 98.902344 Z M 195.628906 282.890625 C 141.246094 282.890625 97.003906 238.648438 97.003906 184.265625 C 97.003906 129.882812 141.246094 85.640625 195.628906 85.640625 C 250.011719 85.640625 294.253906 129.882812 294.253906 184.265625 C 294.253906 238.648438 250.011719 282.890625 195.628906 282.890625 " fill-opacity="1" fill-rule="nonzero"/></g><path fill="#ffffff" d="M 195.628906 128.050781 C 184.734375 128.050781 176.320312 137.617188 177.707031 148.421875 L 184.046875 197.863281 C 184.796875 203.683594 189.757812 208.050781 195.628906 208.050781 C 201.5 208.050781 206.453125 203.683594 207.203125 197.863281 L 213.550781 148.421875 C 214.9375 137.617188 206.523438 128.050781 195.628906 128.050781 " fill-opacity="1" fill-rule="nonzero"/><path fill="#ffffff" d="M 207.519531 228.585938 C 207.519531 235.15625 202.195312 240.480469 195.628906 240.480469 C 189.0625 240.480469 183.738281 235.15625 183.738281 228.585938 C 183.738281 222.019531 189.0625 216.695312 195.628906 216.695312 C 202.195312 216.695312 207.519531 222.019531 207.519531 228.585938 " fill-opacity="1" fill-rule="nonzero"/></svg>