<svg xmlns="http://www.w3.org/2000/svg" xmlns:xlink="http://www.w3.org/1999/xlink" width="500" zoomAndPan="magnify" viewBox="0 0 375 374.999991" height="500" preserveAspectRatio="xMidYMid meet" version="1.0"><defs><clipPath id="1e12186de9"><path d="M 151 260 L 246 260 L 246 272.671875 L 151 272.671875 Z M 151 260 " clip-rule="nonzero"/></clipPath><clipPath id="ba6f09f05e"><path d="M 107.105469 102.421875 L 290 102.421875 L 290 210 L 107.105469 210 Z M 107.105469 102.421875 " clip-rule="nonzero"/></clipPath><clipPath id="547efd8143"><path d="M 107.105469 209 L 290 209 L 290 235 L 107.105469 235 Z M 107.105469 209 " clip-rule="nonzero"/></clipPath></defs><g clip-path="url(#1e12186de9)"><path fill="#e7eced" d="M 239.574219 272.671875 L 157.632812 272.671875 C 154.152344 272.671875 151.328125 269.851562 151.328125 266.367188 C 151.328125 262.882812 154.152344 260.0625 157.632812 260.0625 L 239.574219 260.0625 C 243.058594 260.0625 245.878906 262.882812 245.878906 266.367188 C 245.878906 269.851562 243.058594 272.671875 239.574219 272.671875 Z M 239.574219 272.671875 " fill-opacity="1" fill-rule="nonzero"/></g><path fill="#afb6bb" d="M 214.363281 231.6875 L 182.847656 231.6875 C 182.847656 245.628906 177.871094 260.0625 163.9375 260.0625 L 233.273438 260.0625 C 219.335938 260.0625 214.363281 245.628906 214.363281 231.6875 Z M 214.363281 231.6875 " fill-opacity="1" fill-rule="nonzero"/><g clip-path="url(#ba6f09f05e)"><path fill="#afb6bb" d="M 264.789062 102.421875 L 116.664062 102.421875 C 111.441406 102.421875 107.207031 106.660156 107.207031 111.882812 L 107.207031 209.617188 L 290 209.617188 L 290 111.882812 C 290 106.660156 285.765625 102.421875 280.542969 102.421875 Z M 264.789062 102.421875 " fill-opacity="1" fill-rule="nonzero"/></g><g clip-path="url(#547efd8143)"><path fill="#e7eced" d="M 280.542969 234.839844 L 116.664062 234.839844 C 111.441406 234.839844 107.207031 230.601562 107.207031 225.378906 L 107.207031 209.617188 L 290 209.617188 L 290 225.378906 C 290 230.601562 285.765625 234.839844 280.542969 234.839844 Z M 280.542969 234.839844 " fill-opacity="1" fill-rule="nonzero"/></g><path fill="#afb6bb" d="M 208.058594 225.382812 L 189.148438 225.382812 C 187.410156 225.382812 185.996094 223.96875 185.996094 222.226562 C 185.996094 220.488281 187.410156 219.074219 189.148438 219.074219 L 208.058594 219.074219 C 209.800781 219.074219 211.210938 220.488281 211.210938 222.226562 C 211.210938 223.96875 209.800781 225.382812 208.058594 225.382812 Z M 208.058594 225.382812 " fill-opacity="1" fill-rule="nonzero"/><path fill="#28384c" d="M 119.8125 115.035156 L 277.394531 115.035156 L 277.394531 209.617188 L 119.8125 209.617188 Z M 119.8125 115.035156 " fill-opacity="1" fill-rule="nonzero"/><path fill="#25ae88" d="M 170.238281 181.242188 C 165.015625 181.242188 160.289062 179.125 156.867188 175.703125 L 145.722656 186.851562 C 152 193.125 160.664062 197.007812 170.238281 197.007812 C 179.8125 197.007812 188.480469 193.125 194.753906 186.847656 L 183.609375 175.699219 C 180.1875 179.125 175.460938 181.242188 170.238281 181.242188 Z M 170.238281 181.242188 " fill-opacity="1" fill-rule="nonzero"/><path fill="#ebba16" d="M 170.238281 127.644531 L 170.238281 143.410156 C 180.683594 143.410156 189.148438 151.878906 189.148438 162.324219 C 189.148438 167.550781 187.03125 172.277344 183.613281 175.703125 L 194.757812 186.851562 C 201.027344 180.574219 204.90625 171.902344 204.90625 162.324219 C 204.90625 143.171875 189.386719 127.644531 170.238281 127.644531 Z M 170.238281 127.644531 " fill-opacity="1" fill-rule="nonzero"/><path fill="#366db6" d="M 151.328125 162.324219 C 151.328125 151.878906 159.796875 143.410156 170.238281 143.410156 L 170.238281 127.644531 C 151.09375 127.644531 135.570312 143.171875 135.570312 162.324219 C 135.570312 171.902344 139.453125 180.574219 145.726562 186.847656 L 156.871094 175.699219 C 153.449219 172.277344 151.328125 167.550781 151.328125 162.324219 Z M 151.328125 162.324219 " fill-opacity="1" fill-rule="nonzero"/><path fill="#75348b" d="M 258.484375 146.5625 L 220.664062 146.5625 C 218.925781 146.5625 217.515625 145.148438 217.515625 143.410156 L 217.515625 130.796875 C 217.515625 129.058594 218.925781 127.644531 220.664062 127.644531 L 258.484375 127.644531 C 260.226562 127.644531 261.636719 129.058594 261.636719 130.796875 L 261.636719 143.410156 C 261.636719 145.148438 260.226562 146.5625 258.484375 146.5625 Z M 258.484375 146.5625 " fill-opacity="1" fill-rule="nonzero"/><path fill="#7383bf" d="M 233.273438 197.007812 L 220.664062 197.007812 C 218.925781 197.007812 217.515625 195.59375 217.515625 193.851562 L 217.515625 181.242188 C 217.515625 179.5 218.925781 178.089844 220.664062 178.089844 L 233.273438 178.089844 C 235.011719 178.089844 236.425781 179.5 236.425781 181.242188 L 236.425781 193.851562 C 236.425781 195.59375 235.011719 197.007812 233.273438 197.007812 Z M 233.273438 197.007812 " fill-opacity="1" fill-rule="nonzero"/><path fill="#25ae88" d="M 258.484375 197.007812 L 245.878906 197.007812 C 244.140625 197.007812 242.726562 195.59375 242.726562 193.851562 L 242.726562 181.242188 C 242.726562 179.5 244.140625 178.089844 245.878906 178.089844 L 258.484375 178.089844 C 260.226562 178.089844 261.636719 179.5 261.636719 181.242188 L 261.636719 193.851562 C 261.636719 195.59375 260.226562 197.007812 258.484375 197.007812 Z M 258.484375 197.007812 " fill-opacity="1" fill-rule="nonzero"/><path fill="#2998c0" d="M 245.878906 159.171875 L 220.664062 159.171875 C 218.925781 159.171875 217.515625 157.761719 217.515625 156.019531 C 217.515625 154.28125 218.925781 152.867188 220.664062 152.867188 L 245.878906 152.867188 C 247.617188 152.867188 249.03125 154.28125 249.03125 156.019531 C 249.03125 157.761719 247.617188 159.171875 245.878906 159.171875 Z M 245.878906 159.171875 " fill-opacity="1" fill-rule="nonzero"/><path fill="#cb465f" d="M 258.484375 171.785156 L 220.664062 171.785156 C 218.925781 171.785156 217.515625 170.371094 217.515625 168.632812 C 217.515625 166.890625 218.925781 165.476562 220.664062 165.476562 L 258.484375 165.476562 C 260.226562 165.476562 261.636719 166.890625 261.636719 168.632812 C 261.636719 170.371094 260.226562 171.785156 258.484375 171.785156 Z M 258.484375 171.785156 " fill-opacity="1" fill-rule="nonzero"/></svg>