<svg xmlns="http://www.w3.org/2000/svg" xmlns:xlink="http://www.w3.org/1999/xlink" width="600" zoomAndPan="magnify" viewBox="0 0 450 374.999991" height="500" preserveAspectRatio="xMidYMid meet" version="1.0"><defs><clipPath id="9a39845c93"><path d="M 127.054688 0 L 339.304688 0 L 339.304688 375 L 127.054688 375 Z M 127.054688 0 " clip-rule="nonzero"/></clipPath></defs><g clip-path="url(#9a39845c93)"><path fill="#fab80a" d="M 160.59375 348.257812 L 222.183594 196.476562 C 222.703125 195.191406 222.441406 193.722656 221.507812 192.703125 C 220.570312 191.679688 219.132812 191.289062 217.808594 191.695312 L 140.800781 215.339844 L 292.054688 22.941406 L 251.195312 142.441406 C 250.785156 143.644531 251.039062 144.96875 251.863281 145.9375 C 252.691406 146.902344 253.960938 147.355469 255.210938 147.136719 L 326.910156 134.476562 Z M 338.539062 127.472656 C 337.773438 126.199219 336.304688 125.53125 334.839844 125.789062 L 259.949219 139.011719 L 305.667969 5.296875 C 306.234375 3.636719 305.527344 1.820312 303.988281 0.984375 C 302.449219 0.144531 300.539062 0.535156 299.457031 1.917969 L 128.078125 219.917969 C 127.105469 221.152344 127.050781 222.867188 127.9375 224.164062 C 128.828125 225.457031 130.449219 226.023438 131.949219 225.566406 L 212.699219 200.773438 L 144.222656 369.519531 C 143.550781 371.175781 144.207031 373.082031 145.753906 373.976562 C 147.300781 374.871094 149.28125 374.484375 150.378906 373.074219 L 338.296875 131.527344 C 339.207031 130.355469 339.304688 128.742188 338.539062 127.472656 " fill-opacity="1" fill-rule="nonzero"/></g></svg>