<svg xmlns="http://www.w3.org/2000/svg" xmlns:xlink="http://www.w3.org/1999/xlink" width="600" zoomAndPan="magnify" viewBox="0 0 450 374.999991" height="500" preserveAspectRatio="xMidYMid meet" version="1.0"><defs><clipPath id="5ef1475a4c"><path d="M 8 7.113281 L 442 7.113281 L 442 367.863281 L 8 367.863281 Z M 8 7.113281 " clip-rule="nonzero"/></clipPath></defs><g clip-path="url(#5ef1475a4c)"><path fill="#000000" d="M 418.03125 84.550781 L 345.046875 84.550781 C 331.855469 84.550781 321.128906 95.273438 321.128906 108.453125 L 321.128906 343.996094 C 321.128906 357.175781 331.855469 367.898438 345.046875 367.898438 L 418.03125 367.898438 C 431.222656 367.898438 441.949219 357.175781 441.949219 343.996094 L 441.949219 108.457031 C 441.949219 95.273438 431.222656 84.550781 418.03125 84.550781 Z M 426.484375 343.996094 C 426.484375 348.65625 422.691406 352.445312 418.03125 352.445312 L 345.046875 352.445312 C 340.386719 352.445312 336.59375 348.652344 336.59375 343.996094 L 336.59375 108.457031 C 336.59375 103.796875 340.386719 100.007812 345.046875 100.007812 L 418.03125 100.007812 C 422.695312 100.007812 426.484375 103.796875 426.484375 108.457031 Z M 261.589844 151.40625 L 188.601562 151.40625 C 175.414062 151.40625 164.683594 162.128906 164.683594 175.308594 L 164.683594 343.996094 C 164.683594 357.175781 175.414062 367.898438 188.601562 367.898438 L 261.589844 367.898438 C 274.777344 367.898438 285.507812 357.175781 285.507812 343.996094 L 285.507812 175.308594 C 285.507812 162.128906 274.777344 151.40625 261.589844 151.40625 Z M 270.042969 343.996094 C 270.042969 348.65625 266.25 352.445312 261.589844 352.445312 L 188.601562 352.445312 C 183.941406 352.445312 180.148438 348.652344 180.148438 343.996094 L 180.148438 175.308594 C 180.148438 170.648438 183.941406 166.859375 188.601562 166.859375 L 261.589844 166.859375 C 266.25 166.859375 270.042969 170.652344 270.042969 175.308594 Z M 105.144531 218.257812 L 32.160156 218.257812 C 18.96875 218.257812 8.242188 228.980469 8.242188 242.160156 L 8.242188 343.996094 C 8.242188 357.175781 18.96875 367.898438 32.160156 367.898438 L 105.144531 367.898438 C 118.335938 367.898438 129.066406 357.175781 129.066406 343.996094 L 129.066406 242.160156 C 129.0625 228.980469 118.332031 218.257812 105.144531 218.257812 Z M 113.597656 343.996094 C 113.597656 348.65625 109.804688 352.445312 105.144531 352.445312 L 32.160156 352.445312 C 27.5 352.445312 23.707031 348.652344 23.707031 343.996094 L 23.707031 242.164062 C 23.707031 237.503906 27.5 233.714844 32.160156 233.714844 L 105.144531 233.714844 C 109.808594 233.714844 113.597656 237.503906 113.597656 242.164062 Z M 306.0625 7.113281 L 249.980469 7.113281 C 245.707031 7.113281 242.246094 10.574219 242.246094 14.84375 C 242.246094 19.109375 245.707031 22.570312 249.980469 22.570312 L 287.859375 22.570312 L 206.277344 100.96875 L 155.855469 63.734375 C 152.742188 61.433594 148.402344 61.792969 145.707031 64.574219 L 23.234375 190.996094 C 20.261719 194.0625 20.339844 198.953125 23.410156 201.921875 C 24.910156 203.375 26.851562 204.097656 28.785156 204.097656 C 30.808594 204.097656 32.828125 203.308594 34.34375 201.746094 L 152.109375 80.1875 L 202.335938 117.277344 C 205.367188 119.515625 209.574219 119.242188 212.292969 116.632812 L 298.328125 33.953125 L 298.328125 73.234375 C 298.328125 77.503906 301.789062 80.964844 306.0625 80.964844 C 310.332031 80.964844 313.792969 77.503906 313.792969 73.234375 L 313.792969 14.84375 C 313.792969 10.574219 310.332031 7.113281 306.0625 7.113281 Z M 306.0625 7.113281 " fill-opacity="1" fill-rule="nonzero"/></g></svg>