<svg xmlns="http://www.w3.org/2000/svg" xmlns:xlink="http://www.w3.org/1999/xlink" width="300" zoomAndPan="magnify" viewBox="0 0 224.87999 225" height="300" preserveAspectRatio="xMidYMid meet" version="1.0"><defs><clipPath id="2d53c9af92"><path d="M 50.757812 87 L 215.671875 87 L 215.671875 202.453125 L 50.757812 202.453125 Z M 50.757812 87 " clip-rule="nonzero"/></clipPath><clipPath id="b43a05057d"><path d="M 69 22.546875 L 197 22.546875 L 197 124 L 69 124 Z M 69 22.546875 " clip-rule="nonzero"/></clipPath></defs><g clip-path="url(#2d53c9af92)"><path fill="#231f20" d="M 211.058594 193.539062 L 204.253906 193.539062 L 204.253906 91.835938 C 204.253906 89.398438 202.28125 87.417969 199.839844 87.417969 L 178.433594 87.417969 C 176 87.417969 174.027344 89.394531 174.027344 91.835938 L 174.027344 193.539062 L 167.550781 193.539062 L 167.550781 107.949219 C 167.550781 105.511719 165.582031 103.535156 163.140625 103.535156 L 141.734375 103.535156 C 139.300781 103.535156 137.320312 105.507812 137.320312 107.949219 L 137.320312 193.535156 L 131.359375 193.535156 L 131.359375 132.648438 C 131.359375 130.210938 129.390625 128.230469 126.949219 128.230469 L 105.539062 128.230469 C 103.101562 128.230469 101.128906 130.207031 101.128906 132.648438 L 101.128906 193.539062 L 94.152344 193.539062 L 94.152344 158.132812 C 94.152344 155.695312 92.175781 153.71875 89.734375 153.71875 L 68.324219 153.71875 C 65.894531 153.71875 63.914062 155.691406 63.914062 158.132812 L 63.914062 193.535156 L 55.070312 193.535156 C 52.636719 193.535156 50.664062 195.511719 50.664062 197.949219 C 50.664062 200.390625 52.636719 202.367188 55.070312 202.367188 L 211.050781 202.367188 C 213.484375 202.367188 215.457031 200.390625 215.457031 197.949219 C 215.464844 195.515625 213.496094 193.539062 211.058594 193.539062 Z M 72.738281 193.539062 L 72.738281 162.550781 L 85.332031 162.550781 L 85.332031 193.539062 Z M 109.949219 193.539062 L 109.949219 137.058594 L 122.535156 137.058594 L 122.535156 193.539062 Z M 146.140625 193.539062 L 146.140625 112.363281 L 158.726562 112.363281 L 158.726562 193.539062 Z M 182.847656 193.539062 L 182.847656 96.246094 L 195.433594 96.246094 L 195.433594 193.539062 Z M 182.847656 193.539062 " fill-opacity="1" fill-rule="nonzero"/></g><g clip-path="url(#b43a05057d)"><path fill="#231f20" d="M 74.382812 123.402344 C 75.289062 123.402344 76.203125 123.117188 76.996094 122.539062 L 185.230469 42.71875 L 178.34375 79.128906 L 187.019531 80.761719 L 196.855469 28.667969 L 144.226562 22.632812 L 143.214844 31.410156 L 179.984375 35.621094 L 71.761719 115.433594 C 69.800781 116.878906 69.382812 119.640625 70.828125 121.605469 C 71.691406 122.78125 73.023438 123.402344 74.382812 123.402344 Z M 74.382812 123.402344 " fill-opacity="1" fill-rule="nonzero"/></g></svg>