<svg xmlns="http://www.w3.org/2000/svg" xmlns:xlink="http://www.w3.org/1999/xlink" width="400" zoomAndPan="magnify" viewBox="0 0 300 599.999999" height="800" preserveAspectRatio="xMidYMid meet" version="1.0"><defs><clipPath id="518dcdb749"><path d="M 40 166.09375 L 300 166.09375 L 300 333 L 40 333 Z M 40 166.09375 " clip-rule="nonzero"/></clipPath></defs><path fill="#231f20" d="M 274.28125 420.695312 L 259.179688 420.695312 L 259.179688 360.269531 C 259.179688 356.105469 255.804688 352.734375 251.640625 352.734375 L 215.070312 352.734375 C 210.90625 352.734375 207.535156 356.105469 207.535156 360.269531 L 207.535156 420.695312 L 195.605469 420.695312 L 195.605469 316.765625 C 195.605469 312.601562 192.230469 309.226562 188.070312 309.226562 L 151.496094 309.226562 C 147.335938 309.226562 143.960938 312.601562 143.960938 316.765625 L 143.960938 420.695312 L 133.78125 420.695312 L 133.78125 274.613281 C 133.78125 270.449219 130.40625 267.078125 126.242188 267.078125 L 89.671875 267.078125 C 85.507812 267.078125 82.136719 270.449219 82.136719 274.613281 L 82.136719 420.695312 L 71.078125 420.695312 L 71.078125 247.097656 C 71.078125 242.9375 67.703125 239.5625 63.539062 239.5625 L 26.972656 239.5625 C 22.8125 239.5625 19.4375 242.9375 19.4375 247.097656 L 19.4375 420.695312 L 7.8125 420.695312 C 3.652344 420.695312 0.277344 424.070312 0.277344 428.234375 C 0.277344 432.394531 3.652344 435.769531 7.8125 435.769531 L 274.28125 435.769531 C 278.441406 435.769531 281.816406 432.394531 281.816406 428.234375 C 281.816406 424.070312 278.441406 420.695312 274.28125 420.695312 Z M 34.503906 420.695312 L 34.503906 254.632812 L 56.007812 254.632812 L 56.007812 420.695312 Z M 97.207031 420.695312 L 97.207031 282.144531 L 118.714844 282.144531 L 118.714844 420.695312 Z M 159.039062 420.695312 L 159.039062 324.300781 L 180.542969 324.300781 L 180.542969 420.695312 Z M 222.605469 420.695312 L 222.605469 367.800781 L 244.109375 367.800781 L 244.109375 420.695312 Z M 222.605469 420.695312 " fill-opacity="1" fill-rule="nonzero"/><g clip-path="url(#518dcdb749)"><path fill="#231f20" d="M 44.589844 181.09375 L 269.488281 301.359375 L 208.355469 317.476562 L 212.214844 332.0625 L 299.722656 308.957031 L 270.332031 223.371094 L 256.0625 228.257812 L 276.621094 288.078125 L 51.703125 167.800781 C 48.023438 165.847656 43.460938 167.230469 41.5 170.894531 C 39.535156 174.574219 40.921875 179.132812 44.589844 181.09375 Z M 44.589844 181.09375 " fill-opacity="1" fill-rule="nonzero"/></g></svg>