<svg xmlns="http://www.w3.org/2000/svg" xmlns:xlink="http://www.w3.org/1999/xlink" width="400" zoomAndPan="magnify" viewBox="0 0 300 599.999999" height="800" preserveAspectRatio="xMidYMid meet" version="1.0"><defs><clipPath id="96542b0806"><path d="M 0 80.015625 L 300 80.015625 L 300 520 L 0 520 Z M 0 80.015625 " clip-rule="nonzero"/></clipPath><clipPath id="7a95e6fa10"><path d="M 118.742188 519.847656 L 118.742188 352.382812 L 189.460938 352.382812 L 189.460938 519.847656 Z M 0.859375 519.847656 L 0.859375 436.117188 L 71.589844 436.117188 L 71.589844 519.847656 Z M 236.671875 519.847656 L 236.671875 240.746094 L 307.402344 240.746094 L 307.402344 519.847656 Z M 285.605469 117.386719 L 283.960938 121.035156 L 282.363281 124.597656 L 280.792969 128.089844 L 279.265625 131.484375 L 277.765625 134.8125 L 276.3125 138.050781 L 274.890625 141.203125 L 273.507812 144.277344 L 272.164062 147.273438 L 270.847656 150.179688 L 269.582031 153.011719 L 268.34375 155.761719 L 267.144531 158.425781 L 265.976562 161.011719 L 264.855469 163.507812 L 263.765625 165.929688 L 262.710938 168.261719 L 261.699219 170.515625 L 260.726562 172.691406 L 259.78125 174.777344 L 258.875 176.789062 L 258.007812 178.722656 L 257.179688 180.566406 L 256.390625 182.332031 L 255.628906 184.007812 L 254.910156 185.609375 L 254.226562 187.121094 L 253.585938 188.554688 L 252.96875 189.914062 L 252.40625 191.179688 L 251.871094 192.371094 L 251.371094 193.484375 L 250.90625 194.507812 L 250.484375 195.445312 L 250.097656 196.3125 L 249.746094 197.085938 L 249.433594 197.785156 L 249.152344 198.402344 L 248.917969 198.9375 L 248.714844 199.386719 L 248.675781 199.464844 L 248.636719 199.550781 L 248.597656 199.628906 L 248.546875 199.707031 L 248.507812 199.785156 L 248.460938 199.863281 L 248.410156 199.941406 L 248.363281 200.019531 L 248.3125 200.089844 L 248.253906 200.167969 L 248.207031 200.234375 L 248.148438 200.304688 L 248.089844 200.371094 L 248.03125 200.441406 L 247.972656 200.507812 L 247.914062 200.578125 L 247.847656 200.636719 L 247.789062 200.695312 L 247.71875 200.761719 L 247.652344 200.820312 L 247.582031 200.878906 L 247.515625 200.929688 L 247.445312 200.988281 L 247.378906 201.035156 L 247.300781 201.09375 L 247.230469 201.144531 L 247.152344 201.191406 L 247.078125 201.242188 L 247 201.28125 L 246.921875 201.328125 L 246.6875 201.445312 L 246.597656 201.484375 L 246.519531 201.523438 L 246.433594 201.554688 L 246.355469 201.582031 L 246.269531 201.613281 L 246.179688 201.640625 L 246.09375 201.671875 L 245.996094 201.699219 L 245.898438 201.71875 L 245.808594 201.738281 L 245.710938 201.765625 L 245.613281 201.777344 L 245.515625 201.796875 L 245.421875 201.804688 L 245.324219 201.816406 L 245.226562 201.824219 L 245.128906 201.835938 L 244.652344 201.835938 L 244.554688 201.824219 L 244.457031 201.816406 L 244.359375 201.804688 L 244.261719 201.785156 L 244.171875 201.777344 L 243.976562 201.738281 L 243.890625 201.710938 L 243.792969 201.691406 L 243.707031 201.660156 L 243.609375 201.632812 L 243.519531 201.601562 L 243.433594 201.574219 L 243.335938 201.535156 L 243.246094 201.496094 L 243.160156 201.457031 L 243.070312 201.417969 L 242.984375 201.367188 L 242.90625 201.328125 L 242.820312 201.28125 L 242.730469 201.230469 L 242.652344 201.171875 L 242.566406 201.125 L 242.410156 201.007812 L 242.261719 200.910156 L 242.089844 200.792969 L 241.882812 200.664062 L 241.660156 200.507812 L 241.40625 200.34375 L 241.125 200.15625 L 240.8125 199.953125 L 240.480469 199.726562 L 240.121094 199.492188 L 239.730469 199.242188 L 239.3125 198.957031 L 238.875 198.664062 L 238.40625 198.363281 L 237.910156 198.03125 L 237.382812 197.6875 L 236.835938 197.328125 L 236.261719 196.949219 L 235.660156 196.546875 L 235.023438 196.128906 L 234.371094 195.699219 L 233.691406 195.238281 L 232.980469 194.773438 L 232.238281 194.285156 L 231.480469 193.785156 L 230.679688 193.257812 L 229.871094 192.722656 L 229.023438 192.167969 L 228.148438 191.589844 L 227.25 190.996094 L 226.324219 190.378906 L 225.371094 189.757812 L 224.394531 189.113281 L 223.394531 188.449219 L 222.359375 187.765625 L 221.296875 187.0625 L 220.214844 186.351562 L 219.097656 185.621094 L 217.957031 184.867188 L 216.796875 184.097656 L 215.597656 183.308594 L 200.390625 173.316406 L 173.640625 232.542969 L 172.324219 235.460938 L 171.027344 238.308594 L 169.769531 241.097656 L 168.542969 243.8125 L 167.335938 246.464844 L 166.167969 249.0625 L 165.027344 251.578125 L 163.914062 254.039062 L 162.835938 256.429688 L 161.78125 258.761719 L 160.757812 261.015625 L 159.765625 263.210938 L 158.800781 265.335938 L 157.867188 267.40625 L 156.960938 269.40625 L 156.082031 271.335938 L 155.234375 273.199219 L 154.425781 275.007812 L 153.636719 276.742188 L 152.878906 278.410156 L 152.15625 280.019531 L 151.457031 281.5625 L 150.792969 283.035156 L 150.148438 284.441406 L 149.546875 285.789062 L 148.972656 287.066406 L 148.414062 288.277344 L 147.898438 289.417969 L 147.414062 290.5 L 146.945312 291.515625 L 146.515625 292.472656 L 146.117188 293.351562 L 145.746094 294.167969 L 145.40625 294.929688 L 145.09375 295.613281 L 144.8125 296.238281 L 144.558594 296.792969 L 144.34375 297.28125 L 144.148438 297.710938 L 143.984375 298.070312 L 143.945312 298.160156 L 143.90625 298.246094 L 143.855469 298.324219 L 143.808594 298.414062 L 143.757812 298.492188 L 143.710938 298.578125 L 143.660156 298.65625 L 143.613281 298.734375 L 143.496094 298.890625 L 143.4375 298.960938 L 143.378906 299.039062 L 143.320312 299.105469 L 143.261719 299.175781 L 143.195312 299.242188 L 143.136719 299.3125 L 143.066406 299.378906 L 143 299.4375 L 142.929688 299.507812 L 142.851562 299.566406 L 142.785156 299.625 L 142.707031 299.683594 L 142.640625 299.742188 L 142.5625 299.789062 L 142.484375 299.847656 L 142.40625 299.898438 L 142.328125 299.945312 L 142.25 299.996094 L 142.160156 300.035156 L 142.082031 300.082031 L 141.996094 300.121094 L 141.90625 300.160156 L 141.820312 300.199219 L 141.742188 300.238281 L 141.65625 300.269531 L 141.558594 300.308594 L 141.46875 300.335938 L 141.382812 300.363281 L 141.285156 300.382812 L 141.195312 300.414062 L 141.097656 300.433594 L 141.011719 300.453125 L 140.914062 300.472656 L 140.816406 300.480469 L 140.730469 300.492188 L 140.632812 300.5 L 140.535156 300.511719 L 140.445312 300.519531 L 139.980469 300.519531 L 139.882812 300.511719 L 139.785156 300.5 L 139.695312 300.492188 L 139.597656 300.480469 L 139.511719 300.460938 L 139.414062 300.441406 L 139.328125 300.421875 L 139.238281 300.402344 L 139.140625 300.382812 L 139.054688 300.355469 L 138.964844 300.328125 L 138.878906 300.296875 L 138.789062 300.269531 L 138.703125 300.238281 L 138.617188 300.199219 L 138.527344 300.160156 L 138.441406 300.121094 L 138.351562 300.082031 L 138.273438 300.042969 L 138.1875 299.996094 L 138.109375 299.957031 L 138.019531 299.90625 L 137.941406 299.847656 L 137.863281 299.800781 L 137.789062 299.75 L 137.632812 299.632812 L 137.5625 299.574219 L 137.476562 299.515625 L 137.378906 299.4375 L 137.269531 299.351562 L 137.144531 299.261719 L 137.015625 299.15625 L 136.863281 299.039062 L 136.707031 298.921875 L 136.53125 298.785156 L 136.34375 298.636719 L 135.9375 298.324219 L 135.703125 298.148438 L 135.46875 297.964844 L 134.679688 297.351562 L 134.386719 297.125 L 134.085938 296.902344 L 133.761719 296.65625 L 133.441406 296.402344 L 133.101562 296.140625 L 132.742188 295.867188 L 132.378906 295.585938 L 132 295.292969 L 131.601562 294.988281 L 131.203125 294.675781 L 130.78125 294.34375 L 130.34375 294.011719 L 129.90625 293.671875 L 129.449219 293.320312 L 128.980469 292.960938 L 128.492188 292.589844 L 127.996094 292.207031 L 127.488281 291.808594 L 126.964844 291.40625 L 126.425781 291 L 125.882812 290.578125 L 125.328125 290.140625 L 124.75 289.699219 L 83.007812 257.550781 L 36.136719 393.695312 L 35.980469 394.144531 L 35.832031 394.582031 L 35.6875 395 L 35.542969 395.421875 L 35.40625 395.832031 L 35.269531 396.230469 L 35.132812 396.613281 L 35.007812 396.992188 L 34.878906 397.351562 L 34.753906 397.714844 L 34.636719 398.054688 L 34.519531 398.398438 L 34.292969 399.039062 L 34.089844 399.644531 L 33.808594 400.476562 L 33.632812 400.972656 L 33.476562 401.429688 L 33.398438 401.65625 L 33.332031 401.859375 L 33.261719 402.054688 L 33.195312 402.242188 L 33.136719 402.417969 L 33.078125 402.582031 L 33.027344 402.738281 L 32.96875 402.886719 L 32.929688 403.023438 L 32.882812 403.148438 L 32.84375 403.257812 L 32.804688 403.363281 L 32.773438 403.460938 L 32.746094 403.546875 L 32.714844 403.625 L 32.675781 403.742188 L 32.628906 403.871094 L 32.578125 403.996094 L 32.53125 404.113281 L 32.414062 404.347656 L 32.347656 404.464844 L 32.289062 404.574219 L 32.140625 404.796875 L 32.0625 404.894531 L 31.984375 405.003906 L 31.90625 405.101562 L 31.820312 405.199219 L 31.734375 405.285156 L 31.644531 405.382812 L 31.546875 405.472656 L 31.449219 405.558594 L 31.15625 405.792969 L 31.050781 405.859375 L 30.941406 405.9375 L 30.835938 405.996094 L 30.71875 406.066406 L 30.601562 406.125 L 30.496094 406.183594 L 30.378906 406.230469 L 30.261719 406.28125 L 30.132812 406.328125 L 30.019531 406.367188 L 29.890625 406.40625 L 29.765625 406.445312 L 29.636719 406.476562 L 29.511719 406.503906 L 29.382812 406.523438 L 29.25 406.542969 L 29.121094 406.5625 L 28.984375 406.574219 L 28.859375 406.582031 L 28.722656 406.582031 L 28.691406 406.59375 L 28.652344 406.59375 L 28.625 406.601562 L 28.585938 406.601562 L 28.554688 406.613281 L 28.527344 406.613281 L 28.488281 406.621094 L 28.460938 406.621094 L 28.421875 406.632812 L 28.363281 406.632812 L 28.324219 406.640625 L 28.1875 406.640625 L 28.15625 406.652344 L 27.953125 406.652344 L 27.921875 406.640625 L 27.785156 406.640625 L 27.746094 406.632812 L 27.6875 406.632812 L 27.652344 406.621094 L 27.621094 406.621094 L 27.582031 406.613281 L 27.554688 406.613281 L 27.523438 406.601562 L 27.484375 406.601562 L 27.457031 406.59375 L 27.417969 406.59375 L 27.386719 406.582031 L 27.222656 406.523438 L 27.066406 406.457031 L 26.910156 406.386719 L 26.765625 406.308594 L 26.617188 406.230469 L 26.472656 406.144531 L 26.335938 406.054688 L 26.207031 405.957031 L 26.082031 405.851562 L 25.957031 405.753906 L 25.839844 405.636719 L 25.722656 405.53125 L 25.605469 405.402344 L 25.507812 405.285156 L 25.398438 405.160156 L 25.3125 405.03125 L 25.214844 404.894531 L 25.058594 404.621094 L 24.980469 404.476562 L 24.914062 404.328125 L 24.855469 404.183594 L 24.796875 404.035156 L 24.738281 403.878906 L 24.660156 403.566406 L 24.621094 403.414062 L 24.589844 403.257812 L 24.570312 403.089844 L 24.550781 402.933594 L 24.550781 402.769531 L 24.542969 402.601562 L 24.550781 402.4375 L 24.5625 402.269531 L 24.582031 402.113281 L 24.601562 401.949219 L 24.628906 401.78125 L 24.667969 401.617188 L 24.71875 401.449219 L 24.765625 401.285156 L 25.222656 399.949219 L 25.820312 398.242188 L 26.53125 396.171875 L 27.359375 393.761719 L 28.292969 391.03125 L 29.335938 388.003906 L 30.476562 384.699219 L 31.703125 381.136719 L 33.007812 377.332031 L 34.390625 373.3125 L 35.851562 369.097656 L 37.363281 364.695312 L 38.933594 360.128906 L 40.550781 355.433594 L 42.207031 350.617188 L 43.902344 345.699219 L 45.625 340.703125 L 47.367188 335.636719 L 49.121094 330.542969 L 52.640625 320.308594 L 54.394531 315.214844 L 56.136719 310.152344 L 57.859375 305.15625 L 59.554688 300.238281 L 61.210938 295.417969 L 62.828125 290.726562 L 64.398438 286.160156 L 65.910156 281.757812 L 67.371094 277.542969 L 68.753906 273.523438 L 70.058594 269.71875 L 71.285156 266.15625 L 72.425781 262.847656 L 73.46875 259.824219 L 74.402344 257.089844 L 75.230469 254.679688 L 75.941406 252.613281 L 76.539062 250.90625 L 76.996094 249.570312 L 77.023438 249.472656 L 77.0625 249.375 L 77.101562 249.285156 L 77.140625 249.1875 L 77.179688 249.101562 L 77.230469 249.003906 L 77.277344 248.914062 L 77.328125 248.828125 L 77.375 248.738281 L 77.425781 248.652344 L 77.480469 248.574219 L 77.539062 248.484375 L 77.714844 248.25 L 77.785156 248.171875 L 77.851562 248.09375 L 77.910156 248.027344 L 78.125 247.8125 L 78.203125 247.742188 L 78.28125 247.683594 L 78.359375 247.617188 L 78.59375 247.441406 L 78.679688 247.382812 L 78.769531 247.335938 L 78.855469 247.285156 L 78.945312 247.238281 L 79.03125 247.1875 L 79.117188 247.140625 L 79.207031 247.101562 L 79.304688 247.0625 L 79.390625 247.023438 L 79.585938 246.945312 L 79.683594 246.914062 L 79.78125 246.886719 L 79.878906 246.855469 L 80.269531 246.777344 L 80.367188 246.769531 L 80.464844 246.757812 L 80.5625 246.75 L 80.660156 246.738281 L 80.753906 246.738281 L 80.851562 246.730469 L 80.949219 246.730469 L 81.046875 246.738281 L 81.144531 246.738281 L 81.242188 246.75 L 81.339844 246.757812 L 81.4375 246.769531 L 81.535156 246.777344 L 81.632812 246.796875 L 81.730469 246.808594 L 81.828125 246.828125 L 81.925781 246.855469 L 82.011719 246.875 L 82.109375 246.90625 L 82.207031 246.933594 L 82.296875 246.964844 L 82.390625 246.992188 L 82.480469 247.03125 L 82.566406 247.0625 L 82.664062 247.101562 L 82.753906 247.148438 L 82.839844 247.1875 L 82.929688 247.238281 L 83.015625 247.277344 L 83.105469 247.335938 L 83.179688 247.382812 L 83.269531 247.433594 L 83.347656 247.492188 L 83.433594 247.550781 L 83.511719 247.605469 L 83.765625 247.800781 L 84.066406 248.035156 L 84.417969 248.308594 L 84.816406 248.613281 L 85.257812 248.953125 L 85.753906 249.335938 L 86.289062 249.746094 L 86.875 250.191406 L 87.496094 250.679688 L 88.179688 251.207031 L 88.898438 251.765625 L 89.667969 252.359375 L 90.488281 252.984375 L 91.34375 253.648438 L 92.261719 254.351562 L 93.214844 255.089844 L 94.21875 255.863281 L 95.261719 256.671875 L 96.363281 257.511719 L 97.503906 258.398438 L 98.691406 259.316406 L 99.929688 260.261719 L 101.214844 261.257812 L 102.539062 262.28125 L 103.921875 263.335938 L 105.34375 264.4375 L 106.804688 265.570312 L 108.328125 266.730469 L 109.886719 267.941406 L 111.503906 269.179688 L 113.160156 270.460938 L 114.855469 271.765625 L 116.605469 273.121094 L 118.398438 274.5 L 120.242188 275.921875 L 122.132812 277.378906 L 124.070312 278.871094 L 126.058594 280.402344 L 128.082031 281.964844 L 130.160156 283.5625 L 138.578125 290.03125 L 154.183594 255.421875 L 155.984375 251.421875 L 157.757812 247.519531 L 159.484375 243.695312 L 161.160156 239.96875 L 162.804688 236.328125 L 164.414062 232.777344 L 165.972656 229.3125 L 167.492188 225.945312 L 168.972656 222.667969 L 170.414062 219.476562 L 171.816406 216.375 L 173.171875 213.367188 L 174.496094 210.441406 L 175.773438 207.613281 L 177.007812 204.871094 L 179.359375 199.660156 L 180.476562 197.191406 L 181.550781 194.8125 L 182.582031 192.519531 L 183.574219 190.3125 L 184.53125 188.203125 L 185.445312 186.183594 L 186.324219 184.253906 L 187.152344 182.410156 L 187.941406 180.652344 L 188.691406 178.992188 L 189.402344 177.421875 L 190.074219 175.941406 L 190.699219 174.542969 L 191.292969 173.238281 L 191.835938 172.027344 L 192.34375 170.90625 L 192.8125 169.871094 L 193.242188 168.925781 L 193.621094 168.074219 L 193.972656 167.316406 L 194.273438 166.640625 L 194.535156 166.054688 L 194.761719 165.558594 L 194.800781 165.480469 L 194.839844 165.390625 L 194.878906 165.3125 L 194.925781 165.234375 L 194.964844 165.15625 L 195.011719 165.078125 L 195.0625 165.003906 L 195.109375 164.925781 L 195.160156 164.855469 L 195.21875 164.777344 L 195.265625 164.710938 L 195.324219 164.640625 L 195.382812 164.574219 L 195.441406 164.503906 L 195.5 164.4375 L 195.558594 164.367188 L 195.628906 164.308594 L 195.6875 164.242188 L 195.820312 164.125 L 195.890625 164.066406 L 195.957031 164.007812 L 196.027344 163.949219 L 196.09375 163.898438 L 196.171875 163.851562 L 196.242188 163.800781 L 196.320312 163.742188 L 196.398438 163.703125 L 196.476562 163.65625 L 196.550781 163.605469 L 196.785156 163.488281 L 196.875 163.449219 L 196.953125 163.410156 L 197.039062 163.382812 L 197.117188 163.351562 L 197.207031 163.324219 L 197.292969 163.292969 L 197.378906 163.265625 L 197.46875 163.234375 L 197.554688 163.214844 L 197.652344 163.195312 L 197.742188 163.175781 L 197.828125 163.15625 L 197.917969 163.148438 L 198.015625 163.128906 L 198.101562 163.117188 L 198.1875 163.109375 L 198.285156 163.109375 L 198.375 163.097656 L 198.832031 163.097656 L 198.921875 163.109375 L 199.007812 163.117188 L 199.09375 163.128906 L 199.191406 163.136719 L 199.28125 163.148438 L 199.367188 163.167969 L 199.457031 163.1875 L 199.542969 163.207031 L 199.632812 163.226562 L 199.71875 163.246094 L 199.804688 163.273438 L 199.894531 163.304688 L 199.980469 163.332031 L 200.070312 163.363281 L 200.15625 163.390625 L 200.234375 163.429688 L 200.324219 163.460938 L 200.402344 163.5 L 200.488281 163.546875 L 200.566406 163.585938 L 200.652344 163.625 L 200.730469 163.675781 L 200.808594 163.722656 L 200.886719 163.773438 L 200.996094 163.851562 L 201.132812 163.929688 L 201.277344 164.035156 L 201.453125 164.144531 L 201.648438 164.269531 L 201.851562 164.40625 L 202.085938 164.5625 L 202.339844 164.730469 L 202.613281 164.90625 L 202.90625 165.097656 L 203.214844 165.304688 L 203.546875 165.527344 L 203.90625 165.761719 L 204.667969 166.261719 L 205.085938 166.535156 L 205.515625 166.816406 L 205.972656 167.121094 L 206.449219 167.429688 L 206.949219 167.753906 L 207.453125 168.09375 L 207.988281 168.445312 L 208.546875 168.808594 L 209.121094 169.1875 L 209.714844 169.578125 L 210.328125 169.988281 L 210.972656 170.40625 L 211.625 170.835938 L 212.296875 171.285156 L 212.996094 171.734375 L 213.707031 172.210938 L 214.449219 172.691406 L 215.210938 173.199219 L 215.980469 173.707031 L 216.777344 174.234375 L 217.597656 174.769531 L 218.433594 175.316406 L 219.292969 175.882812 L 220.167969 176.457031 L 221.0625 177.050781 L 242.917969 191.453125 L 278.027344 113.308594 L 276.1875 112.359375 L 256.070312 101.199219 L 302.21875 80.765625 L 307.402344 129.105469 Z M 285.605469 117.386719 " clip-rule="nonzero"/></clipPath><linearGradient x1="230.56" gradientTransform="matrix(0.97423, 0, 0, 0.975731, -70.483765, 54.06136)" y1="27.370007" x2="230.56" gradientUnits="userSpaceOnUse" y2="477.370001" id="abd2367041"><stop stop-opacity="1" stop-color="rgb(17.298889%, 92.498779%, 100%)" offset="0"/><stop stop-opacity="1" stop-color="rgb(17.611694%, 92.3172%, 100%)" offset="0.00390625"/><stop stop-opacity="1" stop-color="rgb(17.926025%, 92.13562%, 100%)" offset="0.0078125"/><stop stop-opacity="1" stop-color="rgb(18.240356%, 91.952515%, 100%)" offset="0.0117188"/><stop stop-opacity="1" stop-color="rgb(18.554688%, 91.770935%, 100%)" offset="0.015625"/><stop stop-opacity="1" stop-color="rgb(18.867493%, 91.589355%, 100%)" offset="0.0195312"/><stop stop-opacity="1" stop-color="rgb(19.181824%, 91.407776%, 100%)" offset="0.0234375"/><stop stop-opacity="1" stop-color="rgb(19.494629%, 91.22467%, 100%)" offset="0.0273437"/><stop stop-opacity="1" stop-color="rgb(19.80896%, 91.043091%, 100%)" offset="0.03125"/><stop stop-opacity="1" stop-color="rgb(20.121765%, 90.859985%, 100%)" offset="0.0351562"/><stop stop-opacity="1" stop-color="rgb(20.436096%, 90.678406%, 100%)" offset="0.0390625"/><stop stop-opacity="1" stop-color="rgb(20.748901%, 90.496826%, 100%)" offset="0.0429687"/><stop stop-opacity="1" stop-color="rgb(21.063232%, 90.315247%, 100%)" offset="0.046875"/><stop stop-opacity="1" stop-color="rgb(21.376038%, 90.132141%, 100%)" offset="0.0507812"/><stop stop-opacity="1" stop-color="rgb(21.690369%, 89.950562%, 100%)" offset="0.0546875"/><stop stop-opacity="1" stop-color="rgb(22.003174%, 89.768982%, 100%)" offset="0.0585937"/><stop stop-opacity="1" stop-color="rgb(22.317505%, 89.587402%, 100%)" offset="0.0625"/><stop stop-opacity="1" stop-color="rgb(22.63031%, 89.404297%, 100%)" offset="0.0664062"/><stop stop-opacity="1" stop-color="rgb(22.944641%, 89.222717%, 100%)" offset="0.0703125"/><stop stop-opacity="1" stop-color="rgb(23.258972%, 89.039612%, 100%)" offset="0.0742188"/><stop stop-opacity="1" stop-color="rgb(23.573303%, 88.858032%, 100%)" offset="0.078125"/><stop stop-opacity="1" stop-color="rgb(23.886108%, 88.676453%, 100%)" offset="0.0820313"/><stop stop-opacity="1" stop-color="rgb(24.200439%, 88.494873%, 100%)" offset="0.0859375"/><stop stop-opacity="1" stop-color="rgb(24.513245%, 88.311768%, 100%)" offset="0.0898438"/><stop stop-opacity="1" stop-color="rgb(24.827576%, 88.130188%, 100%)" offset="0.09375"/><stop stop-opacity="1" stop-color="rgb(25.140381%, 87.948608%, 100%)" offset="0.0976563"/><stop stop-opacity="1" stop-color="rgb(25.454712%, 87.767029%, 100%)" offset="0.101562"/><stop stop-opacity="1" stop-color="rgb(25.767517%, 87.583923%, 100%)" offset="0.105469"/><stop stop-opacity="1" stop-color="rgb(26.081848%, 87.402344%, 100%)" offset="0.109375"/><stop stop-opacity="1" stop-color="rgb(26.394653%, 87.219238%, 100%)" offset="0.113281"/><stop stop-opacity="1" stop-color="rgb(26.708984%, 87.037659%, 100%)" offset="0.117188"/><stop stop-opacity="1" stop-color="rgb(27.02179%, 86.856079%, 100%)" offset="0.121094"/><stop stop-opacity="1" stop-color="rgb(27.336121%, 86.6745%, 100%)" offset="0.125"/><stop stop-opacity="1" stop-color="rgb(27.650452%, 86.491394%, 100%)" offset="0.128906"/><stop stop-opacity="1" stop-color="rgb(27.964783%, 86.309814%, 100%)" offset="0.132813"/><stop stop-opacity="1" stop-color="rgb(28.277588%, 86.128235%, 100%)" offset="0.136719"/><stop stop-opacity="1" stop-color="rgb(28.591919%, 85.946655%, 100%)" offset="0.140625"/><stop stop-opacity="1" stop-color="rgb(28.904724%, 85.76355%, 100%)" offset="0.144531"/><stop stop-opacity="1" stop-color="rgb(29.219055%, 85.58197%, 100%)" offset="0.148438"/><stop stop-opacity="1" stop-color="rgb(29.53186%, 85.398865%, 100%)" offset="0.152344"/><stop stop-opacity="1" stop-color="rgb(29.846191%, 85.217285%, 100%)" offset="0.15625"/><stop stop-opacity="1" stop-color="rgb(30.158997%, 85.035706%, 100%)" offset="0.160156"/><stop stop-opacity="1" stop-color="rgb(30.473328%, 84.854126%, 100%)" offset="0.164063"/><stop stop-opacity="1" stop-color="rgb(30.786133%, 84.671021%, 100%)" offset="0.167969"/><stop stop-opacity="1" stop-color="rgb(31.100464%, 84.489441%, 100%)" offset="0.171875"/><stop stop-opacity="1" stop-color="rgb(31.413269%, 84.307861%, 100%)" offset="0.175781"/><stop stop-opacity="1" stop-color="rgb(31.7276%, 84.126282%, 100%)" offset="0.179688"/><stop stop-opacity="1" stop-color="rgb(32.040405%, 83.943176%, 100%)" offset="0.183594"/><stop stop-opacity="1" stop-color="rgb(32.354736%, 83.761597%, 100%)" offset="0.1875"/><stop stop-opacity="1" stop-color="rgb(32.669067%, 83.578491%, 100%)" offset="0.191406"/><stop stop-opacity="1" stop-color="rgb(32.983398%, 83.396912%, 100%)" offset="0.195313"/><stop stop-opacity="1" stop-color="rgb(33.296204%, 83.215332%, 100%)" offset="0.199219"/><stop stop-opacity="1" stop-color="rgb(33.610535%, 83.033752%, 100%)" offset="0.203125"/><stop stop-opacity="1" stop-color="rgb(33.92334%, 82.850647%, 100%)" offset="0.207031"/><stop stop-opacity="1" stop-color="rgb(34.237671%, 82.669067%, 100%)" offset="0.210938"/><stop stop-opacity="1" stop-color="rgb(34.550476%, 82.487488%, 100%)" offset="0.214844"/><stop stop-opacity="1" stop-color="rgb(34.864807%, 82.305908%, 100%)" offset="0.21875"/><stop stop-opacity="1" stop-color="rgb(35.177612%, 82.122803%, 100%)" offset="0.222656"/><stop stop-opacity="1" stop-color="rgb(35.491943%, 81.941223%, 100%)" offset="0.226563"/><stop stop-opacity="1" stop-color="rgb(35.804749%, 81.759644%, 100%)" offset="0.230469"/><stop stop-opacity="1" stop-color="rgb(36.11908%, 81.578064%, 100%)" offset="0.234375"/><stop stop-opacity="1" stop-color="rgb(36.431885%, 81.394958%, 100%)" offset="0.238281"/><stop stop-opacity="1" stop-color="rgb(36.746216%, 81.213379%, 100%)" offset="0.242188"/><stop stop-opacity="1" stop-color="rgb(37.060547%, 81.030273%, 100%)" offset="0.246094"/><stop stop-opacity="1" stop-color="rgb(37.374878%, 80.848694%, 100%)" offset="0.25"/><stop stop-opacity="1" stop-color="rgb(37.687683%, 80.667114%, 100%)" offset="0.253906"/><stop stop-opacity="1" stop-color="rgb(38.002014%, 80.485535%, 100%)" offset="0.257812"/><stop stop-opacity="1" stop-color="rgb(38.314819%, 80.302429%, 100%)" offset="0.261719"/><stop stop-opacity="1" stop-color="rgb(38.62915%, 80.12085%, 100%)" offset="0.265625"/><stop stop-opacity="1" stop-color="rgb(38.941956%, 79.93927%, 100%)" offset="0.269531"/><stop stop-opacity="1" stop-color="rgb(39.256287%, 79.75769%, 100%)" offset="0.273437"/><stop stop-opacity="1" stop-color="rgb(39.569092%, 79.574585%, 100%)" offset="0.277344"/><stop stop-opacity="1" stop-color="rgb(39.883423%, 79.393005%, 100%)" offset="0.28125"/><stop stop-opacity="1" stop-color="rgb(40.196228%, 79.2099%, 100%)" offset="0.285156"/><stop stop-opacity="1" stop-color="rgb(40.510559%, 79.02832%, 100%)" offset="0.289062"/><stop stop-opacity="1" stop-color="rgb(40.823364%, 78.846741%, 100%)" offset="0.292969"/><stop stop-opacity="1" stop-color="rgb(41.137695%, 78.665161%, 100%)" offset="0.296875"/><stop stop-opacity="1" stop-color="rgb(41.452026%, 78.482056%, 100%)" offset="0.300781"/><stop stop-opacity="1" stop-color="rgb(41.766357%, 78.300476%, 100%)" offset="0.304688"/><stop stop-opacity="1" stop-color="rgb(42.079163%, 78.118896%, 100%)" offset="0.308594"/><stop stop-opacity="1" stop-color="rgb(42.393494%, 77.937317%, 100%)" offset="0.3125"/><stop stop-opacity="1" stop-color="rgb(42.706299%, 77.754211%, 100%)" offset="0.316406"/><stop stop-opacity="1" stop-color="rgb(43.02063%, 77.572632%, 100%)" offset="0.320313"/><stop stop-opacity="1" stop-color="rgb(43.333435%, 77.389526%, 100%)" offset="0.324219"/><stop stop-opacity="1" stop-color="rgb(43.647766%, 77.207947%, 100%)" offset="0.328125"/><stop stop-opacity="1" stop-color="rgb(43.960571%, 77.026367%, 100%)" offset="0.332031"/><stop stop-opacity="1" stop-color="rgb(44.274902%, 76.844788%, 100%)" offset="0.335938"/><stop stop-opacity="1" stop-color="rgb(44.587708%, 76.661682%, 100%)" offset="0.339844"/><stop stop-opacity="1" stop-color="rgb(44.902039%, 76.480103%, 100%)" offset="0.34375"/><stop stop-opacity="1" stop-color="rgb(45.214844%, 76.298523%, 100%)" offset="0.347656"/><stop stop-opacity="1" stop-color="rgb(45.529175%, 76.116943%, 100%)" offset="0.351563"/><stop stop-opacity="1" stop-color="rgb(45.84198%, 75.933838%, 100%)" offset="0.355469"/><stop stop-opacity="1" stop-color="rgb(46.156311%, 75.752258%, 100%)" offset="0.359375"/><stop stop-opacity="1" stop-color="rgb(46.470642%, 75.569153%, 100%)" offset="0.363281"/><stop stop-opacity="1" stop-color="rgb(46.784973%, 75.387573%, 100%)" offset="0.367188"/><stop stop-opacity="1" stop-color="rgb(47.097778%, 75.205994%, 100%)" offset="0.371094"/><stop stop-opacity="1" stop-color="rgb(47.412109%, 75.024414%, 100%)" offset="0.375"/><stop stop-opacity="1" stop-color="rgb(47.724915%, 74.841309%, 100%)" offset="0.378906"/><stop stop-opacity="1" stop-color="rgb(48.039246%, 74.659729%, 100%)" offset="0.382812"/><stop stop-opacity="1" stop-color="rgb(48.352051%, 74.478149%, 100%)" offset="0.386719"/><stop stop-opacity="1" stop-color="rgb(48.666382%, 74.29657%, 100%)" offset="0.390625"/><stop stop-opacity="1" stop-color="rgb(48.979187%, 74.113464%, 100%)" offset="0.394531"/><stop stop-opacity="1" stop-color="rgb(49.293518%, 73.931885%, 100%)" offset="0.398438"/><stop stop-opacity="1" stop-color="rgb(49.606323%, 73.750305%, 100%)" offset="0.402344"/><stop stop-opacity="1" stop-color="rgb(49.920654%, 73.568726%, 100%)" offset="0.40625"/><stop stop-opacity="1" stop-color="rgb(50.233459%, 73.38562%, 100%)" offset="0.410156"/><stop stop-opacity="1" stop-color="rgb(50.547791%, 73.204041%, 100%)" offset="0.414062"/><stop stop-opacity="1" stop-color="rgb(50.862122%, 73.020935%, 100%)" offset="0.417969"/><stop stop-opacity="1" stop-color="rgb(51.176453%, 72.839355%, 100%)" offset="0.421875"/><stop stop-opacity="1" stop-color="rgb(51.489258%, 72.657776%, 100%)" offset="0.425781"/><stop stop-opacity="1" stop-color="rgb(51.803589%, 72.476196%, 100%)" offset="0.429688"/><stop stop-opacity="1" stop-color="rgb(52.116394%, 72.293091%, 100%)" offset="0.433594"/><stop stop-opacity="1" stop-color="rgb(52.430725%, 72.111511%, 100%)" offset="0.4375"/><stop stop-opacity="1" stop-color="rgb(52.74353%, 71.929932%, 100%)" offset="0.441406"/><stop stop-opacity="1" stop-color="rgb(53.057861%, 71.748352%, 100%)" offset="0.445312"/><stop stop-opacity="1" stop-color="rgb(53.370667%, 71.565247%, 100%)" offset="0.449219"/><stop stop-opacity="1" stop-color="rgb(53.684998%, 71.383667%, 100%)" offset="0.453125"/><stop stop-opacity="1" stop-color="rgb(53.997803%, 71.200562%, 100%)" offset="0.457031"/><stop stop-opacity="1" stop-color="rgb(54.312134%, 71.018982%, 100%)" offset="0.460938"/><stop stop-opacity="1" stop-color="rgb(54.624939%, 70.837402%, 100%)" offset="0.464844"/><stop stop-opacity="1" stop-color="rgb(54.93927%, 70.655823%, 100%)" offset="0.46875"/><stop stop-opacity="1" stop-color="rgb(55.253601%, 70.472717%, 100%)" offset="0.472656"/><stop stop-opacity="1" stop-color="rgb(55.567932%, 70.291138%, 100%)" offset="0.476562"/><stop stop-opacity="1" stop-color="rgb(55.880737%, 70.109558%, 100%)" offset="0.480469"/><stop stop-opacity="1" stop-color="rgb(56.195068%, 69.927979%, 100%)" offset="0.484375"/><stop stop-opacity="1" stop-color="rgb(56.507874%, 69.744873%, 100%)" offset="0.488281"/><stop stop-opacity="1" stop-color="rgb(56.822205%, 69.563293%, 100%)" offset="0.492188"/><stop stop-opacity="1" stop-color="rgb(57.13501%, 69.380188%, 100%)" offset="0.496094"/><stop stop-opacity="1" stop-color="rgb(57.449341%, 69.198608%, 100%)" offset="0.5"/><stop stop-opacity="1" stop-color="rgb(57.762146%, 69.017029%, 100%)" offset="0.503906"/><stop stop-opacity="1" stop-color="rgb(58.076477%, 68.835449%, 100%)" offset="0.507812"/><stop stop-opacity="1" stop-color="rgb(58.389282%, 68.652344%, 100%)" offset="0.511719"/><stop stop-opacity="1" stop-color="rgb(58.703613%, 68.470764%, 100%)" offset="0.515625"/><stop stop-opacity="1" stop-color="rgb(59.016418%, 68.289185%, 100%)" offset="0.519531"/><stop stop-opacity="1" stop-color="rgb(59.33075%, 68.107605%, 100%)" offset="0.523438"/><stop stop-opacity="1" stop-color="rgb(59.643555%, 67.9245%, 100%)" offset="0.527344"/><stop stop-opacity="1" stop-color="rgb(59.957886%, 67.74292%, 100%)" offset="0.53125"/><stop stop-opacity="1" stop-color="rgb(60.272217%, 67.559814%, 100%)" offset="0.535156"/><stop stop-opacity="1" stop-color="rgb(60.586548%, 67.378235%, 100%)" offset="0.539063"/><stop stop-opacity="1" stop-color="rgb(60.899353%, 67.196655%, 100%)" offset="0.542969"/><stop stop-opacity="1" stop-color="rgb(61.213684%, 67.015076%, 100%)" offset="0.546875"/><stop stop-opacity="1" stop-color="rgb(61.526489%, 66.83197%, 100%)" offset="0.550781"/><stop stop-opacity="1" stop-color="rgb(61.84082%, 66.650391%, 100%)" offset="0.554688"/><stop stop-opacity="1" stop-color="rgb(62.153625%, 66.468811%, 100%)" offset="0.558594"/><stop stop-opacity="1" stop-color="rgb(62.467957%, 66.287231%, 100%)" offset="0.5625"/><stop stop-opacity="1" stop-color="rgb(62.780762%, 66.104126%, 100%)" offset="0.566406"/><stop stop-opacity="1" stop-color="rgb(63.095093%, 65.922546%, 100%)" offset="0.570313"/><stop stop-opacity="1" stop-color="rgb(63.407898%, 65.739441%, 100%)" offset="0.574219"/><stop stop-opacity="1" stop-color="rgb(63.722229%, 65.557861%, 100%)" offset="0.578125"/><stop stop-opacity="1" stop-color="rgb(64.035034%, 65.376282%, 100%)" offset="0.582031"/><stop stop-opacity="1" stop-color="rgb(64.349365%, 65.194702%, 100%)" offset="0.585938"/><stop stop-opacity="1" stop-color="rgb(64.663696%, 65.011597%, 100%)" offset="0.589844"/><stop stop-opacity="1" stop-color="rgb(64.978027%, 64.830017%, 100%)" offset="0.59375"/><stop stop-opacity="1" stop-color="rgb(65.290833%, 64.648438%, 100%)" offset="0.597656"/><stop stop-opacity="1" stop-color="rgb(65.605164%, 64.466858%, 100%)" offset="0.601562"/><stop stop-opacity="1" stop-color="rgb(65.917969%, 64.283752%, 100%)" offset="0.605469"/><stop stop-opacity="1" stop-color="rgb(66.2323%, 64.102173%, 100%)" offset="0.609375"/><stop stop-opacity="1" stop-color="rgb(66.545105%, 63.920593%, 100%)" offset="0.613281"/><stop stop-opacity="1" stop-color="rgb(66.859436%, 63.739014%, 100%)" offset="0.617188"/><stop stop-opacity="1" stop-color="rgb(67.172241%, 63.555908%, 100%)" offset="0.621094"/><stop stop-opacity="1" stop-color="rgb(67.486572%, 63.374329%, 100%)" offset="0.625"/><stop stop-opacity="1" stop-color="rgb(67.799377%, 63.191223%, 100%)" offset="0.628906"/><stop stop-opacity="1" stop-color="rgb(68.113708%, 63.009644%, 100%)" offset="0.632812"/><stop stop-opacity="1" stop-color="rgb(68.426514%, 62.828064%, 100%)" offset="0.636719"/><stop stop-opacity="1" stop-color="rgb(68.740845%, 62.646484%, 100%)" offset="0.640625"/><stop stop-opacity="1" stop-color="rgb(69.055176%, 62.463379%, 100%)" offset="0.644531"/><stop stop-opacity="1" stop-color="rgb(69.369507%, 62.281799%, 100%)" offset="0.648438"/><stop stop-opacity="1" stop-color="rgb(69.682312%, 62.10022%, 100%)" offset="0.652344"/><stop stop-opacity="1" stop-color="rgb(69.996643%, 61.91864%, 100%)" offset="0.65625"/><stop stop-opacity="1" stop-color="rgb(70.309448%, 61.735535%, 100%)" offset="0.660156"/><stop stop-opacity="1" stop-color="rgb(70.623779%, 61.553955%, 100%)" offset="0.664062"/><stop stop-opacity="1" stop-color="rgb(70.936584%, 61.37085%, 100%)" offset="0.667969"/><stop stop-opacity="1" stop-color="rgb(71.250916%, 61.18927%, 100%)" offset="0.671875"/><stop stop-opacity="1" stop-color="rgb(71.563721%, 61.00769%, 100%)" offset="0.675781"/><stop stop-opacity="1" stop-color="rgb(71.878052%, 60.826111%, 100%)" offset="0.679688"/><stop stop-opacity="1" stop-color="rgb(72.190857%, 60.643005%, 100%)" offset="0.683594"/><stop stop-opacity="1" stop-color="rgb(72.505188%, 60.461426%, 100%)" offset="0.6875"/><stop stop-opacity="1" stop-color="rgb(72.817993%, 60.279846%, 100%)" offset="0.691406"/><stop stop-opacity="1" stop-color="rgb(73.132324%, 60.098267%, 100%)" offset="0.695313"/><stop stop-opacity="1" stop-color="rgb(73.445129%, 59.915161%, 100%)" offset="0.699219"/><stop stop-opacity="1" stop-color="rgb(73.75946%, 59.733582%, 100%)" offset="0.703125"/><stop stop-opacity="1" stop-color="rgb(74.073792%, 59.550476%, 100%)" offset="0.707031"/><stop stop-opacity="1" stop-color="rgb(74.388123%, 59.368896%, 100%)" offset="0.710938"/><stop stop-opacity="1" stop-color="rgb(74.700928%, 59.187317%, 100%)" offset="0.714844"/><stop stop-opacity="1" stop-color="rgb(75.015259%, 59.005737%, 100%)" offset="0.71875"/><stop stop-opacity="1" stop-color="rgb(75.328064%, 58.822632%, 100%)" offset="0.722656"/><stop stop-opacity="1" stop-color="rgb(75.642395%, 58.641052%, 100%)" offset="0.726562"/><stop stop-opacity="1" stop-color="rgb(75.9552%, 58.459473%, 100%)" offset="0.730469"/><stop stop-opacity="1" stop-color="rgb(76.269531%, 58.277893%, 100%)" offset="0.734375"/><stop stop-opacity="1" stop-color="rgb(76.582336%, 58.094788%, 100%)" offset="0.738281"/><stop stop-opacity="1" stop-color="rgb(76.896667%, 57.913208%, 100%)" offset="0.742188"/><stop stop-opacity="1" stop-color="rgb(77.209473%, 57.730103%, 100%)" offset="0.746094"/><stop stop-opacity="1" stop-color="rgb(77.523804%, 57.548523%, 100%)" offset="0.75"/><stop stop-opacity="1" stop-color="rgb(77.836609%, 57.366943%, 100%)" offset="0.753906"/><stop stop-opacity="1" stop-color="rgb(78.15094%, 57.185364%, 100%)" offset="0.757812"/><stop stop-opacity="1" stop-color="rgb(78.465271%, 57.002258%, 100%)" offset="0.761719"/><stop stop-opacity="1" stop-color="rgb(78.779602%, 56.820679%, 100%)" offset="0.765625"/><stop stop-opacity="1" stop-color="rgb(79.092407%, 56.639099%, 100%)" offset="0.769531"/><stop stop-opacity="1" stop-color="rgb(79.406738%, 56.45752%, 100%)" offset="0.773438"/><stop stop-opacity="1" stop-color="rgb(79.719543%, 56.274414%, 100%)" offset="0.777344"/><stop stop-opacity="1" stop-color="rgb(80.033875%, 56.092834%, 100%)" offset="0.78125"/><stop stop-opacity="1" stop-color="rgb(80.34668%, 55.911255%, 100%)" offset="0.785156"/><stop stop-opacity="1" stop-color="rgb(80.661011%, 55.729675%, 100%)" offset="0.789062"/><stop stop-opacity="1" stop-color="rgb(80.973816%, 55.54657%, 100%)" offset="0.792969"/><stop stop-opacity="1" stop-color="rgb(81.288147%, 55.36499%, 100%)" offset="0.796875"/><stop stop-opacity="1" stop-color="rgb(81.600952%, 55.181885%, 100%)" offset="0.800781"/><stop stop-opacity="1" stop-color="rgb(81.915283%, 55.000305%, 100%)" offset="0.804688"/><stop stop-opacity="1" stop-color="rgb(82.228088%, 54.818726%, 100%)" offset="0.808594"/><stop stop-opacity="1" stop-color="rgb(82.542419%, 54.637146%, 100%)" offset="0.8125"/><stop stop-opacity="1" stop-color="rgb(82.85675%, 54.454041%, 100%)" offset="0.816406"/><stop stop-opacity="1" stop-color="rgb(83.171082%, 54.272461%, 100%)" offset="0.820313"/><stop stop-opacity="1" stop-color="rgb(83.483887%, 54.090881%, 100%)" offset="0.824219"/><stop stop-opacity="1" stop-color="rgb(83.798218%, 53.909302%, 100%)" offset="0.828125"/><stop stop-opacity="1" stop-color="rgb(84.111023%, 53.726196%, 100%)" offset="0.832031"/><stop stop-opacity="1" stop-color="rgb(84.425354%, 53.544617%, 100%)" offset="0.835938"/><stop stop-opacity="1" stop-color="rgb(84.738159%, 53.361511%, 100%)" offset="0.839844"/><stop stop-opacity="1" stop-color="rgb(85.05249%, 53.179932%, 100%)" offset="0.84375"/><stop stop-opacity="1" stop-color="rgb(85.365295%, 52.998352%, 100%)" offset="0.847656"/><stop stop-opacity="1" stop-color="rgb(85.679626%, 52.816772%, 100%)" offset="0.851562"/><stop stop-opacity="1" stop-color="rgb(85.992432%, 52.633667%, 100%)" offset="0.855469"/><stop stop-opacity="1" stop-color="rgb(86.306763%, 52.452087%, 100%)" offset="0.859375"/><stop stop-opacity="1" stop-color="rgb(86.619568%, 52.270508%, 100%)" offset="0.863281"/><stop stop-opacity="1" stop-color="rgb(86.933899%, 52.088928%, 100%)" offset="0.867188"/><stop stop-opacity="1" stop-color="rgb(87.246704%, 51.905823%, 100%)" offset="0.871094"/><stop stop-opacity="1" stop-color="rgb(87.561035%, 51.724243%, 100%)" offset="0.875"/><stop stop-opacity="1" stop-color="rgb(87.875366%, 51.541138%, 100%)" offset="0.878906"/><stop stop-opacity="1" stop-color="rgb(88.189697%, 51.359558%, 100%)" offset="0.882812"/><stop stop-opacity="1" stop-color="rgb(88.502502%, 51.177979%, 100%)" offset="0.886719"/><stop stop-opacity="1" stop-color="rgb(88.816833%, 50.996399%, 100%)" offset="0.890625"/><stop stop-opacity="1" stop-color="rgb(89.129639%, 50.813293%, 100%)" offset="0.894531"/><stop stop-opacity="1" stop-color="rgb(89.44397%, 50.631714%, 100%)" offset="0.898438"/><stop stop-opacity="1" stop-color="rgb(89.756775%, 50.450134%, 100%)" offset="0.902344"/><stop stop-opacity="1" stop-color="rgb(90.071106%, 50.268555%, 100%)" offset="0.90625"/><stop stop-opacity="1" stop-color="rgb(90.383911%, 50.085449%, 100%)" offset="0.910156"/><stop stop-opacity="1" stop-color="rgb(90.698242%, 49.90387%, 100%)" offset="0.914062"/><stop stop-opacity="1" stop-color="rgb(91.011047%, 49.720764%, 100%)" offset="0.917969"/><stop stop-opacity="1" stop-color="rgb(91.325378%, 49.539185%, 100%)" offset="0.921875"/><stop stop-opacity="1" stop-color="rgb(91.638184%, 49.357605%, 100%)" offset="0.925781"/><stop stop-opacity="1" stop-color="rgb(91.952515%, 49.176025%, 100%)" offset="0.929687"/><stop stop-opacity="1" stop-color="rgb(92.266846%, 48.99292%, 100%)" offset="0.933594"/><stop stop-opacity="1" stop-color="rgb(92.581177%, 48.81134%, 100%)" offset="0.9375"/><stop stop-opacity="1" stop-color="rgb(92.893982%, 48.629761%, 100%)" offset="0.941406"/><stop stop-opacity="1" stop-color="rgb(93.208313%, 48.448181%, 100%)" offset="0.945313"/><stop stop-opacity="1" stop-color="rgb(93.521118%, 48.265076%, 100%)" offset="0.949219"/><stop stop-opacity="1" stop-color="rgb(93.835449%, 48.083496%, 100%)" offset="0.953125"/><stop stop-opacity="1" stop-color="rgb(94.148254%, 47.900391%, 100%)" offset="0.957031"/><stop stop-opacity="1" stop-color="rgb(94.462585%, 47.718811%, 100%)" offset="0.960938"/><stop stop-opacity="1" stop-color="rgb(94.775391%, 47.537231%, 100%)" offset="0.964844"/><stop stop-opacity="1" stop-color="rgb(95.089722%, 47.355652%, 100%)" offset="0.96875"/><stop stop-opacity="1" stop-color="rgb(95.402527%, 47.172546%, 100%)" offset="0.972656"/><stop stop-opacity="1" stop-color="rgb(95.716858%, 46.990967%, 100%)" offset="0.976562"/><stop stop-opacity="1" stop-color="rgb(96.029663%, 46.809387%, 100%)" offset="0.980469"/><stop stop-opacity="1" stop-color="rgb(96.343994%, 46.627808%, 100%)" offset="0.984375"/><stop stop-opacity="1" stop-color="rgb(96.658325%, 46.444702%, 100%)" offset="0.988281"/><stop stop-opacity="1" stop-color="rgb(96.972656%, 46.263123%, 100%)" offset="0.992188"/><stop stop-opacity="1" stop-color="rgb(97.285461%, 46.081543%, 100%)" offset="0.996094"/><stop stop-opacity="1" stop-color="rgb(97.599792%, 45.899963%, 100%)" offset="1"/></linearGradient></defs><g clip-path="url(#96542b0806)"><g clip-path="url(#7a95e6fa10)"><path fill="url(#abd2367041)" d="M 0.859375 80.765625 L 0.859375 519.847656 L 300 519.847656 L 300 80.765625 Z M 0.859375 80.765625 " fill-rule="nonzero"/></g></g></svg>