<svg xmlns="http://www.w3.org/2000/svg" xmlns:xlink="http://www.w3.org/1999/xlink" width="100" zoomAndPan="magnify" viewBox="0 0 75 74.999997" height="100" preserveAspectRatio="xMidYMid meet" version="1.0"><defs><clipPath id="cef1935bcf"><path d="M 57 7.5 L 68 7.5 L 68 13 L 57 13 Z M 57 7.5 " clip-rule="nonzero"/></clipPath><clipPath id="627c6625a0"><path d="M 62 7.5 L 68 7.5 L 68 13 L 62 13 Z M 62 7.5 " clip-rule="nonzero"/></clipPath><clipPath id="8da69993b3"><path d="M 28 12 L 68.609375 12 L 68.609375 43 L 28 43 Z M 28 12 " clip-rule="nonzero"/></clipPath><clipPath id="2be5ada6c3"><path d="M 37 12 L 68.609375 12 L 68.609375 42 L 37 42 Z M 37 12 " clip-rule="nonzero"/></clipPath><clipPath id="b6bb1270e9"><path d="M 12 55 L 52 55 L 52 69.75 L 12 69.75 Z M 12 55 " clip-rule="nonzero"/></clipPath><clipPath id="31dfab68a8"><path d="M 34 65 L 40 65 L 40 69.75 L 34 69.75 Z M 34 65 " clip-rule="nonzero"/></clipPath><clipPath id="368acbfa88"><path d="M 6.359375 35 L 53 35 L 53 52 L 6.359375 52 Z M 6.359375 35 " clip-rule="nonzero"/></clipPath><clipPath id="3a2b86a696"><path d="M 53 51 L 68.609375 51 L 68.609375 54 L 53 54 Z M 53 51 " clip-rule="nonzero"/></clipPath></defs><rect x="-7.5" width="90" fill="#ffffff" y="-7.5" height="89.999996" fill-opacity="1"/><rect x="-7.5" width="90" fill="#ffffff" y="-7.5" height="89.999996" fill-opacity="1"/><rect x="-7.5" width="90" fill="#c1f0f8" y="-7.5" height="89.999996" fill-opacity="1"/><g clip-path="url(#cef1935bcf)"><path fill="#cfcfcf" d="M 65.449219 12.222656 L 59.84375 12.222656 C 58.542969 12.222656 57.484375 11.164062 57.484375 9.863281 C 57.484375 8.5625 58.542969 7.507812 59.84375 7.507812 L 65.449219 7.507812 C 66.75 7.507812 67.804688 8.5625 67.804688 9.863281 C 67.804688 11.164062 66.75 12.222656 65.449219 12.222656 Z M 65.449219 12.222656 " fill-opacity="1" fill-rule="nonzero"/></g><g clip-path="url(#627c6625a0)"><path fill="#c0c0c0" d="M 67.804688 9.863281 C 67.804688 11.164062 66.75 12.222656 65.449219 12.222656 L 62.941406 12.222656 C 64.242188 12.222656 65.300781 11.164062 65.300781 9.863281 C 65.300781 8.5625 64.242188 7.507812 62.941406 7.507812 L 65.449219 7.507812 C 66.75 7.507812 67.804688 8.5625 67.804688 9.863281 Z M 67.804688 9.863281 " fill-opacity="1" fill-rule="nonzero"/></g><path fill="#cfcfcf" d="M 25.332031 16.792969 L 22.523438 16.792969 C 21.222656 16.792969 20.167969 15.734375 20.167969 14.433594 C 20.167969 13.132812 21.222656 12.078125 22.523438 12.078125 L 25.332031 12.078125 C 26.632812 12.078125 27.691406 13.132812 27.691406 14.433594 C 27.691406 15.734375 26.632812 16.792969 25.332031 16.792969 Z M 25.332031 16.792969 " fill-opacity="1" fill-rule="nonzero"/><path fill="#c0c0c0" d="M 27.691406 14.433594 C 27.691406 15.734375 26.632812 16.792969 25.332031 16.792969 L 22.828125 16.792969 C 24.128906 16.792969 25.1875 15.734375 25.1875 14.433594 C 25.1875 13.132812 24.128906 12.078125 22.828125 12.078125 L 25.332031 12.078125 C 26.632812 12.078125 27.691406 13.132812 27.691406 14.433594 Z M 27.691406 14.433594 " fill-opacity="1" fill-rule="nonzero"/><g clip-path="url(#8da69993b3)"><path fill="#9d9d9d" d="M 58.699219 42.585938 C 64.085938 42.585938 68.609375 38.1875 68.597656 32.789062 C 68.597656 27.964844 65.082031 23.953125 60.476562 23.164062 C 60.21875 23.113281 60.015625 22.917969 59.964844 22.652344 C 58.917969 16.574219 53.59375 11.957031 47.203125 12.003906 C 40.125 12.050781 34.378906 17.898438 34.4375 24.972656 C 34.449219 25.714844 34.511719 26.445312 34.644531 27.148438 C 30.984375 27.832031 28.226562 31.078125 28.300781 34.953125 C 28.382812 39.207031 31.933594 42.585938 36.1875 42.585938 Z M 58.699219 42.585938 " fill-opacity="1" fill-rule="nonzero"/></g><g clip-path="url(#2be5ada6c3)"><path fill="#848484" d="M 68.597656 32.789062 C 68.597656 36.363281 66.613281 39.511719 63.695312 41.214844 C 65.15625 39.511719 66.054688 37.3125 66.042969 34.917969 C 66.042969 30.089844 62.53125 26.082031 57.921875 25.289062 C 57.667969 25.242188 57.460938 25.046875 57.414062 24.78125 C 56.355469 18.703125 51.042969 14.082031 44.648438 14.132812 C 42.15625 14.15625 39.835938 14.882812 37.867188 16.136719 C 40.199219 13.621094 43.519531 12.027344 47.1875 12.003906 C 53.582031 11.957031 58.90625 16.574219 59.953125 22.664062 C 60 22.917969 60.207031 23.125 60.464844 23.175781 C 65.082031 23.953125 68.597656 27.964844 68.597656 32.789062 Z M 68.597656 32.789062 " fill-opacity="1" fill-rule="nonzero"/></g><path fill="#cfcfcf" d="M 40.34375 43.960938 C 44.648438 43.960938 48.257812 40.4375 48.234375 36.144531 C 48.210938 32.351562 45.476562 29.191406 41.863281 28.535156 C 41.609375 28.488281 41.402344 28.292969 41.355469 28.039062 C 40.46875 23.152344 36.117188 19.480469 30.925781 19.648438 C 25.601562 19.832031 21.273438 24.148438 21.066406 29.472656 C 21.042969 30.042969 21.066406 30.601562 21.140625 31.148438 C 21.175781 31.453125 20.980469 31.734375 20.691406 31.816406 C 18.050781 32.558594 16.132812 34.992188 16.179688 37.871094 C 16.226562 41.261719 19.074219 43.960938 22.464844 43.960938 Z M 40.34375 43.960938 " fill-opacity="1" fill-rule="nonzero"/><path fill="#c0c0c0" d="M 48.246094 36.144531 C 48.257812 39.511719 46.046875 42.40625 43.019531 43.5 C 44.660156 42.066406 45.695312 39.972656 45.683594 37.652344 C 45.65625 33.859375 42.921875 30.699219 39.3125 30.042969 C 39.058594 29.996094 38.851562 29.800781 38.800781 29.542969 C 37.914062 24.65625 33.550781 20.988281 28.371094 21.15625 C 27.144531 21.195312 25.976562 21.460938 24.894531 21.898438 C 26.5625 20.550781 28.664062 19.722656 30.9375 19.636719 C 36.117188 19.457031 40.480469 23.136719 41.367188 28.023438 C 41.414062 28.28125 41.609375 28.488281 41.878906 28.523438 C 45.476562 29.191406 48.222656 32.339844 48.246094 36.144531 Z M 48.246094 36.144531 " fill-opacity="1" fill-rule="nonzero"/><g clip-path="url(#b6bb1270e9)"><path fill="#cfcfcf" d="M 49.292969 55.605469 L 15.121094 55.605469 C 13.796875 55.605469 12.726562 56.699219 12.765625 58.039062 C 12.8125 59.3125 13.894531 60.3125 15.183594 60.3125 L 29.78125 60.3125 C 28.457031 60.3125 27.386719 61.40625 27.425781 62.742188 C 27.472656 64.019531 28.554688 65.015625 29.84375 65.015625 L 22.355469 65.015625 C 21.03125 65.015625 19.960938 66.109375 19.996094 67.445312 C 20.046875 68.722656 21.128906 69.71875 22.414062 69.71875 L 37.085938 69.71875 C 38.375 69.71875 39.433594 68.675781 39.445312 67.386719 C 39.457031 66.074219 38.402344 65.015625 37.085938 65.015625 L 44.515625 65.015625 C 45.804688 65.015625 46.859375 63.96875 46.875 62.679688 C 46.886719 61.367188 45.828125 60.3125 44.515625 60.3125 L 49.292969 60.3125 C 50.582031 60.3125 51.636719 59.265625 51.652344 57.976562 C 51.664062 56.675781 50.605469 55.605469 49.292969 55.605469 Z M 49.292969 55.605469 " fill-opacity="1" fill-rule="nonzero"/></g><g clip-path="url(#31dfab68a8)"><path fill="#c0c0c0" d="M 39.445312 67.386719 L 39.445312 67.410156 C 39.433594 68.699219 38.386719 69.742188 37.085938 69.742188 L 34.582031 69.742188 C 35.871094 69.742188 36.929688 68.699219 36.941406 67.410156 L 36.941406 67.386719 C 36.941406 66.085938 35.882812 65.027344 34.582031 65.027344 L 37.085938 65.027344 C 38.386719 65.027344 39.445312 66.085938 39.445312 67.386719 Z M 39.445312 67.386719 " fill-opacity="1" fill-rule="nonzero"/></g><path fill="#c0c0c0" d="M 46.875 62.667969 L 46.875 62.695312 C 46.859375 63.980469 45.816406 65.027344 44.515625 65.027344 L 42.011719 65.027344 C 43.300781 65.027344 44.355469 63.980469 44.371094 62.695312 L 44.371094 62.667969 C 44.371094 61.367188 43.3125 60.3125 42.011719 60.3125 L 44.515625 60.3125 C 45.816406 60.324219 46.875 61.367188 46.875 62.667969 Z M 46.875 62.667969 " fill-opacity="1" fill-rule="nonzero"/><path fill="#c0c0c0" d="M 51.652344 57.976562 C 51.636719 59.265625 50.59375 60.3125 49.292969 60.3125 L 46.789062 60.3125 C 48.078125 60.3125 49.132812 59.265625 49.144531 57.976562 C 49.160156 56.664062 48.101562 55.605469 46.789062 55.605469 L 49.292969 55.605469 C 50.605469 55.605469 51.664062 56.675781 51.652344 57.976562 Z M 51.652344 57.976562 " fill-opacity="1" fill-rule="nonzero"/><g clip-path="url(#368acbfa88)"><path fill="#ececec" d="M 52.5625 44.933594 C 52.417969 41.675781 49.707031 39.074219 46.449219 39.050781 C 43.542969 39.027344 41.085938 41.019531 40.417969 43.71875 C 40.394531 43.816406 40.261719 43.851562 40.1875 43.777344 C 39.640625 43.257812 38.910156 42.941406 38.097656 42.941406 C 37.804688 42.941406 37.527344 42.976562 37.257812 43.0625 C 37.160156 43.085938 37.074219 43.011719 37.085938 42.914062 C 37.136719 42.574219 37.148438 42.222656 37.136719 41.871094 C 36.992188 38.84375 34.511719 36.386719 31.484375 36.277344 C 28.140625 36.15625 25.394531 38.832031 25.394531 42.148438 C 25.394531 42.273438 25.25 42.332031 25.164062 42.246094 C 24.433594 41.480469 23.398438 41.007812 22.257812 41.007812 C 22.234375 41.007812 22.210938 41.007812 22.183594 41.007812 C 22.113281 41.007812 22.0625 40.957031 22.050781 40.898438 C 21.503906 37.859375 18.816406 35.5625 15.609375 35.621094 C 12.230469 35.671875 9.433594 38.382812 9.289062 41.75 C 9.261719 42.1875 9.289062 42.613281 9.347656 43.011719 C 9.359375 43.085938 9.324219 43.148438 9.25 43.160156 C 7.5625 43.71875 6.359375 45.296875 6.359375 47.171875 C 6.359375 49.503906 8.253906 51.386719 10.40625 51.386719 L 46.328125 51.386719 C 48.574219 51.386719 50.691406 50.210938 51.796875 48.253906 C 52.332031 47.28125 52.621094 46.136719 52.5625 44.933594 Z M 52.5625 44.933594 " fill-opacity="1" fill-rule="nonzero"/></g><path fill="#e3e3e3" d="M 51.785156 48.253906 C 50.835938 49.953125 49.121094 51.058594 47.214844 51.328125 C 48.050781 50.792969 48.757812 50.0625 49.253906 49.175781 C 49.804688 48.203125 50.09375 47.0625 50.035156 45.871094 C 49.886719 42.613281 47.175781 40.011719 43.917969 39.988281 C 43.628906 39.988281 43.347656 40 43.070312 40.035156 C 44.039062 39.402344 45.207031 39.050781 46.449219 39.050781 C 49.707031 39.074219 52.417969 41.6875 52.5625 44.933594 C 52.621094 46.136719 52.332031 47.28125 51.785156 48.253906 Z M 51.785156 48.253906 " fill-opacity="1" fill-rule="nonzero"/><path fill="#9d9d9d" d="M 28.226562 26.492188 L 12.121094 26.492188 C 11.597656 26.492188 11.183594 26.066406 11.183594 25.558594 C 11.183594 25.046875 11.609375 24.621094 12.121094 24.621094 L 28.226562 24.621094 C 28.75 24.621094 29.164062 25.046875 29.164062 25.558594 C 29.164062 26.066406 28.75 26.492188 28.226562 26.492188 Z M 28.226562 26.492188 " fill-opacity="1" fill-rule="nonzero"/><g clip-path="url(#3a2b86a696)"><path fill="#9d9d9d" d="M 67.539062 53.660156 L 54.785156 53.660156 C 54.265625 53.660156 53.851562 53.234375 53.851562 52.726562 C 53.851562 52.214844 54.277344 51.789062 54.785156 51.789062 L 67.539062 51.789062 C 68.0625 51.789062 68.472656 52.214844 68.472656 52.726562 C 68.472656 53.234375 68.0625 53.660156 67.539062 53.660156 Z M 67.539062 53.660156 " fill-opacity="1" fill-rule="nonzero"/></g><path fill="#9d9d9d" d="M 66.96875 48.773438 L 63.210938 48.773438 C 62.6875 48.773438 62.273438 48.351562 62.273438 47.839844 C 62.273438 47.328125 62.699219 46.902344 63.210938 46.902344 L 66.96875 46.902344 C 67.488281 46.902344 67.902344 47.328125 67.902344 47.839844 C 67.902344 48.363281 67.476562 48.773438 66.96875 48.773438 Z M 66.96875 48.773438 " fill-opacity="1" fill-rule="nonzero"/><path fill="#9d9d9d" d="M 59.152344 58.535156 L 57.363281 58.535156 C 56.839844 58.535156 56.429688 58.109375 56.429688 57.601562 C 56.429688 57.089844 56.851562 56.664062 57.363281 56.664062 L 59.152344 56.664062 C 59.671875 56.664062 60.085938 57.089844 60.085938 57.601562 C 60.085938 58.109375 59.671875 58.535156 59.152344 58.535156 Z M 59.152344 58.535156 " fill-opacity="1" fill-rule="nonzero"/><path fill="#9d9d9d" d="M 17.503906 21.582031 L 8.304688 21.582031 C 7.78125 21.582031 7.367188 21.15625 7.367188 20.648438 C 7.367188 20.136719 7.792969 19.710938 8.304688 19.710938 L 17.503906 19.710938 C 18.027344 19.710938 18.441406 20.136719 18.441406 20.648438 C 18.441406 21.15625 18.015625 21.582031 17.503906 21.582031 Z M 17.503906 21.582031 " fill-opacity="1" fill-rule="nonzero"/><path fill="#9d9d9d" d="M 15.5 17.800781 L 12.898438 17.800781 C 12.375 17.800781 11.960938 17.375 11.960938 16.867188 C 11.960938 16.355469 12.386719 15.929688 12.898438 15.929688 L 15.5 15.929688 C 16.023438 15.929688 16.433594 16.355469 16.433594 16.867188 C 16.433594 17.375 16.023438 17.800781 15.5 17.800781 Z M 15.5 17.800781 " fill-opacity="1" fill-rule="nonzero"/></svg>