<svg xmlns="http://www.w3.org/2000/svg" xmlns:xlink="http://www.w3.org/1999/xlink" width="500" zoomAndPan="magnify" viewBox="0 0 375 374.999991" height="500" preserveAspectRatio="xMidYMid meet" version="1.0"><defs><clipPath id="1fbe0b7223"><path d="M 89.828125 89.828125 L 284.828125 89.828125 L 284.828125 284.828125 L 89.828125 284.828125 Z M 89.828125 89.828125 " clip-rule="nonzero"/></clipPath></defs><g clip-path="url(#1fbe0b7223)"><path fill="#ffffff" d="M 187.328125 107.554688 C 143.269531 107.554688 107.554688 143.269531 107.554688 187.328125 C 107.554688 231.386719 143.269531 267.101562 187.328125 267.101562 C 231.386719 267.101562 267.101562 231.386719 267.101562 187.328125 C 267.101562 143.269531 231.386719 107.554688 187.328125 107.554688 Z M 89.828125 187.328125 C 89.828125 133.480469 133.480469 89.828125 187.328125 89.828125 C 241.175781 89.828125 284.828125 133.480469 284.828125 187.328125 C 284.828125 241.175781 241.175781 284.828125 187.328125 284.828125 C 133.480469 284.828125 89.828125 241.175781 89.828125 187.328125 Z M 89.828125 187.328125 " fill-opacity="1" fill-rule="evenodd"/></g><path fill="#ffffff" d="M 155.421875 165.167969 C 155.421875 150.484375 167.328125 138.578125 182.015625 138.578125 L 209.492188 138.578125 L 209.492188 156.304688 L 182.015625 156.304688 C 177.117188 156.304688 173.148438 160.273438 173.148438 165.167969 L 173.148438 169.601562 C 173.148438 174.496094 177.117188 178.464844 182.015625 178.464844 L 192.648438 178.464844 C 207.335938 178.464844 219.242188 190.371094 219.242188 205.054688 L 219.242188 209.488281 C 219.242188 224.171875 207.335938 236.078125 192.648438 236.078125 L 165.171875 236.078125 L 165.171875 218.351562 L 192.648438 218.351562 C 197.546875 218.351562 201.515625 214.382812 201.515625 209.488281 L 201.515625 205.054688 C 201.515625 200.160156 197.546875 196.191406 192.648438 196.191406 L 182.015625 196.191406 C 167.328125 196.191406 155.421875 184.289062 155.421875 169.601562 Z M 155.421875 165.167969 " fill-opacity="1" fill-rule="evenodd"/><path fill="#ffffff" d="M 178.464844 127.941406 L 196.191406 127.941406 L 196.191406 147.441406 L 178.464844 147.441406 Z M 178.464844 127.941406 " fill-opacity="1" fill-rule="evenodd"/><path fill="#ffffff" d="M 178.464844 227.214844 L 196.191406 227.214844 L 196.191406 246.714844 L 178.464844 246.714844 Z M 178.464844 227.214844 " fill-opacity="1" fill-rule="evenodd"/></svg>