<svg xmlns="http://www.w3.org/2000/svg" xmlns:xlink="http://www.w3.org/1999/xlink" width="500" zoomAndPan="magnify" viewBox="0 0 375 374.999991" height="500" preserveAspectRatio="xMidYMid meet" version="1.0"><defs><clipPath id="39e9535cce"><path d="M 97.003906 85.640625 L 294.253906 85.640625 L 294.253906 282.890625 L 97.003906 282.890625 Z M 97.003906 85.640625 " clip-rule="nonzero"/></clipPath><clipPath id="0459c753e4"><path d="M 101.640625 109.105469 L 289.890625 109.105469 L 289.890625 259.855469 L 101.640625 259.855469 Z M 101.640625 109.105469 " clip-rule="nonzero"/></clipPath></defs><g clip-path="url(#39e9535cce)"><path fill="#ffffff" d="M 195.628906 98.902344 C 148.558594 98.902344 110.265625 137.195312 110.265625 184.265625 C 110.265625 231.335938 148.558594 269.628906 195.628906 269.628906 C 242.699219 269.628906 280.992188 231.335938 280.992188 184.265625 C 280.992188 137.195312 242.699219 98.902344 195.628906 98.902344 Z M 195.628906 282.890625 C 141.246094 282.890625 97.003906 238.648438 97.003906 184.265625 C 97.003906 129.882812 141.246094 85.640625 195.628906 85.640625 C 250.011719 85.640625 294.253906 129.882812 294.253906 184.265625 C 294.253906 238.648438 250.011719 282.890625 195.628906 282.890625 " fill-opacity="1" fill-rule="nonzero"/></g><path fill="#ffffff" d="M 195.628906 128.050781 C 184.734375 128.050781 176.320312 137.617188 177.707031 148.421875 L 184.046875 197.863281 C 184.796875 203.683594 189.757812 208.050781 195.628906 208.050781 C 201.5 208.050781 206.453125 203.683594 207.203125 197.863281 L 213.550781 148.421875 C 214.9375 137.617188 206.523438 128.050781 195.628906 128.050781 " fill-opacity="1" fill-rule="nonzero"/><path fill="#ffffff" d="M 207.519531 228.585938 C 207.519531 235.15625 202.195312 240.480469 195.628906 240.480469 C 189.0625 240.480469 183.738281 235.15625 183.738281 228.585938 C 183.738281 222.019531 189.0625 216.695312 195.628906 216.695312 C 202.195312 216.695312 207.519531 222.019531 207.519531 228.585938 " fill-opacity="1" fill-rule="nonzero"/><path fill="#ffffff" d="M 119.445312 202.03125 C 115.445312 202.03125 112.191406 205.289062 112.191406 209.292969 C 112.191406 213.296875 115.445312 216.554688 119.445312 216.554688 C 123.445312 216.554688 126.703125 213.296875 126.703125 209.292969 C 126.703125 205.289062 123.445312 202.03125 119.445312 202.03125 Z M 119.445312 212.375 C 117.75 212.375 116.363281 210.992188 116.363281 209.289062 C 116.363281 207.585938 117.746094 206.207031 119.445312 206.207031 C 121.144531 206.207031 122.527344 207.589844 122.527344 209.289062 C 122.527344 210.992188 121.144531 212.375 119.445312 212.375 Z M 119.445312 212.375 " fill-opacity="1" fill-rule="nonzero"/><g clip-path="url(#0459c753e4)"><path fill="#ffffff" d="M 278.539062 180.390625 L 278.539062 116.625 C 278.539062 112.546875 275.226562 109.230469 271.152344 109.230469 L 109.03125 109.230469 C 104.957031 109.230469 101.640625 112.546875 101.640625 116.625 L 101.640625 215.316406 C 101.640625 219.402344 104.957031 222.730469 109.03125 222.730469 L 169.101562 222.730469 L 169.101562 240.640625 L 168.167969 240.640625 C 162.851562 240.640625 158.527344 244.96875 158.527344 250.289062 C 158.527344 255.609375 162.851562 259.941406 168.167969 259.941406 L 212.027344 259.941406 C 217.339844 259.941406 221.664062 255.613281 221.664062 250.289062 C 221.664062 244.964844 217.339844 240.640625 212.027344 240.640625 L 211.089844 240.640625 L 211.089844 222.730469 L 223.480469 222.730469 C 229.402344 233.910156 241.140625 241.546875 254.636719 241.546875 C 274.078125 241.546875 289.894531 225.71875 289.894531 206.257812 C 289.894531 196.035156 285.503906 186.839844 278.542969 180.390625 Z M 105.816406 116.625 C 105.816406 114.847656 107.257812 113.40625 109.03125 113.40625 L 271.152344 113.40625 C 272.925781 113.40625 274.363281 114.847656 274.363281 116.625 L 274.363281 177.023438 C 273.4375 176.394531 272.472656 175.808594 271.484375 175.265625 L 271.484375 123.269531 C 271.484375 119.433594 268.367188 116.3125 264.535156 116.3125 L 115.667969 116.3125 C 111.824219 116.3125 108.695312 119.433594 108.695312 123.269531 L 108.695312 195.867188 L 105.816406 195.867188 Z M 220.941406 195.867188 L 112.871094 195.867188 L 112.871094 123.269531 C 112.871094 121.738281 114.125 120.488281 115.667969 120.488281 L 264.535156 120.488281 C 266.066406 120.488281 267.3125 121.738281 267.3125 123.269531 L 267.3125 173.363281 C 263.371094 171.835938 259.105469 170.964844 254.636719 170.964844 C 238.804688 170.964844 225.382812 181.460938 220.941406 195.867188 Z M 212.027344 244.816406 C 215.039062 244.816406 217.492188 247.273438 217.492188 250.289062 C 217.492188 253.304688 215.039062 255.761719 212.027344 255.761719 L 168.167969 255.761719 C 165.15625 255.761719 162.699219 253.304688 162.699219 250.289062 C 162.699219 247.273438 165.15625 244.816406 168.167969 244.816406 Z M 173.277344 240.640625 L 173.277344 222.730469 L 206.917969 222.730469 L 206.917969 240.640625 Z M 209.046875 218.554688 C 209.03125 218.554688 209.019531 218.546875 209.003906 218.546875 L 171.191406 218.546875 C 171.179688 218.546875 171.164062 218.554688 171.152344 218.554688 L 109.03125 218.554688 C 107.257812 218.554688 105.816406 217.101562 105.816406 215.316406 L 105.816406 200.042969 L 219.960938 200.042969 C 219.597656 202.0625 219.378906 204.132812 219.378906 206.257812 C 219.378906 210.585938 220.199219 214.71875 221.628906 218.554688 L 209.042969 218.554688 Z M 254.636719 237.371094 C 237.5 237.371094 223.554688 223.414062 223.554688 206.257812 C 223.554688 189.101562 237.5 175.140625 254.636719 175.140625 C 271.777344 175.140625 285.71875 189.101562 285.71875 206.257812 C 285.71875 223.414062 271.777344 237.371094 254.636719 237.371094 Z M 254.636719 237.371094 " fill-opacity="1" fill-rule="nonzero"/></g><path fill="#ffffff" d="M 259.191406 228.886719 L 250.082031 228.886719 C 248.929688 228.886719 247.992188 227.953125 247.992188 226.800781 L 247.992188 222.214844 C 246.632812 221.644531 245.351562 220.902344 244.164062 219.988281 L 240.1875 222.289062 C 239.707031 222.566406 239.132812 222.636719 238.601562 222.496094 C 238.066406 222.355469 237.609375 222.003906 237.335938 221.523438 L 232.777344 213.625 C 232.203125 212.625 232.546875 211.347656 233.542969 210.773438 L 237.515625 208.476562 C 237.417969 207.734375 237.367188 206.992188 237.367188 206.257812 C 237.367188 205.527344 237.417969 204.785156 237.515625 204.042969 L 233.542969 201.75 C 233.066406 201.46875 232.714844 201.015625 232.570312 200.480469 C 232.425781 199.945312 232.5 199.375 232.777344 198.894531 L 237.335938 190.992188 C 237.613281 190.515625 238.066406 190.164062 238.601562 190.019531 C 239.136719 189.878906 239.707031 189.953125 240.1875 190.230469 L 244.164062 192.527344 C 245.351562 191.617188 246.632812 190.871094 247.992188 190.300781 L 247.992188 185.714844 C 247.992188 184.5625 248.929688 183.628906 250.082031 183.628906 L 259.191406 183.628906 C 260.34375 183.628906 261.277344 184.5625 261.277344 185.714844 L 261.277344 190.300781 C 262.640625 190.871094 263.921875 191.617188 265.105469 192.527344 L 269.085938 190.230469 C 269.566406 189.953125 270.140625 189.878906 270.671875 190.019531 C 271.207031 190.164062 271.664062 190.511719 271.9375 190.992188 L 276.492188 198.894531 C 276.769531 199.375 276.84375 199.945312 276.703125 200.480469 C 276.558594 201.015625 276.210938 201.472656 275.730469 201.75 L 271.757812 204.042969 C 271.855469 204.785156 271.90625 205.527344 271.90625 206.257812 C 271.90625 206.992188 271.855469 207.734375 271.757812 208.476562 L 275.730469 210.773438 C 276.730469 211.347656 277.070312 212.625 276.492188 213.625 L 271.9375 221.523438 C 271.660156 222.003906 271.207031 222.355469 270.671875 222.496094 C 270.140625 222.644531 269.566406 222.566406 269.085938 222.289062 L 265.105469 219.988281 C 263.921875 220.902344 262.640625 221.644531 261.277344 222.214844 L 261.277344 226.800781 C 261.277344 227.953125 260.34375 228.886719 259.191406 228.886719 Z M 252.167969 224.710938 L 257.105469 224.710938 L 257.105469 220.753906 C 257.105469 219.84375 257.695312 219.035156 258.566406 218.761719 C 260.378906 218.191406 262.03125 217.230469 263.472656 215.90625 C 264.144531 215.289062 265.136719 215.179688 265.925781 215.636719 L 269.363281 217.625 L 271.832031 213.34375 L 268.40625 211.363281 C 267.617188 210.90625 267.210938 209.988281 267.410156 209.101562 C 267.621094 208.148438 267.726562 207.191406 267.726562 206.257812 C 267.726562 205.328125 267.621094 204.371094 267.410156 203.417969 C 267.210938 202.527344 267.617188 201.609375 268.40625 201.15625 L 271.832031 199.175781 L 269.363281 194.894531 L 265.925781 196.882812 C 265.136719 197.335938 264.144531 197.226562 263.472656 196.613281 C 262.03125 195.285156 260.378906 194.324219 258.566406 193.753906 C 257.695312 193.480469 257.105469 192.675781 257.105469 191.761719 L 257.105469 187.808594 L 252.167969 187.808594 L 252.167969 191.761719 C 252.167969 192.675781 251.574219 193.480469 250.707031 193.753906 C 248.894531 194.324219 247.242188 195.285156 245.800781 196.613281 C 245.125 197.226562 244.132812 197.335938 243.34375 196.882812 L 239.90625 194.894531 L 237.4375 199.175781 L 240.867188 201.15625 C 241.65625 201.609375 242.058594 202.527344 241.863281 203.417969 C 241.652344 204.371094 241.542969 205.328125 241.542969 206.257812 C 241.542969 207.191406 241.652344 208.148438 241.863281 209.101562 C 242.058594 209.988281 241.65625 210.90625 240.867188 211.363281 L 237.4375 213.34375 L 239.90625 217.625 L 243.34375 215.636719 C 244.132812 215.179688 245.125 215.289062 245.800781 215.90625 C 247.242188 217.230469 248.894531 218.191406 250.707031 218.761719 C 251.578125 219.035156 252.167969 219.84375 252.167969 220.753906 Z M 254.636719 214.605469 C 250.035156 214.605469 246.292969 210.863281 246.292969 206.257812 C 246.292969 201.652344 250.035156 197.90625 254.636719 197.90625 C 259.234375 197.90625 262.976562 201.652344 262.976562 206.257812 C 262.976562 210.863281 259.234375 214.605469 254.636719 214.605469 Z M 254.636719 202.085938 C 252.339844 202.085938 250.46875 203.957031 250.46875 206.257812 C 250.46875 208.558594 252.339844 210.429688 254.636719 210.429688 C 256.933594 210.429688 258.804688 208.558594 258.804688 206.257812 C 258.804688 203.957031 256.933594 202.085938 254.636719 202.085938 Z M 254.636719 202.085938 " fill-opacity="1" fill-rule="nonzero"/><path fill="#ffffff" d="M 148.738281 175.140625 L 139.625 175.140625 C 138.472656 175.140625 137.539062 174.207031 137.539062 173.050781 L 137.539062 168.46875 C 136.175781 167.898438 134.894531 167.15625 133.710938 166.242188 L 129.730469 168.542969 C 128.730469 169.117188 127.457031 168.777344 126.882812 167.777344 L 122.324219 159.878906 C 121.75 158.878906 122.089844 157.601562 123.089844 157.023438 L 127.058594 154.726562 C 126.960938 153.984375 126.914062 153.242188 126.914062 152.511719 C 126.914062 151.78125 126.960938 151.039062 127.058594 150.296875 L 123.089844 148 C 122.609375 147.722656 122.261719 147.265625 122.117188 146.730469 C 121.972656 146.195312 122.046875 145.625 122.324219 145.144531 L 126.882812 137.246094 C 127.160156 136.765625 127.613281 136.414062 128.148438 136.269531 C 128.679688 136.125 129.25 136.203125 129.730469 136.480469 L 133.710938 138.78125 C 134.898438 137.867188 136.175781 137.125 137.539062 136.554688 L 137.539062 131.96875 C 137.539062 130.8125 138.472656 129.878906 139.625 129.878906 L 148.738281 129.878906 C 149.890625 129.878906 150.824219 130.8125 150.824219 131.96875 L 150.824219 136.554688 C 152.1875 137.121094 153.464844 137.867188 154.652344 138.78125 L 158.632812 136.480469 C 159.109375 136.203125 159.683594 136.125 160.214844 136.269531 C 160.75 136.414062 161.207031 136.765625 161.480469 137.246094 L 166.039062 145.144531 C 166.3125 145.625 166.386719 146.195312 166.246094 146.730469 C 166.105469 147.265625 165.753906 147.722656 165.273438 148 L 161.300781 150.296875 C 161.398438 151.039062 161.449219 151.777344 161.449219 152.511719 C 161.449219 153.246094 161.398438 153.984375 161.300781 154.726562 L 165.273438 157.023438 C 166.273438 157.601562 166.613281 158.878906 166.039062 159.878906 L 161.480469 167.777344 C 160.902344 168.777344 159.628906 169.117188 158.632812 168.542969 L 154.652344 166.242188 C 153.464844 167.15625 152.1875 167.898438 150.824219 168.46875 L 150.824219 173.050781 C 150.824219 174.207031 149.890625 175.140625 148.738281 175.140625 Z M 141.710938 170.964844 L 146.652344 170.964844 L 146.652344 167.007812 C 146.652344 166.09375 147.242188 165.289062 148.113281 165.015625 C 149.925781 164.445312 151.578125 163.484375 153.019531 162.160156 C 153.691406 161.539062 154.683594 161.433594 155.472656 161.890625 L 158.910156 163.875 L 161.378906 159.597656 L 157.949219 157.617188 C 157.160156 157.160156 156.761719 156.246094 156.953125 155.355469 C 157.167969 154.398438 157.273438 153.4375 157.273438 152.511719 C 157.273438 151.585938 157.167969 150.625 156.953125 149.667969 C 156.757812 148.777344 157.160156 147.863281 157.949219 147.40625 L 161.378906 145.425781 L 158.910156 141.148438 L 155.472656 143.132812 C 154.683594 143.589844 153.691406 143.480469 153.019531 142.863281 C 151.578125 141.539062 149.925781 140.578125 148.113281 140.007812 C 147.242188 139.734375 146.652344 138.929688 146.652344 138.015625 L 146.652344 134.058594 L 141.710938 134.058594 L 141.710938 138.015625 C 141.710938 138.929688 141.117188 139.734375 140.25 140.007812 C 138.4375 140.578125 136.785156 141.539062 135.34375 142.863281 C 134.667969 143.484375 133.675781 143.589844 132.890625 143.132812 L 129.453125 141.148438 L 126.984375 145.425781 L 130.414062 147.40625 C 131.199219 147.863281 131.601562 148.777344 131.40625 149.667969 C 131.195312 150.625 131.089844 151.585938 131.089844 152.511719 C 131.089844 153.4375 131.195312 154.398438 131.40625 155.355469 C 131.605469 156.246094 131.199219 157.160156 130.414062 157.617188 L 126.984375 159.597656 L 129.453125 163.875 L 132.890625 161.890625 C 133.675781 161.4375 134.671875 161.539062 135.34375 162.160156 C 136.785156 163.484375 138.4375 164.445312 140.25 165.015625 C 141.121094 165.289062 141.710938 166.097656 141.710938 167.007812 Z M 144.179688 160.859375 C 139.582031 160.859375 135.839844 157.113281 135.839844 152.507812 C 135.839844 147.90625 139.582031 144.160156 144.179688 144.160156 C 148.78125 144.160156 152.523438 147.90625 152.523438 152.507812 C 152.523438 157.113281 148.78125 160.859375 144.179688 160.859375 Z M 144.179688 148.335938 C 141.882812 148.335938 140.011719 150.210938 140.011719 152.507812 C 140.011719 154.808594 141.882812 156.683594 144.179688 156.683594 C 146.476562 156.683594 148.351562 154.808594 148.351562 152.507812 C 148.351562 150.210938 146.480469 148.335938 144.179688 148.335938 Z M 144.179688 148.335938 " fill-opacity="1" fill-rule="nonzero"/><path fill="#ffffff" d="M 185.488281 189.460938 C 184.683594 189.460938 183.917969 188.996094 183.574219 188.210938 L 182.375 185.46875 C 181.488281 185.460938 180.613281 185.367188 179.753906 185.183594 L 177.984375 187.589844 C 177.304688 188.519531 176 188.71875 175.066406 188.035156 L 169.699219 184.078125 C 169.253906 183.75 168.957031 183.257812 168.871094 182.710938 C 168.789062 182.164062 168.925781 181.605469 169.253906 181.15625 L 171.023438 178.753906 C 170.589844 177.988281 170.242188 177.179688 169.972656 176.332031 L 166.996094 176 C 165.851562 175.871094 165.027344 174.839844 165.15625 173.695312 L 165.890625 167.0625 C 165.953125 166.511719 166.230469 166.007812 166.660156 165.664062 C 167.09375 165.316406 167.644531 165.148438 168.195312 165.21875 L 171.160156 165.546875 C 171.386719 165.164062 171.632812 164.792969 171.890625 164.441406 C 172.148438 164.09375 172.425781 163.75 172.722656 163.421875 L 171.527344 160.683594 C 171.304688 160.175781 171.292969 159.601562 171.492188 159.085938 C 171.695312 158.566406 172.09375 158.152344 172.597656 157.929688 L 178.707031 155.253906 C 179.765625 154.792969 180.992188 155.277344 181.453125 156.332031 L 182.65625 159.074219 C 183.542969 159.078125 184.417969 159.175781 185.277344 159.359375 L 187.042969 156.953125 C 187.371094 156.507812 187.863281 156.210938 188.410156 156.125 C 188.953125 156.042969 189.515625 156.179688 189.960938 156.507812 L 195.332031 160.464844 C 195.777344 160.789062 196.074219 161.285156 196.15625 161.832031 C 196.242188 162.378906 196.101562 162.9375 195.777344 163.382812 L 194.007812 165.789062 C 194.4375 166.554688 194.789062 167.363281 195.058594 168.207031 L 198.03125 168.539062 C 198.582031 168.601562 199.085938 168.878906 199.429688 169.308594 C 199.777344 169.742188 199.933594 170.292969 199.875 170.847656 L 199.136719 177.476562 C 199.011719 178.625 197.96875 179.457031 196.832031 179.320312 L 193.867188 178.992188 C 193.644531 179.375 193.398438 179.742188 193.140625 180.09375 C 193.140625 180.09375 193.140625 180.09375 193.140625 180.097656 C 192.882812 180.449219 192.605469 180.789062 192.308594 181.117188 L 193.503906 183.855469 C 193.96875 184.914062 193.488281 186.144531 192.429688 186.605469 L 186.324219 189.285156 C 186.050781 189.402344 185.769531 189.460938 185.488281 189.460938 Z M 183.710938 181.21875 C 184.53125 181.21875 185.285156 181.707031 185.621094 182.472656 L 186.5625 184.621094 L 188.847656 183.617188 L 187.910156 181.476562 C 187.542969 180.640625 187.761719 179.667969 188.449219 179.066406 C 188.953125 178.625 189.402344 178.140625 189.785156 177.625 C 190.164062 177.101562 190.496094 176.53125 190.765625 175.914062 C 191.132812 175.082031 192.007812 174.582031 192.90625 174.683594 L 195.226562 174.941406 L 195.503906 172.460938 L 193.171875 172.203125 C 192.265625 172.101562 191.53125 171.425781 191.355469 170.527344 C 191.09375 169.203125 190.574219 167.996094 189.796875 166.9375 C 189.261719 166.203125 189.261719 165.199219 189.800781 164.464844 L 191.183594 162.589844 L 189.175781 161.109375 L 187.796875 162.988281 C 187.253906 163.722656 186.296875 164.019531 185.4375 163.726562 C 184.199219 163.300781 182.890625 163.160156 181.550781 163.304688 C 180.644531 163.394531 179.777344 162.902344 179.414062 162.066406 L 178.472656 159.917969 L 176.191406 160.917969 L 177.128906 163.058594 C 177.492188 163.894531 177.277344 164.867188 176.59375 165.46875 C 176.082031 165.917969 175.632812 166.40625 175.253906 166.917969 C 174.875 167.433594 174.542969 168.007812 174.269531 168.628906 C 173.902344 169.460938 173.058594 169.96875 172.132812 169.859375 L 169.8125 169.597656 L 169.535156 172.078125 L 171.863281 172.339844 C 172.769531 172.441406 173.503906 173.117188 173.683594 174.011719 C 173.945312 175.335938 174.464844 176.546875 175.238281 177.601562 C 175.777344 178.339844 175.777344 179.339844 175.238281 180.074219 L 173.859375 181.953125 L 175.867188 183.429688 L 177.246094 181.554688 C 177.785156 180.816406 178.742188 180.519531 179.601562 180.8125 C 180.839844 181.238281 182.144531 181.378906 183.488281 181.234375 C 183.5625 181.226562 183.636719 181.21875 183.710938 181.21875 Z M 191.460938 178.859375 Z M 182.503906 178.941406 C 181.09375 178.941406 179.722656 178.496094 178.566406 177.640625 C 175.609375 175.464844 174.972656 171.277344 177.148438 168.316406 C 179.328125 165.355469 183.507812 164.722656 186.464844 166.898438 C 187.898438 167.953125 188.835938 169.503906 189.105469 171.265625 C 189.371094 173.027344 188.9375 174.789062 187.882812 176.222656 C 186.828125 177.660156 185.28125 178.597656 183.519531 178.863281 C 183.179688 178.917969 182.839844 178.941406 182.503906 178.941406 Z M 181.042969 174.277344 C 181.574219 174.667969 182.230469 174.828125 182.890625 174.730469 C 183.546875 174.632812 184.125 174.28125 184.519531 173.746094 C 184.914062 173.207031 185.078125 172.550781 184.976562 171.894531 C 184.878906 171.238281 184.527344 170.65625 183.992188 170.261719 C 182.886719 169.445312 181.328125 169.683594 180.511719 170.792969 C 179.703125 171.898438 179.9375 173.460938 181.042969 174.273438 Z M 181.042969 174.277344 " fill-opacity="1" fill-rule="nonzero"/></svg>