<svg xmlns="http://www.w3.org/2000/svg" xmlns:xlink="http://www.w3.org/1999/xlink" width="100" zoomAndPan="magnify" viewBox="0 0 75 74.999997" height="100" preserveAspectRatio="xMidYMid meet" version="1.0"><defs><clipPath id="36cf127890"><path d="M 29 17 L 71.839844 17 L 71.839844 42 L 29 42 Z M 29 17 " clip-rule="nonzero"/></clipPath><clipPath id="f8ddc39d1f"><path d="M 4 26 L 68 26 L 68 64.847656 L 4 64.847656 Z M 4 26 " clip-rule="nonzero"/></clipPath><clipPath id="7e1e85c3a5"><path d="M 55 5.597656 L 58 5.597656 L 58 8 L 55 8 Z M 55 5.597656 " clip-rule="nonzero"/></clipPath><clipPath id="96841107fe"><path d="M 2.839844 31 L 5 31 L 5 33 L 2.839844 33 Z M 2.839844 31 " clip-rule="nonzero"/></clipPath></defs><rect x="-7.5" width="90" fill="#ffffff" y="-7.5" height="89.999996" fill-opacity="1"/><rect x="-7.5" width="90" fill="#ffffff" y="-7.5" height="89.999996" fill-opacity="1"/><rect x="-7.5" width="90" fill="#c1f0f8" y="-7.5" height="89.999996" fill-opacity="1"/><g clip-path="url(#36cf127890)"><path fill="#6b99d2" d="M 35.175781 31.101562 L 35.339844 31.101562 C 35.144531 30.460938 35.050781 29.804688 35.054688 29.136719 C 35.054688 28.5 35.140625 27.878906 35.320312 27.265625 C 35.496094 26.65625 35.753906 26.082031 36.09375 25.546875 C 36.433594 25.011719 36.839844 24.53125 37.3125 24.113281 C 37.789062 23.691406 38.3125 23.347656 38.886719 23.074219 C 39.457031 22.804688 40.058594 22.621094 40.683594 22.523438 C 41.308594 22.421875 41.933594 22.414062 42.5625 22.496094 C 43.1875 22.574219 43.792969 22.742188 44.375 22.996094 C 44.953125 23.25 45.488281 23.578125 45.972656 23.984375 C 46.085938 23.464844 46.246094 22.960938 46.449219 22.46875 C 46.652344 21.980469 46.898438 21.511719 47.191406 21.070312 C 47.480469 20.625 47.808594 20.210938 48.171875 19.824219 C 48.539062 19.441406 48.9375 19.09375 49.367188 18.785156 C 49.792969 18.472656 50.25 18.203125 50.726562 17.976562 C 51.207031 17.75 51.699219 17.570312 52.210938 17.433594 C 52.722656 17.300781 53.242188 17.210938 53.769531 17.171875 C 54.296875 17.132812 54.824219 17.140625 55.351562 17.199219 C 55.875 17.257812 56.390625 17.363281 56.898438 17.515625 C 57.40625 17.667969 57.894531 17.867188 58.363281 18.109375 C 58.835938 18.351562 59.277344 18.636719 59.699219 18.960938 C 60.117188 19.289062 60.5 19.648438 60.851562 20.042969 C 61.207031 20.441406 61.519531 20.867188 61.792969 21.320312 C 62.066406 21.773438 62.296875 22.25 62.484375 22.746094 C 62.671875 23.242188 62.8125 23.753906 62.910156 24.277344 C 63.003906 24.800781 63.046875 25.328125 63.046875 25.859375 C 63.042969 26.414062 62.988281 26.960938 62.878906 27.503906 C 63.234375 27.457031 63.589844 27.429688 63.949219 27.429688 C 64.746094 27.425781 65.523438 27.554688 66.277344 27.8125 C 67.03125 28.070312 67.726562 28.441406 68.355469 28.933594 C 68.988281 29.421875 69.523438 30 69.964844 30.667969 C 70.402344 31.335938 70.722656 32.058594 70.925781 32.832031 C 71.125 33.609375 71.195312 34.394531 71.136719 35.191406 C 71.074219 35.992188 70.886719 36.757812 70.574219 37.496094 C 70.257812 38.230469 69.835938 38.898438 69.300781 39.492188 C 68.765625 40.085938 68.152344 40.578125 67.453125 40.964844 C 66.554688 41.574219 65.5625 41.882812 64.476562 41.886719 L 35.175781 41.886719 C 34.824219 41.882812 34.476562 41.847656 34.128906 41.777344 C 33.785156 41.707031 33.453125 41.605469 33.128906 41.46875 C 32.800781 41.332031 32.496094 41.164062 32.203125 40.96875 C 31.910156 40.769531 31.640625 40.546875 31.390625 40.296875 C 31.144531 40.046875 30.921875 39.773438 30.726562 39.480469 C 30.53125 39.1875 30.367188 38.878906 30.230469 38.550781 C 30.097656 38.226562 29.996094 37.890625 29.925781 37.542969 C 29.855469 37.195312 29.820312 36.847656 29.820312 36.492188 C 29.820312 36.140625 29.855469 35.789062 29.925781 35.445312 C 29.996094 35.097656 30.097656 34.761719 30.230469 34.433594 C 30.367188 34.109375 30.53125 33.800781 30.726562 33.503906 C 30.921875 33.210938 31.144531 32.9375 31.390625 32.6875 C 31.640625 32.4375 31.910156 32.214844 32.203125 32.019531 C 32.496094 31.820312 32.800781 31.65625 33.128906 31.519531 C 33.453125 31.382812 33.785156 31.277344 34.128906 31.207031 C 34.476562 31.136719 34.824219 31.101562 35.175781 31.101562 Z M 35.175781 31.101562 " fill-opacity="1" fill-rule="nonzero"/></g><g clip-path="url(#f8ddc39d1f)"><path fill="#26477a" d="M 59.707031 48.320312 L 59.464844 48.320312 C 59.765625 47.335938 59.914062 46.332031 59.917969 45.300781 C 59.917969 44.324219 59.78125 43.367188 59.511719 42.429688 C 59.242188 41.492188 58.84375 40.613281 58.324219 39.789062 C 57.800781 38.964844 57.175781 38.230469 56.449219 37.585938 C 55.71875 36.9375 54.914062 36.410156 54.03125 35.996094 C 53.152344 35.582031 52.234375 35.296875 51.273438 35.148438 C 50.3125 34.996094 49.351562 34.980469 48.386719 35.105469 C 47.421875 35.230469 46.496094 35.488281 45.605469 35.878906 C 44.710938 36.269531 43.894531 36.773438 43.148438 37.398438 C 42.976562 36.605469 42.730469 35.832031 42.417969 35.078125 C 42.105469 34.328125 41.726562 33.613281 41.28125 32.929688 C 40.839844 32.25 40.335938 31.613281 39.773438 31.027344 C 39.214844 30.4375 38.605469 29.90625 37.949219 29.429688 C 37.289062 28.953125 36.59375 28.542969 35.859375 28.195312 C 35.128906 27.847656 34.367188 27.570312 33.585938 27.363281 C 32.800781 27.15625 32.003906 27.019531 31.195312 26.960938 C 30.386719 26.898438 29.582031 26.914062 28.773438 27 C 27.96875 27.089844 27.175781 27.25 26.402344 27.484375 C 25.625 27.71875 24.875 28.023438 24.15625 28.394531 C 23.433594 28.769531 22.753906 29.203125 22.113281 29.703125 C 21.46875 30.203125 20.878906 30.753906 20.339844 31.363281 C 19.800781 31.96875 19.320312 32.621094 18.898438 33.316406 C 18.476562 34.011719 18.121094 34.742188 17.835938 35.503906 C 17.546875 36.265625 17.332031 37.046875 17.1875 37.847656 C 17.042969 38.648438 16.972656 39.457031 16.976562 40.269531 C 16.980469 41.125 17.058594 41.96875 17.214844 42.808594 C 16.671875 42.730469 16.125 42.6875 15.578125 42.6875 C 14.96875 42.6875 14.367188 42.738281 13.769531 42.839844 C 13.171875 42.9375 12.585938 43.085938 12.011719 43.285156 C 11.4375 43.480469 10.882812 43.726562 10.347656 44.015625 C 9.8125 44.304688 9.308594 44.632812 8.828125 45.007812 C 8.347656 45.378906 7.902344 45.789062 7.488281 46.238281 C 7.078125 46.683594 6.703125 47.164062 6.367188 47.671875 C 6.035156 48.179688 5.746094 48.710938 5.5 49.269531 C 5.25 49.824219 5.050781 50.398438 4.898438 50.988281 C 4.746094 51.578125 4.644531 52.175781 4.589844 52.785156 C 4.535156 53.390625 4.53125 54 4.578125 54.605469 C 4.621094 55.214844 4.714844 55.8125 4.859375 56.40625 C 5.003906 56.996094 5.195312 57.574219 5.433594 58.132812 C 5.671875 58.695312 5.953125 59.230469 6.28125 59.746094 C 6.609375 60.257812 6.972656 60.742188 7.378906 61.195312 C 7.785156 61.648438 8.226562 62.0625 8.699219 62.445312 C 9.175781 62.824219 9.675781 63.164062 10.207031 63.460938 C 11.585938 64.386719 13.105469 64.851562 14.765625 64.847656 L 59.707031 64.847656 C 60.246094 64.847656 60.78125 64.792969 61.3125 64.6875 C 61.839844 64.582031 62.355469 64.425781 62.851562 64.214844 C 63.351562 64.007812 63.824219 63.753906 64.273438 63.453125 C 64.722656 63.152344 65.136719 62.808594 65.519531 62.425781 C 65.902344 62.039062 66.242188 61.625 66.542969 61.171875 C 66.84375 60.722656 67.097656 60.246094 67.304688 59.746094 C 67.511719 59.246094 67.667969 58.726562 67.773438 58.195312 C 67.878906 57.664062 67.933594 57.128906 67.933594 56.585938 C 67.933594 56.042969 67.878906 55.507812 67.769531 54.976562 C 67.664062 54.445312 67.507812 53.929688 67.300781 53.429688 C 67.09375 52.925781 66.839844 52.453125 66.539062 52 C 66.238281 51.550781 65.898438 51.132812 65.515625 50.75 C 65.132812 50.367188 64.71875 50.027344 64.269531 49.722656 C 63.824219 49.421875 63.347656 49.167969 62.851562 48.960938 C 62.351562 48.75 61.839844 48.59375 61.308594 48.484375 C 60.78125 48.378906 60.246094 48.324219 59.707031 48.320312 Z M 59.707031 48.320312 " fill-opacity="1" fill-rule="nonzero"/></g><path fill="#26477a" d="M 37.625 13.378906 C 37.625 13.601562 37.550781 13.789062 37.394531 13.945312 C 37.238281 14.101562 37.050781 14.179688 36.828125 14.179688 C 36.609375 14.179688 36.421875 14.101562 36.265625 13.945312 C 36.109375 13.789062 36.03125 13.601562 36.03125 13.378906 C 36.03125 13.160156 36.109375 12.96875 36.265625 12.8125 C 36.421875 12.65625 36.609375 12.578125 36.828125 12.578125 C 37.050781 12.578125 37.238281 12.65625 37.394531 12.8125 C 37.550781 12.96875 37.625 13.160156 37.625 13.378906 Z M 37.625 13.378906 " fill-opacity="1" fill-rule="nonzero"/><g clip-path="url(#7e1e85c3a5)"><path fill="#26477a" d="M 57.34375 6.398438 C 57.34375 6.621094 57.269531 6.808594 57.113281 6.964844 C 56.957031 7.121094 56.769531 7.199219 56.546875 7.199219 C 56.328125 7.199219 56.140625 7.121094 55.984375 6.964844 C 55.828125 6.808594 55.75 6.621094 55.75 6.398438 C 55.75 6.179688 55.828125 5.988281 55.984375 5.832031 C 56.140625 5.675781 56.328125 5.597656 56.546875 5.597656 C 56.769531 5.597656 56.957031 5.675781 57.113281 5.832031 C 57.269531 5.988281 57.34375 6.179688 57.34375 6.398438 Z M 57.34375 6.398438 " fill-opacity="1" fill-rule="nonzero"/></g><path fill="#26477a" d="M 16.960938 8.742188 C 16.960938 8.960938 16.882812 9.152344 16.726562 9.308594 C 16.570312 9.464844 16.382812 9.542969 16.164062 9.542969 C 15.941406 9.542969 15.753906 9.464844 15.597656 9.308594 C 15.445312 9.152344 15.367188 8.960938 15.367188 8.742188 C 15.367188 8.519531 15.445312 8.332031 15.597656 8.175781 C 15.753906 8.019531 15.941406 7.941406 16.164062 7.941406 C 16.382812 7.941406 16.570312 8.019531 16.726562 8.175781 C 16.882812 8.332031 16.960938 8.519531 16.960938 8.742188 Z M 16.960938 8.742188 " fill-opacity="1" fill-rule="nonzero"/><path fill="#26477a" d="M 67.933594 21.71875 C 67.933594 21.941406 67.855469 22.128906 67.699219 22.285156 C 67.546875 22.441406 67.359375 22.519531 67.136719 22.519531 C 66.917969 22.519531 66.730469 22.441406 66.574219 22.285156 C 66.417969 22.128906 66.339844 21.941406 66.339844 21.71875 C 66.339844 21.496094 66.417969 21.308594 66.574219 21.152344 C 66.730469 20.996094 66.917969 20.917969 67.136719 20.917969 C 67.359375 20.917969 67.546875 20.996094 67.699219 21.152344 C 67.855469 21.308594 67.933594 21.496094 67.933594 21.71875 Z M 67.933594 21.71875 " fill-opacity="1" fill-rule="nonzero"/><g clip-path="url(#96841107fe)"><path fill="#26477a" d="M 4.519531 32.140625 C 4.519531 32.363281 4.445312 32.550781 4.289062 32.707031 C 4.132812 32.863281 3.945312 32.941406 3.722656 32.941406 C 3.503906 32.941406 3.316406 32.863281 3.160156 32.707031 C 3.003906 32.550781 2.925781 32.363281 2.925781 32.140625 C 2.925781 31.921875 3.003906 31.734375 3.160156 31.578125 C 3.316406 31.417969 3.503906 31.339844 3.722656 31.339844 C 3.945312 31.339844 4.132812 31.417969 4.289062 31.578125 C 4.445312 31.734375 4.519531 31.921875 4.519531 32.140625 Z M 4.519531 32.140625 " fill-opacity="1" fill-rule="nonzero"/></g><path fill="#ffb544" d="M 35.746094 42.476562 C 35.019531 43.042969 34.25 43.539062 33.4375 43.96875 C 32.621094 44.402344 31.777344 44.757812 30.902344 45.039062 C 30.027344 45.320312 29.132812 45.527344 28.222656 45.652344 C 27.3125 45.777344 26.394531 45.820312 25.476562 45.785156 C 24.558594 45.75 23.648438 45.632812 22.75 45.4375 C 21.851562 45.242188 20.976562 44.96875 20.125 44.621094 C 19.273438 44.269531 18.460938 43.851562 17.679688 43.355469 C 16.902344 42.863281 16.171875 42.308594 15.492188 41.6875 C 14.8125 41.066406 14.191406 40.390625 13.625 39.660156 C 13.0625 38.929688 12.566406 38.15625 12.140625 37.339844 C 11.710938 36.523438 11.355469 35.671875 11.074219 34.792969 C 10.796875 33.914062 10.59375 33.015625 10.46875 32.101562 C 10.34375 31.1875 10.300781 30.265625 10.335938 29.34375 C 10.371094 28.421875 10.488281 27.507812 10.683594 26.605469 C 10.878906 25.703125 11.148438 24.824219 11.496094 23.96875 C 11.847656 23.113281 12.265625 22.296875 12.757812 21.515625 C 13.246094 20.734375 13.800781 20.003906 14.417969 19.316406 C 15.039062 18.632812 15.710938 18.011719 16.4375 17.445312 C 17.164062 16.878906 17.9375 16.382812 18.75 15.953125 C 19.5625 15.523438 20.410156 15.167969 21.285156 14.882812 C 22.160156 14.601562 23.054688 14.398438 23.964844 14.277344 C 24.875 14.152344 25.792969 14.109375 26.710938 14.144531 C 27.628906 14.179688 28.539062 14.296875 29.4375 14.492188 C 30.335938 14.691406 31.210938 14.964844 32.0625 15.3125 C 31.148438 15.402344 30.25 15.582031 29.371094 15.851562 C 28.492188 16.125 27.648438 16.480469 26.84375 16.921875 C 26.035156 17.363281 25.28125 17.882812 24.578125 18.476562 C 23.875 19.070312 23.238281 19.730469 22.667969 20.453125 C 22.097656 21.179688 21.601562 21.953125 21.1875 22.777344 C 20.773438 23.597656 20.445312 24.457031 20.203125 25.347656 C 19.960938 26.238281 19.808594 27.144531 19.746094 28.066406 C 19.6875 28.984375 19.71875 29.902344 19.84375 30.820312 C 19.96875 31.734375 20.179688 32.625 20.484375 33.496094 C 20.789062 34.371094 21.175781 35.203125 21.648438 35.996094 C 22.117188 36.789062 22.664062 37.523438 23.28125 38.207031 C 23.902344 38.890625 24.582031 39.503906 25.324219 40.046875 C 26.066406 40.589844 26.855469 41.054688 27.691406 41.441406 C 28.527344 41.824219 29.394531 42.121094 30.289062 42.328125 C 31.183594 42.539062 32.089844 42.652344 33.011719 42.679688 C 33.929688 42.703125 34.839844 42.636719 35.746094 42.476562 Z M 35.746094 42.476562 " fill-opacity="1" fill-rule="nonzero"/></svg>