<svg xmlns="http://www.w3.org/2000/svg" xmlns:xlink="http://www.w3.org/1999/xlink" width="100" zoomAndPan="magnify" viewBox="0 0 75 74.999997" height="100" preserveAspectRatio="xMidYMid meet" version="1.0"><defs><clipPath id="5ae8ac5299"><path d="M 19 7.769531 L 30 7.769531 L 30 14 L 19 14 Z M 19 7.769531 " clip-rule="nonzero"/></clipPath><clipPath id="e05a691771"><path d="M 5.855469 17 L 12 17 L 12 27 L 5.855469 27 Z M 5.855469 17 " clip-rule="nonzero"/></clipPath><clipPath id="7581f969df"><path d="M 11 20 L 68.855469 20 L 68.855469 51 L 11 51 Z M 11 20 " clip-rule="nonzero"/></clipPath><clipPath id="8d729ada2f"><path d="M 11 37 L 68.855469 37 L 68.855469 51 L 11 51 Z M 11 37 " clip-rule="nonzero"/></clipPath><clipPath id="42e3a17157"><path d="M 35 60 L 55 60 L 55 67.769531 L 35 67.769531 Z M 35 60 " clip-rule="nonzero"/></clipPath></defs><rect x="-7.5" width="90" fill="#ffffff" y="-7.5" height="89.999996" fill-opacity="1"/><rect x="-7.5" width="90" fill="#ffffff" y="-7.5" height="89.999996" fill-opacity="1"/><rect x="-7.5" width="90" fill="#c1f0f8" y="-7.5" height="89.999996" fill-opacity="1"/><path fill="#ffc216" d="M 34.050781 24.433594 C 34.050781 30.945312 28.824219 36.21875 22.375 36.21875 C 21.515625 36.21875 20.679688 36.125 19.871094 35.941406 C 19.78125 35.929688 19.691406 35.902344 19.597656 35.875 C 14.488281 34.625 10.683594 29.972656 10.683594 24.421875 C 10.683594 17.910156 15.910156 12.636719 22.363281 12.636719 C 25.621094 12.636719 28.550781 13.976562 30.675781 16.148438 C 30.742188 16.214844 30.804688 16.28125 30.871094 16.359375 C 32.851562 18.476562 34.050781 21.316406 34.050781 24.433594 Z M 34.050781 24.433594 " fill-opacity="1" fill-rule="nonzero"/><g clip-path="url(#5ae8ac5299)"><path fill="#fca527" d="M 24.773438 12.003906 C 26.375 12.332031 27.875 12.9375 29.253906 13.847656 L 28.589844 9.007812 L 24.785156 11.980469 L 22.375 7.769531 L 19.949219 12.003906 C 21.554688 11.691406 23.167969 11.691406 24.773438 12.003906 Z M 24.773438 12.003906 " fill-opacity="1" fill-rule="nonzero"/></g><path fill="#fca527" d="M 19.976562 36.863281 C 18.375 36.535156 16.875 35.929688 15.492188 35.019531 L 16.15625 39.863281 L 19.964844 36.875 L 22.375 41.085938 L 24.796875 36.847656 C 23.195312 37.179688 21.578125 37.179688 19.976562 36.863281 Z M 19.976562 36.863281 " fill-opacity="1" fill-rule="nonzero"/><path fill="#fca527" d="M 38.886719 24.433594 L 34.691406 21.988281 C 35.003906 23.605469 35.003906 25.234375 34.691406 26.855469 C 34.363281 28.472656 33.765625 29.984375 32.867188 31.378906 L 37.660156 30.707031 L 34.703125 26.867188 Z M 38.886719 24.433594 " fill-opacity="1" fill-rule="nonzero"/><g clip-path="url(#e05a691771)"><path fill="#fca527" d="M 10.058594 26.878906 C 9.746094 25.261719 9.746094 23.632812 10.058594 22.015625 C 10.382812 20.394531 10.984375 18.882812 11.882812 17.488281 L 7.074219 18.160156 L 10.03125 22 L 5.863281 24.433594 Z M 10.058594 26.878906 " fill-opacity="1" fill-rule="nonzero"/></g><path fill="#fca527" d="M 32.789062 17.359375 C 33.699219 18.738281 34.324219 20.226562 34.664062 21.84375 L 37.582031 17.9375 L 32.800781 17.332031 L 34.050781 12.636719 L 29.371094 13.898438 C 30.726562 14.847656 31.863281 15.992188 32.789062 17.359375 Z M 32.789062 17.359375 " fill-opacity="1" fill-rule="nonzero"/><path fill="#fca527" d="M 11.960938 31.507812 C 11.050781 30.128906 10.421875 28.644531 10.085938 27.023438 L 7.164062 30.917969 L 11.949219 31.523438 L 10.699219 36.21875 L 15.375 34.957031 C 14.019531 34.023438 12.886719 32.878906 11.960938 31.507812 Z M 11.960938 31.507812 " fill-opacity="1" fill-rule="nonzero"/><path fill="#fca527" d="M 11.949219 17.371094 C 12.875 16.003906 14.007812 14.859375 15.363281 13.925781 C 16.730469 13.003906 18.203125 12.375 19.808594 12.03125 L 15.949219 9.085938 L 15.351562 13.914062 L 10.699219 12.648438 Z M 11.949219 17.371094 " fill-opacity="1" fill-rule="nonzero"/><path fill="#fca527" d="M 32.800781 31.496094 C 31.875 32.863281 30.742188 34.007812 29.386719 34.941406 C 28.015625 35.863281 26.542969 36.496094 24.941406 36.835938 L 28.8125 39.78125 L 29.410156 34.957031 L 34.0625 36.21875 Z M 32.800781 31.496094 " fill-opacity="1" fill-rule="nonzero"/><path fill="#ffe719" d="M 21.773438 13.359375 C 20.09375 13.492188 18.453125 14.003906 17.003906 14.886719 C 15.609375 15.726562 14.425781 16.898438 13.539062 18.277344 C 13.042969 19.042969 12.664062 19.871094 12.367188 20.726562 C 12.261719 21.027344 12.484375 21.410156 12.78125 21.476562 C 13.121094 21.554688 13.421875 21.371094 13.527344 21.054688 C 13.578125 20.882812 13.644531 20.710938 13.707031 20.539062 C 13.722656 20.515625 13.734375 20.488281 13.746094 20.460938 C 13.746094 20.449219 13.773438 20.382812 13.785156 20.371094 C 13.824219 20.277344 13.863281 20.1875 13.902344 20.105469 C 14.058594 19.777344 14.230469 19.460938 14.410156 19.148438 C 14.503906 18.988281 14.605469 18.84375 14.699219 18.6875 C 14.75 18.609375 14.800781 18.542969 14.855469 18.460938 C 14.882812 18.421875 14.90625 18.398438 14.933594 18.359375 C 14.945312 18.34375 14.984375 18.292969 15.011719 18.265625 C 15.234375 17.988281 15.453125 17.726562 15.703125 17.476562 C 15.960938 17.199219 16.234375 16.949219 16.523438 16.699219 C 16.589844 16.648438 16.652344 16.59375 16.71875 16.542969 C 16.71875 16.542969 16.730469 16.53125 16.730469 16.53125 C 16.730469 16.53125 16.746094 16.515625 16.757812 16.515625 C 16.796875 16.488281 16.824219 16.464844 16.863281 16.4375 C 17.019531 16.320312 17.1875 16.199219 17.34375 16.09375 C 17.667969 15.886719 18.023438 15.6875 18.375 15.503906 C 18.453125 15.464844 18.53125 15.425781 18.609375 15.398438 C 18.660156 15.371094 18.699219 15.359375 18.75 15.332031 C 18.75 15.332031 18.777344 15.320312 18.804688 15.304688 C 18.828125 15.292969 18.894531 15.265625 18.894531 15.265625 C 18.945312 15.253906 18.984375 15.226562 19.039062 15.214844 C 19.128906 15.175781 19.234375 15.136719 19.324219 15.109375 C 19.730469 14.964844 20.144531 14.847656 20.5625 14.753906 C 20.785156 14.703125 21.007812 14.660156 21.214844 14.636719 C 21.226562 14.636719 21.304688 14.621094 21.320312 14.621094 C 21.34375 14.621094 21.382812 14.609375 21.410156 14.609375 C 21.527344 14.597656 21.644531 14.582031 21.773438 14.570312 C 22.085938 14.542969 22.402344 14.308594 22.375 13.964844 C 22.363281 13.664062 22.113281 13.332031 21.773438 13.359375 Z M 21.773438 13.359375 " fill-opacity="1" fill-rule="nonzero"/><path fill="#ffe719" d="M 12.457031 23.316406 C 12.769531 23.316406 13.070312 23.039062 13.054688 22.710938 C 13.042969 22.382812 12.796875 22.105469 12.457031 22.105469 C 12.144531 22.105469 11.84375 22.382812 11.855469 22.710938 C 11.871094 23.039062 12.117188 23.316406 12.457031 23.316406 Z M 12.457031 23.316406 " fill-opacity="1" fill-rule="nonzero"/><path fill="#ffe719" d="M 14.554688 29.617188 C 14.542969 29.601562 14.527344 29.589844 14.515625 29.578125 C 14.515625 29.578125 14.503906 29.5625 14.488281 29.550781 C 14.449219 29.496094 14.410156 29.445312 14.371094 29.390625 C 14.230469 29.183594 14.085938 28.972656 13.96875 28.761719 C 13.839844 28.539062 13.722656 28.328125 13.617188 28.089844 C 13.578125 28 13.539062 27.90625 13.488281 27.8125 C 13.472656 27.789062 13.433594 27.695312 13.433594 27.683594 C 13.410156 27.617188 13.382812 27.550781 13.355469 27.5 C 13.1875 27.023438 13.042969 26.539062 12.953125 26.039062 C 12.925781 25.90625 12.898438 25.789062 12.886719 25.65625 C 12.886719 25.617188 12.875 25.566406 12.875 25.550781 C 12.875 25.5 12.859375 25.445312 12.859375 25.40625 C 12.835938 25.144531 12.820312 24.867188 12.820312 24.605469 C 12.820312 24.289062 12.546875 23.988281 12.222656 24 C 11.894531 24.011719 11.621094 24.261719 11.621094 24.605469 C 11.621094 26.878906 12.457031 29.101562 13.941406 30.824219 C 14.152344 31.0625 14.582031 31.0625 14.800781 30.824219 C 15.039062 30.5625 15.023438 30.222656 14.800781 29.957031 C 14.722656 29.828125 14.632812 29.722656 14.554688 29.617188 Z M 14.554688 29.617188 " fill-opacity="1" fill-rule="nonzero"/><path fill="#ffab1c" d="M 34.050781 24.433594 C 34.050781 30.945312 28.824219 36.21875 22.375 36.21875 C 21.515625 36.21875 20.679688 36.125 19.871094 35.941406 C 33.855469 33.546875 32.292969 21.59375 30.882812 16.359375 C 32.851562 18.476562 34.050781 21.316406 34.050781 24.433594 Z M 34.050781 24.433594 " fill-opacity="1" fill-rule="nonzero"/><g clip-path="url(#7581f969df)"><path fill="#8bcaeb" d="M 67.832031 37.757812 C 67.765625 37.613281 67.6875 37.480469 67.621094 37.347656 C 66.984375 36.230469 66.03125 35.296875 64.910156 34.679688 C 64.46875 34.441406 63.6875 34.351562 63.375 34.007812 C 63.035156 33.640625 62.867188 32.667969 62.59375 32.195312 C 61.199219 29.867188 58.539062 28.917969 56.011719 29.535156 C 55.582031 27.417969 54.042969 25.644531 51.894531 25.089844 C 51.164062 24.90625 50.472656 25.027344 49.792969 24.695312 C 49.039062 24.328125 48.554688 23.511719 47.890625 22.960938 C 46.835938 22.078125 45.585938 21.460938 44.253906 21.132812 C 39.199219 19.882812 34.46875 23.394531 33.554688 28.339844 C 31.078125 26.511719 27.679688 26.222656 24.824219 27.367188 C 21.515625 28.695312 19.351562 31.839844 18.398438 35.191406 C 15.753906 35.007812 12.992188 35.546875 11.832031 38.257812 C 11.296875 39.507812 11.230469 40.886719 11.582031 42.164062 C 11.910156 43.359375 12.613281 44.453125 13.628906 45.242188 C 14.632812 46.03125 15.882812 46.476562 17.148438 46.621094 C 17.851562 46.699219 18.554688 46.6875 19.257812 46.570312 C 20.132812 46.425781 20.222656 46.34375 20.929688 46.84375 C 22.84375 48.171875 25.203125 48.332031 27.09375 46.988281 C 29.085938 49.226562 32.316406 49.855469 34.988281 48.410156 C 39.042969 51.34375 44.371094 50.632812 47.515625 46.738281 C 51.578125 48.4375 57.183594 48.671875 59.152344 44.015625 C 61.574219 45.054688 64.46875 45.976562 66.800781 44.242188 C 68.820312 42.742188 68.847656 39.886719 67.832031 37.757812 Z M 67.832031 37.757812 " fill-opacity="1" fill-rule="nonzero"/></g><g clip-path="url(#8d729ada2f)"><path fill="#6fafd5" d="M 67.832031 37.757812 C 65.617188 40.164062 62.070312 40.664062 59.125 38.769531 C 58.902344 38.625 58.511719 38.703125 58.394531 38.96875 C 57.703125 40.503906 55.957031 40.796875 54.996094 39.320312 C 54.824219 39.058594 54.394531 38.941406 54.160156 39.21875 C 51.1875 42.808594 46.082031 42.914062 42.964844 39.425781 C 42.808594 39.242188 42.523438 39.230469 42.328125 39.335938 C 39.5625 40.875 36.398438 41.03125 33.515625 39.714844 C 33.28125 39.613281 33.0625 39.625 32.878906 39.808594 C 31.222656 41.308594 28.878906 41.386719 27.078125 40.097656 C 26.832031 39.914062 26.503906 40.070312 26.347656 40.296875 C 25.242188 41.898438 23.011719 42.214844 21.515625 40.964844 C 21.34375 40.820312 21.085938 40.742188 20.875 40.886719 C 18.085938 42.769531 14.683594 43.226562 11.582031 42.164062 C 11.910156 43.359375 12.613281 44.453125 13.628906 45.242188 C 14.632812 46.03125 15.882812 46.476562 17.148438 46.621094 C 17.851562 46.699219 18.554688 46.6875 19.257812 46.570312 C 20.132812 46.425781 20.222656 46.34375 20.929688 46.84375 C 22.84375 48.171875 25.203125 48.332031 27.09375 46.988281 C 29.085938 49.226562 32.316406 49.855469 34.988281 48.410156 C 39.042969 51.34375 44.371094 50.632812 47.515625 46.738281 C 51.578125 48.4375 57.183594 48.671875 59.152344 44.015625 C 61.574219 45.054688 64.46875 45.976562 66.800781 44.242188 C 68.820312 42.742188 68.847656 39.886719 67.832031 37.757812 Z M 67.832031 37.757812 " fill-opacity="1" fill-rule="nonzero"/></g><path fill="#d7ecfd" d="M 12.027344 40.925781 C 12.195312 39.492188 12.640625 38.480469 13.734375 37.519531 C 14.800781 36.601562 15.960938 36.257812 17.355469 36.164062 C 17.90625 36.125 17.90625 36.980469 17.355469 37.019531 C 16.210938 37.097656 15.234375 37.347656 14.347656 38.125 C 13.433594 38.914062 13.03125 39.714844 12.886719 40.914062 C 12.820312 41.464844 11.960938 41.480469 12.027344 40.925781 Z M 12.027344 40.925781 " fill-opacity="1" fill-rule="nonzero"/><path fill="#d7ecfd" d="M 22.636719 30.074219 C 23.324219 29.457031 24.1875 29.023438 25.03125 28.683594 C 26.910156 27.917969 28.957031 27.75 30.9375 28.117188 C 31.472656 28.222656 31.25 29.039062 30.714844 28.945312 C 29.035156 28.628906 27.3125 28.761719 25.699219 29.339844 C 24.941406 29.601562 24.1875 29.984375 23.535156 30.457031 C 22.699219 31.0625 22.179688 32.050781 21.800781 32.996094 C 21.59375 33.496094 20.769531 33.285156 20.980469 32.773438 C 21.359375 31.800781 21.851562 30.773438 22.636719 30.074219 Z M 22.636719 30.074219 " fill-opacity="1" fill-rule="nonzero"/><path fill="#d7ecfd" d="M 46.691406 23.382812 C 47.136719 23.699219 46.71875 24.433594 46.261719 24.117188 C 43.355469 22.117188 38.652344 23 37.21875 26.445312 C 37.007812 26.945312 36.1875 26.722656 36.398438 26.222656 C 38.027344 22.289062 43.277344 21.027344 46.691406 23.382812 Z M 46.691406 23.382812 " fill-opacity="1" fill-rule="nonzero"/><path fill="#d7ecfd" d="M 51.164062 26.089844 C 52.660156 26.378906 53.796875 27.445312 54.5625 28.722656 C 54.851562 29.195312 54.121094 29.628906 53.835938 29.15625 C 53.167969 28.050781 52.230469 27.15625 50.941406 26.917969 C 50.40625 26.8125 50.628906 25.984375 51.164062 26.089844 Z M 51.164062 26.089844 " fill-opacity="1" fill-rule="nonzero"/><path fill="#a5dafc" d="M 59.972656 53.105469 C 59.425781 51.804688 58.421875 51.054688 57.054688 50.765625 C 53.691406 50.082031 50.40625 51.476562 47.292969 52.554688 C 45.429688 53.199219 43.511719 53.761719 41.53125 53.722656 C 39.523438 53.683594 37.582031 53.054688 35.773438 52.222656 C 35.277344 52 34.847656 52.738281 35.339844 52.960938 C 37.570312 53.988281 39.96875 54.710938 42.429688 54.550781 C 45.023438 54.382812 47.449219 53.367188 49.886719 52.527344 C 52.246094 51.722656 55.371094 50.75 57.796875 51.871094 C 60.140625 52.949219 60.167969 57.050781 57.941406 58.261719 C 56.585938 58.996094 54.957031 58.378906 54.445312 56.917969 C 54.226562 56.261719 54.121094 55.367188 54.617188 54.816406 C 55.058594 54.328125 55.800781 54.210938 56.375 54.5 C 56.859375 54.75 57.289062 54.011719 56.804688 53.761719 C 55.828125 53.261719 54.601562 53.460938 53.914062 54.34375 C 53.117188 55.339844 53.363281 56.917969 54.003906 57.933594 C 55.527344 60.378906 58.941406 59.535156 60.039062 57.15625 C 60.609375 55.894531 60.519531 54.394531 59.972656 53.105469 Z M 59.972656 53.105469 " fill-opacity="1" fill-rule="nonzero"/><g clip-path="url(#42e3a17157)"><path fill="#a5dafc" d="M 52.167969 60.773438 C 49.820312 59.929688 47.160156 60.945312 44.945312 61.71875 C 43.527344 62.21875 42.078125 62.746094 40.566406 62.8125 C 38.898438 62.890625 37.285156 62.402344 35.785156 61.71875 C 35.289062 61.496094 34.859375 62.234375 35.355469 62.457031 C 37.464844 63.417969 39.640625 63.929688 41.949219 63.496094 C 44.253906 63.0625 46.355469 61.917969 48.648438 61.484375 C 49.753906 61.273438 51.175781 61.140625 52.21875 61.707031 C 53.273438 62.285156 53.585938 63.902344 53.207031 64.96875 C 52.792969 66.164062 51.226562 67.007812 50.183594 65.996094 C 49.742188 65.5625 49.46875 64.757812 49.652344 64.152344 C 49.832031 63.585938 50.484375 63.335938 51.019531 63.601562 C 51.5 63.835938 51.945312 63.101562 51.449219 62.863281 C 50.71875 62.507812 49.859375 62.601562 49.273438 63.191406 C 48.609375 63.863281 48.671875 64.980469 49.039062 65.785156 C 49.925781 67.769531 52.53125 67.679688 53.664062 65.980469 C 54.785156 64.285156 54.160156 61.496094 52.167969 60.773438 Z M 52.167969 60.773438 " fill-opacity="1" fill-rule="nonzero"/></g><path fill="#a5dafc" d="M 27.574219 55.40625 C 26.363281 55.777344 25.203125 56.316406 23.953125 56.523438 C 22.570312 56.761719 21.226562 56.417969 19.964844 55.855469 C 19.46875 55.628906 19.039062 56.367188 19.535156 56.589844 C 20.8125 57.167969 22.152344 57.578125 23.574219 57.433594 C 25.046875 57.289062 26.402344 56.65625 27.808594 56.222656 C 29.214844 55.789062 31.785156 55.222656 32.082031 57.300781 C 32.214844 58.144531 31.707031 59.207031 30.726562 59.128906 C 30.246094 59.089844 29.90625 58.746094 29.777344 58.289062 C 29.644531 57.800781 29.90625 57.105469 30.53125 57.378906 C 31.027344 57.605469 31.457031 56.867188 30.960938 56.644531 C 30.273438 56.328125 29.410156 56.5 29.035156 57.222656 C 28.644531 57.984375 28.996094 59.050781 29.621094 59.578125 C 30.3125 60.15625 31.328125 60.101562 32.03125 59.578125 C 32.773438 59.011719 33.074219 58.039062 32.917969 57.128906 C 32.488281 54.5 29.515625 54.816406 27.574219 55.40625 Z M 27.574219 55.40625 " fill-opacity="1" fill-rule="nonzero"/></svg>