<svg xmlns="http://www.w3.org/2000/svg" xmlns:xlink="http://www.w3.org/1999/xlink" width="500" zoomAndPan="magnify" viewBox="0 0 375 374.999991" height="500" preserveAspectRatio="xMidYMid meet" version="1.0"><defs><clipPath id="0165b96c3b"><path d="M 124.789062 104 L 278.539062 104 L 278.539062 236 L 124.789062 236 Z M 124.789062 104 " clip-rule="nonzero"/></clipPath><clipPath id="4fdd84f460"><path d="M 198 178 L 278.539062 178 L 278.539062 258 L 198 258 Z M 198 178 " clip-rule="nonzero"/></clipPath></defs><g clip-path="url(#0165b96c3b)"><path fill="#ffffff" d="M 269.996094 104.183594 L 133.332031 104.183594 C 128.621094 104.183594 124.789062 108.015625 124.789062 112.722656 L 124.789062 192.425781 C 124.789062 197.136719 128.621094 200.964844 133.332031 200.964844 L 189.898438 200.964844 L 187.761719 218.042969 L 178.886719 218.042969 C 174.175781 218.042969 170.34375 221.875 170.34375 226.582031 L 170.34375 232.277344 C 170.34375 233.851562 171.617188 235.125 173.191406 235.125 L 195.398438 235.125 C 196.972656 235.125 198.246094 233.851562 198.246094 232.277344 C 198.246094 230.703125 196.972656 229.429688 195.398438 229.429688 L 176.039062 229.429688 L 176.039062 226.582031 C 176.039062 225.011719 177.316406 223.738281 178.886719 223.738281 C 178.886719 223.738281 193.207031 223.738281 193.207031 223.738281 C 196.742188 223.742188 197.027344 218.433594 193.492188 218.101562 L 195.636719 200.964844 L 197.734375 200.964844 C 201.472656 200.933594 201.453125 195.296875 197.734375 195.273438 C 197.734375 195.273438 133.332031 195.273438 133.332031 195.273438 C 131.761719 195.273438 130.484375 193.996094 130.484375 192.425781 L 130.484375 112.722656 C 130.484375 111.152344 131.761719 109.878906 133.332031 109.878906 L 269.996094 109.878906 C 271.570312 109.878906 272.84375 111.152344 272.84375 112.722656 L 272.84375 191.542969 C 272.871094 195.253906 278.492188 195.304688 278.539062 191.542969 C 278.539062 191.542969 278.539062 112.722656 278.539062 112.722656 C 278.539062 108.015625 274.707031 104.183594 269.996094 104.183594 Z M 269.996094 104.183594 " fill-opacity="1" fill-rule="nonzero"/></g><path fill="#ffffff" d="M 267.152344 185.363281 C 268.722656 185.363281 269.996094 184.09375 269.996094 182.519531 L 269.996094 121.261719 C 269.996094 116.554688 266.167969 112.722656 261.457031 112.722656 L 141.871094 112.722656 C 137.164062 112.722656 133.332031 116.554688 133.332031 121.261719 L 133.332031 183.886719 C 133.332031 188.59375 137.164062 192.425781 141.871094 192.425781 L 203.144531 192.425781 C 206.871094 192.394531 206.871094 186.757812 203.144531 186.734375 C 203.144531 186.734375 141.871094 186.734375 141.871094 186.734375 C 140.300781 186.734375 139.027344 185.457031 139.027344 183.886719 L 139.027344 121.261719 C 139.027344 119.691406 140.300781 118.417969 141.871094 118.417969 L 261.457031 118.417969 C 263.027344 118.417969 264.304688 119.691406 264.304688 121.261719 L 264.304688 182.519531 C 264.304688 184.09375 265.578125 185.363281 267.152344 185.363281 Z M 267.152344 185.363281 " fill-opacity="1" fill-rule="nonzero"/><g clip-path="url(#4fdd84f460)"><path fill="#ffffff" d="M 238.679688 178.191406 C 216.699219 178.191406 198.816406 196.070312 198.816406 218.042969 C 201.007812 270.914062 276.359375 270.898438 278.539062 218.042969 C 278.539062 196.070312 260.65625 178.191406 238.679688 178.191406 Z M 238.679688 252.203125 C 219.835938 252.203125 204.511719 236.878906 204.511719 218.042969 C 206.386719 172.730469 270.976562 172.742188 272.84375 218.042969 C 272.84375 236.878906 257.519531 252.203125 238.679688 252.203125 Z M 238.679688 252.203125 " fill-opacity="1" fill-rule="nonzero"/></g><path fill="#ffffff" d="M 254.464844 209.25 L 242.792969 209.25 L 249.0625 191.707031 C 250.183594 188.671875 245.914062 186.429688 244.0625 189.097656 C 244.0625 189.097656 220.570312 222.035156 220.570312 222.035156 C 219.214844 223.816406 220.644531 226.609375 222.890625 226.535156 C 222.890625 226.535156 233.894531 226.535156 233.894531 226.535156 L 227.96875 244.445312 C 226.898438 247.421875 231.191406 249.636719 232.988281 246.996094 C 232.988281 246.996094 256.78125 213.753906 256.78125 213.753906 C 258.144531 211.976562 256.714844 209.175781 254.464844 209.25 Z M 239.261719 228.445312 L 240.542969 224.582031 C 241.179688 222.8125 239.722656 220.789062 237.839844 220.839844 C 237.839844 220.839844 228.417969 220.839844 228.417969 220.839844 L 236.8125 209.070312 L 236.074219 211.140625 C 235.378906 212.921875 236.84375 215 238.753906 214.945312 C 238.753906 214.945312 248.925781 214.945312 248.925781 214.945312 Z M 239.261719 228.445312 " fill-opacity="1" fill-rule="nonzero"/></svg>