<svg xmlns="http://www.w3.org/2000/svg" xmlns:xlink="http://www.w3.org/1999/xlink" width="100" zoomAndPan="magnify" viewBox="0 0 75 74.999997" height="100" preserveAspectRatio="xMidYMid meet" version="1.0"><defs><clipPath id="3bd980cbdd"><path d="M 8.699219 5.046875 L 68.699219 5.046875 L 68.699219 65.046875 L 8.699219 65.046875 Z M 8.699219 5.046875 " clip-rule="nonzero"/></clipPath></defs><rect x="-7.5" width="90" fill="#ffffff" y="-7.5" height="89.999996" fill-opacity="1"/><rect x="-7.5" width="90" fill="#ffffff" y="-7.5" height="89.999996" fill-opacity="1"/><rect x="-7.5" width="90" fill="#c1f0f8" y="-7.5" height="89.999996" fill-opacity="1"/><g clip-path="url(#3bd980cbdd)"><path fill="#fbbf36" d="M 68.699219 35.046875 C 62.273438 38.300781 61.613281 41.402344 66.34375 46.722656 C 59.226562 47.042969 57.5 49.582031 59.914062 56.257812 C 53.234375 53.847656 50.695312 55.570312 50.378906 62.6875 C 45.054688 57.957031 41.953125 58.617188 38.699219 65.046875 C 35.445312 58.617188 32.34375 57.957031 27.023438 62.6875 C 26.703125 55.570312 24.164062 53.847656 17.488281 56.257812 C 19.898438 49.582031 18.175781 47.042969 11.058594 46.722656 C 15.789062 41.402344 15.128906 38.300781 8.699219 35.046875 C 15.128906 31.792969 15.789062 28.691406 11.058594 23.367188 C 18.175781 23.050781 19.898438 20.511719 17.488281 13.832031 C 24.164062 16.246094 26.703125 14.519531 27.023438 7.402344 C 32.34375 12.132812 35.445312 11.472656 38.699219 5.046875 C 41.953125 11.472656 45.054688 12.132812 50.378906 7.402344 C 50.695312 14.519531 53.234375 16.246094 59.914062 13.832031 C 57.5 20.511719 59.226562 23.050781 66.34375 23.367188 C 61.613281 28.691406 62.273438 31.792969 68.699219 35.046875 " fill-opacity="1" fill-rule="evenodd"/></g><path fill="#faf255" d="M 59.914062 35.046875 C 59.914062 46.761719 50.414062 56.257812 38.699219 56.257812 C 26.984375 56.257812 17.488281 46.761719 17.488281 35.046875 C 17.488281 23.332031 26.984375 13.832031 38.699219 13.832031 C 50.414062 13.832031 59.914062 23.332031 59.914062 35.046875 " fill-opacity="1" fill-rule="evenodd"/><path fill="#fbf892" d="M 54.566406 35.046875 C 54.566406 43.808594 47.460938 50.910156 38.699219 50.910156 C 29.9375 50.910156 22.835938 43.808594 22.835938 35.046875 C 22.835938 26.285156 29.9375 19.179688 38.699219 19.179688 C 47.460938 19.179688 54.566406 26.285156 54.566406 35.046875 " fill-opacity="1" fill-rule="evenodd"/></svg>