<svg xmlns="http://www.w3.org/2000/svg" xmlns:xlink="http://www.w3.org/1999/xlink" width="500" zoomAndPan="magnify" viewBox="0 0 375 374.999991" height="500" preserveAspectRatio="xMidYMid meet" version="1.0"><defs><clipPath id="c0cd2d83ff"><path d="M 240 137 L 327.894531 137 L 327.894531 151 L 240 151 Z M 240 137 " clip-rule="nonzero"/></clipPath><clipPath id="754389304d"><path d="M 47.394531 137 L 136 137 L 136 151 L 47.394531 151 Z M 47.394531 137 " clip-rule="nonzero"/></clipPath><clipPath id="10ee661e64"><path d="M 166 55.449219 L 184 55.449219 L 184 67 L 166 67 Z M 166 55.449219 " clip-rule="nonzero"/></clipPath><clipPath id="a883e417c6"><path d="M 192 55.449219 L 210 55.449219 L 210 67 L 192 67 Z M 192 55.449219 " clip-rule="nonzero"/></clipPath><clipPath id="397616a535"><path d="M 83 286 L 292 286 L 292 319.449219 L 83 319.449219 Z M 83 286 " clip-rule="nonzero"/></clipPath></defs><path fill="#9ca8c2" d="M 284.066406 70.765625 C 283.867188 71.683594 282.773438 72.226562 281.628906 71.972656 C 280.484375 71.71875 279.722656 70.765625 279.925781 69.847656 C 280.128906 68.925781 281.222656 68.386719 282.367188 68.640625 C 283.511719 68.894531 284.273438 69.84375 284.066406 70.765625 " fill-opacity="1" fill-rule="nonzero"/><path fill="#566280" d="M 283.210938 70.738281 C 283.066406 71.386719 282.207031 71.75 281.289062 71.546875 C 280.375 71.34375 279.75 70.652344 279.890625 70.003906 C 280.035156 69.355469 280.894531 68.996094 281.8125 69.195312 C 282.726562 69.398438 283.355469 70.089844 283.210938 70.738281 " fill-opacity="1" fill-rule="nonzero"/><path fill="#b3bbd0" d="M 256.59375 181.917969 L 281.316406 69.640625 L 276.410156 68.550781 L 251.4375 181.917969 L 256.59375 181.917969 " fill-opacity="1" fill-rule="nonzero"/><path fill="#9ca8c2" d="M 280.015625 75.492188 L 275.109375 74.40625 L 276.410156 68.550781 L 281.316406 69.640625 L 280.015625 75.492188 " fill-opacity="1" fill-rule="nonzero"/><path fill="#9ca8c2" d="M 281.574219 71.957031 L 274.851562 70.46875 L 275.589844 67.136719 L 282.3125 68.628906 L 281.574219 71.957031 " fill-opacity="1" fill-rule="nonzero"/><path fill="#566280" d="M 282.066406 68.574219 L 281.324219 71.90625 L 281.570312 71.960938 L 282.308594 68.628906 L 282.066406 68.574219 " fill-opacity="1" fill-rule="nonzero"/><path fill="#ffffff" d="M 253.160156 181.917969 L 276.519531 75.792969 L 275.574219 75.582031 L 252.167969 181.917969 L 253.160156 181.917969 " fill-opacity="1" fill-rule="nonzero"/><path fill="#ffffff" d="M 276.074219 70.0625 L 275.398438 69.914062 L 275.847656 67.878906 L 276.523438 68.027344 L 276.074219 70.0625 " fill-opacity="1" fill-rule="nonzero"/><path fill="#9ca8c2" d="M 284.136719 70.765625 C 284.339844 71.683594 285.433594 72.226562 286.578125 71.972656 C 287.722656 71.71875 288.484375 70.765625 288.28125 69.847656 C 288.074219 68.925781 286.984375 68.386719 285.839844 68.640625 C 284.695312 68.894531 283.933594 69.84375 284.136719 70.765625 " fill-opacity="1" fill-rule="nonzero"/><path fill="#566280" d="M 284.996094 70.738281 C 285.144531 71.386719 286.003906 71.75 286.921875 71.546875 C 287.835938 71.34375 288.460938 70.652344 288.316406 70.003906 C 288.171875 69.355469 287.3125 68.996094 286.398438 69.195312 C 285.480469 69.398438 284.855469 70.089844 284.996094 70.738281 " fill-opacity="1" fill-rule="nonzero"/><path fill="#b3bbd0" d="M 311.617188 181.917969 L 286.890625 69.636719 L 291.796875 68.550781 L 316.765625 181.917969 L 311.617188 181.917969 " fill-opacity="1" fill-rule="nonzero"/><path fill="#9ca8c2" d="M 288.191406 75.492188 L 293.097656 74.40625 L 291.800781 68.550781 L 286.890625 69.640625 L 288.191406 75.492188 " fill-opacity="1" fill-rule="nonzero"/><path fill="#9ca8c2" d="M 286.636719 71.957031 L 293.355469 70.46875 L 292.617188 67.136719 L 285.894531 68.628906 L 286.636719 71.957031 " fill-opacity="1" fill-rule="nonzero"/><path fill="#566280" d="M 286.136719 68.574219 L 286.878906 71.90625 L 286.632812 71.960938 L 285.894531 68.628906 L 286.136719 68.574219 " fill-opacity="1" fill-rule="nonzero"/><path fill="#ffffff" d="M 315.042969 181.917969 L 291.6875 75.789062 L 292.628906 75.582031 L 316.035156 181.917969 L 315.042969 181.917969 " fill-opacity="1" fill-rule="nonzero"/><path fill="#ffffff" d="M 292.132812 70.0625 L 292.804688 69.914062 L 292.355469 67.878906 L 291.679688 68.027344 L 292.132812 70.0625 " fill-opacity="1" fill-rule="nonzero"/><g clip-path="url(#c0cd2d83ff)"><path fill="#b3bbd0" d="M 283.957031 148.535156 L 242.851562 139.105469 L 325.066406 139.105469 Z M 240.957031 137.003906 L 240.113281 140.679688 L 275.523438 148.800781 L 283.957031 150.734375 L 292.394531 148.800781 L 327.386719 140.773438 L 327.804688 140.773438 L 327.804688 137.003906 L 240.957031 137.003906 " fill-opacity="1" fill-rule="nonzero"/></g><path fill="#b3bbd0" d="M 249.828125 143.054688 L 249.464844 142.695312 L 254.617188 137.546875 L 254.976562 137.910156 L 249.828125 143.054688 " fill-opacity="1" fill-rule="nonzero"/><path fill="#b3bbd0" d="M 254.976562 142.695312 L 254.617188 143.054688 L 249.464844 137.910156 L 249.828125 137.550781 L 254.976562 142.695312 " fill-opacity="1" fill-rule="nonzero"/><path fill="#b3bbd0" d="M 258.59375 144.042969 L 258.164062 143.613281 L 264.285156 137.5 L 264.714844 137.929688 L 258.59375 144.042969 " fill-opacity="1" fill-rule="nonzero"/><path fill="#b3bbd0" d="M 264.714844 143.613281 L 264.285156 144.042969 L 258.164062 137.929688 L 258.59375 137.5 L 264.714844 143.613281 " fill-opacity="1" fill-rule="nonzero"/><path fill="#b3bbd0" d="M 318.382812 143.054688 L 318.742188 142.695312 L 313.589844 137.546875 L 313.226562 137.910156 L 318.382812 143.054688 " fill-opacity="1" fill-rule="nonzero"/><path fill="#b3bbd0" d="M 313.226562 142.695312 L 313.589844 143.054688 L 318.742188 137.910156 L 318.382812 137.546875 L 313.226562 142.695312 " fill-opacity="1" fill-rule="nonzero"/><path fill="#b3bbd0" d="M 309.613281 144.042969 L 310.042969 143.613281 L 303.921875 137.5 L 303.492188 137.925781 L 309.613281 144.042969 " fill-opacity="1" fill-rule="nonzero"/><path fill="#b3bbd0" d="M 303.492188 143.613281 L 303.921875 144.039062 L 310.042969 137.925781 L 309.613281 137.5 L 303.492188 143.613281 " fill-opacity="1" fill-rule="nonzero"/><path fill="#b3bbd0" d="M 267.296875 146.59375 L 266.746094 145.890625 L 276.769531 138.035156 L 277.320312 138.738281 L 267.296875 146.59375 " fill-opacity="1" fill-rule="nonzero"/><path fill="#b3bbd0" d="M 276.320312 147.042969 L 275.613281 147.59375 L 267.75 137.582031 L 268.449219 137.035156 L 276.320312 147.042969 " fill-opacity="1" fill-rule="nonzero"/><path fill="#b3bbd0" d="M 279.523438 148.382812 L 278.871094 147.695312 L 288.679688 138.351562 L 289.335938 139.042969 L 279.523438 148.382812 " fill-opacity="1" fill-rule="nonzero"/><path fill="#b3bbd0" d="M 289.125 147.9375 L 288.4375 148.59375 L 279.078125 138.796875 L 279.769531 138.144531 L 289.125 147.9375 " fill-opacity="1" fill-rule="nonzero"/><path fill="#b3bbd0" d="M 300.910156 146.59375 L 301.460938 145.890625 L 291.4375 138.035156 L 290.886719 138.738281 L 300.910156 146.59375 " fill-opacity="1" fill-rule="nonzero"/><path fill="#b3bbd0" d="M 291.886719 147.042969 L 292.589844 147.59375 L 300.457031 137.585938 L 299.753906 137.035156 L 291.886719 147.042969 " fill-opacity="1" fill-rule="nonzero"/><path fill="#b3bbd0" d="M 283.960938 125.625 L 258.3125 116.199219 L 309.613281 116.199219 Z M 257.128906 114.097656 L 256.601562 117.769531 L 278.699219 125.894531 L 283.960938 127.828125 L 289.222656 125.894531 L 311.058594 117.867188 L 311.320312 117.867188 L 311.320312 114.097656 L 257.128906 114.097656 " fill-opacity="1" fill-rule="nonzero"/><path fill="#b3bbd0" d="M 262.664062 120.148438 L 262.4375 119.789062 L 265.652344 114.644531 L 265.875 115.003906 L 262.664062 120.148438 " fill-opacity="1" fill-rule="nonzero"/><path fill="#b3bbd0" d="M 265.875 119.789062 L 265.652344 120.148438 L 262.4375 115.003906 L 262.664062 114.644531 L 265.875 119.789062 " fill-opacity="1" fill-rule="nonzero"/><path fill="#b3bbd0" d="M 268.132812 121.136719 L 267.863281 120.710938 L 271.683594 114.597656 L 271.953125 115.023438 L 268.132812 121.136719 " fill-opacity="1" fill-rule="nonzero"/><path fill="#b3bbd0" d="M 271.953125 120.710938 L 271.683594 121.136719 L 267.863281 115.023438 L 268.132812 114.597656 L 271.953125 120.710938 " fill-opacity="1" fill-rule="nonzero"/><path fill="#b3bbd0" d="M 305.433594 120.152344 L 305.660156 119.789062 L 302.445312 114.644531 L 302.21875 115.003906 L 305.433594 120.152344 " fill-opacity="1" fill-rule="nonzero"/><path fill="#b3bbd0" d="M 302.21875 119.789062 L 302.445312 120.152344 L 305.660156 115.003906 L 305.433594 114.644531 L 302.21875 119.789062 " fill-opacity="1" fill-rule="nonzero"/><path fill="#b3bbd0" d="M 299.964844 121.136719 L 300.234375 120.710938 L 296.414062 114.597656 L 296.144531 115.023438 L 299.964844 121.136719 " fill-opacity="1" fill-rule="nonzero"/><path fill="#b3bbd0" d="M 296.144531 120.710938 L 296.414062 121.136719 L 300.234375 115.023438 L 299.964844 114.597656 L 296.144531 120.710938 " fill-opacity="1" fill-rule="nonzero"/><path fill="#b3bbd0" d="M 273.5625 123.6875 L 273.21875 122.988281 L 279.472656 115.128906 L 279.816406 115.832031 L 273.5625 123.6875 " fill-opacity="1" fill-rule="nonzero"/><path fill="#b3bbd0" d="M 279.191406 124.136719 L 278.753906 124.6875 L 273.84375 114.679688 L 274.28125 114.128906 L 279.191406 124.136719 " fill-opacity="1" fill-rule="nonzero"/><path fill="#b3bbd0" d="M 281.191406 125.480469 L 280.785156 124.792969 L 286.90625 115.449219 L 287.3125 116.136719 L 281.191406 125.480469 " fill-opacity="1" fill-rule="nonzero"/><path fill="#b3bbd0" d="M 287.183594 125.035156 L 286.753906 125.691406 L 280.914062 115.894531 L 281.347656 115.238281 L 287.183594 125.035156 " fill-opacity="1" fill-rule="nonzero"/><path fill="#b3bbd0" d="M 294.53125 123.691406 L 294.878906 122.988281 L 288.621094 115.132812 L 288.28125 115.835938 L 294.53125 123.691406 " fill-opacity="1" fill-rule="nonzero"/><path fill="#b3bbd0" d="M 288.90625 124.140625 L 289.34375 124.6875 L 294.253906 114.679688 L 293.8125 114.128906 L 288.90625 124.140625 " fill-opacity="1" fill-rule="nonzero"/><path fill="#b3bbd0" d="M 283.960938 98.09375 L 263.589844 90.609375 L 304.332031 90.609375 Z M 262.648438 88.941406 L 262.234375 91.855469 L 279.78125 98.308594 L 283.960938 99.84375 L 288.140625 98.308594 L 305.484375 91.933594 L 305.6875 91.933594 L 305.6875 88.941406 L 262.648438 88.941406 " fill-opacity="1" fill-rule="nonzero"/><path fill="#b3bbd0" d="M 267.042969 93.746094 L 266.863281 93.460938 L 269.417969 89.371094 L 269.597656 89.660156 L 267.042969 93.746094 " fill-opacity="1" fill-rule="nonzero"/><path fill="#b3bbd0" d="M 269.597656 93.460938 L 269.417969 93.746094 L 266.863281 89.660156 L 267.042969 89.375 L 269.597656 93.460938 " fill-opacity="1" fill-rule="nonzero"/><path fill="#b3bbd0" d="M 271.390625 94.53125 L 271.175781 94.191406 L 274.210938 89.335938 L 274.421875 89.675781 L 271.390625 94.53125 " fill-opacity="1" fill-rule="nonzero"/><path fill="#b3bbd0" d="M 274.421875 94.191406 L 274.210938 94.53125 L 271.175781 89.675781 L 271.390625 89.335938 L 274.421875 94.191406 " fill-opacity="1" fill-rule="nonzero"/><path fill="#b3bbd0" d="M 301.015625 93.746094 L 301.195312 93.460938 L 298.644531 89.375 L 298.464844 89.660156 L 301.015625 93.746094 " fill-opacity="1" fill-rule="nonzero"/><path fill="#b3bbd0" d="M 298.464844 93.460938 L 298.644531 93.746094 L 301.195312 89.660156 L 301.015625 89.375 L 298.464844 93.460938 " fill-opacity="1" fill-rule="nonzero"/><path fill="#b3bbd0" d="M 296.671875 94.53125 L 296.886719 94.191406 L 293.851562 89.332031 L 293.636719 89.675781 L 296.671875 94.53125 " fill-opacity="1" fill-rule="nonzero"/><path fill="#b3bbd0" d="M 293.636719 94.191406 L 293.851562 94.53125 L 296.886719 89.675781 L 296.671875 89.335938 L 293.636719 94.191406 " fill-opacity="1" fill-rule="nonzero"/><path fill="#b3bbd0" d="M 275.703125 96.558594 L 275.429688 96 L 280.394531 89.761719 L 280.667969 90.316406 L 275.703125 96.558594 " fill-opacity="1" fill-rule="nonzero"/><path fill="#b3bbd0" d="M 280.171875 96.914062 L 279.824219 97.351562 L 275.925781 89.402344 L 276.273438 88.964844 L 280.171875 96.914062 " fill-opacity="1" fill-rule="nonzero"/><path fill="#b3bbd0" d="M 281.761719 97.976562 L 281.4375 97.433594 L 286.300781 90.011719 L 286.625 90.558594 L 281.761719 97.976562 " fill-opacity="1" fill-rule="nonzero"/><path fill="#b3bbd0" d="M 286.519531 97.625 L 286.179688 98.148438 L 281.539062 90.363281 L 281.882812 89.84375 L 286.519531 97.625 " fill-opacity="1" fill-rule="nonzero"/><path fill="#b3bbd0" d="M 292.359375 96.554688 L 292.632812 96 L 287.664062 89.761719 L 287.390625 90.316406 L 292.359375 96.554688 " fill-opacity="1" fill-rule="nonzero"/><path fill="#b3bbd0" d="M 287.886719 96.914062 L 288.234375 97.351562 L 292.136719 89.402344 L 291.789062 88.964844 L 287.886719 96.914062 " fill-opacity="1" fill-rule="nonzero"/><path fill="#9ca8c2" d="M 91.441406 70.765625 C 91.238281 71.683594 90.144531 72.226562 89 71.972656 C 87.855469 71.71875 87.09375 70.765625 87.296875 69.847656 C 87.503906 68.925781 88.597656 68.386719 89.738281 68.640625 C 90.882812 68.894531 91.644531 69.84375 91.441406 70.765625 " fill-opacity="1" fill-rule="nonzero"/><path fill="#566280" d="M 90.582031 70.738281 C 90.4375 71.386719 89.578125 71.75 88.660156 71.546875 C 87.742188 71.34375 87.121094 70.652344 87.261719 70.003906 C 87.40625 69.355469 88.265625 68.996094 89.183594 69.195312 C 90.097656 69.398438 90.726562 70.089844 90.582031 70.738281 " fill-opacity="1" fill-rule="nonzero"/><path fill="#b3bbd0" d="M 63.964844 181.917969 L 88.6875 69.640625 L 83.78125 68.550781 L 58.8125 181.917969 L 63.964844 181.917969 " fill-opacity="1" fill-rule="nonzero"/><path fill="#9ca8c2" d="M 87.386719 75.492188 L 82.480469 74.40625 L 83.78125 68.550781 L 88.6875 69.640625 L 87.386719 75.492188 " fill-opacity="1" fill-rule="nonzero"/><path fill="#9ca8c2" d="M 88.945312 71.957031 L 82.222656 70.46875 L 82.964844 67.136719 L 89.683594 68.628906 L 88.945312 71.957031 " fill-opacity="1" fill-rule="nonzero"/><path fill="#566280" d="M 89.4375 68.574219 L 88.699219 71.90625 L 88.945312 71.960938 L 89.683594 68.628906 L 89.4375 68.574219 " fill-opacity="1" fill-rule="nonzero"/><path fill="#ffffff" d="M 60.53125 181.917969 L 83.894531 75.792969 L 82.949219 75.582031 L 59.542969 181.917969 L 60.53125 181.917969 " fill-opacity="1" fill-rule="nonzero"/><path fill="#ffffff" d="M 83.445312 70.0625 L 82.769531 69.914062 L 83.21875 67.878906 L 83.898438 68.027344 L 83.445312 70.0625 " fill-opacity="1" fill-rule="nonzero"/><path fill="#9ca8c2" d="M 91.507812 70.765625 C 91.710938 71.683594 92.804688 72.226562 93.949219 71.972656 C 95.09375 71.71875 95.855469 70.765625 95.652344 69.847656 C 95.445312 68.925781 94.355469 68.386719 93.210938 68.640625 C 92.066406 68.894531 91.304688 69.84375 91.507812 70.765625 " fill-opacity="1" fill-rule="nonzero"/><path fill="#566280" d="M 92.371094 70.738281 C 92.515625 71.386719 93.375 71.75 94.289062 71.546875 C 95.207031 71.34375 95.832031 70.652344 95.6875 70.003906 C 95.542969 69.355469 94.683594 68.996094 93.769531 69.195312 C 92.851562 69.398438 92.226562 70.089844 92.371094 70.738281 " fill-opacity="1" fill-rule="nonzero"/><path fill="#b3bbd0" d="M 118.988281 181.917969 L 94.261719 69.640625 L 99.167969 68.550781 L 124.136719 181.917969 L 118.988281 181.917969 " fill-opacity="1" fill-rule="nonzero"/><path fill="#9ca8c2" d="M 95.5625 75.492188 L 100.46875 74.40625 L 99.167969 68.550781 L 94.261719 69.640625 L 95.5625 75.492188 " fill-opacity="1" fill-rule="nonzero"/><path fill="#9ca8c2" d="M 94.007812 71.957031 L 100.726562 70.46875 L 99.988281 67.136719 L 93.265625 68.628906 L 94.007812 71.957031 " fill-opacity="1" fill-rule="nonzero"/><path fill="#566280" d="M 93.511719 68.574219 L 94.253906 71.90625 L 94.007812 71.960938 L 93.265625 68.628906 L 93.511719 68.574219 " fill-opacity="1" fill-rule="nonzero"/><path fill="#ffffff" d="M 122.417969 181.917969 L 99.058594 75.792969 L 100 75.582031 L 123.40625 181.917969 L 122.417969 181.917969 " fill-opacity="1" fill-rule="nonzero"/><path fill="#ffffff" d="M 99.503906 70.0625 L 100.179688 69.914062 L 99.726562 67.878906 L 99.050781 68.027344 L 99.503906 70.0625 " fill-opacity="1" fill-rule="nonzero"/><g clip-path="url(#754389304d)"><path fill="#b3bbd0" d="M 91.332031 148.53125 L 50.222656 139.105469 L 132.441406 139.105469 Z M 48.332031 137.003906 L 47.484375 140.675781 L 82.898438 148.796875 L 91.332031 150.734375 L 99.765625 148.796875 L 134.761719 140.773438 L 135.175781 140.773438 L 135.175781 137.003906 L 48.332031 137.003906 " fill-opacity="1" fill-rule="nonzero"/></g><path fill="#b3bbd0" d="M 57.199219 143.054688 L 56.835938 142.695312 L 61.988281 137.546875 L 62.351562 137.910156 L 57.199219 143.054688 " fill-opacity="1" fill-rule="nonzero"/><path fill="#b3bbd0" d="M 62.351562 142.695312 L 61.988281 143.054688 L 56.835938 137.910156 L 57.199219 137.550781 L 62.351562 142.695312 " fill-opacity="1" fill-rule="nonzero"/><path fill="#b3bbd0" d="M 65.964844 144.042969 L 65.535156 143.613281 L 71.65625 137.5 L 72.085938 137.929688 L 65.964844 144.042969 " fill-opacity="1" fill-rule="nonzero"/><path fill="#b3bbd0" d="M 72.085938 143.613281 L 71.65625 144.042969 L 65.535156 137.929688 L 65.964844 137.5 L 72.085938 143.613281 " fill-opacity="1" fill-rule="nonzero"/><path fill="#b3bbd0" d="M 125.75 143.054688 L 126.113281 142.695312 L 120.960938 137.546875 L 120.601562 137.910156 L 125.75 143.054688 " fill-opacity="1" fill-rule="nonzero"/><path fill="#b3bbd0" d="M 120.601562 142.695312 L 120.960938 143.054688 L 126.113281 137.910156 L 125.75 137.550781 L 120.601562 142.695312 " fill-opacity="1" fill-rule="nonzero"/><path fill="#b3bbd0" d="M 116.984375 144.042969 L 117.414062 143.613281 L 111.292969 137.5 L 110.863281 137.929688 L 116.984375 144.042969 " fill-opacity="1" fill-rule="nonzero"/><path fill="#b3bbd0" d="M 110.863281 143.613281 L 111.292969 144.042969 L 117.414062 137.929688 L 116.984375 137.5 L 110.863281 143.613281 " fill-opacity="1" fill-rule="nonzero"/><path fill="#b3bbd0" d="M 74.667969 146.59375 L 74.117188 145.890625 L 84.140625 138.035156 L 84.691406 138.738281 L 74.667969 146.59375 " fill-opacity="1" fill-rule="nonzero"/><path fill="#b3bbd0" d="M 83.691406 147.042969 L 82.988281 147.59375 L 75.121094 137.582031 L 75.824219 137.035156 L 83.691406 147.042969 " fill-opacity="1" fill-rule="nonzero"/><path fill="#b3bbd0" d="M 86.898438 148.382812 L 86.242188 147.695312 L 96.050781 138.351562 L 96.710938 139.042969 L 86.898438 148.382812 " fill-opacity="1" fill-rule="nonzero"/><path fill="#b3bbd0" d="M 96.496094 147.9375 L 95.808594 148.59375 L 86.453125 138.796875 L 87.140625 138.144531 L 96.496094 147.9375 " fill-opacity="1" fill-rule="nonzero"/><path fill="#b3bbd0" d="M 108.28125 146.59375 L 108.832031 145.890625 L 98.808594 138.035156 L 98.257812 138.738281 L 108.28125 146.59375 " fill-opacity="1" fill-rule="nonzero"/><path fill="#b3bbd0" d="M 99.261719 147.042969 L 99.964844 147.59375 L 107.832031 137.582031 L 107.125 137.035156 L 99.261719 147.042969 " fill-opacity="1" fill-rule="nonzero"/><path fill="#b3bbd0" d="M 91.332031 125.628906 L 65.683594 116.199219 L 116.980469 116.199219 Z M 64.5 114.097656 L 63.972656 117.769531 L 86.070312 125.894531 L 91.332031 127.828125 L 96.59375 125.894531 L 118.429688 117.867188 L 118.691406 117.867188 L 118.691406 114.097656 L 64.5 114.097656 " fill-opacity="1" fill-rule="nonzero"/><path fill="#b3bbd0" d="M 70.035156 120.148438 L 69.808594 119.789062 L 73.023438 114.644531 L 73.25 115.003906 L 70.035156 120.148438 " fill-opacity="1" fill-rule="nonzero"/><path fill="#b3bbd0" d="M 73.25 119.789062 L 73.023438 120.148438 L 69.808594 115.003906 L 70.035156 114.644531 L 73.25 119.789062 " fill-opacity="1" fill-rule="nonzero"/><path fill="#b3bbd0" d="M 75.503906 121.136719 L 75.238281 120.710938 L 79.054688 114.597656 L 79.324219 115.023438 L 75.503906 121.136719 " fill-opacity="1" fill-rule="nonzero"/><path fill="#b3bbd0" d="M 79.324219 120.710938 L 79.054688 121.136719 L 75.238281 115.023438 L 75.503906 114.597656 L 79.324219 120.710938 " fill-opacity="1" fill-rule="nonzero"/><path fill="#b3bbd0" d="M 112.808594 120.148438 L 113.035156 119.789062 L 109.820312 114.644531 L 109.59375 115.003906 L 112.808594 120.148438 " fill-opacity="1" fill-rule="nonzero"/><path fill="#b3bbd0" d="M 109.59375 119.789062 L 109.820312 120.148438 L 113.035156 115.003906 L 112.808594 114.644531 L 109.59375 119.789062 " fill-opacity="1" fill-rule="nonzero"/><path fill="#b3bbd0" d="M 107.339844 121.136719 L 107.605469 120.710938 L 103.785156 114.597656 L 103.519531 115.023438 L 107.339844 121.136719 " fill-opacity="1" fill-rule="nonzero"/><path fill="#b3bbd0" d="M 103.519531 120.710938 L 103.785156 121.136719 L 107.605469 115.023438 L 107.339844 114.597656 L 103.519531 120.710938 " fill-opacity="1" fill-rule="nonzero"/><path fill="#b3bbd0" d="M 80.9375 123.6875 L 80.589844 122.988281 L 86.84375 115.128906 L 87.191406 115.832031 L 80.9375 123.6875 " fill-opacity="1" fill-rule="nonzero"/><path fill="#b3bbd0" d="M 86.5625 124.136719 L 86.125 124.6875 L 81.214844 114.679688 L 81.65625 114.128906 L 86.5625 124.136719 " fill-opacity="1" fill-rule="nonzero"/><path fill="#b3bbd0" d="M 88.566406 125.480469 L 88.15625 124.792969 L 94.277344 115.449219 L 94.6875 116.136719 L 88.566406 125.480469 " fill-opacity="1" fill-rule="nonzero"/><path fill="#b3bbd0" d="M 94.554688 125.035156 L 94.125 125.691406 L 88.289062 115.894531 L 88.71875 115.238281 L 94.554688 125.035156 " fill-opacity="1" fill-rule="nonzero"/><path fill="#b3bbd0" d="M 101.90625 123.6875 L 102.25 122.988281 L 95.996094 115.128906 L 95.652344 115.832031 L 101.90625 123.6875 " fill-opacity="1" fill-rule="nonzero"/><path fill="#b3bbd0" d="M 96.277344 124.136719 L 96.71875 124.6875 L 101.625 114.679688 L 101.1875 114.128906 L 96.277344 124.136719 " fill-opacity="1" fill-rule="nonzero"/><path fill="#b3bbd0" d="M 91.332031 98.097656 L 70.960938 90.609375 L 111.703125 90.609375 Z M 70.023438 88.941406 L 69.601562 91.859375 L 87.152344 98.308594 L 91.332031 99.84375 L 95.511719 98.308594 L 112.851562 91.933594 L 113.058594 91.933594 L 113.058594 88.941406 L 70.023438 88.941406 " fill-opacity="1" fill-rule="nonzero"/><path fill="#b3bbd0" d="M 74.417969 93.746094 L 74.238281 93.460938 L 76.789062 89.371094 L 76.96875 89.660156 L 74.417969 93.746094 " fill-opacity="1" fill-rule="nonzero"/><path fill="#b3bbd0" d="M 76.96875 93.460938 L 76.789062 93.746094 L 74.238281 89.660156 L 74.417969 89.375 L 76.96875 93.460938 " fill-opacity="1" fill-rule="nonzero"/><path fill="#b3bbd0" d="M 78.761719 94.53125 L 78.546875 94.191406 L 81.582031 89.335938 L 81.796875 89.675781 L 78.761719 94.53125 " fill-opacity="1" fill-rule="nonzero"/><path fill="#b3bbd0" d="M 81.796875 94.191406 L 81.582031 94.53125 L 78.546875 89.675781 L 78.761719 89.335938 L 81.796875 94.191406 " fill-opacity="1" fill-rule="nonzero"/><path fill="#b3bbd0" d="M 108.386719 93.746094 L 108.570312 93.460938 L 106.015625 89.371094 L 105.835938 89.660156 L 108.386719 93.746094 " fill-opacity="1" fill-rule="nonzero"/><path fill="#b3bbd0" d="M 105.835938 93.460938 L 106.015625 93.746094 L 108.570312 89.660156 L 108.386719 89.375 L 105.835938 93.460938 " fill-opacity="1" fill-rule="nonzero"/><path fill="#b3bbd0" d="M 104.046875 94.53125 L 104.257812 94.191406 L 101.222656 89.335938 L 101.011719 89.675781 L 104.046875 94.53125 " fill-opacity="1" fill-rule="nonzero"/><path fill="#b3bbd0" d="M 101.011719 94.191406 L 101.222656 94.53125 L 104.257812 89.675781 L 104.046875 89.335938 L 101.011719 94.191406 " fill-opacity="1" fill-rule="nonzero"/><path fill="#b3bbd0" d="M 83.074219 96.558594 L 82.800781 96 L 87.769531 89.761719 L 88.042969 90.316406 L 83.074219 96.558594 " fill-opacity="1" fill-rule="nonzero"/><path fill="#b3bbd0" d="M 87.546875 96.914062 L 87.195312 97.351562 L 83.296875 89.402344 L 83.648438 88.964844 L 87.546875 96.914062 " fill-opacity="1" fill-rule="nonzero"/><path fill="#b3bbd0" d="M 89.132812 97.976562 L 88.808594 97.433594 L 93.671875 90.011719 L 93.996094 90.558594 L 89.132812 97.976562 " fill-opacity="1" fill-rule="nonzero"/><path fill="#b3bbd0" d="M 93.890625 97.625 L 93.550781 98.148438 L 88.914062 90.363281 L 89.253906 89.84375 L 93.890625 97.625 " fill-opacity="1" fill-rule="nonzero"/><path fill="#b3bbd0" d="M 99.730469 96.558594 L 100.003906 96 L 95.035156 89.761719 L 94.761719 90.316406 L 99.730469 96.558594 " fill-opacity="1" fill-rule="nonzero"/><path fill="#b3bbd0" d="M 95.261719 96.914062 L 95.609375 97.351562 L 99.507812 89.402344 L 99.160156 88.964844 L 95.261719 96.914062 " fill-opacity="1" fill-rule="nonzero"/><path fill="#566280" d="M 90.035156 70.09375 L 179.257812 65.992188 L 179.214844 65.074219 L 89.992188 69.179688 " fill-opacity="1" fill-rule="nonzero"/><path fill="#566280" d="M 86.195312 74.546875 L 175.417969 70.441406 L 175.375 69.523438 L 86.152344 73.628906 " fill-opacity="1" fill-rule="nonzero"/><path fill="#566280" d="M 82.355469 78.992188 L 171.578125 74.890625 L 171.539062 73.972656 L 82.3125 78.074219 " fill-opacity="1" fill-rule="nonzero"/><path fill="#566280" d="M 285.300781 69.179688 L 196.078125 65.074219 L 196.035156 65.992188 L 285.261719 70.09375 " fill-opacity="1" fill-rule="nonzero"/><path fill="#566280" d="M 289.136719 73.628906 L 199.914062 69.523438 L 199.875 70.441406 L 289.097656 74.546875 " fill-opacity="1" fill-rule="nonzero"/><path fill="#566280" d="M 292.976562 78.074219 L 203.757812 73.972656 L 203.714844 74.890625 L 292.9375 78.992188 " fill-opacity="1" fill-rule="nonzero"/><path fill="#9ca8c2" d="M 187.894531 63.742188 C 187.429688 65.847656 184.929688 67.082031 182.3125 66.503906 C 179.699219 65.921875 177.957031 63.746094 178.425781 61.644531 C 178.890625 59.542969 181.390625 58.304688 184.003906 58.886719 C 186.625 59.460938 188.363281 61.640625 187.894531 63.742188 " fill-opacity="1" fill-rule="nonzero"/><path fill="#566280" d="M 185.929688 63.6875 C 185.601562 65.171875 183.632812 65.996094 181.539062 65.535156 C 179.445312 65.070312 178.015625 63.492188 178.34375 62.007812 C 178.671875 60.523438 180.640625 59.695312 182.730469 60.160156 C 184.828125 60.625 186.257812 62.203125 185.929688 63.6875 " fill-opacity="1" fill-rule="nonzero"/><path fill="#b3bbd0" d="M 125.074219 317.875 L 181.601562 61.164062 L 170.382812 58.679688 L 113.296875 317.875 L 125.074219 317.875 " fill-opacity="1" fill-rule="nonzero"/><path fill="#9ca8c2" d="M 178.628906 74.546875 L 167.410156 72.0625 L 170.382812 58.679688 L 181.601562 61.164062 L 178.628906 74.546875 " fill-opacity="1" fill-rule="nonzero"/><g clip-path="url(#10ee661e64)"><path fill="#9ca8c2" d="M 182.183594 66.476562 L 166.820312 63.070312 L 168.511719 55.453125 L 183.878906 58.859375 L 182.183594 66.476562 " fill-opacity="1" fill-rule="nonzero"/></g><path fill="#566280" d="M 183.316406 58.734375 L 181.621094 66.351562 L 182.183594 66.476562 L 183.878906 58.859375 L 183.316406 58.734375 " fill-opacity="1" fill-rule="nonzero"/><path fill="#ffffff" d="M 117.226562 317.878906 L 170.636719 75.230469 L 168.476562 74.753906 L 114.964844 317.878906 L 117.226562 317.878906 " fill-opacity="1" fill-rule="nonzero"/><path fill="#ffffff" d="M 169.617188 62.128906 L 168.070312 61.789062 L 169.105469 57.140625 L 170.648438 57.480469 L 169.617188 62.128906 " fill-opacity="1" fill-rule="nonzero"/><path fill="#9ca8c2" d="M 188.050781 63.742188 C 188.515625 65.847656 191.015625 67.082031 193.632812 66.503906 C 196.25 65.921875 197.988281 63.746094 197.523438 61.644531 C 197.054688 59.542969 194.554688 58.304688 191.941406 58.886719 C 189.324219 59.460938 187.582031 61.640625 188.050781 63.742188 " fill-opacity="1" fill-rule="nonzero"/><path fill="#566280" d="M 190.019531 63.6875 C 190.347656 65.171875 192.3125 65.996094 194.410156 65.535156 C 196.5 65.070312 197.933594 63.492188 197.605469 62.007812 C 197.273438 60.523438 195.308594 59.695312 193.214844 60.160156 C 191.121094 60.625 189.6875 62.203125 190.019531 63.6875 " fill-opacity="1" fill-rule="nonzero"/><path fill="#b3bbd0" d="M 250.875 317.875 L 194.347656 61.164062 L 205.566406 58.679688 L 262.648438 317.875 L 250.875 317.875 " fill-opacity="1" fill-rule="nonzero"/><path fill="#9ca8c2" d="M 197.320312 74.546875 L 208.539062 72.0625 L 205.566406 58.679688 L 194.347656 61.164062 L 197.320312 74.546875 " fill-opacity="1" fill-rule="nonzero"/><g clip-path="url(#a883e417c6)"><path fill="#9ca8c2" d="M 193.761719 66.476562 L 209.125 63.070312 L 207.433594 55.453125 L 192.070312 58.859375 L 193.761719 66.476562 " fill-opacity="1" fill-rule="nonzero"/></g><path fill="#566280" d="M 192.628906 58.734375 L 194.324219 66.351562 L 193.761719 66.476562 L 192.070312 58.859375 L 192.628906 58.734375 " fill-opacity="1" fill-rule="nonzero"/><path fill="#ffffff" d="M 258.71875 317.878906 L 205.308594 75.230469 L 207.46875 74.753906 L 260.980469 317.878906 L 258.71875 317.878906 " fill-opacity="1" fill-rule="nonzero"/><path fill="#ffffff" d="M 206.332031 62.128906 L 207.875 61.789062 L 206.84375 57.140625 L 205.300781 57.480469 L 206.332031 62.128906 " fill-opacity="1" fill-rule="nonzero"/><path fill="#b3bbd0" d="M 187.644531 241.546875 L 93.660156 219.992188 L 281.632812 219.992188 Z M 89.332031 215.183594 L 87.398438 223.585938 L 168.359375 242.152344 L 187.644531 246.574219 L 206.929688 242.152344 L 286.9375 223.804688 L 287.894531 223.804688 L 287.894531 215.183594 L 89.332031 215.183594 " fill-opacity="1" fill-rule="nonzero"/><path fill="#b3bbd0" d="M 109.605469 229.019531 L 108.777344 228.195312 L 120.558594 216.433594 L 121.382812 217.257812 L 109.605469 229.019531 " fill-opacity="1" fill-rule="nonzero"/><path fill="#b3bbd0" d="M 121.382812 228.195312 L 120.558594 229.019531 L 108.777344 217.257812 L 109.605469 216.433594 L 121.382812 228.195312 " fill-opacity="1" fill-rule="nonzero"/><path fill="#b3bbd0" d="M 129.648438 231.28125 L 128.667969 230.300781 L 142.664062 216.324219 L 143.648438 217.304688 L 129.648438 231.28125 " fill-opacity="1" fill-rule="nonzero"/><path fill="#b3bbd0" d="M 143.648438 230.300781 L 142.664062 231.28125 L 128.667969 217.304688 L 129.648438 216.324219 L 143.648438 230.300781 " fill-opacity="1" fill-rule="nonzero"/><path fill="#b3bbd0" d="M 266.339844 229.019531 L 267.167969 228.195312 L 255.386719 216.433594 L 254.5625 217.257812 L 266.339844 229.019531 " fill-opacity="1" fill-rule="nonzero"/><path fill="#b3bbd0" d="M 254.5625 228.195312 L 255.386719 229.019531 L 267.167969 217.257812 L 266.339844 216.433594 L 254.5625 228.195312 " fill-opacity="1" fill-rule="nonzero"/><path fill="#b3bbd0" d="M 246.296875 231.28125 L 247.277344 230.300781 L 233.28125 216.324219 L 232.296875 217.304688 L 246.296875 231.28125 " fill-opacity="1" fill-rule="nonzero"/><path fill="#b3bbd0" d="M 232.296875 230.300781 L 233.28125 231.28125 L 247.277344 217.304688 L 246.296875 216.324219 L 232.296875 230.300781 " fill-opacity="1" fill-rule="nonzero"/><path fill="#b3bbd0" d="M 149.550781 237.113281 L 148.289062 235.503906 L 171.207031 217.542969 L 172.46875 219.148438 L 149.550781 237.113281 " fill-opacity="1" fill-rule="nonzero"/><path fill="#b3bbd0" d="M 170.175781 238.140625 L 168.566406 239.398438 L 150.582031 216.515625 L 152.1875 215.253906 L 170.175781 238.140625 " fill-opacity="1" fill-rule="nonzero"/><path fill="#b3bbd0" d="M 177.507812 241.203125 L 176.007812 239.632812 L 198.4375 218.273438 L 199.9375 219.84375 L 177.507812 241.203125 " fill-opacity="1" fill-rule="nonzero"/><path fill="#b3bbd0" d="M 199.457031 240.1875 L 197.878906 241.6875 L 176.492188 219.289062 L 178.066406 217.789062 L 199.457031 240.1875 " fill-opacity="1" fill-rule="nonzero"/><path fill="#b3bbd0" d="M 226.398438 237.113281 L 227.65625 235.503906 L 204.742188 217.542969 L 203.480469 219.148438 L 226.398438 237.113281 " fill-opacity="1" fill-rule="nonzero"/><path fill="#b3bbd0" d="M 205.773438 238.140625 L 207.378906 239.398438 L 225.367188 216.515625 L 223.757812 215.253906 L 205.773438 238.140625 " fill-opacity="1" fill-rule="nonzero"/><path fill="#b3bbd0" d="M 187.644531 189.175781 L 129.003906 167.621094 L 246.289062 167.621094 Z M 126.300781 162.816406 L 125.097656 171.21875 L 175.613281 189.785156 L 187.644531 194.207031 L 199.679688 189.785156 L 249.597656 171.4375 L 250.195312 171.4375 L 250.195312 162.816406 L 126.300781 162.816406 " fill-opacity="1" fill-rule="nonzero"/><path fill="#b3bbd0" d="M 138.953125 176.652344 L 138.4375 175.828125 L 145.785156 164.066406 L 146.300781 164.890625 L 138.953125 176.652344 " fill-opacity="1" fill-rule="nonzero"/><path fill="#b3bbd0" d="M 146.300781 175.828125 L 145.785156 176.652344 L 138.4375 164.890625 L 138.953125 164.066406 L 146.300781 175.828125 " fill-opacity="1" fill-rule="nonzero"/><path fill="#b3bbd0" d="M 151.460938 178.914062 L 150.847656 177.933594 L 159.582031 163.953125 L 160.191406 164.933594 L 151.460938 178.914062 " fill-opacity="1" fill-rule="nonzero"/><path fill="#b3bbd0" d="M 160.191406 177.933594 L 159.582031 178.914062 L 150.847656 164.933594 L 151.460938 163.953125 L 160.191406 177.933594 " fill-opacity="1" fill-rule="nonzero"/><path fill="#b3bbd0" d="M 236.75 176.652344 L 237.261719 175.828125 L 229.914062 164.066406 L 229.398438 164.890625 L 236.75 176.652344 " fill-opacity="1" fill-rule="nonzero"/><path fill="#b3bbd0" d="M 229.398438 175.828125 L 229.914062 176.652344 L 237.261719 164.890625 L 236.75 164.066406 L 229.398438 175.828125 " fill-opacity="1" fill-rule="nonzero"/><path fill="#b3bbd0" d="M 224.238281 178.914062 L 224.855469 177.933594 L 216.121094 163.953125 L 215.507812 164.933594 L 224.238281 178.914062 " fill-opacity="1" fill-rule="nonzero"/><path fill="#b3bbd0" d="M 215.507812 177.933594 L 216.121094 178.914062 L 224.855469 164.933594 L 224.238281 163.953125 L 215.507812 177.933594 " fill-opacity="1" fill-rule="nonzero"/><path fill="#b3bbd0" d="M 163.875 184.746094 L 163.089844 183.136719 L 177.386719 165.175781 L 178.175781 166.785156 L 163.875 184.746094 " fill-opacity="1" fill-rule="nonzero"/><path fill="#b3bbd0" d="M 176.742188 185.773438 L 175.742188 187.03125 L 164.519531 164.148438 L 165.523438 162.886719 L 176.742188 185.773438 " fill-opacity="1" fill-rule="nonzero"/><path fill="#b3bbd0" d="M 181.320312 188.839844 L 180.382812 187.269531 L 194.378906 165.90625 L 195.316406 167.476562 L 181.320312 188.839844 " fill-opacity="1" fill-rule="nonzero"/><path fill="#b3bbd0" d="M 195.015625 187.824219 L 194.03125 189.320312 L 180.6875 166.921875 L 181.667969 165.421875 L 195.015625 187.824219 " fill-opacity="1" fill-rule="nonzero"/><path fill="#b3bbd0" d="M 211.824219 184.746094 L 212.613281 183.136719 L 198.3125 165.175781 L 197.523438 166.785156 L 211.824219 184.746094 " fill-opacity="1" fill-rule="nonzero"/><path fill="#b3bbd0" d="M 198.953125 185.773438 L 199.957031 187.03125 L 211.179688 164.148438 L 210.179688 162.886719 L 198.953125 185.773438 " fill-opacity="1" fill-rule="nonzero"/><path fill="#b3bbd0" d="M 187.644531 126.230469 L 141.070312 109.113281 L 234.222656 109.113281 Z M 138.925781 105.296875 L 137.96875 111.96875 L 178.089844 126.714844 L 187.644531 130.230469 L 197.203125 126.714844 L 236.851562 112.144531 L 237.324219 112.144531 L 237.324219 105.296875 L 138.925781 105.296875 " fill-opacity="1" fill-rule="nonzero"/><path fill="#b3bbd0" d="M 148.972656 116.285156 L 148.5625 115.628906 L 154.398438 106.285156 L 154.808594 106.945312 L 148.972656 116.285156 " fill-opacity="1" fill-rule="nonzero"/><path fill="#b3bbd0" d="M 154.808594 115.628906 L 154.398438 116.285156 L 148.5625 106.945312 L 148.972656 106.289062 L 154.808594 115.628906 " fill-opacity="1" fill-rule="nonzero"/><path fill="#b3bbd0" d="M 158.90625 118.082031 L 158.417969 117.300781 L 165.355469 106.199219 L 165.84375 106.980469 L 158.90625 118.082031 " fill-opacity="1" fill-rule="nonzero"/><path fill="#b3bbd0" d="M 165.84375 117.300781 L 165.355469 118.082031 L 158.417969 106.980469 L 158.90625 106.199219 L 165.84375 117.300781 " fill-opacity="1" fill-rule="nonzero"/><path fill="#b3bbd0" d="M 226.644531 116.285156 L 227.054688 115.628906 L 221.214844 106.285156 L 220.808594 106.945312 L 226.644531 116.285156 " fill-opacity="1" fill-rule="nonzero"/><path fill="#b3bbd0" d="M 220.808594 115.628906 L 221.214844 116.285156 L 227.054688 106.945312 L 226.644531 106.289062 L 220.808594 115.628906 " fill-opacity="1" fill-rule="nonzero"/><path fill="#b3bbd0" d="M 216.710938 118.082031 L 217.199219 117.300781 L 210.261719 106.199219 L 209.777344 106.980469 L 216.710938 118.082031 " fill-opacity="1" fill-rule="nonzero"/><path fill="#b3bbd0" d="M 209.777344 117.300781 L 210.261719 118.082031 L 217.199219 106.980469 L 216.710938 106.199219 L 209.777344 117.300781 " fill-opacity="1" fill-rule="nonzero"/><path fill="#b3bbd0" d="M 168.765625 122.710938 L 168.140625 121.4375 L 179.496094 107.171875 L 180.125 108.445312 L 168.765625 122.710938 " fill-opacity="1" fill-rule="nonzero"/><path fill="#b3bbd0" d="M 178.988281 123.53125 L 178.191406 124.527344 L 169.277344 106.351562 L 170.074219 105.351562 L 178.988281 123.53125 " fill-opacity="1" fill-rule="nonzero"/><path fill="#b3bbd0" d="M 182.621094 125.964844 L 181.878906 124.714844 L 192.996094 107.75 L 193.738281 109 L 182.621094 125.964844 " fill-opacity="1" fill-rule="nonzero"/><path fill="#b3bbd0" d="M 193.5 125.15625 L 192.71875 126.347656 L 182.117188 108.558594 L 182.898438 107.367188 L 193.5 125.15625 " fill-opacity="1" fill-rule="nonzero"/><path fill="#b3bbd0" d="M 206.847656 122.710938 L 207.476562 121.4375 L 196.117188 107.171875 L 195.492188 108.445312 L 206.847656 122.710938 " fill-opacity="1" fill-rule="nonzero"/><path fill="#b3bbd0" d="M 196.628906 123.53125 L 197.421875 124.527344 L 206.339844 106.351562 L 205.539062 105.351562 L 196.628906 123.53125 " fill-opacity="1" fill-rule="nonzero"/><path fill="#891e10" d="M 285.761719 286.117188 L 280 286.117188 L 280 271.960938 L 95.179688 271.960938 L 95.179688 286.117188 L 91.742188 286.117188 L 91.742188 295.773438 L 285.761719 295.773438 L 285.761719 286.117188 " fill-opacity="1" fill-rule="nonzero"/><path fill="#b65d40" d="M 277.261719 278.246094 L 277.261719 271.960938 L 95.179688 271.960938 L 95.179688 278.246094 L 277.261719 278.246094 " fill-opacity="1" fill-rule="nonzero"/><g clip-path="url(#397616a535)"><path fill="#61c140" d="M 291.671875 319.453125 L 286.542969 286.117188 L 88.746094 286.117188 L 83.621094 319.453125 L 291.671875 319.453125 " fill-opacity="1" fill-rule="nonzero"/></g><path fill="#ffffff" d="M 189.425781 295.773438 L 92.539062 295.773438 L 92.539062 292.070312 L 189.425781 292.070312 L 189.425781 295.773438 " fill-opacity="1" fill-rule="nonzero"/><path fill="#891e10" d="M 318.449219 181.4375 L 316.449219 181.4375 L 316.449219 176.523438 L 252.261719 176.523438 L 252.261719 181.4375 L 251.070312 181.4375 L 251.070312 184.789062 L 318.449219 184.789062 L 318.449219 181.4375 " fill-opacity="1" fill-rule="nonzero"/><path fill="#b65d40" d="M 315.496094 178.703125 L 315.496094 176.523438 L 252.261719 176.523438 L 252.261719 178.703125 L 315.496094 178.703125 " fill-opacity="1" fill-rule="nonzero"/><path fill="#61c140" d="M 320.5 193.015625 L 318.722656 181.4375 L 250.027344 181.4375 L 248.246094 193.015625 L 320.5 193.015625 " fill-opacity="1" fill-rule="nonzero"/><path fill="#ffffff" d="M 284.992188 184.792969 L 251.34375 184.792969 L 251.34375 183.503906 L 284.992188 183.503906 L 284.992188 184.792969 " fill-opacity="1" fill-rule="nonzero"/><path fill="#891e10" d="M 125.980469 181.414062 L 123.9375 181.414062 L 123.9375 176.496094 L 58.34375 176.496094 L 58.34375 181.414062 L 57.121094 181.414062 L 57.121094 184.769531 L 125.980469 184.769531 L 125.980469 181.414062 " fill-opacity="1" fill-rule="nonzero"/><path fill="#b65d40" d="M 122.964844 178.679688 L 122.964844 176.496094 L 58.34375 176.496094 L 58.34375 178.679688 L 122.964844 178.679688 " fill-opacity="1" fill-rule="nonzero"/><path fill="#61c140" d="M 128.078125 192.992188 L 126.257812 181.414062 L 56.058594 181.414062 L 54.238281 192.992188 L 128.078125 192.992188 " fill-opacity="1" fill-rule="nonzero"/><path fill="#ffffff" d="M 91.792969 184.769531 L 57.40625 184.769531 L 57.40625 183.480469 L 91.792969 183.480469 L 91.792969 184.769531 " fill-opacity="1" fill-rule="nonzero"/></svg>