<svg xmlns="http://www.w3.org/2000/svg" xmlns:xlink="http://www.w3.org/1999/xlink" width="800" zoomAndPan="magnify" viewBox="0 0 600 449.999984" height="600" preserveAspectRatio="xMidYMid meet" version="1.0"><defs><g/><clipPath id="fa314313dd"><path d="M 85.773438 7.652344 L 490 7.652344 L 490 321 L 85.773438 321 Z M 85.773438 7.652344 " clip-rule="nonzero"/></clipPath><clipPath id="90ace2c9d6"><path d="M 106.773438 7.652344 L 468.964844 7.652344 C 480.5625 7.652344 489.964844 17.054688 489.964844 28.652344 L 489.964844 299.9375 C 489.964844 311.535156 480.5625 320.9375 468.964844 320.9375 L 106.773438 320.9375 C 95.175781 320.9375 85.773438 311.535156 85.773438 299.9375 L 85.773438 28.652344 C 85.773438 17.054688 95.175781 7.652344 106.773438 7.652344 " clip-rule="nonzero"/></clipPath><clipPath id="739733ee2e"><path d="M 167.871094 106 L 407.871094 106 L 407.871094 227 L 167.871094 227 Z M 167.871094 106 " clip-rule="nonzero"/></clipPath><clipPath id="4da4101516"><path d="M 207 80.292969 L 369 80.292969 L 369 141 L 207 141 Z M 207 80.292969 " clip-rule="nonzero"/></clipPath><clipPath id="93a7452399"><path d="M 204 169 L 372 169 L 372 248.292969 L 204 248.292969 Z M 204 169 " clip-rule="nonzero"/></clipPath></defs><g clip-path="url(#fa314313dd)"><g clip-path="url(#90ace2c9d6)"><path fill="#36adb9" d="M 85.773438 7.652344 L 490.070312 7.652344 L 490.070312 321.246094 L 85.773438 321.246094 Z M 85.773438 7.652344 " fill-opacity="1" fill-rule="nonzero"/></g></g><g clip-path="url(#739733ee2e)"><path fill="#ffffff" d="M 184.671875 171.496094 C 192.351562 171.496094 198.589844 166.453125 200.75 159.496094 L 218.75 159.496094 L 229.308594 170.054688 C 230.269531 171.015625 231.46875 171.496094 232.671875 171.496094 L 252.351562 171.496094 C 251.390625 174.375 251.871094 177.253906 253.550781 179.894531 C 255.230469 182.535156 258.351562 183.976562 261.46875 183.976562 L 270.828125 183.976562 L 264.351562 215.175781 C 263.390625 219.734375 265.789062 224.292969 270.109375 225.976562 C 271.308594 226.453125 272.511719 226.695312 273.710938 226.695312 C 276.828125 226.695312 279.949219 225.253906 281.628906 222.375 L 315.46875 171.496094 L 343.070312 171.496094 C 344.269531 171.496094 345.46875 171.015625 346.429688 170.054688 L 356.988281 159.496094 L 374.988281 159.496094 C 377.148438 166.453125 383.390625 171.496094 391.070312 171.496094 C 400.429688 171.496094 407.871094 164.054688 407.871094 154.695312 C 407.871094 145.335938 400.429688 137.894531 391.070312 137.894531 C 383.390625 137.894531 377.148438 142.933594 374.988281 149.894531 L 355.070312 149.894531 C 353.871094 149.894531 352.671875 150.375 351.710938 151.335938 L 341.148438 161.894531 L 321.949219 161.894531 L 322.429688 161.414062 C 324.351562 158.535156 324.589844 154.695312 322.910156 151.574219 C 321.230469 148.453125 317.871094 146.535156 314.511719 146.535156 L 300.109375 146.535156 L 308.988281 119.894531 C 309.46875 118.933594 309.710938 117.734375 309.710938 116.535156 C 309.710938 111.253906 305.390625 106.933594 300.109375 106.933594 L 283.789062 106.933594 C 279.710938 106.933594 276.109375 109.335938 274.910156 113.175781 L 255.949219 161.894531 L 234.828125 161.894531 L 224.269531 151.335938 C 223.070312 150.375 221.871094 149.894531 220.671875 149.894531 L 200.75 149.894531 C 198.589844 142.933594 192.351562 137.894531 184.671875 137.894531 C 175.308594 137.894531 167.871094 145.335938 167.871094 154.695312 C 167.871094 164.054688 175.308594 171.496094 184.671875 171.496094 Z M 391.070312 147.496094 C 395.148438 147.496094 398.269531 150.613281 398.269531 154.695312 C 398.269531 158.773438 395.148438 161.894531 391.070312 161.894531 C 386.988281 161.894531 383.871094 158.773438 383.871094 154.695312 C 383.871094 150.613281 386.988281 147.496094 391.070312 147.496094 Z M 283.308594 116.292969 L 299.628906 116.292969 L 286.671875 155.894531 L 314.269531 155.894531 L 273.710938 217.09375 L 282.589844 174.375 L 261.46875 174.375 Z M 184.671875 147.496094 C 188.75 147.496094 191.871094 150.613281 191.871094 154.695312 C 191.871094 158.773438 188.75 161.894531 184.671875 161.894531 C 180.589844 161.894531 177.46875 158.773438 177.46875 154.695312 C 177.46875 150.613281 180.589844 147.496094 184.671875 147.496094 Z M 184.671875 147.496094 " fill-opacity="1" fill-rule="nonzero"/></g><g clip-path="url(#4da4101516)"><path fill="#ffffff" d="M 287.871094 89.894531 C 320.511719 89.894531 348.351562 111.015625 358.191406 140.292969 L 368.269531 140.292969 C 357.949219 105.734375 325.789062 80.292969 287.871094 80.292969 C 249.949219 80.292969 217.789062 105.734375 207.46875 140.292969 L 217.550781 140.292969 C 227.390625 111.015625 255.230469 89.894531 287.871094 89.894531 Z M 287.871094 89.894531 " fill-opacity="1" fill-rule="nonzero"/></g><g clip-path="url(#93a7452399)"><path fill="#ffffff" d="M 287.871094 238.695312 C 248.511719 238.695312 216.109375 207.976562 213.710938 169.09375 L 204.109375 169.09375 C 206.511719 213.253906 243.230469 248.292969 287.871094 248.292969 C 332.511719 248.292969 369.230469 213.253906 371.628906 169.09375 L 362.03125 169.09375 C 359.628906 207.976562 327.230469 238.695312 287.871094 238.695312 Z M 287.871094 238.695312 " fill-opacity="1" fill-rule="nonzero"/></g><g fill="#ffffff" fill-opacity="1"><g transform="translate(137.2209, 357.680305)"><g><path d="M 20.1875 0 L 14.5 0 L 14.5 -8.53125 L 7.9375 -8.53125 L 7.9375 0 L 2.265625 0 L 2.265625 -20.921875 L 7.9375 -20.921875 L 7.9375 -13.15625 L 14.5 -13.15625 L 14.5 -20.921875 L 20.1875 -20.921875 Z M 20.1875 0 "/></g></g></g><g fill="#ffffff" fill-opacity="1"><g transform="translate(159.656651, 357.680305)"><g><path d="M 12.5 0 L 11.4375 -2.140625 L 11.3125 -2.140625 C 10.5625 -1.210938 9.796875 -0.578125 9.015625 -0.234375 C 8.234375 0.109375 7.222656 0.28125 5.984375 0.28125 C 4.453125 0.28125 3.25 -0.171875 2.375 -1.078125 C 1.5 -1.992188 1.0625 -3.285156 1.0625 -4.953125 C 1.0625 -6.671875 1.660156 -7.953125 2.859375 -8.796875 C 4.054688 -9.648438 5.796875 -10.128906 8.078125 -10.234375 L 10.78125 -10.3125 L 10.78125 -10.546875 C 10.78125 -11.878906 10.125 -12.546875 8.8125 -12.546875 C 7.625 -12.546875 6.125 -12.144531 4.3125 -11.34375 L 2.6875 -15.03125 C 4.570312 -16.007812 6.957031 -16.5 9.84375 -16.5 C 11.914062 -16.5 13.519531 -15.984375 14.65625 -14.953125 C 15.800781 -13.921875 16.375 -12.476562 16.375 -10.625 L 16.375 0 Z M 8.359375 -3.65625 C 9.035156 -3.65625 9.613281 -3.867188 10.09375 -4.296875 C 10.570312 -4.734375 10.8125 -5.296875 10.8125 -5.984375 L 10.8125 -7.234375 L 9.53125 -7.1875 C 7.6875 -7.113281 6.765625 -6.4375 6.765625 -5.15625 C 6.765625 -4.15625 7.296875 -3.65625 8.359375 -3.65625 Z M 8.359375 -3.65625 "/></g></g></g><g fill="#ffffff" fill-opacity="1"><g transform="translate(177.902674, 357.680305)"><g><path d="M 14.453125 -4.984375 C 14.453125 -3.242188 13.859375 -1.929688 12.671875 -1.046875 C 11.492188 -0.160156 9.796875 0.28125 7.578125 0.28125 C 6.378906 0.28125 5.335938 0.21875 4.453125 0.09375 C 3.566406 -0.03125 2.660156 -0.265625 1.734375 -0.609375 L 1.734375 -5.09375 C 2.597656 -4.707031 3.546875 -4.390625 4.578125 -4.140625 C 5.617188 -3.898438 6.546875 -3.78125 7.359375 -3.78125 C 8.566406 -3.78125 9.171875 -4.054688 9.171875 -4.609375 C 9.171875 -4.890625 9 -5.140625 8.65625 -5.359375 C 8.320312 -5.585938 7.335938 -6.03125 5.703125 -6.6875 C 4.210938 -7.289062 3.171875 -7.976562 2.578125 -8.75 C 1.992188 -9.53125 1.703125 -10.519531 1.703125 -11.71875 C 1.703125 -13.21875 2.28125 -14.390625 3.4375 -15.234375 C 4.601562 -16.078125 6.25 -16.5 8.375 -16.5 C 9.445312 -16.5 10.453125 -16.378906 11.390625 -16.140625 C 12.328125 -15.910156 13.300781 -15.570312 14.3125 -15.125 L 12.796875 -11.515625 C 12.054688 -11.847656 11.269531 -12.128906 10.4375 -12.359375 C 9.613281 -12.597656 8.9375 -12.71875 8.40625 -12.71875 C 7.488281 -12.71875 7.03125 -12.492188 7.03125 -12.046875 C 7.03125 -11.765625 7.191406 -11.523438 7.515625 -11.328125 C 7.835938 -11.140625 8.757812 -10.742188 10.28125 -10.140625 C 11.414062 -9.671875 12.257812 -9.210938 12.8125 -8.765625 C 13.375 -8.316406 13.785156 -7.789062 14.046875 -7.1875 C 14.316406 -6.582031 14.453125 -5.847656 14.453125 -4.984375 Z M 14.453125 -4.984375 "/></g></g></g><g fill="#ffffff" fill-opacity="1"><g transform="translate(193.51761, 357.680305)"><g><path d="M 9.875 -4.140625 C 10.625 -4.140625 11.523438 -4.320312 12.578125 -4.6875 L 12.578125 -0.609375 C 11.816406 -0.285156 11.097656 -0.0546875 10.421875 0.078125 C 9.742188 0.210938 8.945312 0.28125 8.03125 0.28125 C 6.144531 0.28125 4.785156 -0.175781 3.953125 -1.09375 C 3.128906 -2.007812 2.71875 -3.421875 2.71875 -5.328125 L 2.71875 -12.015625 L 0.765625 -12.015625 L 0.765625 -14.296875 L 3.25 -16.046875 L 4.6875 -19.453125 L 8.359375 -19.453125 L 8.359375 -16.203125 L 12.328125 -16.203125 L 12.328125 -12.015625 L 8.359375 -12.015625 L 8.359375 -5.703125 C 8.359375 -4.660156 8.863281 -4.140625 9.875 -4.140625 Z M 9.875 -4.140625 "/></g></g></g><g fill="#ffffff" fill-opacity="1"><g transform="translate(206.987637, 357.680305)"><g><path d="M 12.5 0 L 11.4375 -2.140625 L 11.3125 -2.140625 C 10.5625 -1.210938 9.796875 -0.578125 9.015625 -0.234375 C 8.234375 0.109375 7.222656 0.28125 5.984375 0.28125 C 4.453125 0.28125 3.25 -0.171875 2.375 -1.078125 C 1.5 -1.992188 1.0625 -3.285156 1.0625 -4.953125 C 1.0625 -6.671875 1.660156 -7.953125 2.859375 -8.796875 C 4.054688 -9.648438 5.796875 -10.128906 8.078125 -10.234375 L 10.78125 -10.3125 L 10.78125 -10.546875 C 10.78125 -11.878906 10.125 -12.546875 8.8125 -12.546875 C 7.625 -12.546875 6.125 -12.144531 4.3125 -11.34375 L 2.6875 -15.03125 C 4.570312 -16.007812 6.957031 -16.5 9.84375 -16.5 C 11.914062 -16.5 13.519531 -15.984375 14.65625 -14.953125 C 15.800781 -13.921875 16.375 -12.476562 16.375 -10.625 L 16.375 0 Z M 8.359375 -3.65625 C 9.035156 -3.65625 9.613281 -3.867188 10.09375 -4.296875 C 10.570312 -4.734375 10.8125 -5.296875 10.8125 -5.984375 L 10.8125 -7.234375 L 9.53125 -7.1875 C 7.6875 -7.113281 6.765625 -6.4375 6.765625 -5.15625 C 6.765625 -4.15625 7.296875 -3.65625 8.359375 -3.65625 Z M 8.359375 -3.65625 "/></g></g></g><g fill="#ffffff" fill-opacity="1"><g transform="translate(225.23366, 357.680305)"><g/></g></g><g fill="#ffffff" fill-opacity="1"><g transform="translate(232.840937, 357.680305)"><g><path d="M 16.203125 -11.34375 C 16.203125 -7.25 15.320312 -4.285156 13.5625 -2.453125 C 11.800781 -0.628906 8.976562 0.28125 5.09375 0.28125 C 3.8125 0.28125 2.835938 0.234375 2.171875 0.140625 L 2.171875 -4.328125 C 2.992188 -4.179688 3.816406 -4.109375 4.640625 -4.109375 C 6.660156 -4.109375 8.21875 -4.523438 9.3125 -5.359375 C 10.40625 -6.191406 11 -7.507812 11.09375 -9.3125 L 10.921875 -9.3125 C 10.554688 -8.625 10.191406 -8.125 9.828125 -7.8125 C 9.460938 -7.507812 9.015625 -7.273438 8.484375 -7.109375 C 7.960938 -6.953125 7.3125 -6.875 6.53125 -6.875 C 4.71875 -6.875 3.300781 -7.476562 2.28125 -8.6875 C 1.269531 -9.90625 0.765625 -11.578125 0.765625 -13.703125 C 0.765625 -16.023438 1.421875 -17.84375 2.734375 -19.15625 C 4.054688 -20.46875 5.867188 -21.125 8.171875 -21.125 C 10.722656 -21.125 12.695312 -20.273438 14.09375 -18.578125 C 15.5 -16.878906 16.203125 -14.46875 16.203125 -11.34375 Z M 8.328125 -16.609375 C 7.703125 -16.609375 7.195312 -16.382812 6.8125 -15.9375 C 6.425781 -15.488281 6.234375 -14.769531 6.234375 -13.78125 C 6.234375 -13 6.398438 -12.375 6.734375 -11.90625 C 7.066406 -11.445312 7.578125 -11.21875 8.265625 -11.21875 C 8.890625 -11.21875 9.429688 -11.441406 9.890625 -11.890625 C 10.347656 -12.335938 10.578125 -12.875 10.578125 -13.5 C 10.578125 -14.351562 10.363281 -15.082031 9.9375 -15.6875 C 9.507812 -16.300781 8.972656 -16.609375 8.328125 -16.609375 Z M 8.328125 -16.609375 "/></g></g></g><g fill="#ffffff" fill-opacity="1"><g transform="translate(257.607483, 357.680305)"><g><path d="M 15.9375 -6.34375 C 15.9375 -5.050781 15.609375 -3.898438 14.953125 -2.890625 C 14.296875 -1.890625 13.347656 -1.109375 12.109375 -0.546875 C 10.867188 0.00390625 9.410156 0.28125 7.734375 0.28125 C 6.347656 0.28125 5.179688 0.1875 4.234375 0 C 3.285156 -0.195312 2.300781 -0.539062 1.28125 -1.03125 L 1.28125 -6.0625 C 2.363281 -5.507812 3.484375 -5.078125 4.640625 -4.765625 C 5.804688 -4.460938 6.878906 -4.3125 7.859375 -4.3125 C 8.691406 -4.3125 9.300781 -4.453125 9.6875 -4.734375 C 10.082031 -5.023438 10.28125 -5.398438 10.28125 -5.859375 C 10.28125 -6.148438 10.203125 -6.398438 10.046875 -6.609375 C 9.890625 -6.828125 9.632812 -7.046875 9.28125 -7.265625 C 8.9375 -7.484375 8.015625 -7.929688 6.515625 -8.609375 C 5.148438 -9.234375 4.125 -9.832031 3.4375 -10.40625 C 2.757812 -10.988281 2.253906 -11.65625 1.921875 -12.40625 C 1.597656 -13.164062 1.4375 -14.0625 1.4375 -15.09375 C 1.4375 -17.019531 2.132812 -18.519531 3.53125 -19.59375 C 4.9375 -20.675781 6.863281 -21.21875 9.3125 -21.21875 C 11.476562 -21.21875 13.6875 -20.71875 15.9375 -19.71875 L 14.203125 -15.34375 C 12.242188 -16.238281 10.554688 -16.6875 9.140625 -16.6875 C 8.410156 -16.6875 7.875 -16.554688 7.53125 -16.296875 C 7.195312 -16.046875 7.03125 -15.726562 7.03125 -15.34375 C 7.03125 -14.9375 7.242188 -14.570312 7.671875 -14.25 C 8.097656 -13.925781 9.25 -13.332031 11.125 -12.46875 C 12.925781 -11.664062 14.175781 -10.796875 14.875 -9.859375 C 15.582031 -8.929688 15.9375 -7.757812 15.9375 -6.34375 Z M 15.9375 -6.34375 "/></g></g></g><g fill="#ffffff" fill-opacity="1"><g transform="translate(274.509363, 357.680305)"><g><path d="M 9.75 0.28125 C 7.050781 0.28125 4.957031 -0.429688 3.46875 -1.859375 C 1.976562 -3.296875 1.234375 -5.34375 1.234375 -8 C 1.234375 -10.738281 1.921875 -12.835938 3.296875 -14.296875 C 4.679688 -15.765625 6.660156 -16.5 9.234375 -16.5 C 11.671875 -16.5 13.550781 -15.859375 14.875 -14.578125 C 16.207031 -13.304688 16.875 -11.472656 16.875 -9.078125 L 16.875 -6.59375 L 6.875 -6.59375 C 6.914062 -5.6875 7.25 -4.972656 7.875 -4.453125 C 8.5 -3.941406 9.347656 -3.6875 10.421875 -3.6875 C 11.410156 -3.6875 12.316406 -3.78125 13.140625 -3.96875 C 13.960938 -4.15625 14.859375 -4.472656 15.828125 -4.921875 L 15.828125 -0.90625 C 14.941406 -0.457031 14.03125 -0.148438 13.09375 0.015625 C 12.164062 0.191406 11.050781 0.28125 9.75 0.28125 Z M 9.421875 -12.6875 C 8.765625 -12.6875 8.210938 -12.476562 7.765625 -12.0625 C 7.328125 -11.644531 7.070312 -10.992188 7 -10.109375 L 11.796875 -10.109375 C 11.773438 -10.890625 11.550781 -11.515625 11.125 -11.984375 C 10.707031 -12.453125 10.140625 -12.6875 9.421875 -12.6875 Z M 9.421875 -12.6875 "/></g></g></g><g fill="#ffffff" fill-opacity="1"><g transform="translate(292.612393, 357.680305)"><g><path d="M 12.15625 0 L 12.15625 -8.84375 C 12.15625 -9.914062 12 -10.726562 11.6875 -11.28125 C 11.382812 -11.832031 10.890625 -12.109375 10.203125 -12.109375 C 9.253906 -12.109375 8.570312 -11.726562 8.15625 -10.96875 C 7.738281 -10.21875 7.53125 -8.925781 7.53125 -7.09375 L 7.53125 0 L 1.9375 0 L 1.9375 -16.203125 L 6.15625 -16.203125 L 6.859375 -14.203125 L 7.1875 -14.203125 C 7.65625 -14.960938 8.3125 -15.535156 9.15625 -15.921875 C 10 -16.304688 10.972656 -16.5 12.078125 -16.5 C 13.867188 -16.5 15.257812 -15.976562 16.25 -14.9375 C 17.25 -13.894531 17.75 -12.429688 17.75 -10.546875 L 17.75 0 Z M 12.15625 0 "/></g></g></g><g fill="#ffffff" fill-opacity="1"><g transform="translate(312.231159, 357.680305)"><g><path d="M 14.453125 -4.984375 C 14.453125 -3.242188 13.859375 -1.929688 12.671875 -1.046875 C 11.492188 -0.160156 9.796875 0.28125 7.578125 0.28125 C 6.378906 0.28125 5.335938 0.21875 4.453125 0.09375 C 3.566406 -0.03125 2.660156 -0.265625 1.734375 -0.609375 L 1.734375 -5.09375 C 2.597656 -4.707031 3.546875 -4.390625 4.578125 -4.140625 C 5.617188 -3.898438 6.546875 -3.78125 7.359375 -3.78125 C 8.566406 -3.78125 9.171875 -4.054688 9.171875 -4.609375 C 9.171875 -4.890625 9 -5.140625 8.65625 -5.359375 C 8.320312 -5.585938 7.335938 -6.03125 5.703125 -6.6875 C 4.210938 -7.289062 3.171875 -7.976562 2.578125 -8.75 C 1.992188 -9.53125 1.703125 -10.519531 1.703125 -11.71875 C 1.703125 -13.21875 2.28125 -14.390625 3.4375 -15.234375 C 4.601562 -16.078125 6.25 -16.5 8.375 -16.5 C 9.445312 -16.5 10.453125 -16.378906 11.390625 -16.140625 C 12.328125 -15.910156 13.300781 -15.570312 14.3125 -15.125 L 12.796875 -11.515625 C 12.054688 -11.847656 11.269531 -12.128906 10.4375 -12.359375 C 9.613281 -12.597656 8.9375 -12.71875 8.40625 -12.71875 C 7.488281 -12.71875 7.03125 -12.492188 7.03125 -12.046875 C 7.03125 -11.765625 7.191406 -11.523438 7.515625 -11.328125 C 7.835938 -11.140625 8.757812 -10.742188 10.28125 -10.140625 C 11.414062 -9.671875 12.257812 -9.210938 12.8125 -8.765625 C 13.375 -8.316406 13.785156 -7.789062 14.046875 -7.1875 C 14.316406 -6.582031 14.453125 -5.847656 14.453125 -4.984375 Z M 14.453125 -4.984375 "/></g></g></g><g fill="#ffffff" fill-opacity="1"><g transform="translate(327.846095, 357.680305)"><g><path d="M 17.40625 -8.140625 C 17.40625 -5.484375 16.691406 -3.414062 15.265625 -1.9375 C 13.835938 -0.457031 11.84375 0.28125 9.28125 0.28125 C 6.820312 0.28125 4.863281 -0.472656 3.40625 -1.984375 C 1.957031 -3.503906 1.234375 -5.554688 1.234375 -8.140625 C 1.234375 -10.785156 1.941406 -12.835938 3.359375 -14.296875 C 4.785156 -15.765625 6.789062 -16.5 9.375 -16.5 C 10.96875 -16.5 12.375 -16.160156 13.59375 -15.484375 C 14.8125 -14.804688 15.75 -13.832031 16.40625 -12.5625 C 17.070312 -11.300781 17.40625 -9.828125 17.40625 -8.140625 Z M 6.90625 -8.140625 C 6.90625 -6.742188 7.09375 -5.679688 7.46875 -4.953125 C 7.84375 -4.222656 8.46875 -3.859375 9.34375 -3.859375 C 10.207031 -3.859375 10.816406 -4.222656 11.171875 -4.953125 C 11.535156 -5.679688 11.71875 -6.742188 11.71875 -8.140625 C 11.71875 -9.523438 11.535156 -10.566406 11.171875 -11.265625 C 10.804688 -11.972656 10.1875 -12.328125 9.3125 -12.328125 C 8.457031 -12.328125 7.84375 -11.976562 7.46875 -11.28125 C 7.09375 -10.582031 6.90625 -9.535156 6.90625 -8.140625 Z M 6.90625 -8.140625 "/></g></g></g><g fill="#ffffff" fill-opacity="1"><g transform="translate(346.506818, 357.680305)"><g><path d="M 11.71875 -16.5 C 12.207031 -16.5 12.671875 -16.457031 13.109375 -16.375 L 13.421875 -16.328125 L 12.921875 -11.046875 C 12.460938 -11.160156 11.828125 -11.21875 11.015625 -11.21875 C 9.796875 -11.21875 8.910156 -10.9375 8.359375 -10.375 C 7.804688 -9.820312 7.53125 -9.019531 7.53125 -7.96875 L 7.53125 0 L 1.9375 0 L 1.9375 -16.203125 L 6.09375 -16.203125 L 6.96875 -13.625 L 7.234375 -13.625 C 7.703125 -14.476562 8.351562 -15.171875 9.1875 -15.703125 C 10.019531 -16.234375 10.863281 -16.5 11.71875 -16.5 Z M 11.71875 -16.5 "/></g></g></g><g fill="#ffffff" fill-opacity="1"><g transform="translate(360.248539, 357.680305)"><g><path d="M 9.75 0.28125 C 7.050781 0.28125 4.957031 -0.429688 3.46875 -1.859375 C 1.976562 -3.296875 1.234375 -5.34375 1.234375 -8 C 1.234375 -10.738281 1.921875 -12.835938 3.296875 -14.296875 C 4.679688 -15.765625 6.660156 -16.5 9.234375 -16.5 C 11.671875 -16.5 13.550781 -15.859375 14.875 -14.578125 C 16.207031 -13.304688 16.875 -11.472656 16.875 -9.078125 L 16.875 -6.59375 L 6.875 -6.59375 C 6.914062 -5.6875 7.25 -4.972656 7.875 -4.453125 C 8.5 -3.941406 9.347656 -3.6875 10.421875 -3.6875 C 11.410156 -3.6875 12.316406 -3.78125 13.140625 -3.96875 C 13.960938 -4.15625 14.859375 -4.472656 15.828125 -4.921875 L 15.828125 -0.90625 C 14.941406 -0.457031 14.03125 -0.148438 13.09375 0.015625 C 12.164062 0.191406 11.050781 0.28125 9.75 0.28125 Z M 9.421875 -12.6875 C 8.765625 -12.6875 8.210938 -12.476562 7.765625 -12.0625 C 7.328125 -11.644531 7.070312 -10.992188 7 -10.109375 L 11.796875 -10.109375 C 11.773438 -10.890625 11.550781 -11.515625 11.125 -11.984375 C 10.707031 -12.453125 10.140625 -12.6875 9.421875 -12.6875 Z M 9.421875 -12.6875 "/></g></g></g><g fill="#ffffff" fill-opacity="1"><g transform="translate(378.351557, 357.680305)"><g><path d="M 14.453125 -4.984375 C 14.453125 -3.242188 13.859375 -1.929688 12.671875 -1.046875 C 11.492188 -0.160156 9.796875 0.28125 7.578125 0.28125 C 6.378906 0.28125 5.335938 0.21875 4.453125 0.09375 C 3.566406 -0.03125 2.660156 -0.265625 1.734375 -0.609375 L 1.734375 -5.09375 C 2.597656 -4.707031 3.546875 -4.390625 4.578125 -4.140625 C 5.617188 -3.898438 6.546875 -3.78125 7.359375 -3.78125 C 8.566406 -3.78125 9.171875 -4.054688 9.171875 -4.609375 C 9.171875 -4.890625 9 -5.140625 8.65625 -5.359375 C 8.320312 -5.585938 7.335938 -6.03125 5.703125 -6.6875 C 4.210938 -7.289062 3.171875 -7.976562 2.578125 -8.75 C 1.992188 -9.53125 1.703125 -10.519531 1.703125 -11.71875 C 1.703125 -13.21875 2.28125 -14.390625 3.4375 -15.234375 C 4.601562 -16.078125 6.25 -16.5 8.375 -16.5 C 9.445312 -16.5 10.453125 -16.378906 11.390625 -16.140625 C 12.328125 -15.910156 13.300781 -15.570312 14.3125 -15.125 L 12.796875 -11.515625 C 12.054688 -11.847656 11.269531 -12.128906 10.4375 -12.359375 C 9.613281 -12.597656 8.9375 -12.71875 8.40625 -12.71875 C 7.488281 -12.71875 7.03125 -12.492188 7.03125 -12.046875 C 7.03125 -11.765625 7.191406 -11.523438 7.515625 -11.328125 C 7.835938 -11.140625 8.757812 -10.742188 10.28125 -10.140625 C 11.414062 -9.671875 12.257812 -9.210938 12.8125 -8.765625 C 13.375 -8.316406 13.785156 -7.789062 14.046875 -7.1875 C 14.316406 -6.582031 14.453125 -5.847656 14.453125 -4.984375 Z M 14.453125 -4.984375 "/></g></g></g><g fill="#ffffff" fill-opacity="1"><g transform="translate(393.966493, 357.680305)"><g/></g></g><g fill="#ffffff" fill-opacity="1"><g transform="translate(401.573769, 357.680305)"><g><path d="M 6.96875 0.28125 C 5.8125 0.28125 4.800781 -0.046875 3.9375 -0.703125 C 3.070312 -1.359375 2.40625 -2.320312 1.9375 -3.59375 C 1.46875 -4.875 1.234375 -6.367188 1.234375 -8.078125 C 1.234375 -10.710938 1.757812 -12.773438 2.8125 -14.265625 C 3.875 -15.753906 5.332031 -16.5 7.1875 -16.5 C 8.09375 -16.5 8.882812 -16.316406 9.5625 -15.953125 C 10.238281 -15.585938 10.863281 -14.976562 11.4375 -14.125 L 11.546875 -14.125 C 11.359375 -15.382812 11.265625 -16.648438 11.265625 -17.921875 L 11.265625 -22.265625 L 16.90625 -22.265625 L 16.90625 0 L 12.6875 0 L 11.484375 -2.046875 L 11.265625 -2.046875 C 10.304688 -0.492188 8.875 0.28125 6.96875 0.28125 Z M 9.25 -4.140625 C 10.144531 -4.140625 10.773438 -4.421875 11.140625 -4.984375 C 11.515625 -5.546875 11.71875 -6.410156 11.75 -7.578125 L 11.75 -8.03125 C 11.75 -9.457031 11.539062 -10.472656 11.125 -11.078125 C 10.71875 -11.679688 10.078125 -11.984375 9.203125 -11.984375 C 8.460938 -11.984375 7.890625 -11.632812 7.484375 -10.9375 C 7.078125 -10.25 6.875 -9.269531 6.875 -8 C 6.875 -6.738281 7.078125 -5.78125 7.484375 -5.125 C 7.898438 -4.46875 8.488281 -4.140625 9.25 -4.140625 Z M 9.25 -4.140625 "/></g></g></g><g fill="#ffffff" fill-opacity="1"><g transform="translate(420.406073, 357.680305)"><g><path d="M 9.75 0.28125 C 7.050781 0.28125 4.957031 -0.429688 3.46875 -1.859375 C 1.976562 -3.296875 1.234375 -5.34375 1.234375 -8 C 1.234375 -10.738281 1.921875 -12.835938 3.296875 -14.296875 C 4.679688 -15.765625 6.660156 -16.5 9.234375 -16.5 C 11.671875 -16.5 13.550781 -15.859375 14.875 -14.578125 C 16.207031 -13.304688 16.875 -11.472656 16.875 -9.078125 L 16.875 -6.59375 L 6.875 -6.59375 C 6.914062 -5.6875 7.25 -4.972656 7.875 -4.453125 C 8.5 -3.941406 9.347656 -3.6875 10.421875 -3.6875 C 11.410156 -3.6875 12.316406 -3.78125 13.140625 -3.96875 C 13.960938 -4.15625 14.859375 -4.472656 15.828125 -4.921875 L 15.828125 -0.90625 C 14.941406 -0.457031 14.03125 -0.148438 13.09375 0.015625 C 12.164062 0.191406 11.050781 0.28125 9.75 0.28125 Z M 9.421875 -12.6875 C 8.765625 -12.6875 8.210938 -12.476562 7.765625 -12.0625 C 7.328125 -11.644531 7.070312 -10.992188 7 -10.109375 L 11.796875 -10.109375 C 11.773438 -10.890625 11.550781 -11.515625 11.125 -11.984375 C 10.707031 -12.453125 10.140625 -12.6875 9.421875 -12.6875 Z M 9.421875 -12.6875 "/></g></g></g><g fill="#ffffff" fill-opacity="1"><g transform="translate(199.177926, 398.180302)"><g><path d="M 14.671875 0 L 2.265625 0 L 2.265625 -20.921875 L 14.671875 -20.921875 L 14.671875 -16.375 L 7.90625 -16.375 L 7.90625 -13.09375 L 14.171875 -13.09375 L 14.171875 -8.546875 L 7.90625 -8.546875 L 7.90625 -4.609375 L 14.671875 -4.609375 Z M 14.671875 0 "/></g></g></g><g fill="#ffffff" fill-opacity="1"><g transform="translate(215.250442, 398.180302)"><g><path d="M 7.53125 0 L 1.9375 0 L 1.9375 -22.265625 L 7.53125 -22.265625 Z M 7.53125 0 "/></g></g></g><g fill="#ffffff" fill-opacity="1"><g transform="translate(224.71664, 398.180302)"><g><path d="M 9.75 0.28125 C 7.050781 0.28125 4.957031 -0.429688 3.46875 -1.859375 C 1.976562 -3.296875 1.234375 -5.34375 1.234375 -8 C 1.234375 -10.738281 1.921875 -12.835938 3.296875 -14.296875 C 4.679688 -15.765625 6.660156 -16.5 9.234375 -16.5 C 11.671875 -16.5 13.550781 -15.859375 14.875 -14.578125 C 16.207031 -13.304688 16.875 -11.472656 16.875 -9.078125 L 16.875 -6.59375 L 6.875 -6.59375 C 6.914062 -5.6875 7.25 -4.972656 7.875 -4.453125 C 8.5 -3.941406 9.347656 -3.6875 10.421875 -3.6875 C 11.410156 -3.6875 12.316406 -3.78125 13.140625 -3.96875 C 13.960938 -4.15625 14.859375 -4.472656 15.828125 -4.921875 L 15.828125 -0.90625 C 14.941406 -0.457031 14.03125 -0.148438 13.09375 0.015625 C 12.164062 0.191406 11.050781 0.28125 9.75 0.28125 Z M 9.421875 -12.6875 C 8.765625 -12.6875 8.210938 -12.476562 7.765625 -12.0625 C 7.328125 -11.644531 7.070312 -10.992188 7 -10.109375 L 11.796875 -10.109375 C 11.773438 -10.890625 11.550781 -11.515625 11.125 -11.984375 C 10.707031 -12.453125 10.140625 -12.6875 9.421875 -12.6875 Z M 9.421875 -12.6875 "/></g></g></g><g fill="#ffffff" fill-opacity="1"><g transform="translate(242.81967, 398.180302)"><g><path d="M 9.3125 0.28125 C 6.65625 0.28125 4.644531 -0.429688 3.28125 -1.859375 C 1.914062 -3.285156 1.234375 -5.34375 1.234375 -8.03125 C 1.234375 -10.71875 1.972656 -12.800781 3.453125 -14.28125 C 4.929688 -15.757812 7.03125 -16.5 9.75 -16.5 C 11.632812 -16.5 13.40625 -16.085938 15.0625 -15.265625 L 13.421875 -11.125 C 12.742188 -11.425781 12.117188 -11.664062 11.546875 -11.84375 C 10.972656 -12.019531 10.375 -12.109375 9.75 -12.109375 C 8.84375 -12.109375 8.140625 -11.753906 7.640625 -11.046875 C 7.148438 -10.335938 6.90625 -9.335938 6.90625 -8.046875 C 6.90625 -5.453125 7.863281 -4.15625 9.78125 -4.15625 C 11.425781 -4.15625 13 -4.632812 14.5 -5.59375 L 14.5 -1.140625 C 13.0625 -0.191406 11.332031 0.28125 9.3125 0.28125 Z M 9.3125 0.28125 "/></g></g></g><g fill="#ffffff" fill-opacity="1"><g transform="translate(258.606198, 398.180302)"><g><path d="M 9.875 -4.140625 C 10.625 -4.140625 11.523438 -4.320312 12.578125 -4.6875 L 12.578125 -0.609375 C 11.816406 -0.285156 11.097656 -0.0546875 10.421875 0.078125 C 9.742188 0.210938 8.945312 0.28125 8.03125 0.28125 C 6.144531 0.28125 4.785156 -0.175781 3.953125 -1.09375 C 3.128906 -2.007812 2.71875 -3.421875 2.71875 -5.328125 L 2.71875 -12.015625 L 0.765625 -12.015625 L 0.765625 -14.296875 L 3.25 -16.046875 L 4.6875 -19.453125 L 8.359375 -19.453125 L 8.359375 -16.203125 L 12.328125 -16.203125 L 12.328125 -12.015625 L 8.359375 -12.015625 L 8.359375 -5.703125 C 8.359375 -4.660156 8.863281 -4.140625 9.875 -4.140625 Z M 9.875 -4.140625 "/></g></g></g><g fill="#ffffff" fill-opacity="1"><g transform="translate(272.076224, 398.180302)"><g><path d="M 11.71875 -16.5 C 12.207031 -16.5 12.671875 -16.457031 13.109375 -16.375 L 13.421875 -16.328125 L 12.921875 -11.046875 C 12.460938 -11.160156 11.828125 -11.21875 11.015625 -11.21875 C 9.796875 -11.21875 8.910156 -10.9375 8.359375 -10.375 C 7.804688 -9.820312 7.53125 -9.019531 7.53125 -7.96875 L 7.53125 0 L 1.9375 0 L 1.9375 -16.203125 L 6.09375 -16.203125 L 6.96875 -13.625 L 7.234375 -13.625 C 7.703125 -14.476562 8.351562 -15.171875 9.1875 -15.703125 C 10.019531 -16.234375 10.863281 -16.5 11.71875 -16.5 Z M 11.71875 -16.5 "/></g></g></g><g fill="#ffffff" fill-opacity="1"><g transform="translate(285.817945, 398.180302)"><g><path d="M 7.546875 0 L 1.953125 0 L 1.953125 -16.203125 L 7.546875 -16.203125 Z M 1.8125 -20.234375 C 1.8125 -21.078125 2.046875 -21.703125 2.515625 -22.109375 C 2.984375 -22.523438 3.738281 -22.734375 4.78125 -22.734375 C 5.820312 -22.734375 6.578125 -22.519531 7.046875 -22.09375 C 7.523438 -21.675781 7.765625 -21.054688 7.765625 -20.234375 C 7.765625 -18.597656 6.769531 -17.78125 4.78125 -17.78125 C 2.800781 -17.78125 1.8125 -18.597656 1.8125 -20.234375 Z M 1.8125 -20.234375 "/></g></g></g><g fill="#ffffff" fill-opacity="1"><g transform="translate(295.34134, 398.180302)"><g><path d="M 9.3125 0.28125 C 6.65625 0.28125 4.644531 -0.429688 3.28125 -1.859375 C 1.914062 -3.285156 1.234375 -5.34375 1.234375 -8.03125 C 1.234375 -10.71875 1.972656 -12.800781 3.453125 -14.28125 C 4.929688 -15.757812 7.03125 -16.5 9.75 -16.5 C 11.632812 -16.5 13.40625 -16.085938 15.0625 -15.265625 L 13.421875 -11.125 C 12.742188 -11.425781 12.117188 -11.664062 11.546875 -11.84375 C 10.972656 -12.019531 10.375 -12.109375 9.75 -12.109375 C 8.84375 -12.109375 8.140625 -11.753906 7.640625 -11.046875 C 7.148438 -10.335938 6.90625 -9.335938 6.90625 -8.046875 C 6.90625 -5.453125 7.863281 -4.15625 9.78125 -4.15625 C 11.425781 -4.15625 13 -4.632812 14.5 -5.59375 L 14.5 -1.140625 C 13.0625 -0.191406 11.332031 0.28125 9.3125 0.28125 Z M 9.3125 0.28125 "/></g></g></g><g fill="#ffffff" fill-opacity="1"><g transform="translate(311.127868, 398.180302)"><g><path d="M 7.546875 0 L 1.953125 0 L 1.953125 -16.203125 L 7.546875 -16.203125 Z M 1.8125 -20.234375 C 1.8125 -21.078125 2.046875 -21.703125 2.515625 -22.109375 C 2.984375 -22.523438 3.738281 -22.734375 4.78125 -22.734375 C 5.820312 -22.734375 6.578125 -22.519531 7.046875 -22.09375 C 7.523438 -21.675781 7.765625 -21.054688 7.765625 -20.234375 C 7.765625 -18.597656 6.769531 -17.78125 4.78125 -17.78125 C 2.800781 -17.78125 1.8125 -18.597656 1.8125 -20.234375 Z M 1.8125 -20.234375 "/></g></g></g><g fill="#ffffff" fill-opacity="1"><g transform="translate(320.651263, 398.180302)"><g><path d="M 6.96875 0.28125 C 5.8125 0.28125 4.800781 -0.046875 3.9375 -0.703125 C 3.070312 -1.359375 2.40625 -2.320312 1.9375 -3.59375 C 1.46875 -4.875 1.234375 -6.367188 1.234375 -8.078125 C 1.234375 -10.710938 1.757812 -12.773438 2.8125 -14.265625 C 3.875 -15.753906 5.332031 -16.5 7.1875 -16.5 C 8.09375 -16.5 8.882812 -16.316406 9.5625 -15.953125 C 10.238281 -15.585938 10.863281 -14.976562 11.4375 -14.125 L 11.546875 -14.125 C 11.359375 -15.382812 11.265625 -16.648438 11.265625 -17.921875 L 11.265625 -22.265625 L 16.90625 -22.265625 L 16.90625 0 L 12.6875 0 L 11.484375 -2.046875 L 11.265625 -2.046875 C 10.304688 -0.492188 8.875 0.28125 6.96875 0.28125 Z M 9.25 -4.140625 C 10.144531 -4.140625 10.773438 -4.421875 11.140625 -4.984375 C 11.515625 -5.546875 11.71875 -6.410156 11.75 -7.578125 L 11.75 -8.03125 C 11.75 -9.457031 11.539062 -10.472656 11.125 -11.078125 C 10.71875 -11.679688 10.078125 -11.984375 9.203125 -11.984375 C 8.460938 -11.984375 7.890625 -11.632812 7.484375 -10.9375 C 7.078125 -10.25 6.875 -9.269531 6.875 -8 C 6.875 -6.738281 7.078125 -5.78125 7.484375 -5.125 C 7.898438 -4.46875 8.488281 -4.140625 9.25 -4.140625 Z M 9.25 -4.140625 "/></g></g></g><g fill="#ffffff" fill-opacity="1"><g transform="translate(339.483568, 398.180302)"><g><path d="M 12.5 0 L 11.4375 -2.140625 L 11.3125 -2.140625 C 10.5625 -1.210938 9.796875 -0.578125 9.015625 -0.234375 C 8.234375 0.109375 7.222656 0.28125 5.984375 0.28125 C 4.453125 0.28125 3.25 -0.171875 2.375 -1.078125 C 1.5 -1.992188 1.0625 -3.285156 1.0625 -4.953125 C 1.0625 -6.671875 1.660156 -7.953125 2.859375 -8.796875 C 4.054688 -9.648438 5.796875 -10.128906 8.078125 -10.234375 L 10.78125 -10.3125 L 10.78125 -10.546875 C 10.78125 -11.878906 10.125 -12.546875 8.8125 -12.546875 C 7.625 -12.546875 6.125 -12.144531 4.3125 -11.34375 L 2.6875 -15.03125 C 4.570312 -16.007812 6.957031 -16.5 9.84375 -16.5 C 11.914062 -16.5 13.519531 -15.984375 14.65625 -14.953125 C 15.800781 -13.921875 16.375 -12.476562 16.375 -10.625 L 16.375 0 Z M 8.359375 -3.65625 C 9.035156 -3.65625 9.613281 -3.867188 10.09375 -4.296875 C 10.570312 -4.734375 10.8125 -5.296875 10.8125 -5.984375 L 10.8125 -7.234375 L 9.53125 -7.1875 C 7.6875 -7.113281 6.765625 -6.4375 6.765625 -5.15625 C 6.765625 -4.15625 7.296875 -3.65625 8.359375 -3.65625 Z M 8.359375 -3.65625 "/></g></g></g><g fill="#ffffff" fill-opacity="1"><g transform="translate(357.729591, 398.180302)"><g><path d="M 6.96875 0.28125 C 5.8125 0.28125 4.800781 -0.046875 3.9375 -0.703125 C 3.070312 -1.359375 2.40625 -2.320312 1.9375 -3.59375 C 1.46875 -4.875 1.234375 -6.367188 1.234375 -8.078125 C 1.234375 -10.710938 1.757812 -12.773438 2.8125 -14.265625 C 3.875 -15.753906 5.332031 -16.5 7.1875 -16.5 C 8.09375 -16.5 8.882812 -16.316406 9.5625 -15.953125 C 10.238281 -15.585938 10.863281 -14.976562 11.4375 -14.125 L 11.546875 -14.125 C 11.359375 -15.382812 11.265625 -16.648438 11.265625 -17.921875 L 11.265625 -22.265625 L 16.90625 -22.265625 L 16.90625 0 L 12.6875 0 L 11.484375 -2.046875 L 11.265625 -2.046875 C 10.304688 -0.492188 8.875 0.28125 6.96875 0.28125 Z M 9.25 -4.140625 C 10.144531 -4.140625 10.773438 -4.421875 11.140625 -4.984375 C 11.515625 -5.546875 11.71875 -6.410156 11.75 -7.578125 L 11.75 -8.03125 C 11.75 -9.457031 11.539062 -10.472656 11.125 -11.078125 C 10.71875 -11.679688 10.078125 -11.984375 9.203125 -11.984375 C 8.460938 -11.984375 7.890625 -11.632812 7.484375 -10.9375 C 7.078125 -10.25 6.875 -9.269531 6.875 -8 C 6.875 -6.738281 7.078125 -5.78125 7.484375 -5.125 C 7.898438 -4.46875 8.488281 -4.140625 9.25 -4.140625 Z M 9.25 -4.140625 "/></g></g></g></svg>