<svg xmlns="http://www.w3.org/2000/svg" xmlns:xlink="http://www.w3.org/1999/xlink" width="800" zoomAndPan="magnify" viewBox="0 0 600 449.999984" height="600" preserveAspectRatio="xMidYMid meet" version="1.0"><defs><g/><clipPath id="115a75e351"><path d="M 85.773438 7.652344 L 490 7.652344 L 490 321 L 85.773438 321 Z M 85.773438 7.652344 " clip-rule="nonzero"/></clipPath><clipPath id="2b6958ee36"><path d="M 106.773438 7.652344 L 468.964844 7.652344 C 480.5625 7.652344 489.964844 17.054688 489.964844 28.652344 L 489.964844 299.9375 C 489.964844 311.535156 480.5625 320.9375 468.964844 320.9375 L 106.773438 320.9375 C 95.175781 320.9375 85.773438 311.535156 85.773438 299.9375 L 85.773438 28.652344 C 85.773438 17.054688 95.175781 7.652344 106.773438 7.652344 " clip-rule="nonzero"/></clipPath><clipPath id="ce19a961fb"><path d="M 250 142 L 407.871094 142 L 407.871094 246.792969 L 250 246.792969 Z M 250 142 " clip-rule="nonzero"/></clipPath></defs><g clip-path="url(#115a75e351)"><g clip-path="url(#2b6958ee36)"><path fill="#36adb9" d="M 85.773438 7.652344 L 490.070312 7.652344 L 490.070312 321.246094 L 85.773438 321.246094 Z M 85.773438 7.652344 " fill-opacity="1" fill-rule="nonzero"/></g></g><g clip-path="url(#ce19a961fb)"><path fill="#ffffff" d="M 404.714844 188.867188 L 352.453125 144.070312 C 351.914062 143.605469 351.316406 143.226562 350.664062 142.933594 C 350.015625 142.640625 349.335938 142.445312 348.628906 142.34375 C 347.921875 142.246094 347.214844 142.25 346.511719 142.351562 C 345.804688 142.457031 345.125 142.65625 344.476562 142.957031 C 343.828125 143.253906 343.234375 143.636719 342.699219 144.105469 C 342.160156 144.574219 341.695312 145.109375 341.3125 145.710938 C 340.925781 146.308594 340.632812 146.953125 340.433594 147.636719 C 340.234375 148.324219 340.132812 149.023438 340.132812 149.734375 L 340.132812 172.132812 L 258.003906 172.132812 C 257.515625 172.132812 257.03125 172.179688 256.550781 172.277344 C 256.066406 172.371094 255.601562 172.515625 255.148438 172.703125 C 254.695312 172.890625 254.265625 173.117188 253.855469 173.390625 C 253.449219 173.664062 253.070312 173.972656 252.726562 174.320312 C 252.378906 174.667969 252.070312 175.042969 251.796875 175.453125 C 251.523438 175.859375 251.292969 176.289062 251.105469 176.742188 C 250.917969 177.195312 250.777344 177.664062 250.683594 178.144531 C 250.585938 178.625 250.539062 179.109375 250.539062 179.601562 L 250.539062 209.464844 C 250.539062 209.953125 250.585938 210.441406 250.683594 210.921875 C 250.777344 211.402344 250.917969 211.871094 251.105469 212.320312 C 251.292969 212.773438 251.523438 213.207031 251.796875 213.613281 C 252.070312 214.019531 252.378906 214.398438 252.726562 214.746094 C 253.070312 215.089844 253.449219 215.402344 253.855469 215.671875 C 254.265625 215.945312 254.695312 216.175781 255.148438 216.363281 C 255.601562 216.550781 256.066406 216.691406 256.550781 216.789062 C 257.03125 216.882812 257.515625 216.929688 258.003906 216.929688 L 340.132812 216.929688 L 340.132812 239.328125 C 340.132812 240.042969 340.230469 240.742188 340.433594 241.425781 C 340.632812 242.113281 340.925781 242.757812 341.308594 243.355469 C 341.695312 243.957031 342.15625 244.492188 342.695312 244.960938 C 343.234375 245.429688 343.828125 245.8125 344.476562 246.113281 C 345.125 246.410156 345.804688 246.613281 346.507812 246.714844 C 347.214844 246.820312 347.921875 246.820312 348.628906 246.722656 C 349.335938 246.625 350.015625 246.425781 350.664062 246.132812 C 351.316406 245.839844 351.914062 245.460938 352.453125 244.992188 L 404.714844 200.199219 C 405.125 199.847656 405.492188 199.457031 405.816406 199.027344 C 406.144531 198.597656 406.417969 198.140625 406.644531 197.652344 C 406.867188 197.160156 407.039062 196.65625 407.152344 196.128906 C 407.269531 195.601562 407.328125 195.070312 407.328125 194.53125 C 407.328125 193.992188 407.269531 193.460938 407.152344 192.9375 C 407.039062 192.410156 406.867188 191.902344 406.644531 191.414062 C 406.417969 190.925781 406.144531 190.464844 405.816406 190.035156 C 405.492188 189.605469 405.125 189.21875 404.714844 188.867188 Z M 404.714844 188.867188 " fill-opacity="1" fill-rule="nonzero"/></g><path fill="#ffffff" d="M 325.199219 149.734375 L 325.199219 119.871094 C 325.199219 119.382812 325.152344 118.894531 325.058594 118.414062 C 324.960938 117.933594 324.820312 117.46875 324.632812 117.015625 C 324.445312 116.5625 324.214844 116.128906 323.941406 115.722656 C 323.671875 115.316406 323.363281 114.9375 323.015625 114.589844 C 322.667969 114.246094 322.289062 113.933594 321.882812 113.664062 C 321.476562 113.390625 321.046875 113.160156 320.59375 112.972656 C 320.140625 112.785156 319.671875 112.644531 319.191406 112.546875 C 318.710938 112.453125 318.222656 112.40625 317.734375 112.40625 L 235.609375 112.40625 L 235.609375 90.007812 C 235.609375 89.292969 235.507812 88.59375 235.304688 87.910156 C 235.105469 87.222656 234.8125 86.582031 234.429688 85.980469 C 234.042969 85.378906 233.582031 84.84375 233.042969 84.375 C 232.503906 83.90625 231.910156 83.523438 231.261719 83.226562 C 230.613281 82.929688 229.9375 82.726562 229.230469 82.625 C 228.523438 82.519531 227.816406 82.515625 227.109375 82.617188 C 226.402344 82.714844 225.726562 82.910156 225.074219 83.203125 C 224.421875 83.5 223.828125 83.878906 223.285156 84.34375 L 171.023438 129.136719 C 170.613281 129.488281 170.246094 129.878906 169.921875 130.308594 C 169.597656 130.738281 169.320312 131.195312 169.097656 131.683594 C 168.871094 132.175781 168.703125 132.679688 168.585938 133.207031 C 168.46875 133.734375 168.414062 134.265625 168.414062 134.804688 C 168.414062 135.34375 168.46875 135.875 168.585938 136.398438 C 168.703125 136.925781 168.871094 137.433594 169.097656 137.921875 C 169.320312 138.410156 169.597656 138.871094 169.921875 139.300781 C 170.246094 139.730469 170.613281 140.117188 171.023438 140.46875 L 223.285156 185.265625 C 223.828125 185.730469 224.421875 186.109375 225.074219 186.402344 C 225.726562 186.695312 226.402344 186.890625 227.109375 186.992188 C 227.816406 187.089844 228.523438 187.085938 229.230469 186.984375 C 229.9375 186.878906 230.613281 186.679688 231.261719 186.382812 C 231.910156 186.082031 232.503906 185.699219 233.042969 185.230469 C 233.582031 184.761719 234.042969 184.226562 234.429688 183.628906 C 234.8125 183.027344 235.105469 182.382812 235.304688 181.699219 C 235.507812 181.011719 235.609375 180.3125 235.609375 179.601562 L 235.609375 157.203125 L 317.734375 157.203125 C 318.222656 157.203125 318.710938 157.15625 319.191406 157.058594 C 319.671875 156.964844 320.140625 156.824219 320.59375 156.636719 C 321.046875 156.449219 321.476562 156.21875 321.882812 155.945312 C 322.289062 155.671875 322.667969 155.363281 323.015625 155.015625 C 323.363281 154.667969 323.671875 154.292969 323.941406 153.886719 C 324.214844 153.476562 324.445312 153.046875 324.632812 152.59375 C 324.820312 152.140625 324.960938 151.671875 325.058594 151.191406 C 325.152344 150.710938 325.199219 150.226562 325.199219 149.734375 Z M 325.199219 149.734375 " fill-opacity="1" fill-rule="nonzero"/><g fill="#ffffff" fill-opacity="1"><g transform="translate(189.596524, 367.207589)"><g><path d="M 2.265625 -20.921875 L 9.5625 -20.921875 C 12.394531 -20.921875 14.5 -20.492188 15.875 -19.640625 C 17.257812 -18.796875 17.953125 -17.484375 17.953125 -15.703125 C 17.953125 -14.535156 17.648438 -13.535156 17.046875 -12.703125 C 16.453125 -11.867188 15.660156 -11.332031 14.671875 -11.09375 L 14.671875 -10.953125 C 15.972656 -10.609375 16.914062 -10.035156 17.5 -9.234375 C 18.082031 -8.441406 18.375 -7.40625 18.375 -6.125 C 18.375 -4.226562 17.660156 -2.734375 16.234375 -1.640625 C 14.804688 -0.546875 12.863281 0 10.40625 0 L 2.265625 0 Z M 7.90625 -12.890625 L 9.609375 -12.890625 C 10.421875 -12.890625 11.046875 -13.054688 11.484375 -13.390625 C 11.929688 -13.722656 12.15625 -14.21875 12.15625 -14.875 C 12.15625 -16.050781 11.269531 -16.640625 9.5 -16.640625 L 7.90625 -16.640625 Z M 7.90625 -8.75 L 7.90625 -4.359375 L 9.90625 -4.359375 C 11.664062 -4.359375 12.546875 -5.101562 12.546875 -6.59375 C 12.546875 -7.289062 12.304688 -7.820312 11.828125 -8.1875 C 11.359375 -8.5625 10.675781 -8.75 9.78125 -8.75 Z M 7.90625 -8.75 "/></g></g></g><g fill="#ffffff" fill-opacity="1"><g transform="translate(209.329685, 367.207589)"><g><path d="M 7.546875 0 L 1.953125 0 L 1.953125 -16.203125 L 7.546875 -16.203125 Z M 1.8125 -20.234375 C 1.8125 -21.078125 2.046875 -21.703125 2.515625 -22.109375 C 2.984375 -22.523438 3.738281 -22.734375 4.78125 -22.734375 C 5.820312 -22.734375 6.578125 -22.519531 7.046875 -22.09375 C 7.523438 -21.675781 7.765625 -21.054688 7.765625 -20.234375 C 7.765625 -18.597656 6.769531 -17.78125 4.78125 -17.78125 C 2.800781 -17.78125 1.8125 -18.597656 1.8125 -20.234375 Z M 1.8125 -20.234375 "/></g></g></g><g fill="#ffffff" fill-opacity="1"><g transform="translate(218.85308, 367.207589)"><g><path d="M 6.96875 0.28125 C 5.8125 0.28125 4.800781 -0.046875 3.9375 -0.703125 C 3.070312 -1.359375 2.40625 -2.320312 1.9375 -3.59375 C 1.46875 -4.875 1.234375 -6.367188 1.234375 -8.078125 C 1.234375 -10.710938 1.757812 -12.773438 2.8125 -14.265625 C 3.875 -15.753906 5.332031 -16.5 7.1875 -16.5 C 8.09375 -16.5 8.882812 -16.316406 9.5625 -15.953125 C 10.238281 -15.585938 10.863281 -14.976562 11.4375 -14.125 L 11.546875 -14.125 C 11.359375 -15.382812 11.265625 -16.648438 11.265625 -17.921875 L 11.265625 -22.265625 L 16.90625 -22.265625 L 16.90625 0 L 12.6875 0 L 11.484375 -2.046875 L 11.265625 -2.046875 C 10.304688 -0.492188 8.875 0.28125 6.96875 0.28125 Z M 9.25 -4.140625 C 10.144531 -4.140625 10.773438 -4.421875 11.140625 -4.984375 C 11.515625 -5.546875 11.71875 -6.410156 11.75 -7.578125 L 11.75 -8.03125 C 11.75 -9.457031 11.539062 -10.472656 11.125 -11.078125 C 10.71875 -11.679688 10.078125 -11.984375 9.203125 -11.984375 C 8.460938 -11.984375 7.890625 -11.632812 7.484375 -10.9375 C 7.078125 -10.25 6.875 -9.269531 6.875 -8 C 6.875 -6.738281 7.078125 -5.78125 7.484375 -5.125 C 7.898438 -4.46875 8.488281 -4.140625 9.25 -4.140625 Z M 9.25 -4.140625 "/></g></g></g><g fill="#ffffff" fill-opacity="1"><g transform="translate(237.685384, 367.207589)"><g><path d="M 7.546875 0 L 1.953125 0 L 1.953125 -16.203125 L 7.546875 -16.203125 Z M 1.8125 -20.234375 C 1.8125 -21.078125 2.046875 -21.703125 2.515625 -22.109375 C 2.984375 -22.523438 3.738281 -22.734375 4.78125 -22.734375 C 5.820312 -22.734375 6.578125 -22.519531 7.046875 -22.09375 C 7.523438 -21.675781 7.765625 -21.054688 7.765625 -20.234375 C 7.765625 -18.597656 6.769531 -17.78125 4.78125 -17.78125 C 2.800781 -17.78125 1.8125 -18.597656 1.8125 -20.234375 Z M 1.8125 -20.234375 "/></g></g></g><g fill="#ffffff" fill-opacity="1"><g transform="translate(247.208779, 367.207589)"><g><path d="M 11.71875 -16.5 C 12.207031 -16.5 12.671875 -16.457031 13.109375 -16.375 L 13.421875 -16.328125 L 12.921875 -11.046875 C 12.460938 -11.160156 11.828125 -11.21875 11.015625 -11.21875 C 9.796875 -11.21875 8.910156 -10.9375 8.359375 -10.375 C 7.804688 -9.820312 7.53125 -9.019531 7.53125 -7.96875 L 7.53125 0 L 1.9375 0 L 1.9375 -16.203125 L 6.09375 -16.203125 L 6.96875 -13.625 L 7.234375 -13.625 C 7.703125 -14.476562 8.351562 -15.171875 9.1875 -15.703125 C 10.019531 -16.234375 10.863281 -16.5 11.71875 -16.5 Z M 11.71875 -16.5 "/></g></g></g><g fill="#ffffff" fill-opacity="1"><g transform="translate(260.9505, 367.207589)"><g><path d="M 9.75 0.28125 C 7.050781 0.28125 4.957031 -0.429688 3.46875 -1.859375 C 1.976562 -3.296875 1.234375 -5.34375 1.234375 -8 C 1.234375 -10.738281 1.921875 -12.835938 3.296875 -14.296875 C 4.679688 -15.765625 6.660156 -16.5 9.234375 -16.5 C 11.671875 -16.5 13.550781 -15.859375 14.875 -14.578125 C 16.207031 -13.304688 16.875 -11.472656 16.875 -9.078125 L 16.875 -6.59375 L 6.875 -6.59375 C 6.914062 -5.6875 7.25 -4.972656 7.875 -4.453125 C 8.5 -3.941406 9.347656 -3.6875 10.421875 -3.6875 C 11.410156 -3.6875 12.316406 -3.78125 13.140625 -3.96875 C 13.960938 -4.15625 14.859375 -4.472656 15.828125 -4.921875 L 15.828125 -0.90625 C 14.941406 -0.457031 14.03125 -0.148438 13.09375 0.015625 C 12.164062 0.191406 11.050781 0.28125 9.75 0.28125 Z M 9.421875 -12.6875 C 8.765625 -12.6875 8.210938 -12.476562 7.765625 -12.0625 C 7.328125 -11.644531 7.070312 -10.992188 7 -10.109375 L 11.796875 -10.109375 C 11.773438 -10.890625 11.550781 -11.515625 11.125 -11.984375 C 10.707031 -12.453125 10.140625 -12.6875 9.421875 -12.6875 Z M 9.421875 -12.6875 "/></g></g></g><g fill="#ffffff" fill-opacity="1"><g transform="translate(279.05353, 367.207589)"><g><path d="M 9.3125 0.28125 C 6.65625 0.28125 4.644531 -0.429688 3.28125 -1.859375 C 1.914062 -3.285156 1.234375 -5.34375 1.234375 -8.03125 C 1.234375 -10.71875 1.972656 -12.800781 3.453125 -14.28125 C 4.929688 -15.757812 7.03125 -16.5 9.75 -16.5 C 11.632812 -16.5 13.40625 -16.085938 15.0625 -15.265625 L 13.421875 -11.125 C 12.742188 -11.425781 12.117188 -11.664062 11.546875 -11.84375 C 10.972656 -12.019531 10.375 -12.109375 9.75 -12.109375 C 8.84375 -12.109375 8.140625 -11.753906 7.640625 -11.046875 C 7.148438 -10.335938 6.90625 -9.335938 6.90625 -8.046875 C 6.90625 -5.453125 7.863281 -4.15625 9.78125 -4.15625 C 11.425781 -4.15625 13 -4.632812 14.5 -5.59375 L 14.5 -1.140625 C 13.0625 -0.191406 11.332031 0.28125 9.3125 0.28125 Z M 9.3125 0.28125 "/></g></g></g><g fill="#ffffff" fill-opacity="1"><g transform="translate(294.840058, 367.207589)"><g><path d="M 9.3125 0.28125 C 6.65625 0.28125 4.644531 -0.429688 3.28125 -1.859375 C 1.914062 -3.285156 1.234375 -5.34375 1.234375 -8.03125 C 1.234375 -10.71875 1.972656 -12.800781 3.453125 -14.28125 C 4.929688 -15.757812 7.03125 -16.5 9.75 -16.5 C 11.632812 -16.5 13.40625 -16.085938 15.0625 -15.265625 L 13.421875 -11.125 C 12.742188 -11.425781 12.117188 -11.664062 11.546875 -11.84375 C 10.972656 -12.019531 10.375 -12.109375 9.75 -12.109375 C 8.84375 -12.109375 8.140625 -11.753906 7.640625 -11.046875 C 7.148438 -10.335938 6.90625 -9.335938 6.90625 -8.046875 C 6.90625 -5.453125 7.863281 -4.15625 9.78125 -4.15625 C 11.425781 -4.15625 13 -4.632812 14.5 -5.59375 L 14.5 -1.140625 C 13.0625 -0.191406 11.332031 0.28125 9.3125 0.28125 Z M 9.3125 0.28125 "/></g></g></g><g fill="#ffffff" fill-opacity="1"><g transform="translate(310.626586, 367.207589)"><g><path d="M 7.546875 0 L 1.953125 0 L 1.953125 -16.203125 L 7.546875 -16.203125 Z M 1.8125 -20.234375 C 1.8125 -21.078125 2.046875 -21.703125 2.515625 -22.109375 C 2.984375 -22.523438 3.738281 -22.734375 4.78125 -22.734375 C 5.820312 -22.734375 6.578125 -22.519531 7.046875 -22.09375 C 7.523438 -21.675781 7.765625 -21.054688 7.765625 -20.234375 C 7.765625 -18.597656 6.769531 -17.78125 4.78125 -17.78125 C 2.800781 -17.78125 1.8125 -18.597656 1.8125 -20.234375 Z M 1.8125 -20.234375 "/></g></g></g><g fill="#ffffff" fill-opacity="1"><g transform="translate(320.149981, 367.207589)"><g><path d="M 17.40625 -8.140625 C 17.40625 -5.484375 16.691406 -3.414062 15.265625 -1.9375 C 13.835938 -0.457031 11.84375 0.28125 9.28125 0.28125 C 6.820312 0.28125 4.863281 -0.472656 3.40625 -1.984375 C 1.957031 -3.503906 1.234375 -5.554688 1.234375 -8.140625 C 1.234375 -10.785156 1.941406 -12.835938 3.359375 -14.296875 C 4.785156 -15.765625 6.789062 -16.5 9.375 -16.5 C 10.96875 -16.5 12.375 -16.160156 13.59375 -15.484375 C 14.8125 -14.804688 15.75 -13.832031 16.40625 -12.5625 C 17.070312 -11.300781 17.40625 -9.828125 17.40625 -8.140625 Z M 6.90625 -8.140625 C 6.90625 -6.742188 7.09375 -5.679688 7.46875 -4.953125 C 7.84375 -4.222656 8.46875 -3.859375 9.34375 -3.859375 C 10.207031 -3.859375 10.816406 -4.222656 11.171875 -4.953125 C 11.535156 -5.679688 11.71875 -6.742188 11.71875 -8.140625 C 11.71875 -9.523438 11.535156 -10.566406 11.171875 -11.265625 C 10.804688 -11.972656 10.1875 -12.328125 9.3125 -12.328125 C 8.457031 -12.328125 7.84375 -11.976562 7.46875 -11.28125 C 7.09375 -10.582031 6.90625 -9.535156 6.90625 -8.140625 Z M 6.90625 -8.140625 "/></g></g></g><g fill="#ffffff" fill-opacity="1"><g transform="translate(338.810693, 367.207589)"><g><path d="M 12.15625 0 L 12.15625 -8.84375 C 12.15625 -9.914062 12 -10.726562 11.6875 -11.28125 C 11.382812 -11.832031 10.890625 -12.109375 10.203125 -12.109375 C 9.253906 -12.109375 8.570312 -11.726562 8.15625 -10.96875 C 7.738281 -10.21875 7.53125 -8.925781 7.53125 -7.09375 L 7.53125 0 L 1.9375 0 L 1.9375 -16.203125 L 6.15625 -16.203125 L 6.859375 -14.203125 L 7.1875 -14.203125 C 7.65625 -14.960938 8.3125 -15.535156 9.15625 -15.921875 C 10 -16.304688 10.972656 -16.5 12.078125 -16.5 C 13.867188 -16.5 15.257812 -15.976562 16.25 -14.9375 C 17.25 -13.894531 17.75 -12.429688 17.75 -10.546875 L 17.75 0 Z M 12.15625 0 "/></g></g></g><g fill="#ffffff" fill-opacity="1"><g transform="translate(358.429458, 367.207589)"><g><path d="M 12.5 0 L 11.4375 -2.140625 L 11.3125 -2.140625 C 10.5625 -1.210938 9.796875 -0.578125 9.015625 -0.234375 C 8.234375 0.109375 7.222656 0.28125 5.984375 0.28125 C 4.453125 0.28125 3.25 -0.171875 2.375 -1.078125 C 1.5 -1.992188 1.0625 -3.285156 1.0625 -4.953125 C 1.0625 -6.671875 1.660156 -7.953125 2.859375 -8.796875 C 4.054688 -9.648438 5.796875 -10.128906 8.078125 -10.234375 L 10.78125 -10.3125 L 10.78125 -10.546875 C 10.78125 -11.878906 10.125 -12.546875 8.8125 -12.546875 C 7.625 -12.546875 6.125 -12.144531 4.3125 -11.34375 L 2.6875 -15.03125 C 4.570312 -16.007812 6.957031 -16.5 9.84375 -16.5 C 11.914062 -16.5 13.519531 -15.984375 14.65625 -14.953125 C 15.800781 -13.921875 16.375 -12.476562 16.375 -10.625 L 16.375 0 Z M 8.359375 -3.65625 C 9.035156 -3.65625 9.613281 -3.867188 10.09375 -4.296875 C 10.570312 -4.734375 10.8125 -5.296875 10.8125 -5.984375 L 10.8125 -7.234375 L 9.53125 -7.1875 C 7.6875 -7.113281 6.765625 -6.4375 6.765625 -5.15625 C 6.765625 -4.15625 7.296875 -3.65625 8.359375 -3.65625 Z M 8.359375 -3.65625 "/></g></g></g><g fill="#ffffff" fill-opacity="1"><g transform="translate(376.675482, 367.207589)"><g><path d="M 7.53125 0 L 1.9375 0 L 1.9375 -22.265625 L 7.53125 -22.265625 Z M 7.53125 0 "/></g></g></g></svg>