<svg xmlns="http://www.w3.org/2000/svg" xmlns:xlink="http://www.w3.org/1999/xlink" width="800" zoomAndPan="magnify" viewBox="0 0 600 449.999984" height="600" preserveAspectRatio="xMidYMid meet" version="1.0"><defs><g/><clipPath id="285a14e04b"><path d="M 85.773438 7.652344 L 490 7.652344 L 490 321 L 85.773438 321 Z M 85.773438 7.652344 " clip-rule="nonzero"/></clipPath><clipPath id="3e09837b9b"><path d="M 106.773438 7.652344 L 468.964844 7.652344 C 480.5625 7.652344 489.964844 17.054688 489.964844 28.652344 L 489.964844 299.9375 C 489.964844 311.535156 480.5625 320.9375 468.964844 320.9375 L 106.773438 320.9375 C 95.175781 320.9375 85.773438 311.535156 85.773438 299.9375 L 85.773438 28.652344 C 85.773438 17.054688 95.175781 7.652344 106.773438 7.652344 " clip-rule="nonzero"/></clipPath><clipPath id="d222942ab9"><path d="M 206.871094 74.292969 L 368.871094 74.292969 L 368.871094 254.292969 L 206.871094 254.292969 Z M 206.871094 74.292969 " clip-rule="nonzero"/></clipPath><clipPath id="52b1955a98"><path d="M 206.871094 203 L 213 203 L 213 210 L 206.871094 210 Z M 206.871094 203 " clip-rule="nonzero"/></clipPath></defs><g clip-path="url(#285a14e04b)"><g clip-path="url(#3e09837b9b)"><path fill="#36adb9" d="M 85.773438 7.652344 L 490.070312 7.652344 L 490.070312 321.246094 L 85.773438 321.246094 Z M 85.773438 7.652344 " fill-opacity="1" fill-rule="nonzero"/></g></g><path fill="#ffffff" d="M 227.871094 161.277344 L 239.871094 161.277344 C 240.265625 161.277344 240.652344 161.238281 241.039062 161.160156 C 241.425781 161.082031 241.800781 160.96875 242.167969 160.820312 C 242.53125 160.667969 242.875 160.484375 243.203125 160.265625 C 243.53125 160.046875 243.835938 159.796875 244.113281 159.519531 C 244.390625 159.238281 244.640625 158.9375 244.859375 158.609375 C 245.078125 158.28125 245.261719 157.9375 245.414062 157.570312 C 245.5625 157.207031 245.679688 156.832031 245.753906 156.445312 C 245.832031 156.058594 245.871094 155.671875 245.871094 155.277344 L 245.871094 143.277344 C 245.871094 142.882812 245.832031 142.492188 245.753906 142.105469 C 245.679688 141.71875 245.5625 141.34375 245.414062 140.980469 C 245.261719 140.617188 245.078125 140.269531 244.859375 139.941406 C 244.640625 139.613281 244.390625 139.3125 244.113281 139.035156 C 243.835938 138.753906 243.53125 138.507812 243.203125 138.289062 C 242.875 138.066406 242.53125 137.882812 242.167969 137.734375 C 241.800781 137.582031 241.425781 137.46875 241.039062 137.390625 C 240.652344 137.3125 240.265625 137.277344 239.871094 137.277344 L 227.871094 137.277344 C 227.476562 137.277344 227.085938 137.3125 226.699219 137.390625 C 226.3125 137.46875 225.9375 137.582031 225.574219 137.734375 C 225.210938 137.882812 224.863281 138.066406 224.535156 138.289062 C 224.207031 138.507812 223.90625 138.753906 223.628906 139.035156 C 223.347656 139.3125 223.101562 139.613281 222.882812 139.941406 C 222.664062 140.269531 222.476562 140.617188 222.328125 140.980469 C 222.175781 141.34375 222.0625 141.71875 221.984375 142.105469 C 221.910156 142.492188 221.871094 142.882812 221.871094 143.277344 L 221.871094 155.277344 C 221.871094 155.671875 221.910156 156.058594 221.984375 156.445312 C 222.0625 156.832031 222.175781 157.207031 222.328125 157.570312 C 222.476562 157.9375 222.664062 158.28125 222.882812 158.609375 C 223.101562 158.9375 223.347656 159.238281 223.628906 159.519531 C 223.90625 159.796875 224.207031 160.046875 224.535156 160.265625 C 224.863281 160.484375 225.210938 160.667969 225.574219 160.820312 C 225.9375 160.96875 226.3125 161.082031 226.699219 161.160156 C 227.085938 161.238281 227.476562 161.277344 227.871094 161.277344 Z M 227.871094 143.277344 L 239.871094 143.277344 L 239.871094 155.277344 L 227.871094 155.277344 Z M 227.871094 143.277344 " fill-opacity="1" fill-rule="nonzero"/><path fill="#ffffff" d="M 263.871094 161.277344 L 275.871094 161.277344 C 276.265625 161.277344 276.652344 161.238281 277.039062 161.160156 C 277.425781 161.082031 277.800781 160.96875 278.167969 160.820312 C 278.53125 160.667969 278.875 160.484375 279.203125 160.265625 C 279.53125 160.046875 279.835938 159.796875 280.113281 159.519531 C 280.390625 159.238281 280.640625 158.9375 280.859375 158.609375 C 281.078125 158.28125 281.261719 157.9375 281.414062 157.570312 C 281.5625 157.207031 281.679688 156.832031 281.753906 156.445312 C 281.832031 156.058594 281.871094 155.671875 281.871094 155.277344 L 281.871094 143.277344 C 281.871094 142.882812 281.832031 142.492188 281.753906 142.105469 C 281.679688 141.71875 281.5625 141.34375 281.414062 140.980469 C 281.261719 140.617188 281.078125 140.269531 280.859375 139.941406 C 280.640625 139.613281 280.390625 139.3125 280.113281 139.035156 C 279.835938 138.753906 279.53125 138.507812 279.203125 138.289062 C 278.875 138.066406 278.53125 137.882812 278.167969 137.734375 C 277.800781 137.582031 277.425781 137.46875 277.039062 137.390625 C 276.652344 137.3125 276.265625 137.277344 275.871094 137.277344 L 263.871094 137.277344 C 263.476562 137.277344 263.085938 137.3125 262.699219 137.390625 C 262.3125 137.46875 261.9375 137.582031 261.574219 137.734375 C 261.210938 137.882812 260.863281 138.066406 260.535156 138.289062 C 260.207031 138.507812 259.90625 138.753906 259.628906 139.035156 C 259.347656 139.3125 259.101562 139.613281 258.882812 139.941406 C 258.664062 140.269531 258.476562 140.617188 258.328125 140.980469 C 258.175781 141.34375 258.0625 141.71875 257.984375 142.105469 C 257.910156 142.492188 257.871094 142.882812 257.871094 143.277344 L 257.871094 155.277344 C 257.871094 155.671875 257.910156 156.058594 257.984375 156.445312 C 258.0625 156.832031 258.175781 157.207031 258.328125 157.570312 C 258.476562 157.9375 258.664062 158.28125 258.882812 158.609375 C 259.101562 158.9375 259.347656 159.238281 259.628906 159.519531 C 259.90625 159.796875 260.207031 160.046875 260.535156 160.265625 C 260.863281 160.484375 261.210938 160.667969 261.574219 160.820312 C 261.9375 160.96875 262.3125 161.082031 262.699219 161.160156 C 263.085938 161.238281 263.476562 161.277344 263.871094 161.277344 Z M 263.871094 143.277344 L 275.871094 143.277344 L 275.871094 155.277344 L 263.871094 155.277344 Z M 263.871094 143.277344 " fill-opacity="1" fill-rule="nonzero"/><path fill="#ffffff" d="M 299.871094 161.277344 L 311.871094 161.277344 C 312.265625 161.277344 312.652344 161.238281 313.039062 161.160156 C 313.425781 161.082031 313.800781 160.96875 314.167969 160.820312 C 314.53125 160.667969 314.875 160.484375 315.203125 160.265625 C 315.53125 160.046875 315.835938 159.796875 316.113281 159.519531 C 316.390625 159.238281 316.640625 158.9375 316.859375 158.609375 C 317.078125 158.28125 317.261719 157.9375 317.414062 157.570312 C 317.5625 157.207031 317.679688 156.832031 317.753906 156.445312 C 317.832031 156.058594 317.871094 155.671875 317.871094 155.277344 L 317.871094 143.277344 C 317.871094 142.882812 317.832031 142.492188 317.753906 142.105469 C 317.679688 141.71875 317.5625 141.34375 317.414062 140.980469 C 317.261719 140.617188 317.078125 140.269531 316.859375 139.941406 C 316.640625 139.613281 316.390625 139.3125 316.113281 139.035156 C 315.835938 138.753906 315.53125 138.507812 315.203125 138.289062 C 314.875 138.066406 314.53125 137.882812 314.167969 137.734375 C 313.800781 137.582031 313.425781 137.46875 313.039062 137.390625 C 312.652344 137.3125 312.265625 137.277344 311.871094 137.277344 L 299.871094 137.277344 C 299.476562 137.277344 299.085938 137.3125 298.699219 137.390625 C 298.3125 137.46875 297.9375 137.582031 297.574219 137.734375 C 297.210938 137.882812 296.863281 138.066406 296.535156 138.289062 C 296.207031 138.507812 295.90625 138.753906 295.628906 139.035156 C 295.347656 139.3125 295.101562 139.613281 294.882812 139.941406 C 294.664062 140.269531 294.476562 140.617188 294.328125 140.980469 C 294.175781 141.34375 294.0625 141.71875 293.984375 142.105469 C 293.910156 142.492188 293.871094 142.882812 293.871094 143.277344 L 293.871094 155.277344 C 293.871094 155.671875 293.910156 156.058594 293.984375 156.445312 C 294.0625 156.832031 294.175781 157.207031 294.328125 157.570312 C 294.476562 157.9375 294.664062 158.28125 294.882812 158.609375 C 295.101562 158.9375 295.347656 159.238281 295.628906 159.519531 C 295.90625 159.796875 296.207031 160.046875 296.535156 160.265625 C 296.863281 160.484375 297.210938 160.667969 297.574219 160.820312 C 297.9375 160.96875 298.3125 161.082031 298.699219 161.160156 C 299.085938 161.238281 299.476562 161.277344 299.871094 161.277344 Z M 299.871094 143.277344 L 311.871094 143.277344 L 311.871094 155.277344 L 299.871094 155.277344 Z M 299.871094 143.277344 " fill-opacity="1" fill-rule="nonzero"/><path fill="#ffffff" d="M 335.871094 161.277344 L 347.871094 161.277344 C 348.265625 161.277344 348.652344 161.238281 349.039062 161.160156 C 349.425781 161.082031 349.800781 160.96875 350.167969 160.820312 C 350.53125 160.667969 350.875 160.484375 351.203125 160.265625 C 351.53125 160.046875 351.835938 159.796875 352.113281 159.519531 C 352.390625 159.238281 352.640625 158.9375 352.859375 158.609375 C 353.078125 158.28125 353.261719 157.9375 353.414062 157.570312 C 353.5625 157.207031 353.679688 156.832031 353.753906 156.445312 C 353.832031 156.058594 353.871094 155.671875 353.871094 155.277344 L 353.871094 143.277344 C 353.871094 142.882812 353.832031 142.492188 353.753906 142.105469 C 353.679688 141.71875 353.5625 141.34375 353.414062 140.980469 C 353.261719 140.617188 353.078125 140.269531 352.859375 139.941406 C 352.640625 139.613281 352.390625 139.3125 352.113281 139.035156 C 351.835938 138.753906 351.53125 138.507812 351.203125 138.289062 C 350.875 138.066406 350.53125 137.882812 350.167969 137.734375 C 349.800781 137.582031 349.425781 137.46875 349.039062 137.390625 C 348.652344 137.3125 348.265625 137.277344 347.871094 137.277344 L 335.871094 137.277344 C 335.476562 137.277344 335.085938 137.3125 334.699219 137.390625 C 334.3125 137.46875 333.9375 137.582031 333.574219 137.734375 C 333.210938 137.882812 332.863281 138.066406 332.535156 138.289062 C 332.207031 138.507812 331.90625 138.753906 331.628906 139.035156 C 331.347656 139.3125 331.101562 139.613281 330.882812 139.941406 C 330.664062 140.269531 330.476562 140.617188 330.328125 140.980469 C 330.175781 141.34375 330.0625 141.71875 329.984375 142.105469 C 329.910156 142.492188 329.871094 142.882812 329.871094 143.277344 L 329.871094 155.277344 C 329.871094 155.671875 329.910156 156.058594 329.984375 156.445312 C 330.0625 156.832031 330.175781 157.207031 330.328125 157.570312 C 330.476562 157.9375 330.664062 158.28125 330.882812 158.609375 C 331.101562 158.9375 331.347656 159.238281 331.628906 159.519531 C 331.90625 159.796875 332.207031 160.046875 332.535156 160.265625 C 332.863281 160.484375 333.210938 160.667969 333.574219 160.820312 C 333.9375 160.96875 334.3125 161.082031 334.699219 161.160156 C 335.085938 161.238281 335.476562 161.277344 335.871094 161.277344 Z M 335.871094 143.277344 L 347.871094 143.277344 L 347.871094 155.277344 L 335.871094 155.277344 Z M 335.871094 143.277344 " fill-opacity="1" fill-rule="nonzero"/><path fill="#ffffff" d="M 221.871094 188.277344 C 221.871094 188.671875 221.910156 189.058594 221.984375 189.445312 C 222.0625 189.832031 222.175781 190.207031 222.328125 190.570312 C 222.476562 190.9375 222.664062 191.28125 222.882812 191.609375 C 223.101562 191.9375 223.347656 192.238281 223.628906 192.519531 C 223.90625 192.796875 224.207031 193.046875 224.535156 193.265625 C 224.863281 193.484375 225.210938 193.667969 225.574219 193.820312 C 225.9375 193.96875 226.3125 194.082031 226.699219 194.160156 C 227.085938 194.238281 227.476562 194.277344 227.871094 194.277344 L 239.871094 194.277344 C 240.265625 194.277344 240.652344 194.238281 241.039062 194.160156 C 241.425781 194.082031 241.800781 193.96875 242.167969 193.820312 C 242.53125 193.667969 242.875 193.484375 243.203125 193.265625 C 243.53125 193.046875 243.835938 192.796875 244.113281 192.519531 C 244.390625 192.238281 244.640625 191.9375 244.859375 191.609375 C 245.078125 191.28125 245.261719 190.9375 245.414062 190.570312 C 245.5625 190.207031 245.679688 189.832031 245.753906 189.445312 C 245.832031 189.058594 245.871094 188.671875 245.871094 188.277344 L 245.871094 176.277344 C 245.871094 175.882812 245.832031 175.492188 245.753906 175.105469 C 245.679688 174.71875 245.5625 174.34375 245.414062 173.980469 C 245.261719 173.617188 245.078125 173.269531 244.859375 172.941406 C 244.640625 172.613281 244.390625 172.3125 244.113281 172.035156 C 243.835938 171.753906 243.53125 171.507812 243.203125 171.289062 C 242.875 171.066406 242.53125 170.882812 242.167969 170.734375 C 241.800781 170.582031 241.425781 170.46875 241.039062 170.390625 C 240.652344 170.3125 240.265625 170.277344 239.871094 170.277344 L 227.871094 170.277344 C 227.476562 170.277344 227.085938 170.3125 226.699219 170.390625 C 226.3125 170.46875 225.9375 170.582031 225.574219 170.734375 C 225.210938 170.882812 224.863281 171.066406 224.535156 171.289062 C 224.207031 171.507812 223.90625 171.753906 223.628906 172.035156 C 223.347656 172.3125 223.101562 172.613281 222.882812 172.941406 C 222.664062 173.269531 222.476562 173.617188 222.328125 173.980469 C 222.175781 174.34375 222.0625 174.71875 221.984375 175.105469 C 221.910156 175.492188 221.871094 175.882812 221.871094 176.277344 Z M 227.871094 176.277344 L 239.871094 176.277344 L 239.871094 188.277344 L 227.871094 188.277344 Z M 227.871094 176.277344 " fill-opacity="1" fill-rule="nonzero"/><path fill="#ffffff" d="M 257.871094 186.777344 C 257.871094 187.171875 257.910156 187.558594 257.984375 187.945312 C 258.0625 188.332031 258.175781 188.707031 258.328125 189.070312 C 258.476562 189.4375 258.664062 189.78125 258.882812 190.109375 C 259.101562 190.4375 259.347656 190.738281 259.628906 191.019531 C 259.90625 191.296875 260.207031 191.546875 260.535156 191.765625 C 260.863281 191.984375 261.210938 192.167969 261.574219 192.320312 C 261.9375 192.46875 262.3125 192.582031 262.699219 192.660156 C 263.085938 192.738281 263.476562 192.777344 263.871094 192.777344 L 275.871094 192.777344 C 276.265625 192.777344 276.652344 192.738281 277.039062 192.660156 C 277.425781 192.582031 277.800781 192.46875 278.167969 192.320312 C 278.53125 192.167969 278.875 191.984375 279.203125 191.765625 C 279.53125 191.546875 279.835938 191.296875 280.113281 191.019531 C 280.390625 190.738281 280.640625 190.4375 280.859375 190.109375 C 281.078125 189.78125 281.261719 189.4375 281.414062 189.070312 C 281.5625 188.707031 281.679688 188.332031 281.753906 187.945312 C 281.832031 187.558594 281.871094 187.171875 281.871094 186.777344 L 281.871094 174.777344 C 281.871094 174.382812 281.832031 173.992188 281.753906 173.605469 C 281.679688 173.21875 281.5625 172.84375 281.414062 172.480469 C 281.261719 172.117188 281.078125 171.769531 280.859375 171.441406 C 280.640625 171.113281 280.390625 170.8125 280.113281 170.535156 C 279.835938 170.253906 279.53125 170.007812 279.203125 169.789062 C 278.875 169.566406 278.53125 169.382812 278.167969 169.234375 C 277.800781 169.082031 277.425781 168.96875 277.039062 168.890625 C 276.652344 168.8125 276.265625 168.777344 275.871094 168.777344 L 263.871094 168.777344 C 263.476562 168.777344 263.085938 168.8125 262.699219 168.890625 C 262.3125 168.96875 261.9375 169.082031 261.574219 169.234375 C 261.210938 169.382812 260.863281 169.566406 260.535156 169.789062 C 260.207031 170.007812 259.90625 170.253906 259.628906 170.535156 C 259.347656 170.8125 259.101562 171.113281 258.882812 171.441406 C 258.664062 171.769531 258.476562 172.117188 258.328125 172.480469 C 258.175781 172.84375 258.0625 173.21875 257.984375 173.605469 C 257.910156 173.992188 257.871094 174.382812 257.871094 174.777344 Z M 263.871094 174.777344 L 275.871094 174.777344 L 275.871094 186.777344 L 263.871094 186.777344 Z M 263.871094 174.777344 " fill-opacity="1" fill-rule="nonzero"/><path fill="#ffffff" d="M 293.871094 186.777344 C 293.871094 187.171875 293.910156 187.558594 293.984375 187.945312 C 294.0625 188.332031 294.175781 188.707031 294.328125 189.070312 C 294.476562 189.4375 294.664062 189.78125 294.882812 190.109375 C 295.101562 190.4375 295.347656 190.738281 295.628906 191.019531 C 295.90625 191.296875 296.207031 191.546875 296.535156 191.765625 C 296.863281 191.984375 297.210938 192.167969 297.574219 192.320312 C 297.9375 192.46875 298.3125 192.582031 298.699219 192.660156 C 299.085938 192.738281 299.476562 192.777344 299.871094 192.777344 L 311.871094 192.777344 C 312.265625 192.777344 312.652344 192.738281 313.039062 192.660156 C 313.425781 192.582031 313.800781 192.46875 314.167969 192.320312 C 314.53125 192.167969 314.875 191.984375 315.203125 191.765625 C 315.53125 191.546875 315.835938 191.296875 316.113281 191.019531 C 316.390625 190.738281 316.640625 190.4375 316.859375 190.109375 C 317.078125 189.78125 317.261719 189.4375 317.414062 189.070312 C 317.5625 188.707031 317.679688 188.332031 317.753906 187.945312 C 317.832031 187.558594 317.871094 187.171875 317.871094 186.777344 L 317.871094 174.777344 C 317.871094 174.382812 317.832031 173.992188 317.753906 173.605469 C 317.679688 173.21875 317.5625 172.84375 317.414062 172.480469 C 317.261719 172.117188 317.078125 171.769531 316.859375 171.441406 C 316.640625 171.113281 316.390625 170.8125 316.113281 170.535156 C 315.835938 170.253906 315.53125 170.007812 315.203125 169.789062 C 314.875 169.566406 314.53125 169.382812 314.167969 169.234375 C 313.800781 169.082031 313.425781 168.96875 313.039062 168.890625 C 312.652344 168.8125 312.265625 168.777344 311.871094 168.777344 L 299.871094 168.777344 C 299.476562 168.777344 299.085938 168.8125 298.699219 168.890625 C 298.3125 168.96875 297.9375 169.082031 297.574219 169.234375 C 297.210938 169.382812 296.863281 169.566406 296.535156 169.789062 C 296.207031 170.007812 295.90625 170.253906 295.628906 170.535156 C 295.347656 170.8125 295.101562 171.113281 294.882812 171.441406 C 294.664062 171.769531 294.476562 172.117188 294.328125 172.480469 C 294.175781 172.84375 294.0625 173.21875 293.984375 173.605469 C 293.910156 173.992188 293.871094 174.382812 293.871094 174.777344 Z M 299.871094 174.777344 L 311.871094 174.777344 L 311.871094 186.777344 L 299.871094 186.777344 Z M 299.871094 174.777344 " fill-opacity="1" fill-rule="nonzero"/><path fill="#ffffff" d="M 329.871094 186.777344 C 329.871094 187.171875 329.910156 187.558594 329.984375 187.945312 C 330.0625 188.332031 330.175781 188.707031 330.328125 189.070312 C 330.476562 189.4375 330.664062 189.78125 330.882812 190.109375 C 331.101562 190.4375 331.347656 190.738281 331.628906 191.019531 C 331.90625 191.296875 332.207031 191.546875 332.535156 191.765625 C 332.863281 191.984375 333.210938 192.167969 333.574219 192.320312 C 333.9375 192.46875 334.3125 192.582031 334.699219 192.660156 C 335.085938 192.738281 335.476562 192.777344 335.871094 192.777344 L 347.871094 192.777344 C 348.265625 192.777344 348.652344 192.738281 349.039062 192.660156 C 349.425781 192.582031 349.800781 192.46875 350.167969 192.320312 C 350.53125 192.167969 350.875 191.984375 351.203125 191.765625 C 351.53125 191.546875 351.835938 191.296875 352.113281 191.019531 C 352.390625 190.738281 352.640625 190.4375 352.859375 190.109375 C 353.078125 189.78125 353.261719 189.4375 353.414062 189.070312 C 353.5625 188.707031 353.679688 188.332031 353.753906 187.945312 C 353.832031 187.558594 353.871094 187.171875 353.871094 186.777344 L 353.871094 174.777344 C 353.871094 174.382812 353.832031 173.992188 353.753906 173.605469 C 353.679688 173.21875 353.5625 172.84375 353.414062 172.480469 C 353.261719 172.117188 353.078125 171.769531 352.859375 171.441406 C 352.640625 171.113281 352.390625 170.8125 352.113281 170.535156 C 351.835938 170.253906 351.53125 170.007812 351.203125 169.789062 C 350.875 169.566406 350.53125 169.382812 350.167969 169.234375 C 349.800781 169.082031 349.425781 168.96875 349.039062 168.890625 C 348.652344 168.8125 348.265625 168.777344 347.871094 168.777344 L 335.871094 168.777344 C 335.476562 168.777344 335.085938 168.8125 334.699219 168.890625 C 334.3125 168.96875 333.9375 169.082031 333.574219 169.234375 C 333.210938 169.382812 332.863281 169.566406 332.535156 169.789062 C 332.207031 170.007812 331.90625 170.253906 331.628906 170.535156 C 331.347656 170.8125 331.101562 171.113281 330.882812 171.441406 C 330.664062 171.769531 330.476562 172.117188 330.328125 172.480469 C 330.175781 172.84375 330.0625 173.21875 329.984375 173.605469 C 329.910156 173.992188 329.871094 174.382812 329.871094 174.777344 Z M 335.871094 174.777344 L 347.871094 174.777344 L 347.871094 186.777344 L 335.871094 186.777344 Z M 335.871094 174.777344 " fill-opacity="1" fill-rule="nonzero"/><path fill="#ffffff" d="M 221.871094 218.277344 C 221.871094 218.671875 221.910156 219.058594 221.984375 219.445312 C 222.0625 219.832031 222.175781 220.207031 222.328125 220.570312 C 222.476562 220.9375 222.664062 221.28125 222.882812 221.609375 C 223.101562 221.9375 223.347656 222.238281 223.628906 222.519531 C 223.90625 222.796875 224.207031 223.046875 224.535156 223.265625 C 224.863281 223.484375 225.210938 223.667969 225.574219 223.820312 C 225.9375 223.96875 226.3125 224.082031 226.699219 224.160156 C 227.085938 224.238281 227.476562 224.277344 227.871094 224.277344 L 239.871094 224.277344 C 240.265625 224.277344 240.652344 224.238281 241.039062 224.160156 C 241.425781 224.082031 241.800781 223.96875 242.167969 223.820312 C 242.53125 223.667969 242.875 223.484375 243.203125 223.265625 C 243.53125 223.046875 243.835938 222.796875 244.113281 222.519531 C 244.390625 222.238281 244.640625 221.9375 244.859375 221.609375 C 245.078125 221.28125 245.261719 220.9375 245.414062 220.570312 C 245.5625 220.207031 245.679688 219.832031 245.753906 219.445312 C 245.832031 219.058594 245.871094 218.671875 245.871094 218.277344 L 245.871094 206.277344 C 245.871094 205.882812 245.832031 205.492188 245.753906 205.105469 C 245.679688 204.71875 245.5625 204.34375 245.414062 203.980469 C 245.261719 203.617188 245.078125 203.269531 244.859375 202.941406 C 244.640625 202.613281 244.390625 202.3125 244.113281 202.035156 C 243.835938 201.753906 243.53125 201.507812 243.203125 201.289062 C 242.875 201.066406 242.53125 200.882812 242.167969 200.734375 C 241.800781 200.582031 241.425781 200.46875 241.039062 200.390625 C 240.652344 200.3125 240.265625 200.277344 239.871094 200.277344 L 227.871094 200.277344 C 227.476562 200.277344 227.085938 200.3125 226.699219 200.390625 C 226.3125 200.46875 225.9375 200.582031 225.574219 200.734375 C 225.210938 200.882812 224.863281 201.066406 224.535156 201.289062 C 224.207031 201.507812 223.90625 201.753906 223.628906 202.035156 C 223.347656 202.3125 223.101562 202.613281 222.882812 202.941406 C 222.664062 203.269531 222.476562 203.617188 222.328125 203.980469 C 222.175781 204.34375 222.0625 204.71875 221.984375 205.105469 C 221.910156 205.492188 221.871094 205.882812 221.871094 206.277344 Z M 227.871094 206.277344 L 239.871094 206.277344 L 239.871094 218.277344 L 227.871094 218.277344 Z M 227.871094 206.277344 " fill-opacity="1" fill-rule="nonzero"/><path fill="#ffffff" d="M 257.871094 218.277344 C 257.871094 218.671875 257.910156 219.058594 257.984375 219.445312 C 258.0625 219.832031 258.175781 220.207031 258.328125 220.570312 C 258.476562 220.9375 258.664062 221.28125 258.882812 221.609375 C 259.101562 221.9375 259.347656 222.238281 259.628906 222.519531 C 259.90625 222.796875 260.207031 223.046875 260.535156 223.265625 C 260.863281 223.484375 261.210938 223.667969 261.574219 223.820312 C 261.9375 223.96875 262.3125 224.082031 262.699219 224.160156 C 263.085938 224.238281 263.476562 224.277344 263.871094 224.277344 L 275.871094 224.277344 C 276.265625 224.277344 276.652344 224.238281 277.039062 224.160156 C 277.425781 224.082031 277.800781 223.96875 278.167969 223.820312 C 278.53125 223.667969 278.875 223.484375 279.203125 223.265625 C 279.53125 223.046875 279.835938 222.796875 280.113281 222.519531 C 280.390625 222.238281 280.640625 221.9375 280.859375 221.609375 C 281.078125 221.28125 281.261719 220.9375 281.414062 220.570312 C 281.5625 220.207031 281.679688 219.832031 281.753906 219.445312 C 281.832031 219.058594 281.871094 218.671875 281.871094 218.277344 L 281.871094 206.277344 C 281.871094 205.882812 281.832031 205.492188 281.753906 205.105469 C 281.679688 204.71875 281.5625 204.34375 281.414062 203.980469 C 281.261719 203.617188 281.078125 203.269531 280.859375 202.941406 C 280.640625 202.613281 280.390625 202.3125 280.113281 202.035156 C 279.835938 201.753906 279.53125 201.507812 279.203125 201.289062 C 278.875 201.066406 278.53125 200.882812 278.167969 200.734375 C 277.800781 200.582031 277.425781 200.46875 277.039062 200.390625 C 276.652344 200.3125 276.265625 200.277344 275.871094 200.277344 L 263.871094 200.277344 C 263.476562 200.277344 263.085938 200.3125 262.699219 200.390625 C 262.3125 200.46875 261.9375 200.582031 261.574219 200.734375 C 261.210938 200.882812 260.863281 201.066406 260.535156 201.289062 C 260.207031 201.507812 259.90625 201.753906 259.628906 202.035156 C 259.347656 202.3125 259.101562 202.613281 258.882812 202.941406 C 258.664062 203.269531 258.476562 203.617188 258.328125 203.980469 C 258.175781 204.34375 258.0625 204.71875 257.984375 205.105469 C 257.910156 205.492188 257.871094 205.882812 257.871094 206.277344 Z M 263.871094 206.277344 L 275.871094 206.277344 L 275.871094 218.277344 L 263.871094 218.277344 Z M 263.871094 206.277344 " fill-opacity="1" fill-rule="nonzero"/><path fill="#ffffff" d="M 293.871094 218.277344 C 293.871094 218.671875 293.910156 219.058594 293.984375 219.445312 C 294.0625 219.832031 294.175781 220.207031 294.328125 220.570312 C 294.476562 220.9375 294.664062 221.28125 294.882812 221.609375 C 295.101562 221.9375 295.347656 222.238281 295.628906 222.519531 C 295.90625 222.796875 296.207031 223.046875 296.535156 223.265625 C 296.863281 223.484375 297.210938 223.667969 297.574219 223.820312 C 297.9375 223.96875 298.3125 224.082031 298.699219 224.160156 C 299.085938 224.238281 299.476562 224.277344 299.871094 224.277344 L 311.871094 224.277344 C 312.265625 224.277344 312.652344 224.238281 313.039062 224.160156 C 313.425781 224.082031 313.800781 223.96875 314.167969 223.820312 C 314.53125 223.667969 314.875 223.484375 315.203125 223.265625 C 315.53125 223.046875 315.835938 222.796875 316.113281 222.519531 C 316.390625 222.238281 316.640625 221.9375 316.859375 221.609375 C 317.078125 221.28125 317.261719 220.9375 317.414062 220.570312 C 317.5625 220.207031 317.679688 219.832031 317.753906 219.445312 C 317.832031 219.058594 317.871094 218.671875 317.871094 218.277344 L 317.871094 206.277344 C 317.871094 205.882812 317.832031 205.492188 317.753906 205.105469 C 317.679688 204.71875 317.5625 204.34375 317.414062 203.980469 C 317.261719 203.617188 317.078125 203.269531 316.859375 202.941406 C 316.640625 202.613281 316.390625 202.3125 316.113281 202.035156 C 315.835938 201.753906 315.53125 201.507812 315.203125 201.289062 C 314.875 201.066406 314.53125 200.882812 314.167969 200.734375 C 313.800781 200.582031 313.425781 200.46875 313.039062 200.390625 C 312.652344 200.3125 312.265625 200.277344 311.871094 200.277344 L 299.871094 200.277344 C 299.476562 200.277344 299.085938 200.3125 298.699219 200.390625 C 298.3125 200.46875 297.9375 200.582031 297.574219 200.734375 C 297.210938 200.882812 296.863281 201.066406 296.535156 201.289062 C 296.207031 201.507812 295.90625 201.753906 295.628906 202.035156 C 295.347656 202.3125 295.101562 202.613281 294.882812 202.941406 C 294.664062 203.269531 294.476562 203.617188 294.328125 203.980469 C 294.175781 204.34375 294.0625 204.71875 293.984375 205.105469 C 293.910156 205.492188 293.871094 205.882812 293.871094 206.277344 Z M 299.871094 206.277344 L 311.871094 206.277344 L 311.871094 218.277344 L 299.871094 218.277344 Z M 299.871094 206.277344 " fill-opacity="1" fill-rule="nonzero"/><g clip-path="url(#d222942ab9)"><path fill="#ffffff" d="M 353.871094 86.277344 L 344.871094 86.277344 L 344.871094 84.777344 C 344.871094 84.085938 344.800781 83.402344 344.667969 82.726562 C 344.535156 82.050781 344.335938 81.394531 344.070312 80.757812 C 343.808594 80.121094 343.484375 79.515625 343.101562 78.941406 C 342.71875 78.371094 342.28125 77.839844 341.792969 77.351562 C 341.308594 76.863281 340.777344 76.429688 340.203125 76.046875 C 339.628906 75.664062 339.023438 75.339844 338.386719 75.074219 C 337.75 74.8125 337.09375 74.613281 336.417969 74.476562 C 335.742188 74.34375 335.058594 74.277344 334.371094 74.277344 C 333.679688 74.277344 332.996094 74.34375 332.320312 74.476562 C 331.644531 74.613281 330.988281 74.8125 330.351562 75.074219 C 329.714844 75.339844 329.109375 75.664062 328.535156 76.046875 C 327.964844 76.429688 327.433594 76.863281 326.945312 77.351562 C 326.457031 77.839844 326.023438 78.371094 325.640625 78.941406 C 325.257812 79.515625 324.933594 80.121094 324.667969 80.757812 C 324.40625 81.394531 324.207031 82.050781 324.070312 82.726562 C 323.9375 83.402344 323.871094 84.085938 323.871094 84.777344 L 323.871094 86.277344 L 298.371094 86.277344 L 298.371094 84.777344 C 298.371094 84.085938 298.300781 83.402344 298.167969 82.726562 C 298.035156 82.050781 297.835938 81.394531 297.570312 80.757812 C 297.308594 80.121094 296.984375 79.515625 296.601562 78.941406 C 296.21875 78.371094 295.78125 77.839844 295.292969 77.351562 C 294.808594 76.863281 294.277344 76.429688 293.703125 76.046875 C 293.128906 75.664062 292.523438 75.339844 291.886719 75.074219 C 291.25 74.8125 290.59375 74.613281 289.917969 74.476562 C 289.242188 74.34375 288.558594 74.277344 287.871094 74.277344 C 287.179688 74.277344 286.496094 74.34375 285.820312 74.476562 C 285.144531 74.613281 284.488281 74.8125 283.851562 75.074219 C 283.214844 75.339844 282.609375 75.664062 282.035156 76.046875 C 281.464844 76.429688 280.933594 76.863281 280.445312 77.351562 C 279.957031 77.839844 279.523438 78.371094 279.140625 78.941406 C 278.757812 79.515625 278.433594 80.121094 278.167969 80.757812 C 277.90625 81.394531 277.707031 82.050781 277.570312 82.726562 C 277.4375 83.402344 277.371094 84.085938 277.371094 84.777344 L 277.371094 86.277344 L 251.871094 86.277344 L 251.871094 84.777344 C 251.871094 84.085938 251.800781 83.402344 251.667969 82.726562 C 251.535156 82.050781 251.335938 81.394531 251.070312 80.757812 C 250.808594 80.121094 250.484375 79.515625 250.101562 78.941406 C 249.71875 78.371094 249.28125 77.839844 248.792969 77.351562 C 248.308594 76.863281 247.777344 76.429688 247.203125 76.046875 C 246.628906 75.664062 246.023438 75.339844 245.386719 75.074219 C 244.75 74.8125 244.09375 74.613281 243.417969 74.476562 C 242.742188 74.34375 242.058594 74.277344 241.371094 74.277344 C 240.679688 74.277344 239.996094 74.34375 239.320312 74.476562 C 238.644531 74.613281 237.988281 74.8125 237.351562 75.074219 C 236.714844 75.339844 236.109375 75.664062 235.535156 76.046875 C 234.964844 76.429688 234.433594 76.863281 233.945312 77.351562 C 233.457031 77.839844 233.023438 78.371094 232.640625 78.941406 C 232.257812 79.515625 231.933594 80.121094 231.667969 80.757812 C 231.40625 81.394531 231.207031 82.050781 231.070312 82.726562 C 230.9375 83.402344 230.871094 84.085938 230.871094 84.777344 L 230.871094 86.277344 L 221.871094 86.277344 C 220.886719 86.277344 219.910156 86.375 218.945312 86.566406 C 217.980469 86.761719 217.042969 87.046875 216.132812 87.421875 C 215.222656 87.800781 214.359375 88.261719 213.539062 88.808594 C 212.722656 89.355469 211.964844 89.980469 211.269531 90.675781 C 210.574219 91.371094 209.949219 92.128906 209.402344 92.945312 C 208.855469 93.765625 208.394531 94.628906 208.015625 95.539062 C 207.640625 96.449219 207.355469 97.386719 207.160156 98.351562 C 206.96875 99.316406 206.871094 100.292969 206.871094 101.277344 L 206.871094 194.277344 C 206.871094 194.671875 206.945312 195.054688 207.097656 195.425781 C 207.25 195.792969 207.46875 196.117188 207.75 196.398438 C 208.03125 196.679688 208.355469 196.894531 208.722656 197.046875 C 209.089844 197.199219 209.472656 197.277344 209.871094 197.277344 C 210.269531 197.277344 210.652344 197.199219 211.019531 197.046875 C 211.386719 196.894531 211.710938 196.679688 211.992188 196.398438 C 212.273438 196.117188 212.488281 195.792969 212.640625 195.425781 C 212.792969 195.054688 212.871094 194.671875 212.871094 194.277344 L 212.871094 128.277344 L 362.871094 128.277344 L 362.871094 200.277344 C 362.871094 200.671875 362.792969 201.054688 362.640625 201.425781 C 362.488281 201.792969 362.273438 202.117188 361.992188 202.398438 C 361.710938 202.679688 361.386719 202.894531 361.019531 203.046875 C 360.652344 203.199219 360.269531 203.277344 359.871094 203.277344 L 344.871094 203.277344 C 343.886719 203.277344 342.910156 203.375 341.945312 203.566406 C 340.980469 203.761719 340.042969 204.046875 339.132812 204.421875 C 338.222656 204.800781 337.359375 205.261719 336.539062 205.808594 C 335.722656 206.355469 334.964844 206.980469 334.269531 207.675781 C 333.574219 208.371094 332.949219 209.128906 332.402344 209.945312 C 331.855469 210.765625 331.394531 211.628906 331.015625 212.539062 C 330.640625 213.449219 330.355469 214.386719 330.160156 215.351562 C 329.96875 216.316406 329.871094 217.292969 329.871094 218.277344 L 329.871094 233.277344 C 329.871094 233.671875 329.792969 234.054688 329.640625 234.425781 C 329.488281 234.792969 329.273438 235.117188 328.992188 235.398438 C 328.710938 235.679688 328.386719 235.894531 328.019531 236.046875 C 327.652344 236.199219 327.269531 236.277344 326.871094 236.277344 L 221.871094 236.09375 C 221.277344 236.09375 220.695312 236.035156 220.113281 235.917969 C 219.535156 235.804688 218.972656 235.632812 218.425781 235.40625 C 217.878906 235.179688 217.359375 234.902344 216.871094 234.574219 C 216.378906 234.246094 215.925781 233.875 215.507812 233.457031 C 215.089844 233.039062 214.714844 232.582031 214.386719 232.09375 C 214.058594 231.601562 213.78125 231.082031 213.554688 230.535156 C 213.328125 229.992188 213.15625 229.425781 213.042969 228.847656 C 212.925781 228.269531 212.871094 227.683594 212.871094 227.09375 L 212.871094 218.277344 C 212.871094 217.878906 212.792969 217.496094 212.640625 217.128906 C 212.488281 216.761719 212.273438 216.4375 211.992188 216.15625 C 211.710938 215.875 211.386719 215.65625 211.019531 215.503906 C 210.652344 215.351562 210.269531 215.277344 209.871094 215.277344 C 209.472656 215.277344 209.089844 215.351562 208.722656 215.503906 C 208.355469 215.65625 208.03125 215.875 207.75 216.15625 C 207.46875 216.4375 207.25 216.761719 207.097656 217.128906 C 206.945312 217.496094 206.871094 217.878906 206.871094 218.277344 L 206.871094 239.277344 C 206.871094 240.261719 206.96875 241.234375 207.160156 242.199219 C 207.355469 243.167969 207.640625 244.105469 208.015625 245.011719 C 208.394531 245.921875 208.855469 246.785156 209.402344 247.605469 C 209.949219 248.421875 210.574219 249.179688 211.269531 249.878906 C 211.964844 250.574219 212.722656 251.195312 213.539062 251.742188 C 214.359375 252.289062 215.222656 252.75 216.132812 253.128906 C 217.042969 253.507812 217.980469 253.792969 218.945312 253.984375 C 219.910156 254.175781 220.886719 254.273438 221.871094 254.277344 L 353.871094 254.277344 C 354.855469 254.273438 355.828125 254.175781 356.796875 253.984375 C 357.761719 253.792969 358.699219 253.507812 359.605469 253.128906 C 360.515625 252.75 361.378906 252.289062 362.199219 251.742188 C 363.015625 251.195312 363.773438 250.574219 364.472656 249.878906 C 365.167969 249.179688 365.789062 248.421875 366.335938 247.605469 C 366.882812 246.785156 367.347656 245.921875 367.722656 245.011719 C 368.101562 244.105469 368.386719 243.167969 368.578125 242.199219 C 368.773438 241.234375 368.867188 240.261719 368.871094 239.277344 L 368.871094 101.277344 C 368.867188 100.292969 368.773438 99.316406 368.578125 98.351562 C 368.386719 97.386719 368.101562 96.449219 367.722656 95.539062 C 367.347656 94.628906 366.882812 93.765625 366.335938 92.945312 C 365.789062 92.128906 365.167969 91.371094 364.472656 90.675781 C 363.773438 89.980469 363.015625 89.355469 362.199219 88.808594 C 361.378906 88.261719 360.515625 87.800781 359.605469 87.421875 C 358.699219 87.046875 357.761719 86.761719 356.796875 86.566406 C 355.828125 86.375 354.855469 86.277344 353.871094 86.277344 Z M 329.871094 84.777344 C 329.871094 84.480469 329.898438 84.1875 329.957031 83.898438 C 330.015625 83.609375 330.097656 83.328125 330.210938 83.054688 C 330.324219 82.78125 330.464844 82.523438 330.628906 82.277344 C 330.792969 82.03125 330.980469 81.804688 331.1875 81.59375 C 331.398438 81.386719 331.625 81.199219 331.871094 81.035156 C 332.117188 80.871094 332.375 80.730469 332.648438 80.617188 C 332.921875 80.503906 333.203125 80.421875 333.492188 80.363281 C 333.78125 80.304688 334.074219 80.277344 334.371094 80.277344 C 334.664062 80.277344 334.957031 80.304688 335.246094 80.363281 C 335.539062 80.421875 335.820312 80.503906 336.09375 80.617188 C 336.363281 80.730469 336.625 80.871094 336.871094 81.035156 C 337.117188 81.199219 337.34375 81.386719 337.550781 81.59375 C 337.761719 81.804688 337.949219 82.03125 338.113281 82.277344 C 338.277344 82.523438 338.414062 82.78125 338.527344 83.054688 C 338.640625 83.328125 338.726562 83.609375 338.785156 83.898438 C 338.839844 84.1875 338.871094 84.480469 338.871094 84.777344 L 338.871094 96.777344 C 338.871094 97.070312 338.839844 97.363281 338.785156 97.652344 C 338.726562 97.945312 338.640625 98.226562 338.527344 98.5 C 338.414062 98.769531 338.277344 99.03125 338.113281 99.277344 C 337.949219 99.523438 337.761719 99.75 337.550781 99.957031 C 337.34375 100.167969 337.117188 100.351562 336.871094 100.519531 C 336.625 100.683594 336.363281 100.820312 336.09375 100.933594 C 335.820312 101.046875 335.539062 101.132812 335.246094 101.191406 C 334.957031 101.246094 334.664062 101.277344 334.371094 101.277344 C 334.074219 101.277344 333.78125 101.246094 333.492188 101.191406 C 333.203125 101.132812 332.921875 101.046875 332.648438 100.933594 C 332.375 100.820312 332.117188 100.683594 331.871094 100.519531 C 331.625 100.351562 331.398438 100.167969 331.1875 99.957031 C 330.980469 99.75 330.792969 99.523438 330.628906 99.277344 C 330.464844 99.03125 330.324219 98.769531 330.210938 98.5 C 330.097656 98.226562 330.015625 97.945312 329.957031 97.652344 C 329.898438 97.363281 329.871094 97.070312 329.871094 96.777344 Z M 283.371094 84.777344 C 283.371094 84.480469 283.398438 84.1875 283.457031 83.898438 C 283.515625 83.609375 283.597656 83.328125 283.710938 83.054688 C 283.824219 82.78125 283.964844 82.523438 284.128906 82.277344 C 284.292969 82.03125 284.480469 81.804688 284.6875 81.59375 C 284.898438 81.386719 285.125 81.199219 285.371094 81.035156 C 285.617188 80.871094 285.875 80.730469 286.148438 80.617188 C 286.421875 80.503906 286.703125 80.421875 286.992188 80.363281 C 287.28125 80.304688 287.574219 80.277344 287.871094 80.277344 C 288.164062 80.277344 288.457031 80.304688 288.746094 80.363281 C 289.039062 80.421875 289.320312 80.503906 289.59375 80.617188 C 289.863281 80.730469 290.125 80.871094 290.371094 81.035156 C 290.617188 81.199219 290.84375 81.386719 291.050781 81.59375 C 291.261719 81.804688 291.449219 82.03125 291.613281 82.277344 C 291.777344 82.523438 291.914062 82.78125 292.027344 83.054688 C 292.140625 83.328125 292.226562 83.609375 292.285156 83.898438 C 292.339844 84.1875 292.371094 84.480469 292.371094 84.777344 L 292.371094 96.777344 C 292.371094 97.070312 292.339844 97.363281 292.285156 97.652344 C 292.226562 97.945312 292.140625 98.226562 292.027344 98.5 C 291.914062 98.769531 291.777344 99.03125 291.613281 99.277344 C 291.449219 99.523438 291.261719 99.75 291.050781 99.957031 C 290.84375 100.167969 290.617188 100.351562 290.371094 100.519531 C 290.125 100.683594 289.863281 100.820312 289.59375 100.933594 C 289.320312 101.046875 289.039062 101.132812 288.746094 101.191406 C 288.457031 101.246094 288.164062 101.277344 287.871094 101.277344 C 287.574219 101.277344 287.28125 101.246094 286.992188 101.191406 C 286.703125 101.132812 286.421875 101.046875 286.148438 100.933594 C 285.875 100.820312 285.617188 100.683594 285.371094 100.519531 C 285.125 100.351562 284.898438 100.167969 284.6875 99.957031 C 284.480469 99.75 284.292969 99.523438 284.128906 99.277344 C 283.964844 99.03125 283.824219 98.769531 283.710938 98.5 C 283.597656 98.226562 283.515625 97.945312 283.457031 97.652344 C 283.398438 97.363281 283.371094 97.070312 283.371094 96.777344 Z M 236.871094 84.777344 C 236.871094 84.480469 236.898438 84.1875 236.957031 83.898438 C 237.015625 83.609375 237.097656 83.328125 237.210938 83.054688 C 237.324219 82.78125 237.464844 82.523438 237.628906 82.277344 C 237.792969 82.03125 237.980469 81.804688 238.1875 81.59375 C 238.398438 81.386719 238.625 81.199219 238.871094 81.035156 C 239.117188 80.871094 239.375 80.730469 239.648438 80.617188 C 239.921875 80.503906 240.203125 80.421875 240.492188 80.363281 C 240.78125 80.304688 241.074219 80.277344 241.371094 80.277344 C 241.664062 80.277344 241.957031 80.304688 242.246094 80.363281 C 242.539062 80.421875 242.820312 80.503906 243.09375 80.617188 C 243.363281 80.730469 243.625 80.871094 243.871094 81.035156 C 244.117188 81.199219 244.34375 81.386719 244.550781 81.59375 C 244.761719 81.804688 244.949219 82.03125 245.113281 82.277344 C 245.277344 82.523438 245.414062 82.78125 245.527344 83.054688 C 245.640625 83.328125 245.726562 83.609375 245.785156 83.898438 C 245.839844 84.1875 245.871094 84.480469 245.871094 84.777344 L 245.871094 96.777344 C 245.871094 97.070312 245.839844 97.363281 245.785156 97.652344 C 245.726562 97.945312 245.640625 98.226562 245.527344 98.5 C 245.414062 98.769531 245.277344 99.03125 245.113281 99.277344 C 244.949219 99.523438 244.761719 99.75 244.550781 99.957031 C 244.34375 100.167969 244.117188 100.351562 243.871094 100.519531 C 243.625 100.683594 243.363281 100.820312 243.09375 100.933594 C 242.820312 101.046875 242.539062 101.132812 242.246094 101.191406 C 241.957031 101.246094 241.664062 101.277344 241.371094 101.277344 C 241.074219 101.277344 240.78125 101.246094 240.492188 101.191406 C 240.203125 101.132812 239.921875 101.046875 239.648438 100.933594 C 239.375 100.820312 239.117188 100.683594 238.871094 100.519531 C 238.625 100.351562 238.398438 100.167969 238.1875 99.957031 C 237.980469 99.75 237.792969 99.523438 237.628906 99.277344 C 237.464844 99.03125 237.324219 98.769531 237.210938 98.5 C 237.097656 98.226562 237.015625 97.945312 236.957031 97.652344 C 236.898438 97.363281 236.871094 97.070312 236.871094 96.777344 Z M 212.871094 122.277344 L 212.871094 101.277344 C 212.871094 100.683594 212.925781 100.101562 213.042969 99.519531 C 213.15625 98.941406 213.328125 98.378906 213.554688 97.832031 C 213.78125 97.285156 214.058594 96.765625 214.386719 96.277344 C 214.714844 95.785156 215.089844 95.328125 215.507812 94.910156 C 215.925781 94.496094 216.378906 94.121094 216.871094 93.792969 C 217.359375 93.464844 217.878906 93.1875 218.425781 92.960938 C 218.972656 92.734375 219.535156 92.5625 220.113281 92.449219 C 220.695312 92.332031 221.277344 92.277344 221.871094 92.277344 L 230.871094 92.277344 L 230.871094 96.777344 C 230.871094 97.464844 230.9375 98.148438 231.070312 98.824219 C 231.207031 99.5 231.40625 100.15625 231.667969 100.792969 C 231.933594 101.429688 232.257812 102.035156 232.640625 102.609375 C 233.023438 103.183594 233.457031 103.714844 233.945312 104.199219 C 234.433594 104.6875 234.964844 105.125 235.535156 105.507812 C 236.109375 105.890625 236.714844 106.214844 237.351562 106.476562 C 237.988281 106.742188 238.644531 106.941406 239.320312 107.074219 C 239.996094 107.207031 240.679688 107.277344 241.371094 107.277344 C 242.058594 107.277344 242.742188 107.207031 243.417969 107.074219 C 244.09375 106.941406 244.75 106.742188 245.386719 106.476562 C 246.023438 106.214844 246.628906 105.890625 247.203125 105.507812 C 247.777344 105.125 248.308594 104.6875 248.792969 104.199219 C 249.28125 103.714844 249.71875 103.183594 250.101562 102.609375 C 250.484375 102.035156 250.808594 101.429688 251.070312 100.792969 C 251.335938 100.15625 251.535156 99.5 251.667969 98.824219 C 251.800781 98.148438 251.871094 97.464844 251.871094 96.777344 L 251.871094 92.277344 L 277.371094 92.277344 L 277.371094 96.777344 C 277.371094 97.464844 277.4375 98.148438 277.570312 98.824219 C 277.707031 99.5 277.90625 100.15625 278.167969 100.792969 C 278.433594 101.429688 278.757812 102.035156 279.140625 102.609375 C 279.523438 103.183594 279.957031 103.714844 280.445312 104.199219 C 280.933594 104.6875 281.464844 105.125 282.035156 105.507812 C 282.609375 105.890625 283.214844 106.214844 283.851562 106.476562 C 284.488281 106.742188 285.144531 106.941406 285.820312 107.074219 C 286.496094 107.207031 287.179688 107.277344 287.871094 107.277344 C 288.558594 107.277344 289.242188 107.207031 289.917969 107.074219 C 290.59375 106.941406 291.25 106.742188 291.886719 106.476562 C 292.523438 106.214844 293.128906 105.890625 293.703125 105.507812 C 294.277344 105.125 294.808594 104.6875 295.292969 104.199219 C 295.78125 103.714844 296.21875 103.183594 296.601562 102.609375 C 296.984375 102.035156 297.308594 101.429688 297.570312 100.792969 C 297.835938 100.15625 298.035156 99.5 298.167969 98.824219 C 298.300781 98.148438 298.371094 97.464844 298.371094 96.777344 L 298.371094 92.277344 L 323.871094 92.277344 L 323.871094 96.777344 C 323.871094 97.464844 323.9375 98.148438 324.070312 98.824219 C 324.207031 99.5 324.40625 100.15625 324.667969 100.792969 C 324.933594 101.429688 325.257812 102.035156 325.640625 102.609375 C 326.023438 103.183594 326.457031 103.714844 326.945312 104.199219 C 327.433594 104.6875 327.964844 105.125 328.535156 105.507812 C 329.109375 105.890625 329.714844 106.214844 330.351562 106.476562 C 330.988281 106.742188 331.644531 106.941406 332.320312 107.074219 C 332.996094 107.207031 333.679688 107.277344 334.371094 107.277344 C 335.058594 107.277344 335.742188 107.207031 336.417969 107.074219 C 337.09375 106.941406 337.75 106.742188 338.386719 106.476562 C 339.023438 106.214844 339.628906 105.890625 340.203125 105.507812 C 340.777344 105.125 341.308594 104.6875 341.792969 104.199219 C 342.28125 103.714844 342.71875 103.183594 343.101562 102.609375 C 343.484375 102.035156 343.808594 101.429688 344.070312 100.792969 C 344.335938 100.15625 344.535156 99.5 344.667969 98.824219 C 344.800781 98.148438 344.871094 97.464844 344.871094 96.777344 L 344.871094 92.277344 L 353.871094 92.277344 C 354.460938 92.277344 355.046875 92.332031 355.625 92.449219 C 356.207031 92.5625 356.769531 92.734375 357.3125 92.960938 C 357.859375 93.1875 358.378906 93.464844 358.871094 93.792969 C 359.363281 94.121094 359.816406 94.496094 360.234375 94.910156 C 360.652344 95.328125 361.023438 95.785156 361.351562 96.277344 C 361.679688 96.765625 361.957031 97.285156 362.183594 97.832031 C 362.410156 98.378906 362.582031 98.941406 362.695312 99.519531 C 362.8125 100.101562 362.871094 100.683594 362.871094 101.277344 L 362.871094 122.277344 Z M 335.871094 218.277344 C 335.871094 217.683594 335.925781 217.101562 336.042969 216.519531 C 336.15625 215.941406 336.328125 215.378906 336.554688 214.832031 C 336.78125 214.285156 337.058594 213.765625 337.386719 213.277344 C 337.714844 212.785156 338.089844 212.328125 338.507812 211.910156 C 338.925781 211.496094 339.378906 211.121094 339.871094 210.792969 C 340.359375 210.464844 340.878906 210.1875 341.425781 209.960938 C 341.972656 209.734375 342.535156 209.5625 343.113281 209.449219 C 343.695312 209.332031 344.277344 209.277344 344.871094 209.277344 L 358.632812 209.277344 L 335.871094 232.042969 Z M 353.871094 248.277344 L 221.871094 248.277344 C 221.269531 248.273438 220.671875 248.214844 220.082031 248.09375 C 219.492188 247.972656 218.921875 247.796875 218.367188 247.558594 C 217.8125 247.324219 217.289062 247.039062 216.792969 246.699219 C 216.296875 246.359375 215.835938 245.972656 215.417969 245.542969 C 215 245.109375 214.625 244.640625 214.300781 244.132812 C 213.976562 243.628906 213.703125 243.09375 213.484375 242.535156 C 213.265625 241.972656 213.105469 241.398438 213 240.804688 C 212.898438 240.210938 212.855469 239.613281 212.871094 239.011719 C 214.15625 240.003906 215.570312 240.761719 217.105469 241.289062 C 218.640625 241.8125 220.21875 242.082031 221.84375 242.09375 L 327.859375 242.277344 C 329.859375 242.277344 331.78125 241.894531 333.628906 241.132812 C 335.472656 240.371094 337.105469 239.28125 338.519531 237.875 L 362.871094 213.523438 L 362.871094 239.277344 C 362.871094 239.867188 362.8125 240.453125 362.695312 241.03125 C 362.582031 241.613281 362.410156 242.175781 362.183594 242.71875 C 361.957031 243.265625 361.679688 243.785156 361.351562 244.277344 C 361.023438 244.765625 360.652344 245.222656 360.234375 245.640625 C 359.816406 246.058594 359.363281 246.429688 358.871094 246.757812 C 358.378906 247.085938 357.859375 247.363281 357.3125 247.589844 C 356.769531 247.816406 356.207031 247.988281 355.625 248.101562 C 355.046875 248.21875 354.460938 248.277344 353.871094 248.277344 Z M 353.871094 248.277344 " fill-opacity="1" fill-rule="nonzero"/></g><g clip-path="url(#52b1955a98)"><path fill="#ffffff" d="M 212.871094 206.277344 C 212.871094 206.671875 212.792969 207.054688 212.640625 207.425781 C 212.488281 207.792969 212.273438 208.117188 211.992188 208.398438 C 211.710938 208.679688 211.386719 208.894531 211.019531 209.046875 C 210.652344 209.199219 210.269531 209.277344 209.871094 209.277344 C 209.472656 209.277344 209.089844 209.199219 208.722656 209.046875 C 208.355469 208.894531 208.03125 208.679688 207.75 208.398438 C 207.46875 208.117188 207.25 207.792969 207.097656 207.425781 C 206.945312 207.054688 206.871094 206.671875 206.871094 206.277344 C 206.871094 205.878906 206.945312 205.496094 207.097656 205.128906 C 207.25 204.761719 207.46875 204.4375 207.75 204.15625 C 208.03125 203.875 208.355469 203.65625 208.722656 203.503906 C 209.089844 203.351562 209.472656 203.277344 209.871094 203.277344 C 210.269531 203.277344 210.652344 203.351562 211.019531 203.503906 C 211.386719 203.65625 211.710938 203.875 211.992188 204.15625 C 212.273438 204.4375 212.488281 204.761719 212.640625 205.128906 C 212.792969 205.496094 212.871094 205.878906 212.871094 206.277344 Z M 212.871094 206.277344 " fill-opacity="1" fill-rule="nonzero"/></g><g fill="#ffffff" fill-opacity="1"><g transform="translate(69.485199, 367.207589)"><g><path d="M 20.015625 -10.90625 C 20.015625 -7.414062 19.050781 -4.722656 17.125 -2.828125 C 15.207031 -0.941406 12.507812 0 9.03125 0 L 2.265625 0 L 2.265625 -20.921875 L 9.5 -20.921875 C 12.851562 -20.921875 15.441406 -20.0625 17.265625 -18.34375 C 19.097656 -16.625 20.015625 -14.144531 20.015625 -10.90625 Z M 14.140625 -10.703125 C 14.140625 -12.617188 13.757812 -14.035156 13 -14.953125 C 12.25 -15.878906 11.101562 -16.34375 9.5625 -16.34375 L 7.90625 -16.34375 L 7.90625 -4.640625 L 9.171875 -4.640625 C 10.890625 -4.640625 12.144531 -5.132812 12.9375 -6.125 C 13.738281 -7.125 14.140625 -8.648438 14.140625 -10.703125 Z M 14.140625 -10.703125 "/></g></g></g><g fill="#ffffff" fill-opacity="1"><g transform="translate(90.97719, 367.207589)"><g><path d="M 12.5 0 L 11.4375 -2.140625 L 11.3125 -2.140625 C 10.5625 -1.210938 9.796875 -0.578125 9.015625 -0.234375 C 8.234375 0.109375 7.222656 0.28125 5.984375 0.28125 C 4.453125 0.28125 3.25 -0.171875 2.375 -1.078125 C 1.5 -1.992188 1.0625 -3.285156 1.0625 -4.953125 C 1.0625 -6.671875 1.660156 -7.953125 2.859375 -8.796875 C 4.054688 -9.648438 5.796875 -10.128906 8.078125 -10.234375 L 10.78125 -10.3125 L 10.78125 -10.546875 C 10.78125 -11.878906 10.125 -12.546875 8.8125 -12.546875 C 7.625 -12.546875 6.125 -12.144531 4.3125 -11.34375 L 2.6875 -15.03125 C 4.570312 -16.007812 6.957031 -16.5 9.84375 -16.5 C 11.914062 -16.5 13.519531 -15.984375 14.65625 -14.953125 C 15.800781 -13.921875 16.375 -12.476562 16.375 -10.625 L 16.375 0 Z M 8.359375 -3.65625 C 9.035156 -3.65625 9.613281 -3.867188 10.09375 -4.296875 C 10.570312 -4.734375 10.8125 -5.296875 10.8125 -5.984375 L 10.8125 -7.234375 L 9.53125 -7.1875 C 7.6875 -7.113281 6.765625 -6.4375 6.765625 -5.15625 C 6.765625 -4.15625 7.296875 -3.65625 8.359375 -3.65625 Z M 8.359375 -3.65625 "/></g></g></g><g fill="#ffffff" fill-opacity="1"><g transform="translate(109.223214, 367.207589)"><g><path d="M 9.875 -4.140625 C 10.625 -4.140625 11.523438 -4.320312 12.578125 -4.6875 L 12.578125 -0.609375 C 11.816406 -0.285156 11.097656 -0.0546875 10.421875 0.078125 C 9.742188 0.210938 8.945312 0.28125 8.03125 0.28125 C 6.144531 0.28125 4.785156 -0.175781 3.953125 -1.09375 C 3.128906 -2.007812 2.71875 -3.421875 2.71875 -5.328125 L 2.71875 -12.015625 L 0.765625 -12.015625 L 0.765625 -14.296875 L 3.25 -16.046875 L 4.6875 -19.453125 L 8.359375 -19.453125 L 8.359375 -16.203125 L 12.328125 -16.203125 L 12.328125 -12.015625 L 8.359375 -12.015625 L 8.359375 -5.703125 C 8.359375 -4.660156 8.863281 -4.140625 9.875 -4.140625 Z M 9.875 -4.140625 "/></g></g></g><g fill="#ffffff" fill-opacity="1"><g transform="translate(122.69324, 367.207589)"><g><path d="M 12.5 0 L 11.4375 -2.140625 L 11.3125 -2.140625 C 10.5625 -1.210938 9.796875 -0.578125 9.015625 -0.234375 C 8.234375 0.109375 7.222656 0.28125 5.984375 0.28125 C 4.453125 0.28125 3.25 -0.171875 2.375 -1.078125 C 1.5 -1.992188 1.0625 -3.285156 1.0625 -4.953125 C 1.0625 -6.671875 1.660156 -7.953125 2.859375 -8.796875 C 4.054688 -9.648438 5.796875 -10.128906 8.078125 -10.234375 L 10.78125 -10.3125 L 10.78125 -10.546875 C 10.78125 -11.878906 10.125 -12.546875 8.8125 -12.546875 C 7.625 -12.546875 6.125 -12.144531 4.3125 -11.34375 L 2.6875 -15.03125 C 4.570312 -16.007812 6.957031 -16.5 9.84375 -16.5 C 11.914062 -16.5 13.519531 -15.984375 14.65625 -14.953125 C 15.800781 -13.921875 16.375 -12.476562 16.375 -10.625 L 16.375 0 Z M 8.359375 -3.65625 C 9.035156 -3.65625 9.613281 -3.867188 10.09375 -4.296875 C 10.570312 -4.734375 10.8125 -5.296875 10.8125 -5.984375 L 10.8125 -7.234375 L 9.53125 -7.1875 C 7.6875 -7.113281 6.765625 -6.4375 6.765625 -5.15625 C 6.765625 -4.15625 7.296875 -3.65625 8.359375 -3.65625 Z M 8.359375 -3.65625 "/></g></g></g><g fill="#ffffff" fill-opacity="1"><g transform="translate(140.939264, 367.207589)"><g/></g></g><g fill="#ffffff" fill-opacity="1"><g transform="translate(148.54654, 367.207589)"><g><path d="M 20.015625 -10.90625 C 20.015625 -7.414062 19.050781 -4.722656 17.125 -2.828125 C 15.207031 -0.941406 12.507812 0 9.03125 0 L 2.265625 0 L 2.265625 -20.921875 L 9.5 -20.921875 C 12.851562 -20.921875 15.441406 -20.0625 17.265625 -18.34375 C 19.097656 -16.625 20.015625 -14.144531 20.015625 -10.90625 Z M 14.140625 -10.703125 C 14.140625 -12.617188 13.757812 -14.035156 13 -14.953125 C 12.25 -15.878906 11.101562 -16.34375 9.5625 -16.34375 L 7.90625 -16.34375 L 7.90625 -4.640625 L 9.171875 -4.640625 C 10.890625 -4.640625 12.144531 -5.132812 12.9375 -6.125 C 13.738281 -7.125 14.140625 -8.648438 14.140625 -10.703125 Z M 14.140625 -10.703125 "/></g></g></g><g fill="#ffffff" fill-opacity="1"><g transform="translate(170.038532, 367.207589)"><g><path d="M 7.546875 0 L 1.953125 0 L 1.953125 -16.203125 L 7.546875 -16.203125 Z M 1.8125 -20.234375 C 1.8125 -21.078125 2.046875 -21.703125 2.515625 -22.109375 C 2.984375 -22.523438 3.738281 -22.734375 4.78125 -22.734375 C 5.820312 -22.734375 6.578125 -22.519531 7.046875 -22.09375 C 7.523438 -21.675781 7.765625 -21.054688 7.765625 -20.234375 C 7.765625 -18.597656 6.769531 -17.78125 4.78125 -17.78125 C 2.800781 -17.78125 1.8125 -18.597656 1.8125 -20.234375 Z M 1.8125 -20.234375 "/></g></g></g><g fill="#ffffff" fill-opacity="1"><g transform="translate(179.561926, 367.207589)"><g><path d="M 12.5 0 L 11.4375 -2.140625 L 11.3125 -2.140625 C 10.5625 -1.210938 9.796875 -0.578125 9.015625 -0.234375 C 8.234375 0.109375 7.222656 0.28125 5.984375 0.28125 C 4.453125 0.28125 3.25 -0.171875 2.375 -1.078125 C 1.5 -1.992188 1.0625 -3.285156 1.0625 -4.953125 C 1.0625 -6.671875 1.660156 -7.953125 2.859375 -8.796875 C 4.054688 -9.648438 5.796875 -10.128906 8.078125 -10.234375 L 10.78125 -10.3125 L 10.78125 -10.546875 C 10.78125 -11.878906 10.125 -12.546875 8.8125 -12.546875 C 7.625 -12.546875 6.125 -12.144531 4.3125 -11.34375 L 2.6875 -15.03125 C 4.570312 -16.007812 6.957031 -16.5 9.84375 -16.5 C 11.914062 -16.5 13.519531 -15.984375 14.65625 -14.953125 C 15.800781 -13.921875 16.375 -12.476562 16.375 -10.625 L 16.375 0 Z M 8.359375 -3.65625 C 9.035156 -3.65625 9.613281 -3.867188 10.09375 -4.296875 C 10.570312 -4.734375 10.8125 -5.296875 10.8125 -5.984375 L 10.8125 -7.234375 L 9.53125 -7.1875 C 7.6875 -7.113281 6.765625 -6.4375 6.765625 -5.15625 C 6.765625 -4.15625 7.296875 -3.65625 8.359375 -3.65625 Z M 8.359375 -3.65625 "/></g></g></g><g fill="#ffffff" fill-opacity="1"><g transform="translate(197.80795, 367.207589)"><g><path d="M 11.71875 -16.5 C 12.207031 -16.5 12.671875 -16.457031 13.109375 -16.375 L 13.421875 -16.328125 L 12.921875 -11.046875 C 12.460938 -11.160156 11.828125 -11.21875 11.015625 -11.21875 C 9.796875 -11.21875 8.910156 -10.9375 8.359375 -10.375 C 7.804688 -9.820312 7.53125 -9.019531 7.53125 -7.96875 L 7.53125 0 L 1.9375 0 L 1.9375 -16.203125 L 6.09375 -16.203125 L 6.96875 -13.625 L 7.234375 -13.625 C 7.703125 -14.476562 8.351562 -15.171875 9.1875 -15.703125 C 10.019531 -16.234375 10.863281 -16.5 11.71875 -16.5 Z M 11.71875 -16.5 "/></g></g></g><g fill="#ffffff" fill-opacity="1"><g transform="translate(211.549671, 367.207589)"><g><path d="M 7.546875 0 L 1.953125 0 L 1.953125 -16.203125 L 7.546875 -16.203125 Z M 1.8125 -20.234375 C 1.8125 -21.078125 2.046875 -21.703125 2.515625 -22.109375 C 2.984375 -22.523438 3.738281 -22.734375 4.78125 -22.734375 C 5.820312 -22.734375 6.578125 -22.519531 7.046875 -22.09375 C 7.523438 -21.675781 7.765625 -21.054688 7.765625 -20.234375 C 7.765625 -18.597656 6.769531 -17.78125 4.78125 -17.78125 C 2.800781 -17.78125 1.8125 -18.597656 1.8125 -20.234375 Z M 1.8125 -20.234375 "/></g></g></g><g fill="#ffffff" fill-opacity="1"><g transform="translate(221.073065, 367.207589)"><g><path d="M 12.5 0 L 11.4375 -2.140625 L 11.3125 -2.140625 C 10.5625 -1.210938 9.796875 -0.578125 9.015625 -0.234375 C 8.234375 0.109375 7.222656 0.28125 5.984375 0.28125 C 4.453125 0.28125 3.25 -0.171875 2.375 -1.078125 C 1.5 -1.992188 1.0625 -3.285156 1.0625 -4.953125 C 1.0625 -6.671875 1.660156 -7.953125 2.859375 -8.796875 C 4.054688 -9.648438 5.796875 -10.128906 8.078125 -10.234375 L 10.78125 -10.3125 L 10.78125 -10.546875 C 10.78125 -11.878906 10.125 -12.546875 8.8125 -12.546875 C 7.625 -12.546875 6.125 -12.144531 4.3125 -11.34375 L 2.6875 -15.03125 C 4.570312 -16.007812 6.957031 -16.5 9.84375 -16.5 C 11.914062 -16.5 13.519531 -15.984375 14.65625 -14.953125 C 15.800781 -13.921875 16.375 -12.476562 16.375 -10.625 L 16.375 0 Z M 8.359375 -3.65625 C 9.035156 -3.65625 9.613281 -3.867188 10.09375 -4.296875 C 10.570312 -4.734375 10.8125 -5.296875 10.8125 -5.984375 L 10.8125 -7.234375 L 9.53125 -7.1875 C 7.6875 -7.113281 6.765625 -6.4375 6.765625 -5.15625 C 6.765625 -4.15625 7.296875 -3.65625 8.359375 -3.65625 Z M 8.359375 -3.65625 "/></g></g></g><g fill="#ffffff" fill-opacity="1"><g transform="translate(239.319089, 367.207589)"><g><path d="M 7.125 -4.28125 L 7.328125 -3.953125 C 6.398438 -0.316406 5.5625 2.359375 4.8125 4.078125 L 0.8125 4.078125 C 1.09375 2.765625 1.375 1.289062 1.65625 -0.34375 C 1.9375 -1.976562 2.128906 -3.289062 2.234375 -4.28125 Z M 7.125 -4.28125 "/></g></g></g><g fill="#ffffff" fill-opacity="1"><g transform="translate(248.370609, 367.207589)"><g/></g></g><g fill="#ffffff" fill-opacity="1"><g transform="translate(255.977886, 367.207589)"><g><path d="M 11.375 0 L 7.09375 -15.0625 L 6.96875 -15.0625 C 7.164062 -12.5 7.265625 -10.503906 7.265625 -9.078125 L 7.265625 0 L 2.265625 0 L 2.265625 -20.921875 L 9.78125 -20.921875 L 14.140625 -6.0625 L 14.265625 -6.0625 L 18.546875 -20.921875 L 26.078125 -20.921875 L 26.078125 0 L 20.890625 0 L 20.890625 -9.171875 C 20.890625 -9.648438 20.894531 -10.175781 20.90625 -10.75 C 20.914062 -11.332031 20.976562 -12.757812 21.09375 -15.03125 L 20.96875 -15.03125 L 16.75 0 Z M 11.375 0 "/></g></g></g><g fill="#ffffff" fill-opacity="1"><g transform="translate(284.290692, 367.207589)"><g><path d="M 9.75 0.28125 C 7.050781 0.28125 4.957031 -0.429688 3.46875 -1.859375 C 1.976562 -3.296875 1.234375 -5.34375 1.234375 -8 C 1.234375 -10.738281 1.921875 -12.835938 3.296875 -14.296875 C 4.679688 -15.765625 6.660156 -16.5 9.234375 -16.5 C 11.671875 -16.5 13.550781 -15.859375 14.875 -14.578125 C 16.207031 -13.304688 16.875 -11.472656 16.875 -9.078125 L 16.875 -6.59375 L 6.875 -6.59375 C 6.914062 -5.6875 7.25 -4.972656 7.875 -4.453125 C 8.5 -3.941406 9.347656 -3.6875 10.421875 -3.6875 C 11.410156 -3.6875 12.316406 -3.78125 13.140625 -3.96875 C 13.960938 -4.15625 14.859375 -4.472656 15.828125 -4.921875 L 15.828125 -0.90625 C 14.941406 -0.457031 14.03125 -0.148438 13.09375 0.015625 C 12.164062 0.191406 11.050781 0.28125 9.75 0.28125 Z M 9.421875 -12.6875 C 8.765625 -12.6875 8.210938 -12.476562 7.765625 -12.0625 C 7.328125 -11.644531 7.070312 -10.992188 7 -10.109375 L 11.796875 -10.109375 C 11.773438 -10.890625 11.550781 -11.515625 11.125 -11.984375 C 10.707031 -12.453125 10.140625 -12.6875 9.421875 -12.6875 Z M 9.421875 -12.6875 "/></g></g></g><g fill="#ffffff" fill-opacity="1"><g transform="translate(302.393734, 367.207589)"><g><path d="M 12.15625 0 L 12.15625 -8.84375 C 12.15625 -9.914062 12 -10.726562 11.6875 -11.28125 C 11.382812 -11.832031 10.890625 -12.109375 10.203125 -12.109375 C 9.253906 -12.109375 8.570312 -11.726562 8.15625 -10.96875 C 7.738281 -10.21875 7.53125 -8.925781 7.53125 -7.09375 L 7.53125 0 L 1.9375 0 L 1.9375 -16.203125 L 6.15625 -16.203125 L 6.859375 -14.203125 L 7.1875 -14.203125 C 7.65625 -14.960938 8.3125 -15.535156 9.15625 -15.921875 C 10 -16.304688 10.972656 -16.5 12.078125 -16.5 C 13.867188 -16.5 15.257812 -15.976562 16.25 -14.9375 C 17.25 -13.894531 17.75 -12.429688 17.75 -10.546875 L 17.75 0 Z M 12.15625 0 "/></g></g></g><g fill="#ffffff" fill-opacity="1"><g transform="translate(322.012499, 367.207589)"><g><path d="M 14.453125 -4.984375 C 14.453125 -3.242188 13.859375 -1.929688 12.671875 -1.046875 C 11.492188 -0.160156 9.796875 0.28125 7.578125 0.28125 C 6.378906 0.28125 5.335938 0.21875 4.453125 0.09375 C 3.566406 -0.03125 2.660156 -0.265625 1.734375 -0.609375 L 1.734375 -5.09375 C 2.597656 -4.707031 3.546875 -4.390625 4.578125 -4.140625 C 5.617188 -3.898438 6.546875 -3.78125 7.359375 -3.78125 C 8.566406 -3.78125 9.171875 -4.054688 9.171875 -4.609375 C 9.171875 -4.890625 9 -5.140625 8.65625 -5.359375 C 8.320312 -5.585938 7.335938 -6.03125 5.703125 -6.6875 C 4.210938 -7.289062 3.171875 -7.976562 2.578125 -8.75 C 1.992188 -9.53125 1.703125 -10.519531 1.703125 -11.71875 C 1.703125 -13.21875 2.28125 -14.390625 3.4375 -15.234375 C 4.601562 -16.078125 6.25 -16.5 8.375 -16.5 C 9.445312 -16.5 10.453125 -16.378906 11.390625 -16.140625 C 12.328125 -15.910156 13.300781 -15.570312 14.3125 -15.125 L 12.796875 -11.515625 C 12.054688 -11.847656 11.269531 -12.128906 10.4375 -12.359375 C 9.613281 -12.597656 8.9375 -12.71875 8.40625 -12.71875 C 7.488281 -12.71875 7.03125 -12.492188 7.03125 -12.046875 C 7.03125 -11.765625 7.191406 -11.523438 7.515625 -11.328125 C 7.835938 -11.140625 8.757812 -10.742188 10.28125 -10.140625 C 11.414062 -9.671875 12.257812 -9.210938 12.8125 -8.765625 C 13.375 -8.316406 13.785156 -7.789062 14.046875 -7.1875 C 14.316406 -6.582031 14.453125 -5.847656 14.453125 -4.984375 Z M 14.453125 -4.984375 "/></g></g></g><g fill="#ffffff" fill-opacity="1"><g transform="translate(337.627435, 367.207589)"><g><path d="M 13.46875 0 L 12.78125 -2.015625 L 12.453125 -2.015625 C 11.984375 -1.273438 11.328125 -0.707031 10.484375 -0.3125 C 9.648438 0.0820312 8.671875 0.28125 7.546875 0.28125 C 5.765625 0.28125 4.378906 -0.234375 3.390625 -1.265625 C 2.398438 -2.296875 1.90625 -3.757812 1.90625 -5.65625 L 1.90625 -16.203125 L 7.5 -16.203125 L 7.5 -7.359375 C 7.5 -6.296875 7.644531 -5.492188 7.9375 -4.953125 C 8.238281 -4.410156 8.734375 -4.140625 9.421875 -4.140625 C 10.390625 -4.140625 11.078125 -4.515625 11.484375 -5.265625 C 11.898438 -6.023438 12.109375 -7.304688 12.109375 -9.109375 L 12.109375 -16.203125 L 17.703125 -16.203125 L 17.703125 0 Z M 13.46875 0 "/></g></g></g><g fill="#ffffff" fill-opacity="1"><g transform="translate(357.2462, 367.207589)"><g><path d="M 12.5 0 L 11.4375 -2.140625 L 11.3125 -2.140625 C 10.5625 -1.210938 9.796875 -0.578125 9.015625 -0.234375 C 8.234375 0.109375 7.222656 0.28125 5.984375 0.28125 C 4.453125 0.28125 3.25 -0.171875 2.375 -1.078125 C 1.5 -1.992188 1.0625 -3.285156 1.0625 -4.953125 C 1.0625 -6.671875 1.660156 -7.953125 2.859375 -8.796875 C 4.054688 -9.648438 5.796875 -10.128906 8.078125 -10.234375 L 10.78125 -10.3125 L 10.78125 -10.546875 C 10.78125 -11.878906 10.125 -12.546875 8.8125 -12.546875 C 7.625 -12.546875 6.125 -12.144531 4.3125 -11.34375 L 2.6875 -15.03125 C 4.570312 -16.007812 6.957031 -16.5 9.84375 -16.5 C 11.914062 -16.5 13.519531 -15.984375 14.65625 -14.953125 C 15.800781 -13.921875 16.375 -12.476562 16.375 -10.625 L 16.375 0 Z M 8.359375 -3.65625 C 9.035156 -3.65625 9.613281 -3.867188 10.09375 -4.296875 C 10.570312 -4.734375 10.8125 -5.296875 10.8125 -5.984375 L 10.8125 -7.234375 L 9.53125 -7.1875 C 7.6875 -7.113281 6.765625 -6.4375 6.765625 -5.15625 C 6.765625 -4.15625 7.296875 -3.65625 8.359375 -3.65625 Z M 8.359375 -3.65625 "/></g></g></g><g fill="#ffffff" fill-opacity="1"><g transform="translate(375.492224, 367.207589)"><g><path d="M 7.53125 0 L 1.9375 0 L 1.9375 -22.265625 L 7.53125 -22.265625 Z M 7.53125 0 "/></g></g></g><g fill="#ffffff" fill-opacity="1"><g transform="translate(384.958409, 367.207589)"><g/></g></g><g fill="#ffffff" fill-opacity="1"><g transform="translate(392.565686, 367.207589)"><g><path d="M -0.03125 -16.203125 L 5.859375 -16.203125 L 8.609375 -6.90625 C 8.742188 -6.425781 8.835938 -5.84375 8.890625 -5.15625 L 9 -5.15625 C 9.070312 -5.8125 9.1875 -6.382812 9.34375 -6.875 L 12.15625 -16.203125 L 17.859375 -16.203125 L 11.453125 1.03125 C 10.640625 3.21875 9.632812 4.765625 8.4375 5.671875 C 7.238281 6.578125 5.675781 7.03125 3.75 7.03125 C 3 7.03125 2.234375 6.953125 1.453125 6.796875 L 1.453125 2.40625 C 1.960938 2.519531 2.539062 2.578125 3.1875 2.578125 C 3.6875 2.578125 4.117188 2.476562 4.484375 2.28125 C 4.859375 2.09375 5.179688 1.820312 5.453125 1.46875 C 5.734375 1.125 6.03125 0.554688 6.34375 -0.234375 Z M -0.03125 -16.203125 "/></g></g></g><g fill="#ffffff" fill-opacity="1"><g transform="translate(410.425632, 367.207589)"><g/></g></g><g fill="#ffffff" fill-opacity="1"><g transform="translate(418.032908, 367.207589)"><g><path d="M 15.09375 0 L 14.0625 -3.921875 L 7.265625 -3.921875 L 6.203125 0 L 0 0 L 6.828125 -21 L 14.359375 -21 L 21.265625 0 Z M 12.890625 -8.546875 L 11.984375 -11.984375 C 11.773438 -12.742188 11.519531 -13.726562 11.21875 -14.9375 C 10.914062 -16.15625 10.71875 -17.023438 10.625 -17.546875 C 10.539062 -17.066406 10.367188 -16.265625 10.109375 -15.140625 C 9.859375 -14.023438 9.300781 -11.828125 8.4375 -8.546875 Z M 12.890625 -8.546875 "/></g></g></g><g fill="#ffffff" fill-opacity="1"><g transform="translate(439.296098, 367.207589)"><g><path d="M 12.15625 0 L 12.15625 -8.84375 C 12.15625 -9.914062 12 -10.726562 11.6875 -11.28125 C 11.382812 -11.832031 10.890625 -12.109375 10.203125 -12.109375 C 9.253906 -12.109375 8.570312 -11.726562 8.15625 -10.96875 C 7.738281 -10.21875 7.53125 -8.925781 7.53125 -7.09375 L 7.53125 0 L 1.9375 0 L 1.9375 -16.203125 L 6.15625 -16.203125 L 6.859375 -14.203125 L 7.1875 -14.203125 C 7.65625 -14.960938 8.3125 -15.535156 9.15625 -15.921875 C 10 -16.304688 10.972656 -16.5 12.078125 -16.5 C 13.867188 -16.5 15.257812 -15.976562 16.25 -14.9375 C 17.25 -13.894531 17.75 -12.429688 17.75 -10.546875 L 17.75 0 Z M 12.15625 0 "/></g></g></g><g fill="#ffffff" fill-opacity="1"><g transform="translate(458.914886, 367.207589)"><g><path d="M 13.46875 0 L 12.78125 -2.015625 L 12.453125 -2.015625 C 11.984375 -1.273438 11.328125 -0.707031 10.484375 -0.3125 C 9.648438 0.0820312 8.671875 0.28125 7.546875 0.28125 C 5.765625 0.28125 4.378906 -0.234375 3.390625 -1.265625 C 2.398438 -2.296875 1.90625 -3.757812 1.90625 -5.65625 L 1.90625 -16.203125 L 7.5 -16.203125 L 7.5 -7.359375 C 7.5 -6.296875 7.644531 -5.492188 7.9375 -4.953125 C 8.238281 -4.410156 8.734375 -4.140625 9.421875 -4.140625 C 10.390625 -4.140625 11.078125 -4.515625 11.484375 -5.265625 C 11.898438 -6.023438 12.109375 -7.304688 12.109375 -9.109375 L 12.109375 -16.203125 L 17.703125 -16.203125 L 17.703125 0 Z M 13.46875 0 "/></g></g></g><g fill="#ffffff" fill-opacity="1"><g transform="translate(478.533628, 367.207589)"><g><path d="M 12.5 0 L 11.4375 -2.140625 L 11.3125 -2.140625 C 10.5625 -1.210938 9.796875 -0.578125 9.015625 -0.234375 C 8.234375 0.109375 7.222656 0.28125 5.984375 0.28125 C 4.453125 0.28125 3.25 -0.171875 2.375 -1.078125 C 1.5 -1.992188 1.0625 -3.285156 1.0625 -4.953125 C 1.0625 -6.671875 1.660156 -7.953125 2.859375 -8.796875 C 4.054688 -9.648438 5.796875 -10.128906 8.078125 -10.234375 L 10.78125 -10.3125 L 10.78125 -10.546875 C 10.78125 -11.878906 10.125 -12.546875 8.8125 -12.546875 C 7.625 -12.546875 6.125 -12.144531 4.3125 -11.34375 L 2.6875 -15.03125 C 4.570312 -16.007812 6.957031 -16.5 9.84375 -16.5 C 11.914062 -16.5 13.519531 -15.984375 14.65625 -14.953125 C 15.800781 -13.921875 16.375 -12.476562 16.375 -10.625 L 16.375 0 Z M 8.359375 -3.65625 C 9.035156 -3.65625 9.613281 -3.867188 10.09375 -4.296875 C 10.570312 -4.734375 10.8125 -5.296875 10.8125 -5.984375 L 10.8125 -7.234375 L 9.53125 -7.1875 C 7.6875 -7.113281 6.765625 -6.4375 6.765625 -5.15625 C 6.765625 -4.15625 7.296875 -3.65625 8.359375 -3.65625 Z M 8.359375 -3.65625 "/></g></g></g><g fill="#ffffff" fill-opacity="1"><g transform="translate(496.779629, 367.207589)"><g><path d="M 7.53125 0 L 1.9375 0 L 1.9375 -22.265625 L 7.53125 -22.265625 Z M 7.53125 0 "/></g></g></g></svg>