<svg xmlns="http://www.w3.org/2000/svg" xmlns:xlink="http://www.w3.org/1999/xlink" width="800" zoomAndPan="magnify" viewBox="0 0 600 449.999984" height="600" preserveAspectRatio="xMidYMid meet" version="1.0"><defs><g/><clipPath id="c5749a74b6"><path d="M 85.773438 7.652344 L 490 7.652344 L 490 321 L 85.773438 321 Z M 85.773438 7.652344 " clip-rule="nonzero"/></clipPath><clipPath id="27a8b5a551"><path d="M 106.773438 7.652344 L 468.964844 7.652344 C 480.5625 7.652344 489.964844 17.054688 489.964844 28.652344 L 489.964844 299.9375 C 489.964844 311.535156 480.5625 320.9375 468.964844 320.9375 L 106.773438 320.9375 C 95.175781 320.9375 85.773438 311.535156 85.773438 299.9375 L 85.773438 28.652344 C 85.773438 17.054688 95.175781 7.652344 106.773438 7.652344 " clip-rule="nonzero"/></clipPath><clipPath id="03316f7a0a"><path d="M 234 193 L 342 193 L 342 266.382812 L 234 266.382812 Z M 234 193 " clip-rule="nonzero"/></clipPath><clipPath id="da0af78a0b"><path d="M 285 62.382812 L 291 62.382812 L 291 73 L 285 73 Z M 285 62.382812 " clip-rule="nonzero"/></clipPath><clipPath id="d4d7be82b0"><path d="M 352 140 L 388.96875 140 L 388.96875 189 L 352 189 Z M 352 140 " clip-rule="nonzero"/></clipPath><clipPath id="b82987a47c"><path d="M 186.46875 137 L 230 137 L 230 193 L 186.46875 193 Z M 186.46875 137 " clip-rule="nonzero"/></clipPath></defs><g clip-path="url(#c5749a74b6)"><g clip-path="url(#27a8b5a551)"><path fill="#36adb9" d="M 85.773438 7.652344 L 490.070312 7.652344 L 490.070312 321.246094 L 85.773438 321.246094 Z M 85.773438 7.652344 " fill-opacity="1" fill-rule="nonzero"/></g></g><g clip-path="url(#03316f7a0a)"><path fill="#ffffff" d="M 339.125 261.535156 L 331.867188 261.535156 L 331.867188 229.964844 C 331.867188 228.621094 330.792969 227.542969 329.449219 227.542969 L 327.027344 227.542969 L 327.027344 222.691406 L 329.449219 222.691406 C 330.792969 222.691406 331.867188 221.613281 331.867188 220.265625 C 331.867188 218.921875 330.792969 217.84375 329.449219 217.84375 L 312.46875 217.84375 L 312.46875 205.71875 C 312.46875 204.371094 311.394531 203.292969 310.050781 203.292969 L 302.792969 203.292969 L 302.792969 198.445312 L 310.050781 198.445312 C 311.394531 198.445312 312.46875 197.367188 312.46875 196.019531 C 312.46875 194.671875 311.394531 193.59375 310.050781 193.59375 L 266.460938 193.59375 C 265.117188 193.59375 264.042969 194.671875 264.042969 196.019531 C 264.042969 197.367188 265.117188 198.445312 266.460938 198.445312 L 273.71875 198.445312 L 273.71875 203.292969 L 266.460938 203.292969 C 265.117188 203.292969 264.042969 204.371094 264.042969 205.71875 L 264.042969 217.84375 L 247.066406 217.84375 C 245.71875 217.84375 244.644531 218.921875 244.644531 220.265625 C 244.644531 221.613281 245.71875 222.691406 247.066406 222.691406 L 249.484375 222.691406 L 249.484375 227.542969 L 247.066406 227.542969 C 245.71875 227.542969 244.644531 228.621094 244.644531 229.964844 L 244.644531 261.535156 L 237.386719 261.535156 C 236.042969 261.535156 234.96875 262.613281 234.96875 263.960938 C 234.96875 265.304688 236.042969 266.382812 237.386719 266.382812 L 339.125 266.382812 C 340.46875 266.382812 341.542969 265.304688 341.542969 263.960938 C 341.542969 262.613281 340.46875 261.535156 339.125 261.535156 Z M 322.191406 222.648438 L 322.191406 227.496094 L 312.515625 227.496094 L 312.515625 222.648438 Z M 278.558594 198.398438 L 297.957031 198.398438 L 297.957031 203.25 L 278.558594 203.25 Z M 254.320312 222.648438 L 264.042969 222.648438 L 264.042969 227.496094 L 254.367188 227.496094 L 254.367188 222.648438 Z M 249.484375 246.941406 L 251.902344 246.941406 C 253.246094 246.941406 254.320312 245.863281 254.320312 244.515625 C 254.320312 243.167969 253.246094 242.089844 251.902344 242.089844 L 249.484375 242.089844 L 249.484375 232.390625 L 264.042969 232.390625 L 264.042969 261.535156 L 249.527344 261.535156 L 249.527344 246.941406 Z M 268.882812 251.789062 L 295.535156 251.789062 C 296.878906 251.789062 297.957031 250.710938 297.957031 249.367188 C 297.957031 248.019531 296.878906 246.941406 295.535156 246.941406 L 268.882812 246.941406 L 268.882812 237.242188 L 295.535156 237.242188 C 296.878906 237.242188 297.957031 236.164062 297.957031 234.816406 C 297.957031 233.46875 296.878906 232.390625 295.535156 232.390625 L 268.882812 232.390625 L 268.882812 222.691406 L 295.535156 222.691406 C 296.878906 222.691406 297.957031 221.613281 297.957031 220.265625 C 297.957031 218.921875 296.878906 217.84375 295.535156 217.84375 L 268.882812 217.84375 L 268.882812 208.144531 L 307.632812 208.144531 L 307.632812 261.578125 L 268.882812 261.578125 Z M 312.46875 261.535156 L 312.46875 232.390625 L 326.984375 232.390625 L 326.984375 242.089844 L 324.566406 242.089844 C 323.222656 242.089844 322.144531 243.167969 322.144531 244.515625 C 322.144531 245.863281 323.222656 246.941406 324.566406 246.941406 L 326.984375 246.941406 L 326.984375 261.488281 L 312.46875 261.488281 Z M 312.46875 261.535156 " fill-opacity="1" fill-rule="nonzero"/></g><path fill="#ffffff" d="M 288.234375 120.667969 C 300.238281 120.667969 310.050781 110.878906 310.050781 98.800781 C 310.050781 86.722656 300.285156 76.933594 288.234375 76.933594 C 276.183594 76.933594 266.417969 86.722656 266.417969 98.800781 C 266.417969 110.878906 276.226562 120.667969 288.234375 120.667969 Z M 288.234375 81.828125 C 297.597656 81.828125 305.210938 89.460938 305.210938 98.847656 C 305.210938 108.230469 297.597656 115.820312 288.234375 115.820312 C 278.871094 115.820312 271.253906 108.1875 271.253906 98.800781 C 271.253906 89.417969 278.917969 81.828125 288.234375 81.828125 Z M 288.234375 81.828125 " fill-opacity="1" fill-rule="nonzero"/><g clip-path="url(#da0af78a0b)"><path fill="#ffffff" d="M 288.234375 72.082031 C 289.578125 72.082031 290.652344 71.003906 290.652344 69.660156 L 290.652344 64.808594 C 290.652344 63.460938 289.578125 62.382812 288.234375 62.382812 C 286.890625 62.382812 285.816406 63.460938 285.816406 64.808594 L 285.816406 69.660156 C 285.816406 71.003906 286.890625 72.082031 288.234375 72.082031 Z M 288.234375 72.082031 " fill-opacity="1" fill-rule="nonzero"/></g><path fill="#ffffff" d="M 285.816406 127.945312 L 285.816406 132.792969 C 285.816406 134.140625 286.890625 135.21875 288.234375 135.21875 C 289.578125 135.21875 290.652344 134.140625 290.652344 132.792969 L 290.652344 127.945312 C 290.652344 126.597656 289.578125 125.519531 288.234375 125.519531 C 286.890625 125.519531 285.816406 126.597656 285.816406 127.945312 Z M 285.816406 127.945312 " fill-opacity="1" fill-rule="nonzero"/><path fill="#ffffff" d="M 308.796875 80.617188 C 309.421875 80.617188 310.050781 80.390625 310.5 79.898438 L 313.902344 76.4375 C 314.84375 75.496094 314.84375 73.96875 313.902344 73.027344 C 312.960938 72.082031 311.441406 72.082031 310.453125 73.027344 L 307.050781 76.484375 C 306.109375 77.425781 306.109375 78.953125 307.050781 79.898438 C 307.585938 80.390625 308.167969 80.617188 308.796875 80.617188 Z M 308.796875 80.617188 " fill-opacity="1" fill-rule="nonzero"/><path fill="#ffffff" d="M 264.265625 125.296875 C 264.894531 125.296875 265.519531 125.070312 265.96875 124.578125 L 269.375 121.117188 C 270.316406 120.175781 270.316406 118.648438 269.375 117.707031 C 268.433594 116.761719 266.910156 116.761719 265.925781 117.707031 L 262.519531 121.164062 C 261.578125 122.105469 261.578125 123.632812 262.519531 124.578125 C 263.011719 125.027344 263.640625 125.296875 264.265625 125.296875 Z M 264.265625 125.296875 " fill-opacity="1" fill-rule="nonzero"/><path fill="#ffffff" d="M 317.308594 101.226562 L 322.144531 101.226562 C 323.488281 101.226562 324.566406 100.148438 324.566406 98.800781 C 324.566406 97.453125 323.488281 96.375 322.144531 96.375 L 317.308594 96.375 C 315.964844 96.375 314.890625 97.453125 314.890625 98.800781 C 314.890625 100.148438 315.964844 101.226562 317.308594 101.226562 Z M 317.308594 101.226562 " fill-opacity="1" fill-rule="nonzero"/><path fill="#ffffff" d="M 254.320312 101.226562 L 259.160156 101.226562 C 260.503906 101.226562 261.578125 100.148438 261.578125 98.800781 C 261.578125 97.453125 260.503906 96.375 259.160156 96.375 L 254.320312 96.375 C 252.976562 96.375 251.902344 97.453125 251.902344 98.800781 C 251.902344 100.148438 252.976562 101.226562 254.320312 101.226562 Z M 254.320312 101.226562 " fill-opacity="1" fill-rule="nonzero"/><path fill="#ffffff" d="M 310.542969 117.707031 C 309.601562 116.761719 308.078125 116.761719 307.09375 117.707031 C 306.152344 118.648438 306.152344 120.175781 307.09375 121.117188 L 310.5 124.578125 C 310.992188 125.070312 311.574219 125.296875 312.199219 125.296875 C 312.828125 125.296875 313.457031 125.070312 313.902344 124.578125 C 314.84375 123.632812 314.84375 122.105469 313.902344 121.164062 Z M 310.542969 117.707031 " fill-opacity="1" fill-rule="nonzero"/><path fill="#ffffff" d="M 265.96875 79.941406 C 266.460938 80.4375 267.042969 80.660156 267.671875 80.660156 C 268.300781 80.660156 268.925781 80.4375 269.375 79.941406 C 270.316406 79 270.316406 77.472656 269.375 76.527344 L 265.96875 73.070312 C 265.027344 72.128906 263.503906 72.128906 262.519531 73.070312 C 261.578125 74.015625 261.578125 75.542969 262.519531 76.484375 Z M 265.96875 79.941406 " fill-opacity="1" fill-rule="nonzero"/><g clip-path="url(#d4d7be82b0)"><path fill="#ffffff" d="M 388.539062 156.1875 C 388.179688 155.292969 387.28125 154.707031 386.296875 154.707031 L 379.53125 154.707031 L 384.460938 143.570312 C 384.773438 142.808594 384.730469 141.953125 384.28125 141.28125 C 383.832031 140.605469 383.070312 140.160156 382.265625 140.160156 L 361.390625 140.160156 C 360.359375 140.160156 359.417969 140.832031 359.105469 141.820312 L 352.652344 161.171875 C 352.386719 161.890625 352.519531 162.746094 352.96875 163.375 C 353.414062 164.003906 354.175781 164.363281 354.9375 164.363281 L 361.835938 164.363281 L 354.9375 185.464844 C 354.582031 186.542969 355.027344 187.710938 355.96875 188.296875 C 356.371094 188.519531 356.820312 188.65625 357.222656 188.65625 C 357.851562 188.65625 358.476562 188.429688 358.925781 187.9375 L 388 158.792969 C 388.714844 158.121094 388.941406 157.085938 388.539062 156.1875 Z M 362.6875 177.339844 L 367.480469 162.746094 C 367.707031 162.027344 367.617188 161.171875 367.125 160.542969 C 366.675781 159.917969 365.957031 159.558594 365.152344 159.558594 L 358.253906 159.558594 L 363.09375 145.007812 L 378.503906 145.007812 L 373.574219 156.144531 C 373.261719 156.90625 373.304688 157.761719 373.753906 158.433594 C 374.203125 159.109375 374.964844 159.558594 375.769531 159.558594 L 380.382812 159.558594 Z M 362.6875 177.339844 " fill-opacity="1" fill-rule="nonzero"/></g><g clip-path="url(#b82987a47c)"><path fill="#ffffff" d="M 227.53125 164.183594 C 225.070312 159.378906 218.839844 151.878906 212.703125 146.398438 C 206.792969 141.101562 198.503906 135.441406 192.636719 138.453125 C 186.765625 141.460938 186.496094 151.519531 187.304688 159.421875 C 188.15625 167.640625 190.527344 177.070312 192.992188 181.875 C 195.367188 186.5 199.355469 189.914062 204.28125 191.527344 C 206.253906 192.15625 208.269531 192.472656 210.285156 192.472656 C 213.332031 192.472656 216.332031 191.753906 219.109375 190.316406 C 228.609375 185.464844 232.414062 173.703125 227.53125 164.183594 Z M 218.929688 184.660156 L 210.777344 168.71875 L 213.734375 159.511719 C 214.136719 158.210938 213.464844 156.863281 212.167969 156.457031 C 210.867188 156.054688 209.523438 156.726562 209.121094 158.03125 L 207.640625 162.609375 L 204.683594 156.773438 C 204.058594 155.558594 202.625 155.113281 201.414062 155.695312 C 200.207031 156.324219 199.757812 157.761719 200.339844 158.972656 L 207.417969 172.847656 L 203.253906 171.769531 C 201.953125 171.410156 200.652344 172.21875 200.296875 173.523438 C 199.980469 174.824219 200.742188 176.125 202.042969 176.484375 L 210.375 178.640625 L 214.585938 186.859375 C 211.71875 187.757812 208.671875 187.800781 205.761719 186.859375 C 202.085938 185.644531 199.039062 183.085938 197.292969 179.628906 C 195.414062 175.992188 192.992188 167.460938 192.097656 158.882812 C 191.023438 148.554688 192.769531 143.75 194.785156 142.761719 C 195.1875 142.582031 195.636719 142.449219 196.261719 142.449219 C 198.773438 142.449219 203.164062 144.425781 209.433594 149.992188 C 215.886719 155.738281 221.304688 162.746094 223.1875 166.382812 C 226.503906 172.804688 224.53125 180.527344 218.929688 184.660156 Z M 218.929688 184.660156 " fill-opacity="1" fill-rule="nonzero"/></g><path fill="#ffffff" d="M 350.953125 196.242188 C 349.785156 195.570312 348.308594 196.019531 347.679688 197.1875 C 344.859375 202.304688 341.410156 207.019531 337.378906 211.242188 C 336.4375 212.230469 336.480469 213.757812 337.46875 214.65625 C 337.960938 215.101562 338.542969 215.328125 339.125 215.328125 C 339.753906 215.328125 340.425781 215.058594 340.871094 214.566406 C 345.171875 210.027344 348.890625 204.957031 351.890625 199.476562 C 352.5625 198.398438 352.160156 196.917969 350.953125 196.242188 Z M 350.953125 196.242188 " fill-opacity="1" fill-rule="nonzero"/><path fill="#ffffff" d="M 354.445312 134.230469 C 351.085938 126.820312 346.515625 120.042969 340.871094 114.113281 C 339.929688 113.125 338.40625 113.125 337.46875 114.023438 C 336.480469 114.96875 336.480469 116.492188 337.378906 117.4375 C 342.617188 122.960938 346.875 129.292969 350.011719 136.207031 C 350.414062 137.105469 351.308594 137.644531 352.207031 137.644531 C 352.519531 137.644531 352.878906 137.554688 353.191406 137.417969 C 354.445312 136.878906 354.984375 135.441406 354.445312 134.230469 Z M 354.445312 134.230469 " fill-opacity="1" fill-rule="nonzero"/><path fill="#ffffff" d="M 221.441406 142.359375 C 221.707031 142.449219 221.976562 142.492188 222.292969 142.492188 C 223.277344 142.492188 224.21875 141.863281 224.574219 140.921875 C 227.800781 132.164062 232.683594 124.261719 239.136719 117.480469 C 240.074219 116.492188 240.03125 114.96875 239.046875 114.070312 C 238.105469 113.171875 236.535156 113.171875 235.640625 114.160156 C 228.742188 121.433594 223.457031 129.875 220.050781 139.261719 C 219.558594 140.515625 220.1875 141.910156 221.441406 142.359375 Z M 221.441406 142.359375 " fill-opacity="1" fill-rule="nonzero"/><path fill="#ffffff" d="M 237.386719 215.371094 C 237.96875 215.371094 238.597656 215.148438 239.046875 214.699219 C 240.03125 213.757812 240.03125 212.230469 239.136719 211.285156 C 235.101562 207.066406 231.652344 202.304688 228.832031 197.230469 C 228.203125 196.0625 226.726562 195.613281 225.515625 196.289062 C 224.351562 196.917969 223.902344 198.398438 224.574219 199.566406 C 227.578125 205.046875 231.296875 210.117188 235.597656 214.65625 C 236.089844 215.148438 236.714844 215.371094 237.386719 215.371094 Z M 237.386719 215.371094 " fill-opacity="1" fill-rule="nonzero"/><g fill="#ffffff" fill-opacity="1"><g transform="translate(23.799659, 367.207471)"><g><path d="M 17.4375 -14.265625 C 17.4375 -11.921875 16.742188 -10.113281 15.359375 -8.84375 C 13.984375 -7.570312 12.03125 -6.9375 9.5 -6.9375 L 7.90625 -6.9375 L 7.90625 0 L 2.265625 0 L 2.265625 -20.921875 L 9.5 -20.921875 C 12.144531 -20.921875 14.128906 -20.34375 15.453125 -19.1875 C 16.773438 -18.03125 17.4375 -16.390625 17.4375 -14.265625 Z M 7.90625 -11.546875 L 8.9375 -11.546875 C 9.789062 -11.546875 10.46875 -11.78125 10.96875 -12.25 C 11.46875 -12.726562 11.71875 -13.390625 11.71875 -14.234375 C 11.71875 -15.640625 10.9375 -16.34375 9.375 -16.34375 L 7.90625 -16.34375 Z M 7.90625 -11.546875 "/></g></g></g><g fill="#ffffff" fill-opacity="1"><g transform="translate(42.303072, 367.207471)"><g><path d="M 11.71875 -16.5 C 12.207031 -16.5 12.671875 -16.457031 13.109375 -16.375 L 13.421875 -16.328125 L 12.921875 -11.046875 C 12.460938 -11.160156 11.828125 -11.21875 11.015625 -11.21875 C 9.796875 -11.21875 8.910156 -10.9375 8.359375 -10.375 C 7.804688 -9.820312 7.53125 -9.019531 7.53125 -7.96875 L 7.53125 0 L 1.9375 0 L 1.9375 -16.203125 L 6.09375 -16.203125 L 6.96875 -13.625 L 7.234375 -13.625 C 7.703125 -14.476562 8.351562 -15.171875 9.1875 -15.703125 C 10.019531 -16.234375 10.863281 -16.5 11.71875 -16.5 Z M 11.71875 -16.5 "/></g></g></g><g fill="#ffffff" fill-opacity="1"><g transform="translate(56.044792, 367.207471)"><g><path d="M 17.40625 -8.140625 C 17.40625 -5.484375 16.691406 -3.414062 15.265625 -1.9375 C 13.835938 -0.457031 11.84375 0.28125 9.28125 0.28125 C 6.820312 0.28125 4.863281 -0.472656 3.40625 -1.984375 C 1.957031 -3.503906 1.234375 -5.554688 1.234375 -8.140625 C 1.234375 -10.785156 1.941406 -12.835938 3.359375 -14.296875 C 4.785156 -15.765625 6.789062 -16.5 9.375 -16.5 C 10.96875 -16.5 12.375 -16.160156 13.59375 -15.484375 C 14.8125 -14.804688 15.75 -13.832031 16.40625 -12.5625 C 17.070312 -11.300781 17.40625 -9.828125 17.40625 -8.140625 Z M 6.90625 -8.140625 C 6.90625 -6.742188 7.09375 -5.679688 7.46875 -4.953125 C 7.84375 -4.222656 8.46875 -3.859375 9.34375 -3.859375 C 10.207031 -3.859375 10.816406 -4.222656 11.171875 -4.953125 C 11.535156 -5.679688 11.71875 -6.742188 11.71875 -8.140625 C 11.71875 -9.523438 11.535156 -10.566406 11.171875 -11.265625 C 10.804688 -11.972656 10.1875 -12.328125 9.3125 -12.328125 C 8.457031 -12.328125 7.84375 -11.976562 7.46875 -11.28125 C 7.09375 -10.582031 6.90625 -9.535156 6.90625 -8.140625 Z M 6.90625 -8.140625 "/></g></g></g><g fill="#ffffff" fill-opacity="1"><g transform="translate(74.705504, 367.207471)"><g><path d="M 6.96875 0.28125 C 5.8125 0.28125 4.800781 -0.046875 3.9375 -0.703125 C 3.070312 -1.359375 2.40625 -2.320312 1.9375 -3.59375 C 1.46875 -4.875 1.234375 -6.367188 1.234375 -8.078125 C 1.234375 -10.710938 1.757812 -12.773438 2.8125 -14.265625 C 3.875 -15.753906 5.332031 -16.5 7.1875 -16.5 C 8.09375 -16.5 8.882812 -16.316406 9.5625 -15.953125 C 10.238281 -15.585938 10.863281 -14.976562 11.4375 -14.125 L 11.546875 -14.125 C 11.359375 -15.382812 11.265625 -16.648438 11.265625 -17.921875 L 11.265625 -22.265625 L 16.90625 -22.265625 L 16.90625 0 L 12.6875 0 L 11.484375 -2.046875 L 11.265625 -2.046875 C 10.304688 -0.492188 8.875 0.28125 6.96875 0.28125 Z M 9.25 -4.140625 C 10.144531 -4.140625 10.773438 -4.421875 11.140625 -4.984375 C 11.515625 -5.546875 11.71875 -6.410156 11.75 -7.578125 L 11.75 -8.03125 C 11.75 -9.457031 11.539062 -10.472656 11.125 -11.078125 C 10.71875 -11.679688 10.078125 -11.984375 9.203125 -11.984375 C 8.460938 -11.984375 7.890625 -11.632812 7.484375 -10.9375 C 7.078125 -10.25 6.875 -9.269531 6.875 -8 C 6.875 -6.738281 7.078125 -5.78125 7.484375 -5.125 C 7.898438 -4.46875 8.488281 -4.140625 9.25 -4.140625 Z M 9.25 -4.140625 "/></g></g></g><g fill="#ffffff" fill-opacity="1"><g transform="translate(93.537809, 367.207471)"><g><path d="M 13.46875 0 L 12.78125 -2.015625 L 12.453125 -2.015625 C 11.984375 -1.273438 11.328125 -0.707031 10.484375 -0.3125 C 9.648438 0.0820312 8.671875 0.28125 7.546875 0.28125 C 5.765625 0.28125 4.378906 -0.234375 3.390625 -1.265625 C 2.398438 -2.296875 1.90625 -3.757812 1.90625 -5.65625 L 1.90625 -16.203125 L 7.5 -16.203125 L 7.5 -7.359375 C 7.5 -6.296875 7.644531 -5.492188 7.9375 -4.953125 C 8.238281 -4.410156 8.734375 -4.140625 9.421875 -4.140625 C 10.390625 -4.140625 11.078125 -4.515625 11.484375 -5.265625 C 11.898438 -6.023438 12.109375 -7.304688 12.109375 -9.109375 L 12.109375 -16.203125 L 17.703125 -16.203125 L 17.703125 0 Z M 13.46875 0 "/></g></g></g><g fill="#ffffff" fill-opacity="1"><g transform="translate(113.156574, 367.207471)"><g><path d="M 9.3125 0.28125 C 6.65625 0.28125 4.644531 -0.429688 3.28125 -1.859375 C 1.914062 -3.285156 1.234375 -5.34375 1.234375 -8.03125 C 1.234375 -10.71875 1.972656 -12.800781 3.453125 -14.28125 C 4.929688 -15.757812 7.03125 -16.5 9.75 -16.5 C 11.632812 -16.5 13.40625 -16.085938 15.0625 -15.265625 L 13.421875 -11.125 C 12.742188 -11.425781 12.117188 -11.664062 11.546875 -11.84375 C 10.972656 -12.019531 10.375 -12.109375 9.75 -12.109375 C 8.84375 -12.109375 8.140625 -11.753906 7.640625 -11.046875 C 7.148438 -10.335938 6.90625 -9.335938 6.90625 -8.046875 C 6.90625 -5.453125 7.863281 -4.15625 9.78125 -4.15625 C 11.425781 -4.15625 13 -4.632812 14.5 -5.59375 L 14.5 -1.140625 C 13.0625 -0.191406 11.332031 0.28125 9.3125 0.28125 Z M 9.3125 0.28125 "/></g></g></g><g fill="#ffffff" fill-opacity="1"><g transform="translate(128.943102, 367.207471)"><g><path d="M 9.3125 0.28125 C 6.65625 0.28125 4.644531 -0.429688 3.28125 -1.859375 C 1.914062 -3.285156 1.234375 -5.34375 1.234375 -8.03125 C 1.234375 -10.71875 1.972656 -12.800781 3.453125 -14.28125 C 4.929688 -15.757812 7.03125 -16.5 9.75 -16.5 C 11.632812 -16.5 13.40625 -16.085938 15.0625 -15.265625 L 13.421875 -11.125 C 12.742188 -11.425781 12.117188 -11.664062 11.546875 -11.84375 C 10.972656 -12.019531 10.375 -12.109375 9.75 -12.109375 C 8.84375 -12.109375 8.140625 -11.753906 7.640625 -11.046875 C 7.148438 -10.335938 6.90625 -9.335938 6.90625 -8.046875 C 6.90625 -5.453125 7.863281 -4.15625 9.78125 -4.15625 C 11.425781 -4.15625 13 -4.632812 14.5 -5.59375 L 14.5 -1.140625 C 13.0625 -0.191406 11.332031 0.28125 9.3125 0.28125 Z M 9.3125 0.28125 "/></g></g></g><g fill="#ffffff" fill-opacity="1"><g transform="translate(144.729631, 367.207471)"><g><path d="M 7.546875 0 L 1.953125 0 L 1.953125 -16.203125 L 7.546875 -16.203125 Z M 1.8125 -20.234375 C 1.8125 -21.078125 2.046875 -21.703125 2.515625 -22.109375 C 2.984375 -22.523438 3.738281 -22.734375 4.78125 -22.734375 C 5.820312 -22.734375 6.578125 -22.519531 7.046875 -22.09375 C 7.523438 -21.675781 7.765625 -21.054688 7.765625 -20.234375 C 7.765625 -18.597656 6.769531 -17.78125 4.78125 -17.78125 C 2.800781 -17.78125 1.8125 -18.597656 1.8125 -20.234375 Z M 1.8125 -20.234375 "/></g></g></g><g fill="#ffffff" fill-opacity="1"><g transform="translate(154.253025, 367.207471)"><g><path d="M 17.40625 -8.140625 C 17.40625 -5.484375 16.691406 -3.414062 15.265625 -1.9375 C 13.835938 -0.457031 11.84375 0.28125 9.28125 0.28125 C 6.820312 0.28125 4.863281 -0.472656 3.40625 -1.984375 C 1.957031 -3.503906 1.234375 -5.554688 1.234375 -8.140625 C 1.234375 -10.785156 1.941406 -12.835938 3.359375 -14.296875 C 4.785156 -15.765625 6.789062 -16.5 9.375 -16.5 C 10.96875 -16.5 12.375 -16.160156 13.59375 -15.484375 C 14.8125 -14.804688 15.75 -13.832031 16.40625 -12.5625 C 17.070312 -11.300781 17.40625 -9.828125 17.40625 -8.140625 Z M 6.90625 -8.140625 C 6.90625 -6.742188 7.09375 -5.679688 7.46875 -4.953125 C 7.84375 -4.222656 8.46875 -3.859375 9.34375 -3.859375 C 10.207031 -3.859375 10.816406 -4.222656 11.171875 -4.953125 C 11.535156 -5.679688 11.71875 -6.742188 11.71875 -8.140625 C 11.71875 -9.523438 11.535156 -10.566406 11.171875 -11.265625 C 10.804688 -11.972656 10.1875 -12.328125 9.3125 -12.328125 C 8.457031 -12.328125 7.84375 -11.976562 7.46875 -11.28125 C 7.09375 -10.582031 6.90625 -9.535156 6.90625 -8.140625 Z M 5.953125 -17.75 L 5.953125 -18.171875 C 7.421875 -19.742188 8.351562 -20.757812 8.75 -21.21875 C 9.144531 -21.675781 9.46875 -22.082031 9.71875 -22.4375 L 15.84375 -22.4375 L 15.84375 -22.140625 C 15.082031 -21.535156 14.035156 -20.757812 12.703125 -19.8125 C 11.367188 -18.863281 10.359375 -18.175781 9.671875 -17.75 Z M 5.953125 -17.75 "/></g></g></g><g fill="#ffffff" fill-opacity="1"><g transform="translate(172.913737, 367.207471)"><g><path d="M 12.15625 0 L 12.15625 -8.84375 C 12.15625 -9.914062 12 -10.726562 11.6875 -11.28125 C 11.382812 -11.832031 10.890625 -12.109375 10.203125 -12.109375 C 9.253906 -12.109375 8.570312 -11.726562 8.15625 -10.96875 C 7.738281 -10.21875 7.53125 -8.925781 7.53125 -7.09375 L 7.53125 0 L 1.9375 0 L 1.9375 -16.203125 L 6.15625 -16.203125 L 6.859375 -14.203125 L 7.1875 -14.203125 C 7.65625 -14.960938 8.3125 -15.535156 9.15625 -15.921875 C 10 -16.304688 10.972656 -16.5 12.078125 -16.5 C 13.867188 -16.5 15.257812 -15.976562 16.25 -14.9375 C 17.25 -13.894531 17.75 -12.429688 17.75 -10.546875 L 17.75 0 Z M 12.15625 0 "/></g></g></g><g fill="#ffffff" fill-opacity="1"><g transform="translate(192.532503, 367.207471)"><g/></g></g><g fill="#ffffff" fill-opacity="1"><g transform="translate(200.139779, 367.207471)"><g><path d="M 14.671875 0 L 2.265625 0 L 2.265625 -20.921875 L 14.671875 -20.921875 L 14.671875 -16.375 L 7.90625 -16.375 L 7.90625 -13.09375 L 14.171875 -13.09375 L 14.171875 -8.546875 L 7.90625 -8.546875 L 7.90625 -4.609375 L 14.671875 -4.609375 Z M 14.671875 0 "/></g></g></g><g fill="#ffffff" fill-opacity="1"><g transform="translate(216.212295, 367.207471)"><g><path d="M 12.15625 0 L 12.15625 -8.84375 C 12.15625 -9.914062 12 -10.726562 11.6875 -11.28125 C 11.382812 -11.832031 10.890625 -12.109375 10.203125 -12.109375 C 9.253906 -12.109375 8.570312 -11.726562 8.15625 -10.96875 C 7.738281 -10.21875 7.53125 -8.925781 7.53125 -7.09375 L 7.53125 0 L 1.9375 0 L 1.9375 -16.203125 L 6.15625 -16.203125 L 6.859375 -14.203125 L 7.1875 -14.203125 C 7.65625 -14.960938 8.3125 -15.535156 9.15625 -15.921875 C 10 -16.304688 10.972656 -16.5 12.078125 -16.5 C 13.867188 -16.5 15.257812 -15.976562 16.25 -14.9375 C 17.25 -13.894531 17.75 -12.429688 17.75 -10.546875 L 17.75 0 Z M 12.15625 0 "/></g></g></g><g fill="#ffffff" fill-opacity="1"><g transform="translate(235.83106, 367.207471)"><g><path d="M 9.75 0.28125 C 7.050781 0.28125 4.957031 -0.429688 3.46875 -1.859375 C 1.976562 -3.296875 1.234375 -5.34375 1.234375 -8 C 1.234375 -10.738281 1.921875 -12.835938 3.296875 -14.296875 C 4.679688 -15.765625 6.660156 -16.5 9.234375 -16.5 C 11.671875 -16.5 13.550781 -15.859375 14.875 -14.578125 C 16.207031 -13.304688 16.875 -11.472656 16.875 -9.078125 L 16.875 -6.59375 L 6.875 -6.59375 C 6.914062 -5.6875 7.25 -4.972656 7.875 -4.453125 C 8.5 -3.941406 9.347656 -3.6875 10.421875 -3.6875 C 11.410156 -3.6875 12.316406 -3.78125 13.140625 -3.96875 C 13.960938 -4.15625 14.859375 -4.472656 15.828125 -4.921875 L 15.828125 -0.90625 C 14.941406 -0.457031 14.03125 -0.148438 13.09375 0.015625 C 12.164062 0.191406 11.050781 0.28125 9.75 0.28125 Z M 9.421875 -12.6875 C 8.765625 -12.6875 8.210938 -12.476562 7.765625 -12.0625 C 7.328125 -11.644531 7.070312 -10.992188 7 -10.109375 L 11.796875 -10.109375 C 11.773438 -10.890625 11.550781 -11.515625 11.125 -11.984375 C 10.707031 -12.453125 10.140625 -12.6875 9.421875 -12.6875 Z M 9.421875 -12.6875 "/></g></g></g><g fill="#ffffff" fill-opacity="1"><g transform="translate(253.934101, 367.207471)"><g><path d="M 11.71875 -16.5 C 12.207031 -16.5 12.671875 -16.457031 13.109375 -16.375 L 13.421875 -16.328125 L 12.921875 -11.046875 C 12.460938 -11.160156 11.828125 -11.21875 11.015625 -11.21875 C 9.796875 -11.21875 8.910156 -10.9375 8.359375 -10.375 C 7.804688 -9.820312 7.53125 -9.019531 7.53125 -7.96875 L 7.53125 0 L 1.9375 0 L 1.9375 -16.203125 L 6.09375 -16.203125 L 6.96875 -13.625 L 7.234375 -13.625 C 7.703125 -14.476562 8.351562 -15.171875 9.1875 -15.703125 C 10.019531 -16.234375 10.863281 -16.5 11.71875 -16.5 Z M 11.71875 -16.5 "/></g></g></g><g fill="#ffffff" fill-opacity="1"><g transform="translate(267.675822, 367.207471)"><g><path d="M 17.21875 -16.203125 L 17.21875 -13.5 L 15 -12.6875 C 15.3125 -12.132812 15.46875 -11.488281 15.46875 -10.75 C 15.46875 -9.007812 14.851562 -7.65625 13.625 -6.6875 C 12.394531 -5.726562 10.566406 -5.25 8.140625 -5.25 C 7.535156 -5.25 7.054688 -5.285156 6.703125 -5.359375 C 6.578125 -5.117188 6.515625 -4.882812 6.515625 -4.65625 C 6.515625 -4.382812 6.738281 -4.175781 7.1875 -4.03125 C 7.632812 -3.882812 8.21875 -3.8125 8.9375 -3.8125 L 11.625 -3.8125 C 15.257812 -3.8125 17.078125 -2.28125 17.078125 0.78125 C 17.078125 2.757812 16.234375 4.296875 14.546875 5.390625 C 12.867188 6.484375 10.507812 7.03125 7.46875 7.03125 C 5.164062 7.03125 3.390625 6.644531 2.140625 5.875 C 0.898438 5.113281 0.28125 4.015625 0.28125 2.578125 C 0.28125 0.640625 1.484375 -0.609375 3.890625 -1.171875 C 3.390625 -1.378906 2.957031 -1.71875 2.59375 -2.1875 C 2.226562 -2.65625 2.046875 -3.117188 2.046875 -3.578125 C 2.046875 -4.078125 2.179688 -4.519531 2.453125 -4.90625 C 2.734375 -5.300781 3.3125 -5.765625 4.1875 -6.296875 C 3.351562 -6.671875 2.691406 -7.253906 2.203125 -8.046875 C 1.722656 -8.835938 1.484375 -9.796875 1.484375 -10.921875 C 1.484375 -12.691406 2.082031 -14.0625 3.28125 -15.03125 C 4.488281 -16.007812 6.207031 -16.5 8.4375 -16.5 C 8.738281 -16.5 9.25 -16.460938 9.96875 -16.390625 C 10.695312 -16.328125 11.234375 -16.265625 11.578125 -16.203125 Z M 5 2.015625 C 5 2.472656 5.25 2.84375 5.75 3.125 C 6.25 3.40625 6.910156 3.546875 7.734375 3.546875 C 9.085938 3.546875 10.171875 3.375 10.984375 3.03125 C 11.804688 2.695312 12.21875 2.265625 12.21875 1.734375 C 12.21875 1.304688 11.96875 1.003906 11.46875 0.828125 C 10.976562 0.648438 10.269531 0.5625 9.34375 0.5625 L 7.15625 0.5625 C 6.550781 0.5625 6.039062 0.703125 5.625 0.984375 C 5.207031 1.265625 5 1.609375 5 2.015625 Z M 6.765625 -10.90625 C 6.765625 -9.238281 7.34375 -8.40625 8.5 -8.40625 C 9.03125 -8.40625 9.441406 -8.609375 9.734375 -9.015625 C 10.023438 -9.429688 10.171875 -10.050781 10.171875 -10.875 C 10.171875 -12.550781 9.613281 -13.390625 8.5 -13.390625 C 7.34375 -13.390625 6.765625 -12.5625 6.765625 -10.90625 Z M 6.765625 -10.90625 "/></g></g></g><g fill="#ffffff" fill-opacity="1"><g transform="translate(285.421373, 367.207471)"><g><path d="M 7.546875 0 L 1.953125 0 L 1.953125 -16.203125 L 7.546875 -16.203125 Z M 1.53125 -17.75 L 1.53125 -18.171875 C 3 -19.742188 3.929688 -20.757812 4.328125 -21.21875 C 4.722656 -21.675781 5.046875 -22.082031 5.296875 -22.4375 L 11.421875 -22.4375 L 11.421875 -22.140625 C 10.660156 -21.535156 9.613281 -20.757812 8.28125 -19.8125 C 6.945312 -18.863281 5.9375 -18.175781 5.25 -17.75 Z M 1.53125 -17.75 "/></g></g></g><g fill="#ffffff" fill-opacity="1"><g transform="translate(294.944779, 367.207471)"><g><path d="M 12.5 0 L 11.4375 -2.140625 L 11.3125 -2.140625 C 10.5625 -1.210938 9.796875 -0.578125 9.015625 -0.234375 C 8.234375 0.109375 7.222656 0.28125 5.984375 0.28125 C 4.453125 0.28125 3.25 -0.171875 2.375 -1.078125 C 1.5 -1.992188 1.0625 -3.285156 1.0625 -4.953125 C 1.0625 -6.671875 1.660156 -7.953125 2.859375 -8.796875 C 4.054688 -9.648438 5.796875 -10.128906 8.078125 -10.234375 L 10.78125 -10.3125 L 10.78125 -10.546875 C 10.78125 -11.878906 10.125 -12.546875 8.8125 -12.546875 C 7.625 -12.546875 6.125 -12.144531 4.3125 -11.34375 L 2.6875 -15.03125 C 4.570312 -16.007812 6.957031 -16.5 9.84375 -16.5 C 11.914062 -16.5 13.519531 -15.984375 14.65625 -14.953125 C 15.800781 -13.921875 16.375 -12.476562 16.375 -10.625 L 16.375 0 Z M 8.359375 -3.65625 C 9.035156 -3.65625 9.613281 -3.867188 10.09375 -4.296875 C 10.570312 -4.734375 10.8125 -5.296875 10.8125 -5.984375 L 10.8125 -7.234375 L 9.53125 -7.1875 C 7.6875 -7.113281 6.765625 -6.4375 6.765625 -5.15625 C 6.765625 -4.15625 7.296875 -3.65625 8.359375 -3.65625 Z M 8.359375 -3.65625 "/></g></g></g><g fill="#ffffff" fill-opacity="1"><g transform="translate(313.190803, 367.207471)"><g/></g></g><g fill="#ffffff" fill-opacity="1"><g transform="translate(320.798079, 367.207471)"><g><path d="M 6.1875 0 L 0 -16.203125 L 5.84375 -16.203125 L 8.578125 -6.625 C 8.585938 -6.570312 8.609375 -6.488281 8.640625 -6.375 C 8.671875 -6.257812 8.695312 -6.125 8.71875 -5.96875 C 8.75 -5.8125 8.773438 -5.644531 8.796875 -5.46875 C 8.828125 -5.289062 8.84375 -5.128906 8.84375 -4.984375 L 8.9375 -4.984375 C 8.9375 -5.472656 9.023438 -6.007812 9.203125 -6.59375 L 12.078125 -16.203125 L 17.890625 -16.203125 L 11.71875 0 Z M 6.1875 0 "/></g></g></g><g fill="#ffffff" fill-opacity="1"><g transform="translate(338.686612, 367.207471)"><g><path d="M 12.890625 -21.21875 L 5.09375 0.28125 L 0.140625 0.28125 L 7.9375 -21.21875 Z M 12.890625 -21.21875 "/></g></g></g><g fill="#ffffff" fill-opacity="1"><g transform="translate(351.627567, 367.207471)"><g><path d="M 14.453125 -4.984375 C 14.453125 -3.242188 13.859375 -1.929688 12.671875 -1.046875 C 11.492188 -0.160156 9.796875 0.28125 7.578125 0.28125 C 6.378906 0.28125 5.335938 0.21875 4.453125 0.09375 C 3.566406 -0.03125 2.660156 -0.265625 1.734375 -0.609375 L 1.734375 -5.09375 C 2.597656 -4.707031 3.546875 -4.390625 4.578125 -4.140625 C 5.617188 -3.898438 6.546875 -3.78125 7.359375 -3.78125 C 8.566406 -3.78125 9.171875 -4.054688 9.171875 -4.609375 C 9.171875 -4.890625 9 -5.140625 8.65625 -5.359375 C 8.320312 -5.585938 7.335938 -6.03125 5.703125 -6.6875 C 4.210938 -7.289062 3.171875 -7.976562 2.578125 -8.75 C 1.992188 -9.53125 1.703125 -10.519531 1.703125 -11.71875 C 1.703125 -13.21875 2.28125 -14.390625 3.4375 -15.234375 C 4.601562 -16.078125 6.25 -16.5 8.375 -16.5 C 9.445312 -16.5 10.453125 -16.378906 11.390625 -16.140625 C 12.328125 -15.910156 13.300781 -15.570312 14.3125 -15.125 L 12.796875 -11.515625 C 12.054688 -11.847656 11.269531 -12.128906 10.4375 -12.359375 C 9.613281 -12.597656 8.9375 -12.71875 8.40625 -12.71875 C 7.488281 -12.71875 7.03125 -12.492188 7.03125 -12.046875 C 7.03125 -11.765625 7.191406 -11.523438 7.515625 -11.328125 C 7.835938 -11.140625 8.757812 -10.742188 10.28125 -10.140625 C 11.414062 -9.671875 12.257812 -9.210938 12.8125 -8.765625 C 13.375 -8.316406 13.785156 -7.789062 14.046875 -7.1875 C 14.316406 -6.582031 14.453125 -5.847656 14.453125 -4.984375 Z M 14.453125 -4.984375 "/></g></g></g><g fill="#ffffff" fill-opacity="1"><g transform="translate(367.242503, 367.207471)"><g/></g></g><g fill="#ffffff" fill-opacity="1"><g transform="translate(374.849779, 367.207471)"><g><path d="M 20.046875 -20.921875 L 20.046875 -8.328125 C 20.046875 -5.585938 19.269531 -3.46875 17.71875 -1.96875 C 16.164062 -0.46875 13.929688 0.28125 11.015625 0.28125 C 8.160156 0.28125 5.96875 -0.445312 4.4375 -1.90625 C 2.90625 -3.363281 2.140625 -5.460938 2.140625 -8.203125 L 2.140625 -20.921875 L 7.828125 -20.921875 L 7.828125 -8.640625 C 7.828125 -7.160156 8.101562 -6.085938 8.65625 -5.421875 C 9.207031 -4.753906 10.019531 -4.421875 11.09375 -4.421875 C 12.25 -4.421875 13.085938 -4.75 13.609375 -5.40625 C 14.128906 -6.070312 14.390625 -7.160156 14.390625 -8.671875 L 14.390625 -20.921875 Z M 20.046875 -20.921875 "/></g></g></g><g fill="#ffffff" fill-opacity="1"><g transform="translate(397.013848, 367.207471)"><g><path d="M 14.453125 -4.984375 C 14.453125 -3.242188 13.859375 -1.929688 12.671875 -1.046875 C 11.492188 -0.160156 9.796875 0.28125 7.578125 0.28125 C 6.378906 0.28125 5.335938 0.21875 4.453125 0.09375 C 3.566406 -0.03125 2.660156 -0.265625 1.734375 -0.609375 L 1.734375 -5.09375 C 2.597656 -4.707031 3.546875 -4.390625 4.578125 -4.140625 C 5.617188 -3.898438 6.546875 -3.78125 7.359375 -3.78125 C 8.566406 -3.78125 9.171875 -4.054688 9.171875 -4.609375 C 9.171875 -4.890625 9 -5.140625 8.65625 -5.359375 C 8.320312 -5.585938 7.335938 -6.03125 5.703125 -6.6875 C 4.210938 -7.289062 3.171875 -7.976562 2.578125 -8.75 C 1.992188 -9.53125 1.703125 -10.519531 1.703125 -11.71875 C 1.703125 -13.21875 2.28125 -14.390625 3.4375 -15.234375 C 4.601562 -16.078125 6.25 -16.5 8.375 -16.5 C 9.445312 -16.5 10.453125 -16.378906 11.390625 -16.140625 C 12.328125 -15.910156 13.300781 -15.570312 14.3125 -15.125 L 12.796875 -11.515625 C 12.054688 -11.847656 11.269531 -12.128906 10.4375 -12.359375 C 9.613281 -12.597656 8.9375 -12.71875 8.40625 -12.71875 C 7.488281 -12.71875 7.03125 -12.492188 7.03125 -12.046875 C 7.03125 -11.765625 7.191406 -11.523438 7.515625 -11.328125 C 7.835938 -11.140625 8.757812 -10.742188 10.28125 -10.140625 C 11.414062 -9.671875 12.257812 -9.210938 12.8125 -8.765625 C 13.375 -8.316406 13.785156 -7.789062 14.046875 -7.1875 C 14.316406 -6.582031 14.453125 -5.847656 14.453125 -4.984375 Z M 14.453125 -4.984375 "/></g></g></g><g fill="#ffffff" fill-opacity="1"><g transform="translate(412.62876, 367.207471)"><g><path d="M 17.40625 -8.140625 C 17.40625 -5.484375 16.691406 -3.414062 15.265625 -1.9375 C 13.835938 -0.457031 11.84375 0.28125 9.28125 0.28125 C 6.820312 0.28125 4.863281 -0.472656 3.40625 -1.984375 C 1.957031 -3.503906 1.234375 -5.554688 1.234375 -8.140625 C 1.234375 -10.785156 1.941406 -12.835938 3.359375 -14.296875 C 4.785156 -15.765625 6.789062 -16.5 9.375 -16.5 C 10.96875 -16.5 12.375 -16.160156 13.59375 -15.484375 C 14.8125 -14.804688 15.75 -13.832031 16.40625 -12.5625 C 17.070312 -11.300781 17.40625 -9.828125 17.40625 -8.140625 Z M 6.90625 -8.140625 C 6.90625 -6.742188 7.09375 -5.679688 7.46875 -4.953125 C 7.84375 -4.222656 8.46875 -3.859375 9.34375 -3.859375 C 10.207031 -3.859375 10.816406 -4.222656 11.171875 -4.953125 C 11.535156 -5.679688 11.71875 -6.742188 11.71875 -8.140625 C 11.71875 -9.523438 11.535156 -10.566406 11.171875 -11.265625 C 10.804688 -11.972656 10.1875 -12.328125 9.3125 -12.328125 C 8.457031 -12.328125 7.84375 -11.976562 7.46875 -11.28125 C 7.09375 -10.582031 6.90625 -9.535156 6.90625 -8.140625 Z M 6.90625 -8.140625 "/></g></g></g><g fill="#ffffff" fill-opacity="1"><g transform="translate(431.289495, 367.207471)"><g/></g></g><g fill="#ffffff" fill-opacity="1"><g transform="translate(438.896794, 367.207471)"><g><path d="M 14.671875 0 L 2.265625 0 L 2.265625 -20.921875 L 14.671875 -20.921875 L 14.671875 -16.375 L 7.90625 -16.375 L 7.90625 -13.09375 L 14.171875 -13.09375 L 14.171875 -8.546875 L 7.90625 -8.546875 L 7.90625 -4.609375 L 14.671875 -4.609375 Z M 14.671875 0 "/></g></g></g><g fill="#ffffff" fill-opacity="1"><g transform="translate(454.969333, 367.207471)"><g><path d="M 12.15625 0 L 12.15625 -8.84375 C 12.15625 -9.914062 12 -10.726562 11.6875 -11.28125 C 11.382812 -11.832031 10.890625 -12.109375 10.203125 -12.109375 C 9.253906 -12.109375 8.570312 -11.726562 8.15625 -10.96875 C 7.738281 -10.21875 7.53125 -8.925781 7.53125 -7.09375 L 7.53125 0 L 1.9375 0 L 1.9375 -16.203125 L 6.15625 -16.203125 L 6.859375 -14.203125 L 7.1875 -14.203125 C 7.65625 -14.960938 8.3125 -15.535156 9.15625 -15.921875 C 10 -16.304688 10.972656 -16.5 12.078125 -16.5 C 13.867188 -16.5 15.257812 -15.976562 16.25 -14.9375 C 17.25 -13.894531 17.75 -12.429688 17.75 -10.546875 L 17.75 0 Z M 12.15625 0 "/></g></g></g><g fill="#ffffff" fill-opacity="1"><g transform="translate(474.588075, 367.207471)"><g><path d="M 9.75 0.28125 C 7.050781 0.28125 4.957031 -0.429688 3.46875 -1.859375 C 1.976562 -3.296875 1.234375 -5.34375 1.234375 -8 C 1.234375 -10.738281 1.921875 -12.835938 3.296875 -14.296875 C 4.679688 -15.765625 6.660156 -16.5 9.234375 -16.5 C 11.671875 -16.5 13.550781 -15.859375 14.875 -14.578125 C 16.207031 -13.304688 16.875 -11.472656 16.875 -9.078125 L 16.875 -6.59375 L 6.875 -6.59375 C 6.914062 -5.6875 7.25 -4.972656 7.875 -4.453125 C 8.5 -3.941406 9.347656 -3.6875 10.421875 -3.6875 C 11.410156 -3.6875 12.316406 -3.78125 13.140625 -3.96875 C 13.960938 -4.15625 14.859375 -4.472656 15.828125 -4.921875 L 15.828125 -0.90625 C 14.941406 -0.457031 14.03125 -0.148438 13.09375 0.015625 C 12.164062 0.191406 11.050781 0.28125 9.75 0.28125 Z M 9.421875 -12.6875 C 8.765625 -12.6875 8.210938 -12.476562 7.765625 -12.0625 C 7.328125 -11.644531 7.070312 -10.992188 7 -10.109375 L 11.796875 -10.109375 C 11.773438 -10.890625 11.550781 -11.515625 11.125 -11.984375 C 10.707031 -12.453125 10.140625 -12.6875 9.421875 -12.6875 Z M 9.421875 -12.6875 "/></g></g></g><g fill="#ffffff" fill-opacity="1"><g transform="translate(492.691116, 367.207471)"><g><path d="M 11.71875 -16.5 C 12.207031 -16.5 12.671875 -16.457031 13.109375 -16.375 L 13.421875 -16.328125 L 12.921875 -11.046875 C 12.460938 -11.160156 11.828125 -11.21875 11.015625 -11.21875 C 9.796875 -11.21875 8.910156 -10.9375 8.359375 -10.375 C 7.804688 -9.820312 7.53125 -9.019531 7.53125 -7.96875 L 7.53125 0 L 1.9375 0 L 1.9375 -16.203125 L 6.09375 -16.203125 L 6.96875 -13.625 L 7.234375 -13.625 C 7.703125 -14.476562 8.351562 -15.171875 9.1875 -15.703125 C 10.019531 -16.234375 10.863281 -16.5 11.71875 -16.5 Z M 11.71875 -16.5 "/></g></g></g><g fill="#ffffff" fill-opacity="1"><g transform="translate(506.43286, 367.207471)"><g><path d="M 17.21875 -16.203125 L 17.21875 -13.5 L 15 -12.6875 C 15.3125 -12.132812 15.46875 -11.488281 15.46875 -10.75 C 15.46875 -9.007812 14.851562 -7.65625 13.625 -6.6875 C 12.394531 -5.726562 10.566406 -5.25 8.140625 -5.25 C 7.535156 -5.25 7.054688 -5.285156 6.703125 -5.359375 C 6.578125 -5.117188 6.515625 -4.882812 6.515625 -4.65625 C 6.515625 -4.382812 6.738281 -4.175781 7.1875 -4.03125 C 7.632812 -3.882812 8.21875 -3.8125 8.9375 -3.8125 L 11.625 -3.8125 C 15.257812 -3.8125 17.078125 -2.28125 17.078125 0.78125 C 17.078125 2.757812 16.234375 4.296875 14.546875 5.390625 C 12.867188 6.484375 10.507812 7.03125 7.46875 7.03125 C 5.164062 7.03125 3.390625 6.644531 2.140625 5.875 C 0.898438 5.113281 0.28125 4.015625 0.28125 2.578125 C 0.28125 0.640625 1.484375 -0.609375 3.890625 -1.171875 C 3.390625 -1.378906 2.957031 -1.71875 2.59375 -2.1875 C 2.226562 -2.65625 2.046875 -3.117188 2.046875 -3.578125 C 2.046875 -4.078125 2.179688 -4.519531 2.453125 -4.90625 C 2.734375 -5.300781 3.3125 -5.765625 4.1875 -6.296875 C 3.351562 -6.671875 2.691406 -7.253906 2.203125 -8.046875 C 1.722656 -8.835938 1.484375 -9.796875 1.484375 -10.921875 C 1.484375 -12.691406 2.082031 -14.0625 3.28125 -15.03125 C 4.488281 -16.007812 6.207031 -16.5 8.4375 -16.5 C 8.738281 -16.5 9.25 -16.460938 9.96875 -16.390625 C 10.695312 -16.328125 11.234375 -16.265625 11.578125 -16.203125 Z M 5 2.015625 C 5 2.472656 5.25 2.84375 5.75 3.125 C 6.25 3.40625 6.910156 3.546875 7.734375 3.546875 C 9.085938 3.546875 10.171875 3.375 10.984375 3.03125 C 11.804688 2.695312 12.21875 2.265625 12.21875 1.734375 C 12.21875 1.304688 11.96875 1.003906 11.46875 0.828125 C 10.976562 0.648438 10.269531 0.5625 9.34375 0.5625 L 7.15625 0.5625 C 6.550781 0.5625 6.039062 0.703125 5.625 0.984375 C 5.207031 1.265625 5 1.609375 5 2.015625 Z M 6.765625 -10.90625 C 6.765625 -9.238281 7.34375 -8.40625 8.5 -8.40625 C 9.03125 -8.40625 9.441406 -8.609375 9.734375 -9.015625 C 10.023438 -9.429688 10.171875 -10.050781 10.171875 -10.875 C 10.171875 -12.550781 9.613281 -13.390625 8.5 -13.390625 C 7.34375 -13.390625 6.765625 -12.5625 6.765625 -10.90625 Z M 6.765625 -10.90625 "/></g></g></g><g fill="#ffffff" fill-opacity="1"><g transform="translate(524.178434, 367.207471)"><g><path d="M 7.546875 0 L 1.953125 0 L 1.953125 -16.203125 L 7.546875 -16.203125 Z M 1.53125 -17.75 L 1.53125 -18.171875 C 3 -19.742188 3.929688 -20.757812 4.328125 -21.21875 C 4.722656 -21.675781 5.046875 -22.082031 5.296875 -22.4375 L 11.421875 -22.4375 L 11.421875 -22.140625 C 10.660156 -21.535156 9.613281 -20.757812 8.28125 -19.8125 C 6.945312 -18.863281 5.9375 -18.175781 5.25 -17.75 Z M 1.53125 -17.75 "/></g></g></g><g fill="#ffffff" fill-opacity="1"><g transform="translate(533.701841, 367.207471)"><g><path d="M 12.5 0 L 11.4375 -2.140625 L 11.3125 -2.140625 C 10.5625 -1.210938 9.796875 -0.578125 9.015625 -0.234375 C 8.234375 0.109375 7.222656 0.28125 5.984375 0.28125 C 4.453125 0.28125 3.25 -0.171875 2.375 -1.078125 C 1.5 -1.992188 1.0625 -3.285156 1.0625 -4.953125 C 1.0625 -6.671875 1.660156 -7.953125 2.859375 -8.796875 C 4.054688 -9.648438 5.796875 -10.128906 8.078125 -10.234375 L 10.78125 -10.3125 L 10.78125 -10.546875 C 10.78125 -11.878906 10.125 -12.546875 8.8125 -12.546875 C 7.625 -12.546875 6.125 -12.144531 4.3125 -11.34375 L 2.6875 -15.03125 C 4.570312 -16.007812 6.957031 -16.5 9.84375 -16.5 C 11.914062 -16.5 13.519531 -15.984375 14.65625 -14.953125 C 15.800781 -13.921875 16.375 -12.476562 16.375 -10.625 L 16.375 0 Z M 8.359375 -3.65625 C 9.035156 -3.65625 9.613281 -3.867188 10.09375 -4.296875 C 10.570312 -4.734375 10.8125 -5.296875 10.8125 -5.984375 L 10.8125 -7.234375 L 9.53125 -7.1875 C 7.6875 -7.113281 6.765625 -6.4375 6.765625 -5.15625 C 6.765625 -4.15625 7.296875 -3.65625 8.359375 -3.65625 Z M 8.359375 -3.65625 "/></g></g></g></svg>